<svg xmlns="http://www.w3.org/2000/svg" xmlns:xlink="http://www.w3.org/1999/xlink" width="2560" zoomAndPan="magnify" viewBox="0 0 1920 1079.999946" height="1440" preserveAspectRatio="xMidYMid meet" version="1.0"><defs><clipPath id="95a4058953"><path d="M 135.902344 89.320312 L 1785 89.320312 L 1785 990.679688 L 135.902344 990.679688 Z M 135.902344 89.320312 " clip-rule="nonzero"/></clipPath><clipPath id="bf0bee79dc"><path d="M 161.402344 89.320312 L 1758.597656 89.320312 C 1765.359375 89.320312 1771.847656 92.007812 1776.628906 96.789062 C 1781.410156 101.574219 1784.097656 108.058594 1784.097656 114.820312 L 1784.097656 965.179688 C 1784.097656 971.941406 1781.410156 978.425781 1776.628906 983.210938 C 1771.847656 987.992188 1765.359375 990.679688 1758.597656 990.679688 L 161.402344 990.679688 C 154.640625 990.679688 148.152344 987.992188 143.371094 983.210938 C 138.589844 978.425781 135.902344 971.941406 135.902344 965.179688 L 135.902344 114.820312 C 135.902344 108.058594 138.589844 101.574219 143.371094 96.789062 C 148.152344 92.007812 154.640625 89.320312 161.402344 89.320312 Z M 161.402344 89.320312 " clip-rule="nonzero"/></clipPath><clipPath id="7d9c12e40b"><path d="M 0.902344 0.320312 L 1649 0.320312 L 1649 901.679688 L 0.902344 901.679688 Z M 0.902344 0.320312 " clip-rule="nonzero"/></clipPath><clipPath id="d3ec525a63"><path d="M 26.402344 0.320312 L 1623.597656 0.320312 C 1630.359375 0.320312 1636.847656 3.007812 1641.628906 7.789062 C 1646.410156 12.574219 1649.097656 19.058594 1649.097656 25.820312 L 1649.097656 876.179688 C 1649.097656 882.941406 1646.410156 889.425781 1641.628906 894.210938 C 1636.847656 898.992188 1630.359375 901.679688 1623.597656 901.679688 L 26.402344 901.679688 C 19.640625 901.679688 13.152344 898.992188 8.371094 894.210938 C 3.589844 889.425781 0.902344 882.941406 0.902344 876.179688 L 0.902344 25.820312 C 0.902344 19.058594 3.589844 12.574219 8.371094 7.789062 C 13.152344 3.007812 19.640625 0.320312 26.402344 0.320312 Z M 26.402344 0.320312 " clip-rule="nonzero"/></clipPath><clipPath id="0adef3dfcb"><rect x="0" width="1650" y="0" height="902"/></clipPath><clipPath id="6849a6f087"><path d="M 585.566406 248.289062 L 1334.066406 248.289062 L 1334.066406 831.789062 L 585.566406 831.789062 Z M 585.566406 248.289062 " clip-rule="nonzero"/></clipPath><clipPath id="273d0b6725"><path d="M 664 248.289062 L 809 248.289062 L 809 442 L 664 442 Z M 664 248.289062 " clip-rule="nonzero"/></clipPath><clipPath id="b37582a770"><path d="M 1081 248.289062 L 1226 248.289062 L 1226 442 L 1081 442 Z M 1081 248.289062 " clip-rule="nonzero"/></clipPath></defs><g clip-path="url(#95a4058953)"><g clip-path="url(#bf0bee79dc)"><g transform="matrix(1, 0, 0, 1, 135, 89)"><g clip-path="url(#0adef3dfcb)"><g clip-path="url(#7d9c12e40b)"><g clip-path="url(#d3ec525a63)"><path fill="#f15e3d" d="M 0.902344 0.320312 L 1648.695312 0.320312 L 1648.695312 901.679688 L 0.902344 901.679688 Z M 0.902344 0.320312 " fill-opacity="1" fill-rule="nonzero"/></g></g></g></g></g></g><g clip-path="url(#6849a6f087)"><path fill="#000000" d="M 944.992188 -0.992188 C 1241.785156 -0.992188 1482.742188 239.964844 1482.742188 536.757812 C 1482.742188 833.546875 1241.785156 1074.507812 944.992188 1074.507812 C 648.199219 1074.507812 407.242188 833.546875 407.242188 536.757812 C 407.242188 239.964844 648.199219 -0.992188 944.992188 -0.992188 Z M 944.992188 44.96875 C 673.566406 44.96875 453.203125 265.332031 453.203125 536.757812 C 453.203125 808.179688 673.566406 1028.542969 944.992188 1028.542969 C 1216.417969 1028.542969 1436.78125 808.179688 1436.78125 536.757812 C 1436.78125 265.332031 1216.417969 44.96875 944.992188 44.96875 Z M 944.992188 44.96875 " fill-opacity="1" fill-rule="evenodd"/></g><g clip-path="url(#273d0b6725)"><path fill="#000000" d="M 736.527344 248.398438 C 753.625 248.398438 769.746094 256.039062 782.566406 270.078125 C 798.03125 287.011719 808.746094 314.109375 808.746094 344.914062 C 808.746094 375.722656 798.03125 402.820312 782.566406 419.753906 C 769.746094 433.792969 753.625 441.433594 736.527344 441.433594 C 719.425781 441.433594 703.300781 433.792969 690.484375 419.753906 C 675.019531 402.820312 664.304688 375.722656 664.304688 344.914062 C 664.304688 314.109375 675.019531 287.011719 690.484375 270.078125 C 703.300781 256.039062 719.425781 248.398438 736.527344 248.398438 Z M 736.527344 294.359375 C 730.089844 294.359375 725.03125 299.410156 720.808594 305.710938 C 714.105469 315.726562 710.265625 329.644531 710.265625 344.914062 C 710.265625 360.183594 714.105469 374.105469 720.808594 384.121094 C 725.03125 390.421875 730.089844 395.472656 736.527344 395.472656 C 742.960938 395.472656 748.019531 390.421875 752.238281 384.121094 C 758.945312 374.105469 762.78125 360.183594 762.78125 344.914062 C 762.78125 329.644531 758.945312 315.726562 752.238281 305.710938 C 748.019531 299.410156 742.960938 294.359375 736.527344 294.359375 Z M 736.527344 294.359375 " fill-opacity="1" fill-rule="evenodd"/></g><g clip-path="url(#b37582a770)"><path fill="#000000" d="M 1153.457031 248.398438 C 1170.554688 248.398438 1186.679688 256.039062 1199.5 270.078125 C 1214.964844 287.011719 1225.675781 314.109375 1225.675781 344.914062 C 1225.675781 375.722656 1214.964844 402.820312 1199.5 419.753906 C 1186.679688 433.792969 1170.554688 441.433594 1153.457031 441.433594 C 1136.359375 441.433594 1120.234375 433.792969 1107.414062 419.753906 C 1091.953125 402.820312 1081.238281 375.722656 1081.238281 344.914062 C 1081.238281 314.109375 1091.953125 287.011719 1107.414062 270.078125 C 1120.234375 256.039062 1136.359375 248.398438 1153.457031 248.398438 Z M 1153.457031 294.359375 C 1147.023438 294.359375 1141.964844 299.410156 1137.742188 305.710938 C 1131.035156 315.726562 1127.199219 329.644531 1127.199219 344.914062 C 1127.199219 360.183594 1131.035156 374.105469 1137.742188 384.121094 C 1141.964844 390.421875 1147.023438 395.472656 1153.457031 395.472656 C 1159.890625 395.472656 1164.953125 390.421875 1169.171875 384.121094 C 1175.878906 374.105469 1179.714844 360.183594 1179.714844 344.914062 C 1179.714844 329.644531 1175.878906 315.726562 1169.171875 305.710938 C 1164.953125 299.410156 1159.890625 294.359375 1153.457031 294.359375 Z M 1153.457031 294.359375 " fill-opacity="1" fill-rule="evenodd"/></g><path fill="#000000" d="M 1255.265625 785.761719 C 1264.304688 794.660156 1264.417969 809.222656 1255.515625 818.261719 C 1246.617188 827.296875 1232.054688 827.410156 1223.019531 818.511719 C 1131.792969 728.683594 1040.292969 682.164062 947.476562 681.875 C 854.554688 681.585938 761.335938 727.605469 666.777344 818.6875 C 657.644531 827.484375 643.082031 827.214844 634.285156 818.078125 C 625.484375 808.945312 625.757812 794.382812 634.890625 785.585938 C 739.878906 684.457031 844.449219 635.59375 947.617188 635.914062 C 1050.890625 636.234375 1153.769531 685.816406 1255.265625 785.761719 Z M 1255.265625 785.761719 " fill-opacity="1" fill-rule="evenodd"/><path fill="#000000" d="M 1238.582031 450.347656 C 1238.582031 450.347656 1272.585938 496.160156 1293.007812 537.371094 C 1303.285156 558.101562 1309.804688 578.105469 1309.804688 592.210938 C 1309.804688 641.695312 1269.625 681.875 1220.136719 681.875 C 1170.652344 681.875 1130.472656 641.695312 1130.472656 592.210938 C 1130.472656 578.105469 1136.992188 558.101562 1147.269531 537.371094 C 1167.691406 496.160156 1201.695312 450.347656 1201.695312 450.347656 C 1206.03125 444.515625 1212.871094 441.078125 1220.136719 441.078125 C 1227.40625 441.078125 1234.246094 444.515625 1238.582031 450.347656 Z M 1220.140625 504.191406 C 1210.03125 519.371094 1197.714844 539.085938 1188.449219 557.777344 C 1181.917969 570.960938 1176.4375 583.242188 1176.4375 592.210938 C 1176.4375 616.332031 1196.019531 635.914062 1220.140625 635.914062 C 1244.257812 635.914062 1263.839844 616.332031 1263.839844 592.210938 C 1263.839844 583.242188 1258.359375 570.960938 1251.828125 557.777344 C 1242.5625 539.085938 1230.246094 519.371094 1220.140625 504.191406 Z M 1220.140625 504.191406 " fill-opacity="1" fill-rule="evenodd"/></svg>