<svg xmlns="http://www.w3.org/2000/svg" xmlns:xlink="http://www.w3.org/1999/xlink" width="2560" zoomAndPan="magnify" viewBox="0 0 1920 1079.999946" height="1440" preserveAspectRatio="xMidYMid meet" version="1.0"><defs><clipPath id="c135e5a37d"><path d="M 108 74 L 1812 74 L 1812 1005.9375 L 108 1005.9375 Z M 108 74 " clip-rule="nonzero"/></clipPath><clipPath id="9af6e070a1"><path d="M 133.5 74.0625 L 1786.5 74.0625 C 1800.582031 74.0625 1812 85.480469 1812 99.5625 L 1812 980.4375 C 1812 994.519531 1800.582031 1005.9375 1786.5 1005.9375 L 133.5 1005.9375 C 119.417969 1005.9375 108 994.519531 108 980.4375 L 108 99.5625 C 108 85.480469 119.417969 74.0625 133.5 74.0625 Z M 133.5 74.0625 " clip-rule="nonzero"/></clipPath><clipPath id="0e814f6161"><path d="M 0 0 L 1704 0 L 1704 931.9375 L 0 931.9375 Z M 0 0 " clip-rule="nonzero"/></clipPath><clipPath id="2025bda65e"><path d="M 25.5 0.0625 L 1678.5 0.0625 C 1692.582031 0.0625 1704 11.480469 1704 25.5625 L 1704 906.4375 C 1704 920.519531 1692.582031 931.9375 1678.5 931.9375 L 25.5 931.9375 C 11.417969 931.9375 0 920.519531 0 906.4375 L 0 25.5625 C 0 11.480469 11.417969 0.0625 25.5 0.0625 Z M 25.5 0.0625 " clip-rule="nonzero"/></clipPath><clipPath id="6425f0a976"><rect x="0" width="1704" y="0" height="932"/></clipPath></defs><g clip-path="url(#c135e5a37d)"><g clip-path="url(#9af6e070a1)"><g transform="matrix(1, 0, 0, 1, 108, 74)"><g clip-path="url(#6425f0a976)"><g clip-path="url(#0e814f6161)"><g clip-path="url(#2025bda65e)"><path fill="#f15e3d" d="M 0 0.0625 L 1703.582031 0.0625 L 1703.582031 931.9375 L 0 931.9375 Z M 0 0.0625 " fill-opacity="1" fill-rule="nonzero"/></g></g></g></g></g></g><path fill="#000000" d="M 1036.628906 528.867188 C 1027.058594 437.847656 975.839844 358.207031 899.527344 308.300781 C 820.371094 256.585938 705.773438 238.746094 624.289062 295.632812 C 552.632812 345.796875 521.847656 448.191406 575.914062 522.144531 C 629.980469 596.355469 730.605469 620.144531 808.730469 659.191406 C 916.859375 713.234375 1015.417969 785.375 1100.523438 870.964844 C 1111.90625 882.601562 1130.011719 864.5 1118.371094 853.121094 C 1048.269531 783.824219 969.628906 723.574219 884.523438 674.1875 C 842.875 649.882812 799.933594 628.417969 755.699219 609.285156 C 717.929688 592.996094 679.386719 576.964844 644.984375 554.207031 C 611.871094 532.230469 583.15625 501.71875 574.363281 461.898438 C 565.566406 422.074219 579.535156 379.152344 604.371094 347.605469 C 664.125 272.617188 775.875 272.359375 856.328125 311.148438 C 941.949219 352.519531 1005.84375 437.847656 1025.765625 530.417969 C 1027.316406 536.367188 1037.40625 535.074219 1036.628906 528.867188 Z M 1036.628906 528.867188 " fill-opacity="1" fill-rule="nonzero"/><path fill="#000000" d="M 1000.15625 512.058594 C 992.394531 415.351562 979.203125 310.371094 1033.785156 224.007812 C 1056.03125 188.839844 1088.882812 159.105469 1129.238281 147.46875 C 1168.558594 136.089844 1211.238281 142.554688 1247.195312 161.171875 C 1327.90625 202.804688 1359.207031 297.441406 1342.390625 383.546875 C 1325.320312 471.980469 1264.269531 539.46875 1203.738281 602.042969 C 1168.816406 638.246094 1132.859375 673.671875 1102.851562 714.527344 C 1086.8125 736.246094 1072.84375 759.519531 1061.203125 784.082031 C 1050.339844 807.355469 1040.769531 832.4375 1040.769531 858.292969 C 1040.769531 865.015625 1051.375 868.894531 1054.476562 861.914062 C 1064.824219 838.902344 1072.585938 814.851562 1083.710938 792.097656 C 1095.351562 768.566406 1109.578125 746.070312 1125.097656 724.867188 C 1154.070312 685.304688 1189.511719 651.175781 1223.398438 616.007812 C 1287.550781 549.296875 1353.257812 474.824219 1366.191406 379.667969 C 1378.347656 289.941406 1343.945312 195.5625 1262.460938 150.054688 C 1226.761719 129.882812 1184.855469 120.574219 1144.5 127.039062 C 1102.59375 133.503906 1065.34375 157.8125 1038.441406 190.132812 C 963.164062 280.632812 973.25 405.007812 990.582031 513.613281 C 991.359375 518.785156 1000.414062 517.492188 1000.15625 512.058594 Z M 1000.15625 512.058594 " fill-opacity="1" fill-rule="nonzero"/></svg>