<svg xmlns="http://www.w3.org/2000/svg" xmlns:xlink="http://www.w3.org/1999/xlink" width="2560" zoomAndPan="magnify" viewBox="0 0 1920 1079.999946" height="1440" preserveAspectRatio="xMidYMid meet" version="1.0"><defs><clipPath id="6814bbc9fa"><path d="M 205.390625 127.324219 L 1715 127.324219 L 1715 952.675781 L 205.390625 952.675781 Z M 205.390625 127.324219 " clip-rule="nonzero"/></clipPath><clipPath id="514480d525"><path d="M 230.890625 127.324219 L 1689.105469 127.324219 C 1695.871094 127.324219 1702.355469 130.011719 1707.136719 134.792969 C 1711.921875 139.574219 1714.605469 146.0625 1714.605469 152.824219 L 1714.605469 927.175781 C 1714.605469 933.9375 1711.921875 940.425781 1707.136719 945.207031 C 1702.355469 949.988281 1695.871094 952.675781 1689.105469 952.675781 L 230.890625 952.675781 C 224.128906 952.675781 217.644531 949.988281 212.863281 945.207031 C 208.078125 940.425781 205.390625 933.9375 205.390625 927.175781 L 205.390625 152.824219 C 205.390625 146.0625 208.078125 139.574219 212.863281 134.792969 C 217.644531 130.011719 224.128906 127.324219 230.890625 127.324219 Z M 230.890625 127.324219 " clip-rule="nonzero"/></clipPath><clipPath id="af47f2e6cd"><path d="M 0.390625 0.324219 L 1509.800781 0.324219 L 1509.800781 825.675781 L 0.390625 825.675781 Z M 0.390625 0.324219 " clip-rule="nonzero"/></clipPath><clipPath id="4b72dd5f65"><path d="M 25.890625 0.324219 L 1484.105469 0.324219 C 1490.871094 0.324219 1497.355469 3.011719 1502.136719 7.792969 C 1506.921875 12.574219 1509.605469 19.0625 1509.605469 25.824219 L 1509.605469 800.175781 C 1509.605469 806.9375 1506.921875 813.425781 1502.136719 818.207031 C 1497.355469 822.988281 1490.871094 825.675781 1484.105469 825.675781 L 25.890625 825.675781 C 19.128906 825.675781 12.644531 822.988281 7.863281 818.207031 C 3.078125 813.425781 0.390625 806.9375 0.390625 800.175781 L 0.390625 25.824219 C 0.390625 19.0625 3.078125 12.574219 7.863281 7.792969 C 12.644531 3.011719 19.128906 0.324219 25.890625 0.324219 Z M 25.890625 0.324219 " clip-rule="nonzero"/></clipPath><clipPath id="177769d6c7"><rect x="0" width="1510" y="0" height="826"/></clipPath><clipPath id="2cc8f17015"><path d="M 511.210938 508 L 1356 508 L 1356 907 L 511.210938 907 Z M 511.210938 508 " clip-rule="nonzero"/></clipPath></defs><g clip-path="url(#6814bbc9fa)"><g clip-path="url(#514480d525)"><g transform="matrix(1, 0, 0, 1, 205, 127)"><g clip-path="url(#177769d6c7)"><g clip-path="url(#af47f2e6cd)"><g clip-path="url(#4b72dd5f65)"><path fill="#f15e3d" d="M 0.390625 0.324219 L 1509.238281 0.324219 L 1509.238281 825.675781 L 0.390625 825.675781 Z M 0.390625 0.324219 " fill-opacity="1" fill-rule="nonzero"/></g></g></g></g></g></g><path fill="#000000" d="M 769.558594 197.683594 C 765.382812 218.546875 768.164062 241.914062 768.164062 263.332031 C 768.445312 285.863281 769.277344 307.835938 771.226562 330.089844 C 773.175781 351.507812 809.632812 354.566406 814.082031 333.148438 C 819.371094 308.949219 821.875 286.417969 821.320312 261.941406 C 820.484375 238.019531 819.648438 212.148438 810.464844 189.894531 C 806.847656 181.273438 795.714844 176.542969 787.089844 178.214844 C 777.070312 180.160156 771.503906 188.226562 769.558594 197.683594 Z M 769.558594 197.683594 " fill-opacity="1" fill-rule="nonzero"/><path fill="#000000" d="M 1072.0625 190.453125 C 1063.714844 207.140625 1067.054688 231.898438 1067.886719 250.257812 C 1068.722656 271.675781 1071.226562 291.425781 1076.792969 312.007812 C 1084.308594 340.101562 1119.929688 335.929688 1125.496094 309.226562 C 1130.226562 286.972656 1130.503906 266.667969 1128 244.136719 C 1125.773438 223.832031 1123.824219 199.632812 1110.746094 182.941406 C 1099.058594 168.199219 1079.019531 176.265625 1072.0625 190.453125 Z M 1072.0625 190.453125 " fill-opacity="1" fill-rule="nonzero"/><g clip-path="url(#2cc8f17015)"><path fill="#000000" d="M 534.953125 901.15625 C 554.15625 873.898438 566.125 841.351562 584.214844 812.980469 C 602.300781 784.328125 622.617188 756.511719 644.882812 730.921875 C 687.738281 681.964844 739.78125 639.960938 797.109375 609.363281 C 864.457031 573.480469 940.152344 552.0625 1016.683594 564.023438 C 1083.75 574.59375 1146.644531 610.476562 1193.675781 658.878906 C 1221.785156 687.804688 1244.882812 720.628906 1263.527344 756.511719 C 1282.453125 793.230469 1295.53125 831.894531 1311.117188 870.003906 C 1321.691406 895.871094 1357.871094 879.738281 1355.085938 854.980469 C 1346.738281 776.820312 1303.324219 699.210938 1252.117188 641.074219 C 1200.914062 582.660156 1131.894531 537.320312 1056.199219 518.683594 C 898.683594 479.742188 733.933594 561.800781 628.738281 676.679688 C 600.355469 707.554688 574.75 740.65625 554.992188 777.652344 C 536.066406 812.421875 513.804688 853.035156 511.855469 893.089844 C 511.300781 905.609375 527.71875 911.449219 534.953125 901.15625 Z M 534.953125 901.15625 " fill-opacity="1" fill-rule="nonzero"/></g></svg>