<svg xmlns="http://www.w3.org/2000/svg" xmlns:xlink="http://www.w3.org/1999/xlink" width="2560" zoomAndPan="magnify" viewBox="0 0 1920 1079.999946" height="1440" preserveAspectRatio="xMidYMid meet" version="1.0"><defs><clipPath id="80537dbde3"><path d="M 175.53125 113.988281 L 1745 113.988281 L 1745 972 L 175.53125 972 Z M 175.53125 113.988281 " clip-rule="nonzero"/></clipPath><clipPath id="69b17f34c5"><path d="M 201.03125 113.988281 L 1718.96875 113.988281 C 1725.730469 113.988281 1732.214844 116.675781 1737 121.457031 C 1741.78125 126.238281 1744.46875 132.726562 1744.46875 139.488281 L 1744.46875 946.5 C 1744.46875 953.261719 1741.78125 959.75 1737 964.53125 C 1732.214844 969.3125 1725.730469 972 1718.96875 972 L 201.03125 972 C 194.269531 972 187.78125 969.3125 183 964.53125 C 178.21875 959.75 175.53125 953.261719 175.53125 946.5 L 175.53125 139.488281 C 175.53125 132.726562 178.21875 126.238281 183 121.457031 C 187.78125 116.675781 194.269531 113.988281 201.03125 113.988281 Z M 201.03125 113.988281 " clip-rule="nonzero"/></clipPath><clipPath id="f13e74e2b5"><path d="M 0.53125 0.988281 L 1569.558594 0.988281 L 1569.558594 859 L 0.53125 859 Z M 0.53125 0.988281 " clip-rule="nonzero"/></clipPath><clipPath id="214baf4282"><path d="M 26.03125 0.988281 L 1543.96875 0.988281 C 1550.730469 0.988281 1557.214844 3.675781 1562 8.457031 C 1566.78125 13.238281 1569.46875 19.726562 1569.46875 26.488281 L 1569.46875 833.5 C 1569.46875 840.261719 1566.78125 846.75 1562 851.53125 C 1557.214844 856.3125 1550.730469 859 1543.96875 859 L 26.03125 859 C 19.269531 859 12.78125 856.3125 8 851.53125 C 3.21875 846.75 0.53125 840.261719 0.53125 833.5 L 0.53125 26.488281 C 0.53125 19.726562 3.21875 13.238281 8 8.457031 C 12.78125 3.675781 19.269531 0.988281 26.03125 0.988281 Z M 26.03125 0.988281 " clip-rule="nonzero"/></clipPath><clipPath id="baac446be0"><rect x="0" width="1570" y="0" height="859"/></clipPath><clipPath id="43d24defa9"><path d="M 532.039062 121.132812 L 1387.789062 121.132812 L 1387.789062 906.382812 L 532.039062 906.382812 Z M 532.039062 121.132812 " clip-rule="nonzero"/></clipPath></defs><g clip-path="url(#80537dbde3)"><g clip-path="url(#69b17f34c5)"><g transform="matrix(1, 0, 0, 1, 175, 113)"><g clip-path="url(#baac446be0)"><g clip-path="url(#f13e74e2b5)"><g clip-path="url(#214baf4282)"><path fill="#f15e3d" d="M 0.53125 0.988281 L 1569.085938 0.988281 L 1569.085938 859 L 0.53125 859 Z M 0.53125 0.988281 " fill-opacity="1" fill-rule="nonzero"/></g></g></g></g></g></g><g clip-path="url(#43d24defa9)"><path fill="#050505" d="M 967.839844 -154.898438 C 1335.480469 -154.113281 1630.796875 140.582031 1629.667969 506.246094 C 1628.441406 902.074219 1303.253906 1164.664062 964.324219 1161.988281 C 600.082031 1159.109375 307.589844 867.019531 307.554688 503.78125 C 307.519531 137.402344 606.304688 -152.664062 967.839844 -154.898438 Z M 971.148438 1121.914062 C 1261.375 1125.707031 1587.335938 899.386719 1590.238281 505.691406 C 1592.757812 164.453125 1313.710938 -114.539062 971.65625 -115.605469 C 627.15625 -116.675781 348.035156 159.824219 347.28125 502.914062 C 346.523438 848.058594 621.640625 1121.03125 971.148438 1121.914062 Z M 971.148438 1121.914062 " fill-opacity="1" fill-rule="evenodd"/></g><path fill="#050506" d="M 968.976562 684.152344 C 1074.433594 687.835938 1162.679688 725.464844 1224.464844 814.78125 C 1230.25 823.140625 1235.136719 832.292969 1239.234375 841.609375 C 1243.707031 851.773438 1239.625 860.15625 1230.082031 864.925781 C 1220.898438 869.519531 1211.976562 868.75 1205.296875 859.675781 C 1203.917969 857.808594 1202.710938 855.792969 1201.59375 853.757812 C 1160.488281 778.808594 1094.09375 740.34375 1012.464844 727.589844 C 921.960938 713.449219 841.757812 737.394531 775.21875 802.03125 C 759.734375 817.070312 747.679688 834.75 737.660156 853.867188 C 730.710938 867.121094 720.308594 871.460938 709.496094 866.0625 C 698.832031 860.746094 695.488281 849.253906 702.128906 836.21875 C 732.464844 776.703125 780.761719 736.683594 841.144531 710.507812 C 881.75 692.910156 924.292969 683.605469 968.976562 684.152344 Z M 968.976562 684.152344 " fill-opacity="1" fill-rule="evenodd"/><path fill="#030303" d="M 631.824219 317.042969 C 610.855469 317.273438 591.304688 322.488281 572.449219 331.230469 C 568.734375 332.953125 563.871094 338.402344 560.210938 333.074219 C 557.28125 328.808594 562.101562 324.546875 564.886719 320.945312 C 577.085938 305.175781 593.683594 295.65625 612.484375 291.03125 C 667.253906 277.550781 718.117188 288.21875 763.511719 320.796875 C 793.757812 342.507812 802.960938 382.320312 788.757812 416.066406 C 774.863281 449.089844 743.449219 467.753906 708.4375 463.800781 C 660.910156 458.433594 630.90625 408.0625 645.742188 358.605469 C 648.839844 348.269531 653.421875 338.601562 659.484375 329.753906 C 663.667969 323.648438 662.765625 320.640625 655.339844 319.800781 C 647.496094 318.917969 639.660156 317.964844 631.824219 317.042969 Z M 631.824219 317.042969 " fill-opacity="1" fill-rule="evenodd"/><path fill="#030303" d="M 1143.789062 385.078125 C 1144.371094 356.800781 1153.972656 332.695312 1178.796875 317.503906 C 1223.175781 290.351562 1270.8125 277.773438 1322.785156 290.011719 C 1342.738281 294.707031 1360.125 304.335938 1372.609375 321.203125 C 1375.195312 324.695312 1380.027344 329.011719 1376.515625 333.3125 C 1373.109375 337.484375 1368.832031 332.449219 1365.417969 330.863281 C 1339.3125 318.707031 1312.203125 315.085938 1283.777344 319.617188 C 1275.160156 320.992188 1272.292969 322.058594 1278.714844 331.003906 C 1295.640625 354.582031 1300.796875 381.015625 1292.71875 409.242188 C 1281.988281 446.722656 1247.46875 469.089844 1209.441406 463.722656 C 1171.949219 458.441406 1144.171875 425.171875 1143.789062 385.078125 Z M 1143.789062 385.078125 " fill-opacity="1" fill-rule="evenodd"/><path fill="#050505" d="M 600.894531 171.164062 C 616.78125 172.109375 631.9375 176.5625 646.910156 181.785156 C 701.203125 200.734375 747.757812 233.410156 794.746094 265.285156 C 823.644531 284.894531 852.289062 304.878906 881.011719 324.746094 C 894.066406 333.78125 897.601562 343.832031 891.460938 353.941406 C 884.953125 364.652344 873.203125 366.386719 859.773438 357.382812 C 817.632812 329.121094 775.9375 300.199219 733.714844 272.066406 C 691.351562 243.835938 647.339844 218.933594 596.414062 209.285156 C 584.394531 207.011719 578.316406 199.507812 580.085938 187.421875 C 581.746094 176.097656 589.242188 170.617188 600.894531 171.164062 Z M 600.894531 171.164062 " fill-opacity="1" fill-rule="evenodd"/><path fill="#050506" d="M 1335.472656 171.800781 C 1348.6875 171.253906 1355.855469 175.828125 1358.160156 185.738281 C 1360.574219 196.144531 1356.453125 205.917969 1346.3125 208.15625 C 1243.546875 230.867188 1166.898438 300.222656 1082.160156 355.117188 C 1079.425781 356.886719 1076.757812 358.785156 1073.90625 360.335938 C 1065.101562 365.132812 1056.691406 364.710938 1049.898438 356.925781 C 1042.824219 348.820312 1043.03125 339.960938 1049.28125 331.359375 C 1050.894531 329.140625 1052.96875 327.054688 1055.253906 325.554688 C 1115.539062 285.960938 1172.136719 240.722656 1236.304688 207.078125 C 1263.980469 192.5625 1292.417969 179.96875 1323.257812 173.71875 C 1328.261719 172.703125 1333.359375 172.128906 1335.472656 171.800781 Z M 1335.472656 171.800781 " fill-opacity="1" fill-rule="evenodd"/></svg>