<svg xmlns="http://www.w3.org/2000/svg" xmlns:xlink="http://www.w3.org/1999/xlink" width="2560" zoomAndPan="magnify" viewBox="0 0 1920 1079.999946" height="1440" preserveAspectRatio="xMidYMid meet" version="1.0"><defs><clipPath id="c33f986d15"><path d="M 192.359375 132.390625 L 1728 132.390625 L 1728 972 L 192.359375 972 Z M 192.359375 132.390625 " clip-rule="nonzero"/></clipPath><clipPath id="5a89b585d3"><path d="M 217.859375 132.390625 L 1702.140625 132.390625 C 1716.222656 132.390625 1727.640625 143.808594 1727.640625 157.890625 L 1727.640625 946.5 C 1727.640625 960.582031 1716.222656 972 1702.140625 972 L 217.859375 972 C 203.777344 972 192.359375 960.582031 192.359375 946.5 L 192.359375 157.890625 C 192.359375 143.808594 203.777344 132.390625 217.859375 132.390625 Z M 217.859375 132.390625 " clip-rule="nonzero"/></clipPath><clipPath id="efad409dba"><path d="M 0.359375 0.390625 L 1535.761719 0.390625 L 1535.761719 840 L 0.359375 840 Z M 0.359375 0.390625 " clip-rule="nonzero"/></clipPath><clipPath id="3d0dd9960b"><path d="M 25.859375 0.390625 L 1510.140625 0.390625 C 1524.222656 0.390625 1535.640625 11.808594 1535.640625 25.890625 L 1535.640625 814.5 C 1535.640625 828.582031 1524.222656 840 1510.140625 840 L 25.859375 840 C 11.777344 840 0.359375 828.582031 0.359375 814.5 L 0.359375 25.890625 C 0.359375 11.808594 11.777344 0.390625 25.859375 0.390625 Z M 25.859375 0.390625 " clip-rule="nonzero"/></clipPath><clipPath id="30d4fb0585"><rect x="0" width="1536" y="0" height="840"/></clipPath><clipPath id="897eaaea83"><path d="M 529.566406 197.035156 L 1390.566406 197.035156 L 1390.566406 971.785156 L 529.566406 971.785156 Z M 529.566406 197.035156 " clip-rule="nonzero"/></clipPath><clipPath id="4d1f2db9e8"><path d="M 564 197.035156 L 811 197.035156 L 811 374 L 564 374 Z M 564 197.035156 " clip-rule="nonzero"/></clipPath><clipPath id="a2f165cb76"><path d="M 1116 197.035156 L 1364 197.035156 L 1364 374 L 1116 374 Z M 1116 197.035156 " clip-rule="nonzero"/></clipPath></defs><g clip-path="url(#c33f986d15)"><g clip-path="url(#5a89b585d3)"><g transform="matrix(1, 0, 0, 1, 192, 132)"><g clip-path="url(#30d4fb0585)"><g clip-path="url(#efad409dba)"><g clip-path="url(#3d0dd9960b)"><path fill="#f15e3d" d="M 0.359375 0.390625 L 1535.265625 0.390625 L 1535.265625 840 L 0.359375 840 Z M 0.359375 0.390625 " fill-opacity="1" fill-rule="nonzero"/></g></g></g></g></g></g><g clip-path="url(#897eaaea83)"><path fill="#000000" d="M 964.054688 -56.382812 C 953.496094 -56.382812 942.949219 -56.121094 932.40625 -55.605469 C 921.863281 -55.085938 911.335938 -54.3125 900.832031 -53.277344 C 890.328125 -52.242188 879.855469 -50.949219 869.414062 -49.402344 C 858.972656 -47.851562 848.574219 -46.046875 838.21875 -43.988281 C 827.867188 -41.929688 817.570312 -39.617188 807.332031 -37.050781 C 797.089844 -34.488281 786.921875 -31.671875 776.820312 -28.609375 C 766.71875 -25.542969 756.699219 -22.234375 746.757812 -18.675781 C 736.820312 -15.121094 726.976562 -11.324219 717.222656 -7.285156 C 707.46875 -3.246094 697.824219 1.03125 688.28125 5.546875 C 678.738281 10.058594 669.3125 14.804688 660.003906 19.777344 C 650.691406 24.753906 641.511719 29.957031 632.457031 35.382812 C 623.402344 40.808594 614.488281 46.457031 605.710938 52.320312 C 596.933594 58.183594 588.304688 64.261719 579.828125 70.550781 C 571.347656 76.835938 563.03125 83.328125 554.871094 90.027344 C 546.710938 96.722656 538.71875 103.617188 530.898438 110.703125 C 523.078125 117.792969 515.433594 125.070312 507.96875 132.535156 C 500.503906 140 493.230469 147.640625 486.140625 155.460938 C 479.050781 163.285156 472.160156 171.273438 465.460938 179.433594 C 458.765625 187.59375 452.273438 195.914062 445.984375 204.390625 C 439.695312 212.871094 433.621094 221.5 427.753906 230.273438 C 421.890625 239.050781 416.246094 247.96875 410.820312 257.023438 C 405.390625 266.074219 400.191406 275.257812 395.214844 284.566406 C 390.238281 293.875 385.492188 303.304688 380.980469 312.84375 C 376.46875 322.386719 372.191406 332.035156 368.152344 341.789062 C 364.113281 351.539062 360.3125 361.386719 356.757812 371.324219 C 353.203125 381.261719 349.890625 391.285156 346.828125 401.382812 C 343.761719 411.484375 340.949219 421.65625 338.382812 431.894531 C 335.820312 442.136719 333.507812 452.433594 331.445312 462.785156 C 329.386719 473.136719 327.582031 483.535156 326.035156 493.976562 C 324.484375 504.417969 323.195312 514.890625 322.160156 525.398438 C 321.125 535.902344 320.347656 546.425781 319.832031 556.96875 C 319.3125 567.511719 319.054688 578.0625 319.054688 588.617188 C 319.054688 599.175781 319.3125 609.722656 319.832031 620.265625 C 320.347656 630.808594 321.125 641.335938 322.160156 651.839844 C 323.195312 662.34375 324.484375 672.816406 326.035156 683.257812 C 327.582031 693.699219 329.386719 704.097656 331.445312 714.453125 C 333.507812 724.804688 335.820312 735.101562 338.382812 745.339844 C 340.949219 755.578125 343.761719 765.75 346.828125 775.851562 C 349.890625 785.953125 353.203125 795.972656 356.757812 805.914062 C 360.3125 815.851562 364.113281 825.695312 368.152344 835.449219 C 372.191406 845.203125 376.46875 854.847656 380.980469 864.390625 C 385.492188 873.933594 390.238281 883.359375 395.214844 892.667969 C 400.191406 901.976562 405.390625 911.160156 410.820312 920.214844 C 416.246094 929.269531 421.890625 938.183594 427.753906 946.960938 C 433.621094 955.738281 439.695312 964.367188 445.984375 972.84375 C 452.273438 981.324219 458.765625 989.640625 465.460938 997.800781 C 472.160156 1005.960938 479.050781 1013.953125 486.140625 1021.773438 C 493.230469 1029.59375 500.503906 1037.238281 507.96875 1044.703125 C 515.433594 1052.167969 523.078125 1059.441406 530.898438 1066.53125 C 538.71875 1073.621094 546.710938 1080.511719 554.871094 1087.210938 C 563.03125 1093.90625 571.347656 1100.398438 579.828125 1106.6875 C 588.304688 1112.976562 596.933594 1119.050781 605.710938 1124.914062 C 614.488281 1130.78125 623.402344 1136.425781 632.457031 1141.851562 C 641.511719 1147.28125 650.691406 1152.480469 660.003906 1157.457031 C 669.3125 1162.433594 678.738281 1167.179688 688.28125 1171.691406 C 697.824219 1176.203125 707.46875 1180.480469 717.222656 1184.519531 C 726.976562 1188.558594 736.820312 1192.359375 746.757812 1195.914062 C 756.699219 1199.46875 766.71875 1202.78125 776.820312 1205.84375 C 786.921875 1208.910156 797.089844 1211.722656 807.332031 1214.289062 C 817.570312 1216.851562 827.867188 1219.164062 838.21875 1221.226562 C 848.574219 1223.285156 858.96875 1225.089844 869.414062 1226.636719 C 879.855469 1228.1875 890.328125 1229.476562 900.832031 1230.511719 C 911.335938 1231.546875 921.863281 1232.324219 932.40625 1232.839844 C 942.949219 1233.359375 953.496094 1233.617188 964.054688 1233.617188 C 974.609375 1233.617188 985.160156 1233.359375 995.703125 1232.839844 C 1006.246094 1232.324219 1016.769531 1231.546875 1027.273438 1230.511719 C 1037.78125 1229.476562 1048.253906 1228.1875 1058.695312 1226.636719 C 1069.136719 1225.089844 1079.535156 1223.285156 1089.886719 1221.226562 C 1100.238281 1219.164062 1110.535156 1216.851562 1120.777344 1214.289062 C 1131.015625 1211.722656 1141.1875 1208.910156 1151.285156 1205.84375 C 1161.386719 1202.78125 1171.410156 1199.46875 1181.347656 1195.914062 C 1191.285156 1192.359375 1201.132812 1188.558594 1210.882812 1184.519531 C 1220.636719 1180.480469 1230.285156 1176.203125 1239.828125 1171.691406 C 1249.367188 1167.179688 1258.792969 1162.433594 1268.105469 1157.457031 C 1277.414062 1152.480469 1286.59375 1147.28125 1295.648438 1141.851562 C 1304.703125 1136.425781 1313.621094 1130.78125 1322.394531 1124.914062 C 1331.171875 1119.050781 1339.800781 1112.976562 1348.28125 1106.6875 C 1356.757812 1100.398438 1365.078125 1093.90625 1373.238281 1087.210938 C 1381.398438 1080.511719 1389.386719 1073.621094 1397.210938 1066.53125 C 1405.03125 1059.441406 1412.671875 1052.167969 1420.136719 1044.703125 C 1427.601562 1037.238281 1434.878906 1029.59375 1441.96875 1021.773438 C 1449.054688 1013.953125 1455.949219 1005.960938 1462.644531 997.800781 C 1469.34375 989.640625 1475.835938 981.324219 1482.121094 972.84375 C 1488.410156 964.367188 1494.488281 955.738281 1500.351562 946.960938 C 1506.214844 938.183594 1511.863281 929.269531 1517.289062 920.214844 C 1522.714844 911.160156 1527.917969 901.976562 1532.894531 892.667969 C 1537.867188 883.359375 1542.613281 873.933594 1547.125 864.390625 C 1551.640625 854.847656 1555.917969 845.203125 1559.957031 835.449219 C 1563.996094 825.695312 1567.792969 815.851562 1571.347656 805.910156 C 1574.90625 795.972656 1578.214844 785.953125 1581.28125 775.851562 C 1584.34375 765.75 1587.160156 755.578125 1589.722656 745.339844 C 1592.289062 735.101562 1594.601562 724.804688 1596.660156 714.453125 C 1598.71875 704.097656 1600.523438 693.699219 1602.074219 683.257812 C 1603.621094 672.816406 1604.914062 662.34375 1605.949219 651.839844 C 1606.980469 641.335938 1607.757812 630.808594 1608.277344 620.265625 C 1608.792969 609.722656 1609.054688 599.175781 1609.054688 588.617188 C 1609.042969 578.066406 1608.769531 567.519531 1608.242188 556.980469 C 1607.710938 546.441406 1606.925781 535.921875 1605.878906 525.421875 C 1604.835938 514.917969 1603.535156 504.449219 1601.976562 494.011719 C 1600.417969 483.578125 1598.605469 473.183594 1596.539062 462.835938 C 1594.46875 452.488281 1592.152344 442.195312 1589.578125 431.960938 C 1587.007812 421.726562 1584.183594 411.5625 1581.113281 401.464844 C 1578.042969 391.371094 1574.726562 381.355469 1571.167969 371.421875 C 1567.605469 361.488281 1563.804688 351.648438 1559.757812 341.902344 C 1555.714844 332.15625 1551.433594 322.511719 1546.917969 312.976562 C 1542.402344 303.4375 1537.652344 294.015625 1532.675781 284.710938 C 1527.695312 275.410156 1522.492188 266.230469 1517.066406 257.183594 C 1511.636719 248.132812 1505.992188 239.222656 1500.125 230.449219 C 1494.261719 221.675781 1488.183594 213.054688 1481.894531 204.578125 C 1475.605469 196.105469 1469.117188 187.789062 1462.417969 179.632812 C 1455.722656 171.476562 1448.832031 163.488281 1441.746094 155.671875 C 1434.660156 147.851562 1427.382812 140.210938 1419.921875 132.75 C 1412.460938 125.289062 1404.820312 118.011719 1397 110.925781 C 1389.183594 103.839844 1381.195312 96.949219 1373.039062 90.25 C 1364.882812 83.554688 1356.566406 77.0625 1348.09375 70.777344 C 1339.617188 64.488281 1330.996094 58.410156 1322.222656 52.546875 C 1313.449219 46.679688 1304.539062 41.035156 1295.488281 35.605469 C 1286.441406 30.179688 1277.261719 24.972656 1267.957031 19.996094 C 1258.65625 15.015625 1249.234375 10.269531 1239.695312 5.753906 C 1230.160156 1.238281 1220.515625 -3.042969 1210.769531 -7.085938 C 1201.023438 -11.132812 1191.183594 -14.933594 1181.25 -18.496094 C 1171.316406 -22.058594 1161.300781 -25.371094 1151.203125 -28.441406 C 1141.109375 -31.511719 1130.945312 -34.335938 1120.710938 -36.90625 C 1110.476562 -39.480469 1100.183594 -41.800781 1089.835938 -43.867188 C 1079.488281 -45.933594 1069.09375 -47.746094 1058.65625 -49.304688 C 1048.222656 -50.863281 1037.753906 -52.164062 1027.25 -53.210938 C 1016.75 -54.253906 1006.230469 -55.042969 995.691406 -55.570312 C 985.152344 -56.097656 974.605469 -56.371094 964.054688 -56.382812 Z M 964.054688 1172.191406 C 954.503906 1172.191406 944.957031 1171.957031 935.417969 1171.488281 C 925.878906 1171.019531 916.359375 1170.316406 906.855469 1169.378906 C 897.347656 1168.441406 887.871094 1167.273438 878.425781 1165.875 C 868.980469 1164.472656 859.570312 1162.839844 850.203125 1160.976562 C 840.835938 1159.113281 831.523438 1157.019531 822.257812 1154.699219 C 812.992188 1152.378906 803.792969 1149.832031 794.652344 1147.0625 C 785.511719 1144.289062 776.445312 1141.292969 767.453125 1138.078125 C 758.460938 1134.859375 749.554688 1131.421875 740.730469 1127.769531 C 731.90625 1124.113281 723.179688 1120.242188 714.542969 1116.160156 C 705.910156 1112.078125 697.382812 1107.785156 688.960938 1103.28125 C 680.535156 1098.78125 672.230469 1094.074219 664.039062 1089.164062 C 655.847656 1084.253906 647.78125 1079.144531 639.839844 1073.839844 C 631.898438 1068.535156 624.089844 1063.035156 616.421875 1057.347656 C 608.75 1051.65625 601.222656 1045.785156 593.839844 1039.726562 C 586.457031 1033.667969 579.226562 1027.429688 572.152344 1021.015625 C 565.074219 1014.601562 558.160156 1008.019531 551.40625 1001.265625 C 544.652344 994.511719 538.070312 987.597656 531.65625 980.519531 C 525.242188 973.445312 519.003906 966.214844 512.945312 958.832031 C 506.886719 951.449219 501.015625 943.921875 495.324219 936.25 C 489.636719 928.578125 484.136719 920.773438 478.832031 912.832031 C 473.527344 904.890625 468.417969 896.824219 463.507812 888.632812 C 458.597656 880.441406 453.890625 872.132812 449.390625 863.710938 C 444.886719 855.289062 440.59375 846.761719 436.511719 838.125 C 432.429688 829.492188 428.558594 820.765625 424.902344 811.941406 C 421.25 803.117188 417.8125 794.210938 414.59375 785.21875 C 411.378906 776.226562 408.382812 767.160156 405.609375 758.019531 C 402.839844 748.878906 400.292969 739.679688 397.972656 730.414062 C 395.652344 721.148438 393.558594 711.835938 391.695312 702.46875 C 389.832031 693.101562 388.199219 683.691406 386.796875 674.246094 C 385.398438 664.796875 384.226562 655.324219 383.292969 645.816406 C 382.355469 636.3125 381.652344 626.792969 381.183594 617.253906 C 380.714844 607.714844 380.480469 598.167969 380.480469 588.617188 C 380.480469 579.066406 380.714844 569.523438 381.183594 559.984375 C 381.652344 550.445312 382.355469 540.921875 383.292969 531.417969 C 384.226562 521.914062 385.398438 512.4375 386.796875 502.992188 C 388.199219 493.542969 389.832031 484.136719 391.695312 474.769531 C 393.558594 465.402344 395.652344 456.085938 397.972656 446.820312 C 400.292969 437.558594 402.839844 428.355469 405.609375 419.214844 C 408.382812 410.078125 411.378906 401.011719 414.59375 392.019531 C 417.8125 383.027344 421.25 374.117188 424.902344 365.296875 C 428.558594 356.472656 432.429688 347.742188 436.511719 339.109375 C 440.59375 330.476562 444.886719 321.949219 449.390625 313.523438 C 453.890625 305.101562 458.597656 296.792969 463.507812 288.601562 C 468.417969 280.410156 473.527344 272.34375 478.832031 264.402344 C 484.136719 256.460938 489.636719 248.65625 495.324219 240.984375 C 501.015625 233.3125 506.886719 225.785156 512.945312 218.40625 C 519.003906 211.023438 525.242188 203.792969 531.65625 196.714844 C 538.070312 189.640625 544.652344 182.722656 551.40625 175.972656 C 558.160156 169.21875 565.074219 162.632812 572.152344 156.21875 C 579.226562 149.804688 586.457031 143.570312 593.839844 137.511719 C 601.222656 131.453125 608.75 125.578125 616.421875 119.890625 C 624.089844 114.199219 631.898438 108.703125 639.839844 103.394531 C 647.78125 98.089844 655.847656 92.980469 664.039062 88.070312 C 672.230469 83.164062 680.535156 78.457031 688.960938 73.953125 C 697.382812 69.453125 705.910156 65.160156 714.542969 61.074219 C 723.179688 56.992188 731.90625 53.125 740.730469 49.46875 C 749.554688 45.8125 758.460938 42.378906 767.453125 39.160156 C 776.445312 35.941406 785.511719 32.949219 794.652344 30.175781 C 803.792969 27.402344 812.992188 24.855469 822.257812 22.535156 C 831.523438 20.214844 840.835938 18.125 850.203125 16.261719 C 859.570312 14.398438 868.980469 12.765625 878.425781 11.363281 C 887.871094 9.960938 897.347656 8.792969 906.855469 7.855469 C 916.359375 6.921875 925.878906 6.21875 935.417969 5.75 C 944.957031 5.28125 954.503906 5.046875 964.054688 5.046875 C 973.605469 5.046875 983.148438 5.28125 992.6875 5.75 C 1002.226562 6.21875 1011.75 6.921875 1021.253906 7.855469 C 1030.757812 8.792969 1040.234375 9.960938 1049.679688 11.363281 C 1059.128906 12.765625 1068.535156 14.398438 1077.902344 16.261719 C 1087.269531 18.125 1096.585938 20.214844 1105.851562 22.535156 C 1115.113281 24.855469 1124.316406 27.402344 1133.457031 30.175781 C 1142.59375 32.949219 1151.660156 35.941406 1160.652344 39.160156 C 1169.644531 42.378906 1178.554688 45.8125 1187.375 49.46875 C 1196.199219 53.125 1204.929688 56.992188 1213.5625 61.074219 C 1222.195312 65.160156 1230.722656 69.453125 1239.148438 73.953125 C 1247.570312 78.457031 1255.878906 83.164062 1264.070312 88.074219 C 1272.261719 92.980469 1280.328125 98.089844 1288.269531 103.394531 C 1296.210938 108.703125 1304.015625 114.199219 1311.6875 119.890625 C 1319.359375 125.578125 1326.882812 131.453125 1334.265625 137.511719 C 1341.648438 143.570312 1348.878906 149.804688 1355.957031 156.21875 C 1363.03125 162.632812 1369.949219 169.21875 1376.699219 175.972656 C 1383.453125 182.722656 1390.039062 189.640625 1396.453125 196.714844 C 1402.863281 203.792969 1409.101562 211.023438 1415.160156 218.40625 C 1421.21875 225.785156 1427.09375 233.3125 1432.78125 240.984375 C 1438.472656 248.65625 1443.96875 256.460938 1449.273438 264.402344 C 1454.582031 272.34375 1459.6875 280.410156 1464.597656 288.601562 C 1469.507812 296.792969 1474.214844 305.101562 1478.71875 313.523438 C 1483.21875 321.949219 1487.511719 330.476562 1491.597656 339.109375 C 1495.679688 347.742188 1499.546875 356.472656 1503.203125 365.296875 C 1506.859375 374.117188 1510.292969 383.027344 1513.511719 392.019531 C 1516.730469 401.011719 1519.722656 410.078125 1522.496094 419.214844 C 1525.269531 428.355469 1527.816406 437.558594 1530.136719 446.820312 C 1532.457031 456.085938 1534.546875 465.402344 1536.410156 474.769531 C 1538.273438 484.136719 1539.90625 493.542969 1541.308594 502.992188 C 1542.710938 512.4375 1543.878906 521.914062 1544.816406 531.417969 C 1545.75 540.921875 1546.453125 550.445312 1546.921875 559.984375 C 1547.390625 569.523438 1547.625 579.066406 1547.625 588.617188 C 1547.613281 598.164062 1547.367188 607.707031 1546.890625 617.242188 C 1546.410156 626.777344 1545.699219 636.296875 1544.753906 645.796875 C 1543.808594 655.296875 1542.628906 664.769531 1541.222656 674.210938 C 1539.8125 683.65625 1538.171875 693.058594 1536.300781 702.421875 C 1534.429688 711.78125 1532.332031 721.09375 1530.003906 730.351562 C 1527.675781 739.613281 1525.125 748.808594 1522.34375 757.945312 C 1519.566406 767.078125 1516.566406 776.140625 1513.34375 785.128906 C 1510.121094 794.113281 1506.679688 803.019531 1503.023438 811.835938 C 1499.363281 820.65625 1495.492188 829.378906 1491.40625 838.007812 C 1487.316406 846.636719 1483.023438 855.160156 1478.519531 863.578125 C 1474.015625 871.996094 1469.304688 880.300781 1464.394531 888.488281 C 1459.484375 896.675781 1454.375 904.738281 1449.066406 912.671875 C 1443.761719 920.609375 1438.261719 928.414062 1432.574219 936.078125 C 1426.886719 943.746094 1421.011719 951.269531 1414.953125 958.648438 C 1408.894531 966.03125 1402.660156 973.257812 1396.25 980.332031 C 1389.835938 987.402344 1383.253906 994.316406 1376.503906 1001.066406 C 1369.753906 1007.820312 1362.839844 1014.402344 1355.765625 1020.8125 C 1348.691406 1027.226562 1341.464844 1033.460938 1334.085938 1039.519531 C 1326.707031 1045.574219 1319.183594 1051.449219 1311.515625 1057.140625 C 1303.847656 1062.828125 1296.046875 1068.324219 1288.109375 1073.632812 C 1280.171875 1078.9375 1272.109375 1084.046875 1263.921875 1088.960938 C 1255.734375 1093.871094 1247.433594 1098.578125 1239.015625 1103.082031 C 1230.59375 1107.585938 1222.070312 1111.882812 1213.441406 1115.96875 C 1204.8125 1120.054688 1196.089844 1123.929688 1187.273438 1127.585938 C 1178.453125 1131.246094 1169.550781 1134.6875 1160.5625 1137.910156 C 1151.574219 1141.132812 1142.515625 1144.132812 1133.378906 1146.910156 C 1124.246094 1149.6875 1115.046875 1152.242188 1105.789062 1154.566406 C 1096.53125 1156.894531 1087.21875 1158.992188 1077.855469 1160.863281 C 1068.492188 1162.734375 1059.089844 1164.375 1049.648438 1165.785156 C 1040.203125 1167.195312 1030.734375 1168.371094 1021.230469 1169.316406 C 1011.730469 1170.265625 1002.214844 1170.976562 992.679688 1171.453125 C 983.144531 1171.933594 973.601562 1172.179688 964.054688 1172.191406 Z M 964.054688 1172.191406 " fill-opacity="1" fill-rule="nonzero"/></g><path fill="#000000" d="M 779.769531 557.902344 C 781.277344 557.902344 782.78125 557.867188 784.289062 557.792969 C 785.796875 557.71875 787.296875 557.609375 788.800781 557.460938 C 790.300781 557.3125 791.796875 557.128906 793.289062 556.90625 C 794.78125 556.683594 796.265625 556.425781 797.742188 556.132812 C 799.222656 555.839844 800.695312 555.507812 802.15625 555.140625 C 803.621094 554.777344 805.074219 554.375 806.515625 553.9375 C 807.957031 553.5 809.390625 553.027344 810.808594 552.515625 C 812.230469 552.007812 813.636719 551.46875 815.027344 550.890625 C 816.421875 550.3125 817.800781 549.703125 819.164062 549.058594 C 820.527344 548.414062 821.875 547.734375 823.203125 547.023438 C 824.535156 546.3125 825.84375 545.570312 827.136719 544.792969 C 828.433594 544.019531 829.707031 543.210938 830.960938 542.375 C 832.214844 541.539062 833.445312 540.667969 834.65625 539.769531 C 835.867188 538.871094 837.058594 537.945312 838.222656 536.988281 C 839.386719 536.03125 840.53125 535.046875 841.648438 534.035156 C 842.765625 533.023438 843.855469 531.980469 844.921875 530.914062 C 845.988281 529.847656 847.027344 528.757812 848.042969 527.640625 C 849.054688 526.523438 850.039062 525.382812 850.996094 524.214844 C 851.953125 523.050781 852.878906 521.863281 853.777344 520.652344 C 854.675781 519.4375 855.542969 518.207031 856.382812 516.953125 C 857.21875 515.699219 858.027344 514.425781 858.800781 513.132812 C 859.578125 511.839844 860.320312 510.527344 861.03125 509.195312 C 861.742188 507.867188 862.417969 506.519531 863.0625 505.15625 C 863.707031 503.792969 864.320312 502.414062 864.898438 501.023438 C 865.472656 499.628906 866.015625 498.222656 866.523438 496.804688 C 867.03125 495.382812 867.503906 493.953125 867.941406 492.507812 C 868.378906 491.066406 868.78125 489.613281 869.148438 488.148438 C 869.515625 486.6875 869.847656 485.214844 870.140625 483.738281 C 870.433594 482.257812 870.691406 480.773438 870.914062 479.28125 C 871.132812 477.789062 871.320312 476.292969 871.46875 474.792969 C 871.613281 473.292969 871.726562 471.789062 871.800781 470.28125 C 871.875 468.777344 871.910156 467.269531 871.910156 465.761719 C 871.910156 464.253906 871.875 462.746094 871.800781 461.238281 C 871.726562 459.734375 871.613281 458.230469 871.46875 456.730469 C 871.320312 455.230469 871.132812 453.734375 870.914062 452.242188 C 870.691406 450.75 870.433594 449.265625 870.140625 447.785156 C 869.847656 446.304688 869.515625 444.835938 869.148438 443.371094 C 868.78125 441.910156 868.378906 440.457031 867.941406 439.011719 C 867.503906 437.570312 867.03125 436.140625 866.523438 434.71875 C 866.015625 433.300781 865.472656 431.894531 864.898438 430.5 C 864.320312 429.105469 863.707031 427.726562 863.0625 426.363281 C 862.417969 425 861.742188 423.65625 861.03125 422.324219 C 860.320312 420.996094 859.578125 419.683594 858.800781 418.390625 C 858.027344 417.097656 857.21875 415.824219 856.382812 414.570312 C 855.542969 413.316406 854.675781 412.082031 853.777344 410.871094 C 852.878906 409.660156 851.953125 408.472656 850.996094 407.304688 C 850.039062 406.140625 849.054688 405 848.042969 403.882812 C 847.027344 402.765625 845.988281 401.671875 844.921875 400.605469 C 843.855469 399.539062 842.765625 398.5 841.648438 397.488281 C 840.53125 396.476562 839.386719 395.492188 838.222656 394.535156 C 837.058594 393.578125 835.867188 392.648438 834.65625 391.75 C 833.445312 390.851562 832.214844 389.984375 830.960938 389.148438 C 829.707031 388.308594 828.433594 387.503906 827.136719 386.726562 C 825.84375 385.953125 824.535156 385.210938 823.203125 384.5 C 821.875 383.789062 820.527344 383.109375 819.164062 382.464844 C 817.800781 381.820312 816.421875 381.210938 815.027344 380.632812 C 813.636719 380.054688 812.230469 379.511719 810.808594 379.003906 C 809.390625 378.496094 807.957031 378.023438 806.515625 377.585938 C 805.074219 377.148438 803.621094 376.746094 802.15625 376.378906 C 800.695312 376.011719 799.222656 375.683594 797.742188 375.386719 C 796.265625 375.09375 794.78125 374.835938 793.289062 374.617188 C 791.796875 374.394531 790.300781 374.210938 788.800781 374.0625 C 787.296875 373.914062 785.796875 373.804688 784.289062 373.730469 C 782.78125 373.65625 781.277344 373.617188 779.769531 373.617188 C 778.261719 373.617188 776.753906 373.65625 775.246094 373.730469 C 773.742188 373.804688 772.238281 373.914062 770.734375 374.0625 C 769.234375 374.210938 767.738281 374.394531 766.246094 374.617188 C 764.757812 374.835938 763.269531 375.09375 761.792969 375.386719 C 760.3125 375.683594 758.839844 376.011719 757.378906 376.378906 C 755.917969 376.746094 754.464844 377.148438 753.019531 377.585938 C 751.578125 378.023438 750.144531 378.496094 748.726562 379.003906 C 747.304688 379.511719 745.898438 380.054688 744.507812 380.632812 C 743.113281 381.210938 741.734375 381.820312 740.371094 382.464844 C 739.007812 383.109375 737.660156 383.789062 736.332031 384.5 C 735.003906 385.210938 733.691406 385.953125 732.398438 386.726562 C 731.101562 387.503906 729.828125 388.308594 728.574219 389.148438 C 727.320312 389.984375 726.089844 390.851562 724.878906 391.75 C 723.667969 392.648438 722.480469 393.578125 721.3125 394.535156 C 720.148438 395.492188 719.003906 396.476562 717.886719 397.488281 C 716.769531 398.5 715.679688 399.539062 714.613281 400.605469 C 713.546875 401.671875 712.507812 402.765625 711.496094 403.882812 C 710.480469 405 709.496094 406.140625 708.539062 407.304688 C 707.582031 408.472656 706.65625 409.660156 705.757812 410.871094 C 704.859375 412.082031 703.992188 413.316406 703.152344 414.570312 C 702.316406 415.824219 701.507812 417.097656 700.734375 418.390625 C 699.957031 419.683594 699.214844 420.996094 698.503906 422.324219 C 697.792969 423.65625 697.117188 425 696.472656 426.363281 C 695.828125 427.726562 695.214844 429.105469 694.640625 430.5 C 694.0625 431.894531 693.519531 433.300781 693.011719 434.71875 C 692.503906 436.140625 692.03125 437.570312 691.59375 439.011719 C 691.15625 440.457031 690.753906 441.910156 690.386719 443.371094 C 690.019531 444.835938 689.691406 446.304688 689.394531 447.785156 C 689.101562 449.265625 688.84375 450.75 688.621094 452.242188 C 688.402344 453.734375 688.214844 455.230469 688.070312 456.730469 C 687.921875 458.230469 687.808594 459.734375 687.734375 461.238281 C 687.660156 462.746094 687.625 464.253906 687.625 465.761719 C 687.625 467.269531 687.660156 468.777344 687.734375 470.28125 C 687.808594 471.789062 687.921875 473.292969 688.070312 474.792969 C 688.214844 476.292969 688.402344 477.789062 688.621094 479.28125 C 688.84375 480.773438 689.101562 482.257812 689.394531 483.738281 C 689.691406 485.214844 690.019531 486.6875 690.386719 488.148438 C 690.753906 489.613281 691.15625 491.066406 691.59375 492.507812 C 692.03125 493.953125 692.503906 495.382812 693.011719 496.804688 C 693.519531 498.222656 694.0625 499.628906 694.640625 501.023438 C 695.214844 502.414062 695.828125 503.792969 696.472656 505.15625 C 697.117188 506.519531 697.792969 507.867188 698.503906 509.195312 C 699.214844 510.527344 699.957031 511.839844 700.734375 513.132812 C 701.507812 514.425781 702.316406 515.699219 703.152344 516.953125 C 703.992188 518.207031 704.859375 519.4375 705.757812 520.652344 C 706.65625 521.863281 707.582031 523.050781 708.539062 524.214844 C 709.496094 525.382812 710.480469 526.523438 711.496094 527.640625 C 712.507812 528.757812 713.546875 529.847656 714.613281 530.914062 C 715.679688 531.980469 716.769531 533.023438 717.886719 534.035156 C 719.003906 535.046875 720.148438 536.03125 721.3125 536.988281 C 722.480469 537.945312 723.667969 538.871094 724.878906 539.769531 C 726.089844 540.667969 727.320312 541.539062 728.574219 542.375 C 729.828125 543.210938 731.101562 544.019531 732.398438 544.792969 C 733.691406 545.570312 735.003906 546.3125 736.332031 547.023438 C 737.660156 547.734375 739.007812 548.414062 740.371094 549.058594 C 741.734375 549.703125 743.113281 550.3125 744.507812 550.890625 C 745.898438 551.46875 747.304688 552.007812 748.726562 552.515625 C 750.144531 553.027344 751.578125 553.5 753.019531 553.9375 C 754.464844 554.375 755.917969 554.777344 757.378906 555.140625 C 758.839844 555.507812 760.3125 555.839844 761.792969 556.132812 C 763.269531 556.425781 764.757812 556.683594 766.246094 556.90625 C 767.738281 557.128906 769.234375 557.3125 770.734375 557.460938 C 772.238281 557.609375 773.742188 557.71875 775.246094 557.792969 C 776.753906 557.867188 778.261719 557.902344 779.769531 557.902344 Z M 779.769531 435.046875 C 780.773438 435.046875 781.777344 435.097656 782.777344 435.195312 C 783.78125 435.292969 784.773438 435.441406 785.761719 435.636719 C 786.746094 435.832031 787.722656 436.078125 788.683594 436.371094 C 789.644531 436.660156 790.59375 437 791.523438 437.382812 C 792.449219 437.769531 793.359375 438.199219 794.246094 438.671875 C 795.132812 439.148438 795.996094 439.664062 796.832031 440.222656 C 797.667969 440.78125 798.476562 441.378906 799.253906 442.019531 C 800.03125 442.65625 800.773438 443.332031 801.484375 444.042969 C 802.199219 444.753906 802.871094 445.5 803.511719 446.277344 C 804.148438 447.054688 804.746094 447.859375 805.304688 448.695312 C 805.863281 449.535156 806.382812 450.394531 806.855469 451.28125 C 807.328125 452.167969 807.757812 453.078125 808.144531 454.007812 C 808.527344 454.9375 808.867188 455.882812 809.160156 456.84375 C 809.453125 457.808594 809.695312 458.78125 809.890625 459.769531 C 810.089844 460.753906 810.234375 461.75 810.335938 462.75 C 810.433594 463.75 810.480469 464.753906 810.480469 465.761719 C 810.480469 466.765625 810.433594 467.769531 810.335938 468.773438 C 810.234375 469.773438 810.089844 470.765625 809.890625 471.753906 C 809.695312 472.738281 809.453125 473.714844 809.160156 474.675781 C 808.867188 475.640625 808.527344 476.585938 808.144531 477.515625 C 807.757812 478.445312 807.328125 479.351562 806.855469 480.238281 C 806.382812 481.125 805.863281 481.988281 805.304688 482.824219 C 804.746094 483.660156 804.148438 484.46875 803.511719 485.246094 C 802.871094 486.023438 802.199219 486.769531 801.484375 487.480469 C 800.773438 488.191406 800.03125 488.867188 799.253906 489.503906 C 798.476562 490.140625 797.667969 490.738281 796.832031 491.300781 C 795.996094 491.859375 795.132812 492.375 794.246094 492.847656 C 793.359375 493.324219 792.449219 493.753906 791.523438 494.136719 C 790.59375 494.523438 789.644531 494.859375 788.683594 495.152344 C 787.722656 495.445312 786.746094 495.6875 785.761719 495.886719 C 784.773438 496.082031 783.78125 496.230469 782.777344 496.328125 C 781.777344 496.425781 780.773438 496.476562 779.769531 496.476562 C 778.761719 496.476562 777.757812 496.425781 776.757812 496.328125 C 775.757812 496.230469 774.761719 496.082031 773.777344 495.886719 C 772.789062 495.6875 771.816406 495.445312 770.851562 495.152344 C 769.890625 494.859375 768.941406 494.523438 768.015625 494.136719 C 767.085938 493.753906 766.175781 493.324219 765.289062 492.847656 C 764.402344 492.375 763.539062 491.859375 762.703125 491.300781 C 761.867188 490.738281 761.058594 490.140625 760.28125 489.503906 C 759.503906 488.867188 758.761719 488.191406 758.050781 487.480469 C 757.339844 486.769531 756.664062 486.023438 756.027344 485.246094 C 755.386719 484.46875 754.789062 483.660156 754.230469 482.824219 C 753.671875 481.988281 753.15625 481.125 752.679688 480.238281 C 752.207031 479.351562 751.777344 478.445312 751.390625 477.515625 C 751.007812 476.585938 750.667969 475.640625 750.375 474.675781 C 750.085938 473.714844 749.839844 472.738281 749.644531 471.753906 C 749.449219 470.765625 749.300781 469.773438 749.203125 468.773438 C 749.101562 467.769531 749.054688 466.765625 749.054688 465.761719 C 749.054688 464.753906 749.101562 463.75 749.203125 462.75 C 749.300781 461.75 749.449219 460.753906 749.644531 459.769531 C 749.839844 458.78125 750.085938 457.808594 750.375 456.84375 C 750.667969 455.882812 751.007812 454.9375 751.390625 454.007812 C 751.777344 453.078125 752.207031 452.167969 752.679688 451.28125 C 753.15625 450.394531 753.671875 449.535156 754.230469 448.695312 C 754.789062 447.859375 755.386719 447.054688 756.027344 446.277344 C 756.664062 445.5 757.339844 444.753906 758.050781 444.042969 C 758.761719 443.332031 759.503906 442.65625 760.28125 442.019531 C 761.058594 441.378906 761.867188 440.78125 762.703125 440.222656 C 763.539062 439.664062 764.402344 439.148438 765.289062 438.671875 C 766.175781 438.199219 767.085938 437.769531 768.015625 437.382812 C 768.945312 437 769.890625 436.660156 770.851562 436.371094 C 771.816406 436.078125 772.789062 435.832031 773.777344 435.636719 C 774.761719 435.441406 775.757812 435.292969 776.757812 435.195312 C 777.757812 435.097656 778.761719 435.046875 779.769531 435.046875 Z M 779.769531 435.046875 " fill-opacity="1" fill-rule="nonzero"/><path fill="#000000" d="M 1148.339844 373.617188 C 1146.832031 373.617188 1145.324219 373.65625 1143.816406 373.730469 C 1142.3125 373.804688 1140.808594 373.914062 1139.308594 374.0625 C 1137.808594 374.210938 1136.3125 374.394531 1134.820312 374.617188 C 1133.328125 374.835938 1131.84375 375.09375 1130.363281 375.386719 C 1128.882812 375.683594 1127.414062 376.011719 1125.949219 376.378906 C 1124.488281 376.746094 1123.035156 377.148438 1121.589844 377.585938 C 1120.148438 378.023438 1118.71875 378.496094 1117.296875 379.003906 C 1115.878906 379.511719 1114.472656 380.054688 1113.078125 380.632812 C 1111.683594 381.210938 1110.304688 381.820312 1108.941406 382.464844 C 1107.578125 383.109375 1106.234375 383.789062 1104.902344 384.5 C 1103.574219 385.210938 1102.261719 385.953125 1100.96875 386.726562 C 1099.675781 387.503906 1098.402344 388.308594 1097.148438 389.148438 C 1095.894531 389.984375 1094.660156 390.851562 1093.449219 391.75 C 1092.238281 392.648438 1091.050781 393.578125 1089.882812 394.535156 C 1088.71875 395.492188 1087.578125 396.476562 1086.460938 397.488281 C 1085.34375 398.5 1084.25 399.539062 1083.183594 400.605469 C 1082.117188 401.671875 1081.078125 402.765625 1080.066406 403.882812 C 1079.054688 405 1078.070312 406.140625 1077.113281 407.304688 C 1076.15625 408.472656 1075.226562 409.660156 1074.328125 410.871094 C 1073.429688 412.082031 1072.5625 413.316406 1071.726562 414.570312 C 1070.886719 415.824219 1070.082031 417.097656 1069.304688 418.390625 C 1068.53125 419.683594 1067.789062 420.996094 1067.078125 422.324219 C 1066.367188 423.65625 1065.6875 425 1065.042969 426.363281 C 1064.398438 427.726562 1063.789062 429.105469 1063.210938 430.5 C 1062.632812 431.894531 1062.089844 433.300781 1061.582031 434.71875 C 1061.074219 436.140625 1060.601562 437.570312 1060.164062 439.011719 C 1059.726562 440.457031 1059.324219 441.910156 1058.957031 443.371094 C 1058.589844 444.835938 1058.261719 446.304688 1057.96875 447.785156 C 1057.671875 449.265625 1057.414062 450.75 1057.195312 452.242188 C 1056.972656 453.734375 1056.789062 455.230469 1056.640625 456.730469 C 1056.492188 458.230469 1056.382812 459.734375 1056.308594 461.238281 C 1056.234375 462.746094 1056.195312 464.253906 1056.195312 465.761719 C 1056.195312 467.269531 1056.234375 468.777344 1056.308594 470.28125 C 1056.382812 471.789062 1056.492188 473.292969 1056.640625 474.792969 C 1056.789062 476.292969 1056.972656 477.789062 1057.195312 479.28125 C 1057.414062 480.773438 1057.671875 482.257812 1057.96875 483.738281 C 1058.261719 485.214844 1058.589844 486.6875 1058.957031 488.148438 C 1059.324219 489.613281 1059.726562 491.066406 1060.164062 492.507812 C 1060.601562 493.953125 1061.074219 495.382812 1061.582031 496.804688 C 1062.089844 498.222656 1062.632812 499.628906 1063.210938 501.023438 C 1063.789062 502.414062 1064.398438 503.792969 1065.042969 505.15625 C 1065.6875 506.519531 1066.367188 507.867188 1067.078125 509.195312 C 1067.789062 510.527344 1068.53125 511.839844 1069.304688 513.132812 C 1070.082031 514.425781 1070.886719 515.699219 1071.726562 516.953125 C 1072.5625 518.207031 1073.429688 519.4375 1074.328125 520.652344 C 1075.226562 521.863281 1076.15625 523.050781 1077.113281 524.214844 C 1078.070312 525.382812 1079.054688 526.523438 1080.066406 527.640625 C 1081.078125 528.757812 1082.117188 529.847656 1083.183594 530.914062 C 1084.25 531.980469 1085.34375 533.023438 1086.460938 534.035156 C 1087.578125 535.046875 1088.71875 536.03125 1089.882812 536.988281 C 1091.050781 537.945312 1092.238281 538.871094 1093.449219 539.769531 C 1094.660156 540.667969 1095.894531 541.539062 1097.148438 542.375 C 1098.402344 543.210938 1099.675781 544.019531 1100.96875 544.792969 C 1102.261719 545.570312 1103.574219 546.3125 1104.902344 547.023438 C 1106.234375 547.734375 1107.578125 548.414062 1108.941406 549.058594 C 1110.304688 549.703125 1111.683594 550.3125 1113.078125 550.890625 C 1114.472656 551.46875 1115.878906 552.007812 1117.296875 552.515625 C 1118.71875 553.027344 1120.148438 553.5 1121.589844 553.9375 C 1123.035156 554.375 1124.488281 554.777344 1125.949219 555.140625 C 1127.414062 555.507812 1128.882812 555.839844 1130.363281 556.132812 C 1131.84375 556.425781 1133.328125 556.683594 1134.820312 556.90625 C 1136.3125 557.128906 1137.808594 557.3125 1139.308594 557.460938 C 1140.808594 557.609375 1142.3125 557.71875 1143.816406 557.792969 C 1145.324219 557.867188 1146.832031 557.902344 1148.339844 557.902344 C 1149.847656 557.902344 1151.355469 557.867188 1152.859375 557.792969 C 1154.367188 557.71875 1155.871094 557.609375 1157.371094 557.460938 C 1158.871094 557.3125 1160.367188 557.128906 1161.859375 556.90625 C 1163.351562 556.683594 1164.835938 556.425781 1166.316406 556.132812 C 1167.792969 555.839844 1169.265625 555.507812 1170.726562 555.140625 C 1172.191406 554.777344 1173.644531 554.375 1175.085938 553.9375 C 1176.53125 553.5 1177.960938 553.027344 1179.382812 552.515625 C 1180.800781 552.007812 1182.207031 551.46875 1183.601562 550.890625 C 1184.992188 550.3125 1186.371094 549.703125 1187.734375 549.058594 C 1189.097656 548.414062 1190.445312 547.734375 1191.773438 547.023438 C 1193.105469 546.3125 1194.417969 545.570312 1195.710938 544.792969 C 1197.003906 544.019531 1198.277344 543.210938 1199.53125 542.375 C 1200.785156 541.539062 1202.015625 540.667969 1203.230469 539.769531 C 1204.441406 538.871094 1205.628906 537.945312 1206.792969 536.988281 C 1207.960938 536.03125 1209.101562 535.046875 1210.21875 534.035156 C 1211.335938 533.023438 1212.425781 531.980469 1213.492188 530.914062 C 1214.558594 529.847656 1215.601562 528.757812 1216.613281 527.640625 C 1217.625 526.523438 1218.609375 525.382812 1219.566406 524.214844 C 1220.523438 523.050781 1221.449219 521.863281 1222.347656 520.652344 C 1223.246094 519.4375 1224.117188 518.207031 1224.953125 516.953125 C 1225.789062 515.699219 1226.597656 514.425781 1227.371094 513.132812 C 1228.148438 511.839844 1228.890625 510.527344 1229.601562 509.195312 C 1230.3125 507.867188 1230.992188 506.519531 1231.636719 505.15625 C 1232.28125 503.792969 1232.890625 502.414062 1233.46875 501.023438 C 1234.046875 499.628906 1234.585938 498.222656 1235.09375 496.804688 C 1235.605469 495.382812 1236.078125 493.953125 1236.515625 492.507812 C 1236.953125 491.066406 1237.355469 489.613281 1237.722656 488.148438 C 1238.085938 486.6875 1238.417969 485.214844 1238.710938 483.738281 C 1239.003906 482.257812 1239.261719 480.773438 1239.484375 479.28125 C 1239.707031 477.789062 1239.890625 476.292969 1240.039062 474.792969 C 1240.1875 473.292969 1240.296875 471.789062 1240.371094 470.28125 C 1240.445312 468.777344 1240.480469 467.269531 1240.480469 465.761719 C 1240.480469 464.253906 1240.445312 462.746094 1240.371094 461.238281 C 1240.296875 459.734375 1240.1875 458.230469 1240.039062 456.730469 C 1239.890625 455.230469 1239.707031 453.734375 1239.484375 452.242188 C 1239.261719 450.75 1239.003906 449.265625 1238.710938 447.785156 C 1238.417969 446.304688 1238.085938 444.835938 1237.722656 443.371094 C 1237.355469 441.910156 1236.953125 440.457031 1236.515625 439.011719 C 1236.078125 437.570312 1235.605469 436.140625 1235.09375 434.71875 C 1234.585938 433.300781 1234.046875 431.894531 1233.46875 430.5 C 1232.890625 429.105469 1232.28125 427.726562 1231.636719 426.363281 C 1230.992188 425 1230.3125 423.65625 1229.601562 422.324219 C 1228.890625 420.996094 1228.148438 419.683594 1227.371094 418.390625 C 1226.597656 417.097656 1225.789062 415.824219 1224.953125 414.570312 C 1224.117188 413.316406 1223.246094 412.082031 1222.347656 410.871094 C 1221.449219 409.660156 1220.523438 408.472656 1219.566406 407.304688 C 1218.609375 406.140625 1217.625 405 1216.613281 403.882812 C 1215.601562 402.765625 1214.558594 401.671875 1213.492188 400.605469 C 1212.425781 399.539062 1211.335938 398.5 1210.21875 397.488281 C 1209.101562 396.476562 1207.960938 395.492188 1206.792969 394.535156 C 1205.628906 393.578125 1204.441406 392.648438 1203.230469 391.75 C 1202.015625 390.851562 1200.785156 389.984375 1199.53125 389.148438 C 1198.277344 388.308594 1197.003906 387.503906 1195.710938 386.726562 C 1194.417969 385.953125 1193.105469 385.210938 1191.773438 384.5 C 1190.445312 383.789062 1189.097656 383.109375 1187.734375 382.464844 C 1186.371094 381.820312 1184.992188 381.210938 1183.601562 380.632812 C 1182.207031 380.054688 1180.800781 379.511719 1179.382812 379.003906 C 1177.960938 378.496094 1176.53125 378.023438 1175.085938 377.585938 C 1173.644531 377.148438 1172.191406 376.746094 1170.726562 376.378906 C 1169.265625 376.011719 1167.792969 375.683594 1166.316406 375.386719 C 1164.835938 375.09375 1163.351562 374.835938 1161.859375 374.617188 C 1160.367188 374.394531 1158.871094 374.210938 1157.371094 374.0625 C 1155.871094 373.914062 1154.367188 373.804688 1152.859375 373.730469 C 1151.355469 373.65625 1149.847656 373.617188 1148.339844 373.617188 Z M 1148.339844 496.476562 C 1147.332031 496.476562 1146.328125 496.425781 1145.328125 496.328125 C 1144.328125 496.230469 1143.332031 496.082031 1142.347656 495.886719 C 1141.359375 495.6875 1140.386719 495.445312 1139.421875 495.152344 C 1138.460938 494.859375 1137.515625 494.523438 1136.585938 494.136719 C 1135.65625 493.753906 1134.746094 493.324219 1133.859375 492.847656 C 1132.972656 492.375 1132.113281 491.859375 1131.273438 491.300781 C 1130.4375 490.738281 1129.632812 490.140625 1128.855469 489.503906 C 1128.078125 488.867188 1127.332031 488.191406 1126.621094 487.480469 C 1125.910156 486.769531 1125.234375 486.023438 1124.597656 485.246094 C 1123.957031 484.46875 1123.359375 483.660156 1122.800781 482.824219 C 1122.242188 481.988281 1121.726562 481.125 1121.25 480.238281 C 1120.777344 479.351562 1120.347656 478.445312 1119.960938 477.515625 C 1119.578125 476.585938 1119.238281 475.640625 1118.949219 474.675781 C 1118.65625 473.714844 1118.410156 472.738281 1118.214844 471.753906 C 1118.019531 470.765625 1117.871094 469.773438 1117.773438 468.773438 C 1117.675781 467.769531 1117.625 466.765625 1117.625 465.761719 C 1117.625 464.753906 1117.675781 463.75 1117.773438 462.75 C 1117.871094 461.75 1118.019531 460.753906 1118.214844 459.769531 C 1118.410156 458.78125 1118.65625 457.808594 1118.949219 456.84375 C 1119.238281 455.882812 1119.578125 454.9375 1119.960938 454.007812 C 1120.347656 453.078125 1120.777344 452.167969 1121.25 451.28125 C 1121.726562 450.394531 1122.242188 449.535156 1122.800781 448.695312 C 1123.359375 447.859375 1123.957031 447.054688 1124.597656 446.277344 C 1125.234375 445.5 1125.910156 444.753906 1126.621094 444.042969 C 1127.332031 443.332031 1128.078125 442.65625 1128.855469 442.019531 C 1129.632812 441.378906 1130.4375 440.78125 1131.273438 440.222656 C 1132.113281 439.664062 1132.972656 439.148438 1133.859375 438.671875 C 1134.746094 438.199219 1135.65625 437.769531 1136.585938 437.382812 C 1137.515625 437 1138.460938 436.660156 1139.421875 436.371094 C 1140.386719 436.078125 1141.359375 435.832031 1142.347656 435.636719 C 1143.332031 435.441406 1144.328125 435.292969 1145.328125 435.195312 C 1146.328125 435.097656 1147.332031 435.046875 1148.339844 435.046875 C 1149.34375 435.046875 1150.347656 435.097656 1151.351562 435.195312 C 1152.351562 435.292969 1153.34375 435.441406 1154.332031 435.636719 C 1155.316406 435.832031 1156.292969 436.078125 1157.253906 436.371094 C 1158.21875 436.660156 1159.164062 437 1160.09375 437.382812 C 1161.023438 437.769531 1161.929688 438.199219 1162.816406 438.671875 C 1163.703125 439.148438 1164.566406 439.664062 1165.402344 440.222656 C 1166.238281 440.78125 1167.046875 441.378906 1167.824219 442.019531 C 1168.601562 442.65625 1169.347656 443.332031 1170.058594 444.042969 C 1170.769531 444.753906 1171.445312 445.5 1172.082031 446.277344 C 1172.71875 447.054688 1173.316406 447.859375 1173.878906 448.695312 C 1174.4375 449.535156 1174.953125 450.394531 1175.425781 451.28125 C 1175.902344 452.167969 1176.332031 453.078125 1176.714844 454.007812 C 1177.101562 454.9375 1177.4375 455.882812 1177.730469 456.84375 C 1178.023438 457.808594 1178.265625 458.78125 1178.464844 459.769531 C 1178.660156 460.753906 1178.808594 461.75 1178.90625 462.75 C 1179.003906 463.75 1179.054688 464.753906 1179.054688 465.761719 C 1179.054688 466.765625 1179.003906 467.769531 1178.90625 468.773438 C 1178.808594 469.773438 1178.660156 470.765625 1178.464844 471.753906 C 1178.265625 472.738281 1178.023438 473.714844 1177.730469 474.675781 C 1177.4375 475.640625 1177.101562 476.585938 1176.714844 477.515625 C 1176.332031 478.445312 1175.902344 479.351562 1175.425781 480.238281 C 1174.953125 481.125 1174.4375 481.988281 1173.878906 482.824219 C 1173.320312 483.660156 1172.71875 484.46875 1172.082031 485.246094 C 1171.445312 486.023438 1170.769531 486.769531 1170.058594 487.480469 C 1169.347656 488.191406 1168.601562 488.867188 1167.824219 489.503906 C 1167.046875 490.140625 1166.238281 490.738281 1165.402344 491.300781 C 1164.566406 491.859375 1163.703125 492.375 1162.816406 492.847656 C 1161.929688 493.324219 1161.023438 493.753906 1160.09375 494.136719 C 1159.164062 494.523438 1158.21875 494.859375 1157.253906 495.152344 C 1156.292969 495.445312 1155.316406 495.6875 1154.332031 495.886719 C 1153.34375 496.082031 1152.351562 496.230469 1151.351562 496.328125 C 1150.347656 496.425781 1149.34375 496.476562 1148.339844 496.476562 Z M 1148.339844 496.476562 " fill-opacity="1" fill-rule="nonzero"/><g clip-path="url(#4d1f2db9e8)"><path fill="#000000" d="M 805.320312 203.03125 C 804.765625 202.195312 804.167969 201.386719 803.53125 200.609375 C 802.894531 199.832031 802.21875 199.085938 801.511719 198.375 C 800.800781 197.664062 800.058594 196.988281 799.28125 196.347656 C 798.503906 195.710938 797.699219 195.109375 796.863281 194.550781 C 796.027344 193.992188 795.167969 193.472656 794.28125 193 C 793.394531 192.523438 792.488281 192.09375 791.558594 191.707031 C 790.632812 191.320312 789.6875 190.980469 788.726562 190.6875 C 787.765625 190.394531 786.789062 190.148438 785.804688 189.949219 C 784.820312 189.753906 783.824219 189.605469 782.824219 189.503906 C 781.824219 189.402344 780.820312 189.351562 779.816406 189.351562 C 778.8125 189.347656 777.808594 189.398438 776.808594 189.492188 C 775.808594 189.589844 774.8125 189.734375 773.828125 189.929688 C 772.839844 190.125 771.867188 190.367188 770.902344 190.65625 C 769.941406 190.945312 768.996094 191.285156 768.066406 191.667969 C 767.136719 192.050781 766.226562 192.476562 765.339844 192.949219 C 764.453125 193.421875 763.589844 193.9375 762.753906 194.492188 L 578.464844 317.351562 C 577.105469 318.257812 575.824219 319.269531 574.625 320.382812 C 573.421875 321.492188 572.320312 322.695312 571.308594 323.984375 C 570.300781 325.273438 569.402344 326.636719 568.613281 328.070312 C 567.820312 329.503906 567.148438 330.988281 566.597656 332.53125 C 566.042969 334.070312 565.617188 335.644531 565.316406 337.253906 C 565.015625 338.863281 564.84375 340.488281 564.800781 342.121094 C 564.761719 343.757812 564.847656 345.386719 565.066406 347.011719 C 565.285156 348.632812 565.632812 350.226562 566.105469 351.792969 C 566.582031 353.359375 567.175781 354.878906 567.890625 356.351562 C 568.609375 357.824219 569.4375 359.230469 570.378906 360.566406 C 571.320312 361.90625 572.363281 363.164062 573.503906 364.335938 C 574.648438 365.507812 575.875 366.582031 577.1875 367.558594 C 578.503906 368.535156 579.886719 369.402344 581.339844 370.15625 C 582.792969 370.910156 584.292969 371.546875 585.847656 372.058594 C 587.402344 372.574219 588.988281 372.964844 590.601562 373.222656 C 592.21875 373.484375 593.84375 373.617188 595.480469 373.617188 C 598.511719 373.628906 601.476562 373.191406 604.375 372.3125 C 607.277344 371.433594 609.984375 370.148438 612.496094 368.457031 L 796.785156 245.601562 C 797.621094 245.042969 798.425781 244.445312 799.207031 243.808594 C 799.984375 243.171875 800.726562 242.5 801.441406 241.789062 C 802.152344 241.078125 802.828125 240.335938 803.464844 239.558594 C 804.105469 238.785156 804.703125 237.976562 805.265625 237.140625 C 805.824219 236.308594 806.339844 235.445312 806.816406 234.5625 C 807.292969 233.675781 807.722656 232.769531 808.109375 231.839844 C 808.496094 230.910156 808.835938 229.964844 809.128906 229.003906 C 809.421875 228.042969 809.667969 227.070312 809.863281 226.082031 C 810.0625 225.097656 810.210938 224.105469 810.3125 223.105469 C 810.410156 222.105469 810.460938 221.101562 810.464844 220.09375 C 810.464844 219.089844 810.417969 218.085938 810.320312 217.085938 C 810.226562 216.085938 810.078125 215.09375 809.882812 214.105469 C 809.691406 213.121094 809.449219 212.144531 809.15625 211.183594 C 808.867188 210.21875 808.53125 209.273438 808.148438 208.34375 C 807.765625 207.414062 807.339844 206.503906 806.867188 205.617188 C 806.394531 204.730469 805.878906 203.867188 805.320312 203.03125 Z M 805.320312 203.03125 " fill-opacity="1" fill-rule="nonzero"/></g><g clip-path="url(#a2f165cb76)"><path fill="#000000" d="M 1165.355469 194.492188 C 1164.519531 193.898438 1163.65625 193.351562 1162.765625 192.84375 C 1161.875 192.335938 1160.960938 191.878906 1160.023438 191.460938 C 1159.085938 191.046875 1158.128906 190.679688 1157.15625 190.359375 C 1156.183594 190.042969 1155.195312 189.773438 1154.195312 189.550781 C 1153.195312 189.332031 1152.183594 189.160156 1151.167969 189.042969 C 1150.148438 188.921875 1149.128906 188.855469 1148.101562 188.835938 C 1147.078125 188.820312 1146.054688 188.855469 1145.035156 188.941406 C 1144.011719 189.023438 1143 189.160156 1141.992188 189.347656 C 1140.984375 189.535156 1139.988281 189.769531 1139.003906 190.058594 C 1138.019531 190.34375 1137.054688 190.679688 1136.101562 191.0625 C 1135.152344 191.445312 1134.222656 191.875 1133.316406 192.351562 C 1132.410156 192.828125 1131.527344 193.347656 1130.671875 193.914062 C 1129.816406 194.476562 1128.992188 195.082031 1128.199219 195.730469 C 1127.402344 196.375 1126.640625 197.0625 1125.917969 197.785156 C 1125.191406 198.507812 1124.5 199.265625 1123.851562 200.058594 C 1123.203125 200.847656 1122.59375 201.671875 1122.023438 202.523438 C 1121.457031 203.378906 1120.933594 204.257812 1120.453125 205.160156 C 1119.972656 206.066406 1119.539062 206.996094 1119.152344 207.945312 C 1118.765625 208.890625 1118.425781 209.859375 1118.136719 210.839844 C 1117.84375 211.824219 1117.605469 212.816406 1117.414062 213.824219 C 1117.222656 214.832031 1117.082031 215.84375 1116.992188 216.867188 C 1116.902344 217.886719 1116.863281 218.910156 1116.878906 219.933594 C 1116.890625 220.960938 1116.953125 221.980469 1117.070312 223 C 1117.183594 224.015625 1117.351562 225.027344 1117.566406 226.027344 C 1117.78125 227.03125 1118.046875 228.019531 1118.363281 228.992188 C 1118.679688 229.96875 1119.042969 230.925781 1119.453125 231.863281 C 1119.863281 232.804688 1120.320312 233.71875 1120.824219 234.613281 C 1121.324219 235.503906 1121.871094 236.371094 1122.460938 237.210938 C 1123.050781 238.046875 1123.679688 238.855469 1124.351562 239.628906 C 1125.019531 240.40625 1125.726562 241.144531 1126.472656 241.851562 C 1127.214844 242.554688 1127.992188 243.21875 1128.804688 243.847656 C 1129.613281 244.472656 1130.453125 245.058594 1131.324219 245.601562 L 1315.609375 368.457031 C 1316.445312 369.015625 1317.308594 369.53125 1318.195312 370 C 1319.082031 370.472656 1319.992188 370.902344 1320.921875 371.285156 C 1321.851562 371.667969 1322.796875 372.003906 1323.761719 372.292969 C 1324.722656 372.585938 1325.699219 372.828125 1326.683594 373.019531 C 1327.671875 373.214844 1328.664062 373.359375 1329.664062 373.457031 C 1330.664062 373.554688 1331.667969 373.601562 1332.675781 373.601562 C 1333.679688 373.597656 1334.683594 373.546875 1335.683594 373.445312 C 1336.683594 373.347656 1337.675781 373.199219 1338.660156 373 C 1339.648438 372.800781 1340.621094 372.558594 1341.582031 372.265625 C 1342.542969 371.96875 1343.488281 371.628906 1344.417969 371.246094 C 1345.347656 370.859375 1346.253906 370.425781 1347.140625 369.953125 C 1348.023438 369.476562 1348.886719 368.960938 1349.722656 368.398438 C 1350.554688 367.839844 1351.363281 367.242188 1352.136719 366.601562 C 1352.914062 365.964844 1353.65625 365.289062 1354.367188 364.574219 C 1355.078125 363.863281 1355.75 363.121094 1356.386719 362.339844 C 1357.023438 361.5625 1357.621094 360.757812 1358.179688 359.917969 C 1358.734375 359.082031 1359.25 358.21875 1359.722656 357.332031 C 1360.195312 356.445312 1360.621094 355.535156 1361.003906 354.605469 C 1361.386719 353.675781 1361.726562 352.730469 1362.015625 351.769531 C 1362.304688 350.804688 1362.546875 349.832031 1362.742188 348.84375 C 1362.9375 347.859375 1363.082031 346.863281 1363.179688 345.863281 C 1363.273438 344.863281 1363.324219 343.859375 1363.320312 342.855469 C 1363.320312 341.851562 1363.269531 340.847656 1363.167969 339.847656 C 1363.066406 338.847656 1362.917969 337.851562 1362.722656 336.867188 C 1362.523438 335.882812 1362.277344 334.90625 1361.984375 333.945312 C 1361.691406 332.984375 1361.351562 332.039062 1360.964844 331.113281 C 1360.578125 330.183594 1360.148438 329.277344 1359.671875 328.390625 C 1359.199219 327.503906 1358.679688 326.644531 1358.121094 325.808594 C 1357.5625 324.972656 1356.960938 324.167969 1356.324219 323.390625 C 1355.683594 322.613281 1355.007812 321.871094 1354.296875 321.160156 C 1353.585938 320.453125 1352.839844 319.777344 1352.0625 319.140625 C 1351.285156 318.503906 1350.476562 317.90625 1349.640625 317.351562 Z M 1165.355469 194.492188 " fill-opacity="1" fill-rule="nonzero"/></g><path fill="#000000" d="M 1217.199219 865.96875 L 725.773438 743.109375 C 724.804688 742.894531 723.832031 742.722656 722.847656 742.601562 C 721.863281 742.476562 720.875 742.402344 719.886719 742.375 C 718.894531 742.347656 717.90625 742.367188 716.917969 742.433594 C 715.925781 742.503906 714.945312 742.617188 713.96875 742.78125 C 712.988281 742.945312 712.023438 743.15625 711.066406 743.410156 C 710.109375 743.667969 709.164062 743.972656 708.238281 744.320312 C 707.308594 744.667969 706.402344 745.058594 705.511719 745.496094 C 704.621094 745.933594 703.753906 746.410156 702.910156 746.929688 C 702.066406 747.449219 701.25 748.011719 700.460938 748.609375 C 699.671875 749.210938 698.914062 749.84375 698.183594 750.519531 C 697.457031 751.191406 696.761719 751.894531 696.101562 752.636719 C 695.445312 753.375 694.820312 754.144531 694.238281 754.945312 C 693.652344 755.746094 693.105469 756.570312 692.601562 757.425781 C 692.097656 758.277344 691.632812 759.152344 691.214844 760.050781 C 690.792969 760.949219 690.417969 761.863281 690.085938 762.796875 C 689.753906 763.730469 689.46875 764.679688 689.226562 765.640625 C 688.988281 766.601562 688.796875 767.574219 688.648438 768.554688 C 688.503906 769.535156 688.40625 770.519531 688.355469 771.507812 C 688.304688 772.5 688.300781 773.488281 688.347656 774.480469 C 688.390625 775.46875 688.484375 776.453125 688.625 777.433594 C 688.765625 778.417969 688.953125 779.386719 689.1875 780.351562 C 689.421875 781.3125 689.703125 782.261719 690.03125 783.199219 C 690.359375 784.136719 690.730469 785.050781 691.144531 785.953125 C 691.558594 786.851562 692.019531 787.730469 692.519531 788.585938 C 693.019531 789.441406 693.558594 790.269531 694.140625 791.074219 C 694.71875 791.875 695.339844 792.648438 695.996094 793.394531 C 696.648438 794.136719 697.339844 794.847656 698.0625 795.523438 C 698.789062 796.199219 699.542969 796.839844 700.328125 797.441406 C 701.117188 798.046875 701.929688 798.609375 702.769531 799.132812 C 703.613281 799.660156 704.476562 800.140625 705.363281 800.582031 C 706.25 801.023438 707.15625 801.421875 708.082031 801.773438 C 709.007812 802.125 709.949219 802.433594 710.90625 802.695312 L 1202.335938 925.554688 C 1203.300781 925.769531 1204.277344 925.941406 1205.261719 926.066406 C 1206.242188 926.1875 1207.230469 926.261719 1208.222656 926.292969 C 1209.210938 926.320312 1210.203125 926.296875 1211.191406 926.230469 C 1212.179688 926.160156 1213.164062 926.046875 1214.140625 925.882812 C 1215.117188 925.71875 1216.085938 925.507812 1217.042969 925.253906 C 1218 924.996094 1218.941406 924.691406 1219.871094 924.34375 C 1220.796875 923.996094 1221.707031 923.605469 1222.597656 923.167969 C 1223.484375 922.730469 1224.351562 922.253906 1225.195312 921.734375 C 1226.039062 921.214844 1226.855469 920.652344 1227.644531 920.054688 C 1228.433594 919.457031 1229.195312 918.820312 1229.921875 918.148438 C 1230.648438 917.472656 1231.34375 916.769531 1232.003906 916.027344 C 1232.664062 915.289062 1233.285156 914.519531 1233.871094 913.71875 C 1234.453125 912.917969 1235 912.09375 1235.503906 911.238281 C 1236.011719 910.386719 1236.472656 909.511719 1236.894531 908.613281 C 1237.3125 907.714844 1237.6875 906.800781 1238.019531 905.867188 C 1238.351562 904.933594 1238.636719 903.984375 1238.878906 903.023438 C 1239.117188 902.0625 1239.3125 901.089844 1239.457031 900.109375 C 1239.601562 899.128906 1239.699219 898.144531 1239.75 897.15625 C 1239.800781 896.167969 1239.804688 895.175781 1239.757812 894.1875 C 1239.714844 893.195312 1239.621094 892.210938 1239.480469 891.230469 C 1239.339844 890.25 1239.152344 889.277344 1238.917969 888.3125 C 1238.683594 887.351562 1238.402344 886.402344 1238.074219 885.464844 C 1237.75 884.53125 1237.378906 883.613281 1236.960938 882.710938 C 1236.546875 881.8125 1236.089844 880.933594 1235.589844 880.078125 C 1235.089844 879.222656 1234.546875 878.394531 1233.964844 877.59375 C 1233.386719 876.789062 1232.769531 876.015625 1232.113281 875.273438 C 1231.457031 874.527344 1230.765625 873.820312 1230.042969 873.144531 C 1229.316406 872.464844 1228.5625 871.828125 1227.777344 871.222656 C 1226.992188 870.621094 1226.175781 870.054688 1225.335938 869.53125 C 1224.496094 869.007812 1223.632812 868.523438 1222.742188 868.082031 C 1221.855469 867.640625 1220.949219 867.246094 1220.023438 866.890625 C 1219.097656 866.539062 1218.15625 866.230469 1217.199219 865.96875 Z M 1217.199219 865.96875 " fill-opacity="1" fill-rule="nonzero"/></svg>