<svg xmlns="http://www.w3.org/2000/svg" xmlns:xlink="http://www.w3.org/1999/xlink" width="2560" zoomAndPan="magnify" viewBox="0 0 1920 1079.999946" height="1440" preserveAspectRatio="xMidYMid meet" version="1.0"><defs><clipPath id="aac20c893c"><path d="M 267.382812 161.226562 L 1653 161.226562 L 1653 918.773438 L 267.382812 918.773438 Z M 267.382812 161.226562 " clip-rule="nonzero"/></clipPath><clipPath id="4ccc2be10c"><path d="M 292.882812 161.226562 L 1627.117188 161.226562 C 1633.878906 161.226562 1640.367188 163.910156 1645.148438 168.695312 C 1649.929688 173.476562 1652.617188 179.960938 1652.617188 186.726562 L 1652.617188 893.273438 C 1652.617188 900.039062 1649.929688 906.523438 1645.148438 911.304688 C 1640.367188 916.089844 1633.878906 918.773438 1627.117188 918.773438 L 292.882812 918.773438 C 286.121094 918.773438 279.632812 916.089844 274.851562 911.304688 C 270.070312 906.523438 267.382812 900.039062 267.382812 893.273438 L 267.382812 186.726562 C 267.382812 179.960938 270.070312 173.476562 274.851562 168.695312 C 279.632812 163.910156 286.121094 161.226562 292.882812 161.226562 Z M 292.882812 161.226562 " clip-rule="nonzero"/></clipPath><clipPath id="5f0a91960d"><path d="M 0.382812 0.226562 L 1385.640625 0.226562 L 1385.640625 757.773438 L 0.382812 757.773438 Z M 0.382812 0.226562 " clip-rule="nonzero"/></clipPath><clipPath id="988f152640"><path d="M 25.882812 0.226562 L 1360.117188 0.226562 C 1366.878906 0.226562 1373.367188 2.910156 1378.148438 7.695312 C 1382.929688 12.476562 1385.617188 18.960938 1385.617188 25.726562 L 1385.617188 732.273438 C 1385.617188 739.039062 1382.929688 745.523438 1378.148438 750.304688 C 1373.367188 755.089844 1366.878906 757.773438 1360.117188 757.773438 L 25.882812 757.773438 C 19.121094 757.773438 12.632812 755.089844 7.851562 750.304688 C 3.070312 745.523438 0.382812 739.039062 0.382812 732.273438 L 0.382812 25.726562 C 0.382812 18.960938 3.070312 12.476562 7.851562 7.695312 C 12.632812 2.910156 19.121094 0.226562 25.882812 0.226562 Z M 25.882812 0.226562 " clip-rule="nonzero"/></clipPath><clipPath id="f91325b672"><rect x="0" width="1386" y="0" height="758"/></clipPath></defs><g clip-path="url(#aac20c893c)"><g clip-path="url(#4ccc2be10c)"><g transform="matrix(1, 0, 0, 1, 267, 161)"><g clip-path="url(#f91325b672)"><g clip-path="url(#5f0a91960d)"><g clip-path="url(#988f152640)"><path fill="#f15e3d" d="M 0.382812 0.226562 L 1385.277344 0.226562 L 1385.277344 757.773438 L 0.382812 757.773438 Z M 0.382812 0.226562 " fill-opacity="1" fill-rule="nonzero"/></g></g></g></g></g></g><path fill="#000000" d="M 770.246094 275.609375 C 766.769531 294.230469 769.003906 315.085938 769.253906 334.207031 C 769.5 354.316406 770.246094 373.933594 771.984375 393.796875 C 773.722656 412.914062 806.261719 415.644531 810.234375 396.527344 C 814.953125 374.925781 817.191406 354.8125 816.691406 332.964844 C 815.949219 311.609375 815.203125 288.519531 807.007812 268.65625 C 803.777344 260.960938 793.84375 256.738281 786.140625 258.226562 C 776.953125 259.964844 771.984375 267.167969 770.246094 275.609375 Z M 770.246094 275.609375 " fill-opacity="1" fill-rule="nonzero"/><path fill="#000000" d="M 1040.238281 269.152344 C 1032.785156 284.050781 1035.765625 306.148438 1036.511719 322.535156 C 1037.257812 341.652344 1039.492188 359.28125 1044.457031 377.65625 C 1051.164062 402.734375 1082.957031 399.007812 1087.925781 375.171875 C 1092.148438 355.308594 1092.398438 337.183594 1090.160156 317.074219 C 1088.175781 298.949219 1086.433594 277.347656 1074.761719 262.449219 C 1064.328125 249.289062 1046.445312 256.488281 1040.238281 269.152344 Z M 1040.238281 269.152344 " fill-opacity="1" fill-rule="nonzero"/><path fill="#000000" d="M 582.964844 584.234375 C 582.222656 621.726562 601.097656 656.984375 621.960938 687.027344 C 642.578125 716.574219 668.90625 742.394531 698.464844 763.003906 C 754.847656 802.234375 823.894531 824.582031 892.449219 827.558594 C 961.996094 830.539062 1033.28125 816.136719 1094.382812 782.371094 C 1155.238281 748.851562 1206.652344 699.441406 1244.15625 640.84375 C 1264.773438 608.566406 1281.414062 573.308594 1293.089844 536.8125 C 1299.296875 517.941406 1304.265625 498.324219 1307.496094 478.710938 C 1310.476562 459.34375 1314.449219 437.246094 1308.238281 418.375 C 1302.277344 400.5 1280.421875 398.015625 1271.976562 415.644531 C 1265.269531 429.796875 1264.523438 445.441406 1261.296875 460.832031 C 1258.066406 475.980469 1254.589844 491.125 1250.117188 506.023438 C 1241.671875 534.578125 1230.246094 562.386719 1215.59375 588.207031 C 1186.035156 640.597656 1145.300781 687.523438 1094.632812 720.792969 C 994.285156 786.34375 858.667969 795.28125 751.367188 740.160156 C 720.074219 724.023438 691.011719 702.421875 667.167969 676.847656 C 640.09375 647.796875 624.695312 614.03125 606.066406 579.515625 C 600.601562 569.832031 583.214844 571.570312 582.964844 584.234375 Z M 582.964844 584.234375 " fill-opacity="1" fill-rule="nonzero"/></svg>