<svg xmlns="http://www.w3.org/2000/svg" xmlns:xlink="http://www.w3.org/1999/xlink" width="2560" zoomAndPan="magnify" viewBox="0 0 1920 1079.999946" height="1440" preserveAspectRatio="xMidYMid meet" version="1.0"><defs><clipPath id="7f97982014"><path d="M 137.160156 90.007812 L 1783 90.007812 L 1783 989.992188 L 137.160156 989.992188 Z M 137.160156 90.007812 " clip-rule="nonzero"/></clipPath><clipPath id="fa0fdf50e8"><path d="M 162.660156 90.007812 L 1757.339844 90.007812 C 1764.101562 90.007812 1770.589844 92.695312 1775.371094 97.476562 C 1780.152344 102.261719 1782.839844 108.746094 1782.839844 115.507812 L 1782.839844 964.492188 C 1782.839844 971.253906 1780.152344 977.738281 1775.371094 982.523438 C 1770.589844 987.304688 1764.101562 989.992188 1757.339844 989.992188 L 162.660156 989.992188 C 155.898438 989.992188 149.410156 987.304688 144.628906 982.523438 C 139.847656 977.738281 137.160156 971.253906 137.160156 964.492188 L 137.160156 115.507812 C 137.160156 108.746094 139.847656 102.261719 144.628906 97.476562 C 149.410156 92.695312 155.898438 90.007812 162.660156 90.007812 Z M 162.660156 90.007812 " clip-rule="nonzero"/></clipPath><clipPath id="b1d157026f"><path d="M 0.160156 0.0078125 L 1645.960938 0.0078125 L 1645.960938 899.992188 L 0.160156 899.992188 Z M 0.160156 0.0078125 " clip-rule="nonzero"/></clipPath><clipPath id="674e42450d"><path d="M 25.660156 0.0078125 L 1620.339844 0.0078125 C 1627.101562 0.0078125 1633.589844 2.695312 1638.371094 7.476562 C 1643.152344 12.261719 1645.839844 18.746094 1645.839844 25.507812 L 1645.839844 874.492188 C 1645.839844 881.253906 1643.152344 887.738281 1638.371094 892.523438 C 1633.589844 897.304688 1627.101562 899.992188 1620.339844 899.992188 L 25.660156 899.992188 C 18.898438 899.992188 12.410156 897.304688 7.628906 892.523438 C 2.847656 887.738281 0.160156 881.253906 0.160156 874.492188 L 0.160156 25.507812 C 0.160156 18.746094 2.847656 12.261719 7.628906 7.476562 C 12.410156 2.695312 18.898438 0.0078125 25.660156 0.0078125 Z M 25.660156 0.0078125 " clip-rule="nonzero"/></clipPath><clipPath id="024267abd2"><rect x="0" width="1646" y="0" height="900"/></clipPath><clipPath id="7ceb579e00"><path d="M 595.617188 478 L 1266 478 L 1266 923.011719 L 595.617188 923.011719 Z M 595.617188 478 " clip-rule="nonzero"/></clipPath><clipPath id="449ee363b2"><path d="M 1074 108.511719 L 1324.617188 108.511719 L 1324.617188 466 L 1074 466 Z M 1074 108.511719 " clip-rule="nonzero"/></clipPath></defs><g clip-path="url(#7f97982014)"><g clip-path="url(#fa0fdf50e8)"><g transform="matrix(1, 0, 0, 1, 137, 90)"><g clip-path="url(#024267abd2)"><g clip-path="url(#b1d157026f)"><g clip-path="url(#674e42450d)"><path fill="#f15e3d" d="M 0.160156 0.0078125 L 1645.4375 0.0078125 L 1645.4375 899.992188 L 0.160156 899.992188 Z M 0.160156 0.0078125 " fill-opacity="1" fill-rule="nonzero"/></g></g></g></g></g></g><g clip-path="url(#7ceb579e00)"><path fill="#000000" d="M 1244.472656 496.367188 C 1218.394531 471.800781 1175.839844 473.152344 1149.597656 499.394531 L 1096.199219 552.78125 C 1073.238281 575.746094 1042.714844 588.386719 1010.226562 588.386719 L 851.148438 588.386719 C 818.671875 588.386719 788.132812 575.746094 765.167969 552.78125 L 711.777344 499.394531 C 685.535156 473.160156 642.980469 471.792969 616.894531 496.367188 C 603.566406 508.910156 596.082031 525.882812 595.808594 544.152344 C 595.53125 562.429688 602.496094 579.625 615.421875 592.546875 L 775.484375 752.605469 L 784.277344 854.90625 C 787.609375 893.746094 819.53125 923.035156 858.519531 923.035156 L 1002.304688 923.035156 C 1041.300781 923.035156 1073.21875 893.738281 1076.546875 854.882812 L 1085.347656 752.242188 L 1245.941406 592.546875 C 1258.867188 579.621094 1265.828125 562.4375 1265.5625 544.160156 C 1265.289062 525.890625 1257.796875 508.910156 1244.46875 496.363281 Z M 1227.390625 573.941406 L 1063.414062 737.007812 C 1061.207031 739.199219 1059.855469 742.109375 1059.589844 745.203125 L 1050.378906 852.640625 C 1048.222656 877.792969 1027.558594 896.753906 1002.308594 896.753906 L 858.527344 896.753906 C 833.285156 896.753906 812.621094 877.792969 810.457031 852.648438 L 801.253906 745.570312 C 800.988281 742.492188 799.648438 739.601562 797.453125 737.410156 L 634.007812 573.96875 C 626.15625 566.109375 621.921875 555.664062 622.09375 544.546875 C 622.257812 533.441406 626.816406 523.128906 634.914062 515.488281 C 642.382812 508.460938 652.140625 504.984375 662.082031 504.984375 C 673.226562 504.984375 684.59375 509.355469 693.207031 517.96875 L 746.597656 571.359375 C 774.523438 599.285156 811.65625 614.664062 851.15625 614.664062 L 1010.234375 614.664062 C 1049.734375 614.664062 1086.867188 599.285156 1114.785156 571.359375 L 1168.183594 517.96875 C 1184.476562 501.683594 1210.625 500.574219 1226.464844 515.488281 C 1234.574219 523.128906 1239.125 533.449219 1239.296875 544.554688 C 1239.457031 555.664062 1235.226562 566.117188 1227.398438 573.941406 Z M 1227.390625 573.941406 " fill-opacity="1" fill-rule="nonzero"/></g><path fill="#000000" d="M 930.6875 574.6875 C 998.347656 574.6875 1053.390625 519.648438 1053.390625 451.992188 C 1053.390625 384.335938 998.347656 329.296875 930.6875 329.296875 C 863.03125 329.296875 807.988281 384.335938 807.988281 451.992188 C 807.988281 519.652344 863.03125 574.6875 930.6875 574.6875 Z M 930.6875 355.574219 C 983.855469 355.574219 1027.113281 398.828125 1027.113281 451.992188 C 1027.113281 505.15625 983.855469 548.414062 930.6875 548.414062 C 877.519531 548.414062 834.265625 505.15625 834.265625 451.992188 C 834.265625 398.828125 877.519531 355.574219 930.6875 355.574219 Z M 930.6875 355.574219 " fill-opacity="1" fill-rule="nonzero"/><g clip-path="url(#449ee363b2)"><path fill="#000000" d="M 1324.429688 233.597656 C 1324.429688 198.058594 1309.25 164.085938 1282.769531 140.367188 C 1256.339844 116.695312 1220.808594 105.351562 1185.191406 109.289062 C 1126.609375 115.761719 1080.1875 163.113281 1074.816406 221.863281 C 1071.996094 252.773438 1080.539062 283.394531 1098.867188 308.078125 C 1112.84375 326.914062 1121.445312 348.003906 1123.804688 369.15625 C 1121.03125 373.808594 1119.4375 379.246094 1119.4375 385.050781 L 1119.4375 386.023438 C 1119.4375 403.207031 1133.414062 417.191406 1150.601562 417.191406 L 1151.539062 417.191406 L 1151.539062 418.226562 C 1151.539062 444.089844 1172.582031 465.132812 1198.441406 465.132812 L 1200.269531 465.132812 C 1226.136719 465.132812 1247.179688 444.09375 1247.179688 418.226562 L 1247.179688 417.191406 L 1248.121094 417.191406 C 1265.304688 417.191406 1279.28125 403.207031 1279.28125 386.023438 L 1279.28125 385.050781 C 1279.28125 379.261719 1277.691406 373.839844 1274.933594 369.191406 C 1277.632812 346.828125 1285.699219 326.433594 1298.371094 310.023438 C 1315.425781 287.960938 1324.433594 261.535156 1324.433594 233.601562 Z M 1220.898438 418.226562 C 1220.898438 429.601562 1211.644531 438.855469 1200.269531 438.855469 L 1198.4375 438.855469 C 1187.070312 438.855469 1177.816406 429.601562 1177.816406 418.226562 L 1177.816406 417.191406 L 1220.898438 417.191406 Z M 1253 386.023438 C 1253 388.71875 1250.8125 390.914062 1248.117188 390.914062 L 1150.597656 390.914062 C 1147.902344 390.914062 1145.714844 388.71875 1145.714844 386.023438 L 1145.714844 385.050781 C 1145.714844 384.273438 1145.898438 383.550781 1146.21875 382.898438 C 1146.878906 382.300781 1147.46875 381.636719 1147.996094 380.921875 C 1148.75 380.445312 1149.644531 380.164062 1150.601562 380.164062 L 1248.121094 380.164062 C 1249.089844 380.164062 1249.992188 380.453125 1250.753906 380.941406 C 1251.261719 381.628906 1251.839844 382.265625 1252.472656 382.839844 C 1252.8125 383.503906 1253.007812 384.253906 1253.007812 385.050781 L 1253.007812 386.023438 Z M 1277.574219 293.957031 C 1264.339844 311.09375 1255.207031 331.613281 1250.753906 354.003906 C 1249.886719 353.929688 1249.007812 353.890625 1248.117188 353.890625 L 1235.371094 353.890625 L 1235.371094 289.46875 L 1262.425781 255.597656 C 1266.960938 249.925781 1266.027344 241.65625 1260.363281 237.128906 C 1254.675781 232.605469 1246.421875 233.527344 1241.898438 239.191406 L 1211.96875 276.664062 C 1210.101562 279 1209.09375 281.890625 1209.09375 284.867188 L 1209.09375 353.890625 L 1189.617188 353.890625 L 1189.617188 284.867188 C 1189.617188 281.890625 1188.609375 279 1186.742188 276.664062 L 1156.8125 239.191406 C 1152.296875 233.539062 1144.019531 232.605469 1138.347656 237.128906 C 1132.683594 241.65625 1131.75 249.925781 1136.285156 255.597656 L 1163.339844 289.46875 L 1163.339844 353.890625 L 1150.59375 353.890625 C 1149.714844 353.890625 1148.84375 353.929688 1147.984375 354 C 1143.59375 332.449219 1134.050781 311.402344 1119.964844 292.417969 C 1105.484375 272.925781 1098.742188 248.71875 1100.984375 224.257812 C 1105.21875 177.882812 1141.84375 140.511719 1188.074219 135.40625 C 1216.617188 132.199219 1244.03125 140.957031 1265.234375 159.945312 C 1286.148438 178.675781 1298.144531 205.523438 1298.144531 233.597656 C 1298.144531 255.664062 1291.03125 276.535156 1277.566406 293.957031 Z M 1277.574219 293.957031 " fill-opacity="1" fill-rule="nonzero"/></g></svg>