<svg xmlns="http://www.w3.org/2000/svg" xmlns:xlink="http://www.w3.org/1999/xlink" width="2560" zoomAndPan="magnify" viewBox="0 0 1920 1079.999946" height="1440" preserveAspectRatio="xMidYMid meet" version="1.0"><defs><clipPath id="b5c2d33169"><path d="M 138.523438 90.757812 L 1782 90.757812 L 1782 989.242188 L 138.523438 989.242188 Z M 138.523438 90.757812 " clip-rule="nonzero"/></clipPath><clipPath id="9d53712189"><path d="M 164.023438 90.757812 L 1755.976562 90.757812 C 1770.058594 90.757812 1781.476562 102.171875 1781.476562 116.257812 L 1781.476562 963.742188 C 1781.476562 977.828125 1770.058594 989.242188 1755.976562 989.242188 L 164.023438 989.242188 C 149.941406 989.242188 138.523438 977.828125 138.523438 963.742188 L 138.523438 116.257812 C 138.523438 102.171875 149.941406 90.757812 164.023438 90.757812 Z M 164.023438 90.757812 " clip-rule="nonzero"/></clipPath><clipPath id="d684736b8a"><path d="M 0.523438 0.757812 L 1643.519531 0.757812 L 1643.519531 899.242188 L 0.523438 899.242188 Z M 0.523438 0.757812 " clip-rule="nonzero"/></clipPath><clipPath id="bb84625b4b"><path d="M 26.023438 0.757812 L 1617.976562 0.757812 C 1632.058594 0.757812 1643.476562 12.171875 1643.476562 26.257812 L 1643.476562 873.742188 C 1643.476562 887.828125 1632.058594 899.242188 1617.976562 899.242188 L 26.023438 899.242188 C 11.941406 899.242188 0.523438 887.828125 0.523438 873.742188 L 0.523438 26.257812 C 0.523438 12.171875 11.941406 0.757812 26.023438 0.757812 Z M 26.023438 0.757812 " clip-rule="nonzero"/></clipPath><clipPath id="2b98d5e02c"><rect x="0" width="1644" y="0" height="900"/></clipPath><clipPath id="4eb0c80549"><path d="M 560.445312 249.21875 L 1332.195312 249.21875 L 1332.195312 951.21875 L 560.445312 951.21875 Z M 560.445312 249.21875 " clip-rule="nonzero"/></clipPath></defs><g clip-path="url(#b5c2d33169)"><g clip-path="url(#9d53712189)"><g transform="matrix(1, 0, 0, 1, 138, 90)"><g clip-path="url(#2b98d5e02c)"><g clip-path="url(#d684736b8a)"><g clip-path="url(#bb84625b4b)"><path fill="#f15e3d" d="M 0.523438 0.757812 L 1643.074219 0.757812 L 1643.074219 899.242188 L 0.523438 899.242188 Z M 0.523438 0.757812 " fill-opacity="1" fill-rule="nonzero"/></g></g></g></g></g></g><g clip-path="url(#4eb0c80549)"><path fill="#000000" d="M 947.335938 -258.148438 L 927.390625 -258.402344 C 500.125 -258.402344 153.753906 87.972656 153.753906 515.222656 L 154.003906 535.171875 C 164.429688 946.566406 496.011719 1278.148438 907.40625 1288.574219 L 927.378906 1288.824219 C 1347.957031 1288.824219 1690.140625 953.207031 1700.726562 535.171875 L 1700.980469 515.222656 C 1700.992188 94.640625 1365.359375 -247.5625 947.335938 -258.148438 Z M 927.378906 1246 C 523.78125 1246 196.589844 918.828125 196.578125 515.222656 C 196.589844 111.628906 523.78125 -215.566406 927.378906 -215.566406 C 1330.972656 -215.566406 1658.15625 111.628906 1658.15625 515.234375 C 1658.15625 918.828125 1330.972656 1246 927.378906 1246.011719 Z M 927.378906 1246 " fill-opacity="1" fill-rule="nonzero"/></g><path fill="#000000" d="M 1165.066406 278.292969 C 1133.113281 278.292969 1107.207031 313.566406 1107.207031 357.085938 C 1107.207031 400.601562 1133.113281 435.878906 1165.066406 435.878906 C 1197.019531 435.878906 1222.925781 400.601562 1222.925781 357.085938 C 1222.925781 313.566406 1197.019531 278.292969 1165.066406 278.292969 Z M 1165.066406 278.292969 " fill-opacity="1" fill-rule="nonzero"/><path fill="#000000" d="M 747.558594 444.484375 C 779.511719 444.484375 805.417969 409.207031 805.417969 365.6875 C 805.417969 322.171875 779.511719 286.894531 747.558594 286.894531 C 715.605469 286.894531 689.699219 322.171875 689.699219 365.6875 C 689.699219 409.207031 715.605469 444.484375 747.558594 444.484375 Z M 747.558594 444.484375 " fill-opacity="1" fill-rule="nonzero"/><path fill="#000000" d="M 1172.210938 715.660156 C 1071.921875 680.261719 963.53125 695.054688 873.105469 730.175781 C 783.144531 765.125 706.980469 821.765625 671.824219 875.179688 C 665.320312 885.054688 668.050781 898.355469 677.9375 904.859375 C 687.8125 911.367188 701.089844 908.613281 707.597656 898.738281 C 736.3125 855.109375 803.882812 803.035156 888.632812 770.117188 C 972.9375 737.375 1070.308594 725.152344 1157.945312 756.082031 C 1169.09375 760.011719 1181.316406 754.164062 1185.257812 743.015625 C 1189.195312 731.867188 1183.359375 719.621094 1172.210938 715.683594 Z M 1172.210938 715.660156 " fill-opacity="1" fill-rule="nonzero"/></svg>