<svg xmlns="http://www.w3.org/2000/svg" xmlns:xlink="http://www.w3.org/1999/xlink" width="512" zoomAndPan="magnify" viewBox="0 0 384 383.999986" height="512" preserveAspectRatio="xMidYMid meet" version="1.0"><defs><g/><clipPath id="6ad377b826"><path d="M 26.328125 51.539062 L 346.632812 51.539062 L 346.632812 245.386719 L 26.328125 245.386719 Z M 26.328125 51.539062 " clip-rule="nonzero"/></clipPath><clipPath id="7c4db5d258"><path d="M 76.578125 51.539062 L 296.019531 51.539062 C 309.34375 51.539062 322.125 56.832031 331.550781 66.257812 C 340.972656 75.679688 346.269531 88.460938 346.269531 101.789062 L 346.269531 195.136719 C 346.269531 208.464844 340.972656 221.246094 331.550781 230.667969 C 322.125 240.09375 309.34375 245.386719 296.019531 245.386719 L 76.578125 245.386719 C 63.25 245.386719 50.46875 240.09375 41.042969 230.667969 C 31.621094 221.246094 26.328125 208.464844 26.328125 195.136719 L 26.328125 101.789062 C 26.328125 88.460938 31.621094 75.679688 41.042969 66.257812 C 50.46875 56.832031 63.25 51.539062 76.578125 51.539062 Z M 76.578125 51.539062 " clip-rule="nonzero"/></clipPath><clipPath id="ed08138f55"><path d="M 0.328125 0.539062 L 320.320312 0.539062 L 320.320312 194.386719 L 0.328125 194.386719 Z M 0.328125 0.539062 " clip-rule="nonzero"/></clipPath><clipPath id="de27fd54cd"><path d="M 50.578125 0.539062 L 270.019531 0.539062 C 283.34375 0.539062 296.125 5.832031 305.550781 15.257812 C 314.972656 24.679688 320.269531 37.460938 320.269531 50.789062 L 320.269531 144.136719 C 320.269531 157.464844 314.972656 170.246094 305.550781 179.667969 C 296.125 189.09375 283.34375 194.386719 270.019531 194.386719 L 50.578125 194.386719 C 37.25 194.386719 24.46875 189.09375 15.042969 179.667969 C 5.621094 170.246094 0.328125 157.464844 0.328125 144.136719 L 0.328125 50.789062 C 0.328125 37.460938 5.621094 24.679688 15.042969 15.257812 C 24.46875 5.832031 37.25 0.539062 50.578125 0.539062 Z M 50.578125 0.539062 " clip-rule="nonzero"/></clipPath><clipPath id="7d1713ef5d"><rect x="0" width="321" y="0" height="195"/></clipPath><clipPath id="597ca1d298"><rect x="0" width="93" y="0" height="69"/></clipPath><clipPath id="bba42359c8"><path d="M 54.097656 78.421875 L 318.835938 78.421875 L 318.835938 222.855469 L 54.097656 222.855469 Z M 54.097656 78.421875 " clip-rule="nonzero"/></clipPath><clipPath id="e02ef0737e"><path d="M 58.570312 78.421875 L 314.328125 78.421875 C 315.515625 78.421875 316.652344 78.890625 317.492188 79.726562 C 318.332031 80.5625 318.800781 81.699219 318.800781 82.882812 L 318.800781 218.394531 C 318.800781 219.574219 318.332031 220.710938 317.492188 221.546875 C 316.652344 222.386719 315.515625 222.855469 314.328125 222.855469 L 58.570312 222.855469 C 57.386719 222.855469 56.25 222.386719 55.410156 221.546875 C 54.570312 220.710938 54.097656 219.574219 54.097656 218.394531 L 54.097656 82.882812 C 54.097656 81.699219 54.570312 80.5625 55.410156 79.726562 C 56.25 78.890625 57.386719 78.421875 58.570312 78.421875 Z M 58.570312 78.421875 " clip-rule="nonzero"/></clipPath><clipPath id="e6a9bb5043"><path d="M 58.570312 78.421875 L 314.328125 78.421875 C 315.515625 78.421875 316.652344 78.890625 317.492188 79.726562 C 318.332031 80.5625 318.800781 81.699219 318.800781 82.882812 L 318.800781 218.394531 C 318.800781 219.574219 318.332031 220.710938 317.492188 221.546875 C 316.652344 222.386719 315.515625 222.855469 314.328125 222.855469 L 58.570312 222.855469 C 57.386719 222.855469 56.25 222.386719 55.410156 221.546875 C 54.570312 220.710938 54.097656 219.574219 54.097656 218.394531 L 54.097656 82.882812 C 54.097656 81.699219 54.570312 80.5625 55.410156 79.726562 C 56.25 78.890625 57.386719 78.421875 58.570312 78.421875 Z M 58.570312 78.421875 " clip-rule="nonzero"/></clipPath><clipPath id="e0a00077fb"><path d="M 107.738281 145.039062 L 255.90625 145.039062 L 255.90625 214.863281 L 107.738281 214.863281 Z M 107.738281 145.039062 " clip-rule="nonzero"/></clipPath></defs><g clip-path="url(#6ad377b826)"><g clip-path="url(#7c4db5d258)"><g transform="matrix(1, 0, 0, 1, 26, 51)"><g clip-path="url(#7d1713ef5d)"><g clip-path="url(#ed08138f55)"><g clip-path="url(#de27fd54cd)"><path fill="#f15e3d" d="M 0.328125 0.539062 L 320.632812 0.539062 L 320.632812 194.386719 L 0.328125 194.386719 Z M 0.328125 0.539062 " fill-opacity="1" fill-rule="nonzero"/></g></g></g></g></g></g><g transform="matrix(1, 0, 0, 1, 140, 269)"><g clip-path="url(#597ca1d298)"><g fill="#000000" fill-opacity="1"><g transform="translate(0.736426, 53.316493)"><g><path d="M 15.78125 0.515625 C 13.3125 0.515625 11.113281 0.210938 9.1875 -0.390625 C 7.269531 -1.003906 5.664062 -1.804688 4.375 -2.796875 C 3.09375 -3.785156 2.113281 -4.875 1.4375 -6.0625 L 5.3125 -10.78125 L 5.921875 -10.78125 C 6.992188 -9.195312 8.351562 -7.929688 10 -6.984375 C 11.644531 -6.046875 13.570312 -5.578125 15.78125 -5.578125 C 17.664062 -5.578125 19.085938 -5.972656 20.046875 -6.765625 C 21.003906 -7.566406 21.484375 -8.664062 21.484375 -10.0625 C 21.484375 -10.90625 21.328125 -11.609375 21.015625 -12.171875 C 20.703125 -12.742188 20.1875 -13.234375 19.46875 -13.640625 C 18.757812 -14.046875 17.796875 -14.394531 16.578125 -14.6875 L 12 -15.734375 C 8.800781 -16.460938 6.421875 -17.675781 4.859375 -19.375 C 3.296875 -21.070312 2.515625 -23.273438 2.515625 -25.984375 C 2.515625 -27.992188 3.015625 -29.757812 4.015625 -31.28125 C 5.023438 -32.8125 6.488281 -34 8.40625 -34.84375 C 10.332031 -35.6875 12.632812 -36.109375 15.3125 -36.109375 C 18.0625 -36.109375 20.410156 -35.75 22.359375 -35.03125 C 24.316406 -34.3125 25.972656 -33.203125 27.328125 -31.703125 L 23.84375 -26.9375 L 23.234375 -26.9375 C 22.222656 -27.988281 21.066406 -28.773438 19.765625 -29.296875 C 18.472656 -29.828125 16.988281 -30.09375 15.3125 -30.09375 C 13.382812 -30.09375 11.914062 -29.753906 10.90625 -29.078125 C 9.90625 -28.398438 9.40625 -27.457031 9.40625 -26.25 C 9.40625 -25.132812 9.753906 -24.242188 10.453125 -23.578125 C 11.160156 -22.910156 12.382812 -22.390625 14.125 -22.015625 L 18.796875 -21.046875 C 22.253906 -20.304688 24.757812 -19.0625 26.3125 -17.3125 C 27.875 -15.570312 28.65625 -13.300781 28.65625 -10.5 C 28.65625 -8.269531 28.175781 -6.332031 27.21875 -4.6875 C 26.269531 -3.039062 24.828125 -1.757812 22.890625 -0.84375 C 20.960938 0.0625 18.59375 0.515625 15.78125 0.515625 Z M 15.78125 0.515625 "/></g></g></g><g fill="#000000" fill-opacity="1"><g transform="translate(31.318983, 53.316493)"><g><path d="M 10.46875 0.515625 C 8.75 0.515625 7.253906 0.195312 5.984375 -0.4375 C 4.722656 -1.070312 3.75 -2 3.0625 -3.21875 C 2.382812 -4.445312 2.046875 -5.921875 2.046875 -7.640625 C 2.046875 -9.234375 2.382812 -10.566406 3.0625 -11.640625 C 3.75 -12.722656 4.804688 -13.609375 6.234375 -14.296875 C 7.660156 -14.992188 9.523438 -15.53125 11.828125 -15.90625 C 13.441406 -16.164062 14.664062 -16.445312 15.5 -16.75 C 16.332031 -17.0625 16.894531 -17.410156 17.1875 -17.796875 C 17.476562 -18.191406 17.625 -18.6875 17.625 -19.28125 C 17.625 -20.144531 17.320312 -20.800781 16.71875 -21.25 C 16.125 -21.707031 15.128906 -21.9375 13.734375 -21.9375 C 12.242188 -21.9375 10.820312 -21.601562 9.46875 -20.9375 C 8.125 -20.269531 6.957031 -19.394531 5.96875 -18.3125 L 5.484375 -18.3125 L 2.65625 -22.578125 C 4.019531 -24.085938 5.679688 -25.265625 7.640625 -26.109375 C 9.609375 -26.953125 11.753906 -27.375 14.078125 -27.375 C 17.628906 -27.375 20.203125 -26.617188 21.796875 -25.109375 C 23.390625 -23.597656 24.1875 -21.453125 24.1875 -18.671875 L 24.1875 -7.015625 C 24.1875 -5.816406 24.710938 -5.21875 25.765625 -5.21875 C 26.171875 -5.21875 26.566406 -5.289062 26.953125 -5.4375 L 27.296875 -5.328125 L 27.78125 -0.640625 C 27.414062 -0.390625 26.898438 -0.1875 26.234375 -0.03125 C 25.566406 0.113281 24.832031 0.1875 24.03125 0.1875 C 22.425781 0.1875 21.171875 -0.117188 20.265625 -0.734375 C 19.367188 -1.347656 18.726562 -2.3125 18.34375 -3.625 L 17.828125 -3.671875 C 16.515625 -0.878906 14.0625 0.515625 10.46875 0.515625 Z M 12.609375 -4.53125 C 14.171875 -4.53125 15.414062 -5.050781 16.34375 -6.09375 C 17.28125 -7.144531 17.75 -8.601562 17.75 -10.46875 L 17.75 -13.203125 L 17.296875 -13.296875 C 16.890625 -12.972656 16.351562 -12.703125 15.6875 -12.484375 C 15.03125 -12.265625 14.085938 -12.046875 12.859375 -11.828125 C 11.398438 -11.585938 10.347656 -11.171875 9.703125 -10.578125 C 9.066406 -9.984375 8.75 -9.144531 8.75 -8.0625 C 8.75 -6.90625 9.085938 -6.023438 9.765625 -5.421875 C 10.441406 -4.828125 11.390625 -4.53125 12.609375 -4.53125 Z M 12.609375 -4.53125 "/></g></g></g><g fill="#000000" fill-opacity="1"><g transform="translate(59.637068, 53.316493)"><g><path d="M 13.265625 0.515625 C 11.140625 0.515625 9.257812 0 7.625 -1.03125 C 6 -2.0625 4.722656 -3.617188 3.796875 -5.703125 C 2.867188 -7.796875 2.40625 -10.367188 2.40625 -13.421875 C 2.40625 -16.484375 2.878906 -19.054688 3.828125 -21.140625 C 4.785156 -23.234375 6.101562 -24.796875 7.78125 -25.828125 C 9.457031 -26.859375 11.398438 -27.375 13.609375 -27.375 C 15.285156 -27.375 16.734375 -27.082031 17.953125 -26.5 C 19.179688 -25.925781 20.21875 -25.03125 21.0625 -23.8125 L 21.578125 -23.9375 L 21.578125 -37.65625 L 28.328125 -37.65625 L 28.328125 0 L 21.578125 0 L 21.578125 -3.484375 L 21.0625 -3.578125 C 20.3125 -2.316406 19.285156 -1.316406 17.984375 -0.578125 C 16.691406 0.148438 15.117188 0.515625 13.265625 0.515625 Z M 15.46875 -5.21875 C 17.363281 -5.21875 18.863281 -5.894531 19.96875 -7.25 C 21.070312 -8.601562 21.625 -10.660156 21.625 -13.421875 C 21.625 -16.179688 21.070312 -18.242188 19.96875 -19.609375 C 18.863281 -20.972656 17.363281 -21.65625 15.46875 -21.65625 C 13.488281 -21.65625 11.972656 -20.992188 10.921875 -19.671875 C 9.878906 -18.347656 9.359375 -16.265625 9.359375 -13.421875 C 9.359375 -10.597656 9.878906 -8.523438 10.921875 -7.203125 C 11.972656 -5.878906 13.488281 -5.21875 15.46875 -5.21875 Z M 15.46875 -5.21875 "/></g></g></g></g></g><g clip-path="url(#bba42359c8)"><g clip-path="url(#e02ef0737e)"><g clip-path="url(#e6a9bb5043)"><path fill="#f15e3d" d="M 54.097656 78.421875 L 318.738281 78.421875 L 318.738281 222.855469 L 54.097656 222.855469 Z M 54.097656 78.421875 " fill-opacity="1" fill-rule="nonzero"/></g></g></g><path fill="#000000" d="M 153.050781 90.734375 C 152.316406 94.382812 152.804688 98.472656 152.804688 102.222656 C 152.855469 106.164062 153 110.007812 153.339844 113.902344 C 153.683594 117.652344 160.078125 118.1875 160.859375 114.4375 C 161.785156 110.203125 162.226562 106.261719 162.128906 101.976562 C 161.980469 97.792969 161.835938 93.265625 160.222656 89.371094 C 159.589844 87.863281 157.636719 87.035156 156.125 87.328125 C 154.367188 87.667969 153.390625 89.078125 153.050781 90.734375 Z M 153.050781 90.734375 " fill-opacity="1" fill-rule="nonzero"/><path fill="#000000" d="M 206.105469 89.46875 C 204.640625 92.386719 205.226562 96.722656 205.371094 99.933594 C 205.519531 103.683594 205.957031 107.136719 206.933594 110.738281 C 208.253906 115.65625 214.5 114.925781 215.476562 110.253906 C 216.308594 106.359375 216.355469 102.804688 215.917969 98.863281 C 215.527344 95.308594 215.183594 91.074219 212.890625 88.152344 C 210.839844 85.574219 207.324219 86.984375 206.105469 89.46875 Z M 206.105469 89.46875 " fill-opacity="1" fill-rule="nonzero"/><g clip-path="url(#e0a00077fb)"><path fill="#000000" d="M 111.902344 213.839844 C 115.269531 209.070312 117.367188 203.375 120.542969 198.410156 C 123.714844 193.394531 127.277344 188.527344 131.183594 184.050781 C 138.699219 175.480469 147.828125 168.128906 157.882812 162.777344 C 169.691406 156.496094 182.96875 152.75 196.390625 154.84375 C 208.15625 156.691406 219.1875 162.972656 227.433594 171.441406 C 232.363281 176.503906 236.417969 182.246094 239.6875 188.527344 C 243.003906 194.953125 245.300781 201.71875 248.035156 208.386719 C 249.886719 212.914062 256.234375 210.089844 255.746094 205.757812 C 254.28125 192.082031 246.667969 178.5 237.683594 168.324219 C 228.703125 158.101562 216.597656 150.167969 203.324219 146.90625 C 175.695312 140.09375 146.800781 154.453125 128.351562 174.554688 C 123.371094 179.960938 118.882812 185.753906 115.414062 192.226562 C 112.097656 198.3125 108.191406 205.417969 107.851562 212.429688 C 107.753906 214.617188 110.632812 215.640625 111.902344 213.839844 Z M 111.902344 213.839844 " fill-opacity="1" fill-rule="nonzero"/></g></svg>