<svg xmlns="http://www.w3.org/2000/svg" xmlns:xlink="http://www.w3.org/1999/xlink" width="512" zoomAndPan="magnify" viewBox="0 0 384 383.999986" height="512" preserveAspectRatio="xMidYMid meet" version="1.0"><defs><g/><clipPath id="7db37eefba"><path d="M 26.328125 51.539062 L 346.632812 51.539062 L 346.632812 245.386719 L 26.328125 245.386719 Z M 26.328125 51.539062 " clip-rule="nonzero"/></clipPath><clipPath id="4cc32713d0"><path d="M 76.578125 51.539062 L 296.019531 51.539062 C 309.34375 51.539062 322.125 56.832031 331.550781 66.257812 C 340.972656 75.679688 346.269531 88.460938 346.269531 101.789062 L 346.269531 195.136719 C 346.269531 208.464844 340.972656 221.246094 331.550781 230.667969 C 322.125 240.09375 309.34375 245.386719 296.019531 245.386719 L 76.578125 245.386719 C 63.25 245.386719 50.46875 240.09375 41.042969 230.667969 C 31.621094 221.246094 26.328125 208.464844 26.328125 195.136719 L 26.328125 101.789062 C 26.328125 88.460938 31.621094 75.679688 41.042969 66.257812 C 50.46875 56.832031 63.25 51.539062 76.578125 51.539062 Z M 76.578125 51.539062 " clip-rule="nonzero"/></clipPath><clipPath id="032fec4ce5"><path d="M 0.328125 0.539062 L 320.320312 0.539062 L 320.320312 194.386719 L 0.328125 194.386719 Z M 0.328125 0.539062 " clip-rule="nonzero"/></clipPath><clipPath id="d16ad8bf30"><path d="M 50.578125 0.539062 L 270.019531 0.539062 C 283.34375 0.539062 296.125 5.832031 305.550781 15.257812 C 314.972656 24.679688 320.269531 37.460938 320.269531 50.789062 L 320.269531 144.136719 C 320.269531 157.464844 314.972656 170.246094 305.550781 179.667969 C 296.125 189.09375 283.34375 194.386719 270.019531 194.386719 L 50.578125 194.386719 C 37.25 194.386719 24.46875 189.09375 15.042969 179.667969 C 5.621094 170.246094 0.328125 157.464844 0.328125 144.136719 L 0.328125 50.789062 C 0.328125 37.460938 5.621094 24.679688 15.042969 15.257812 C 24.46875 5.832031 37.25 0.539062 50.578125 0.539062 Z M 50.578125 0.539062 " clip-rule="nonzero"/></clipPath><clipPath id="d7f7ebfa11"><rect x="0" width="321" y="0" height="195"/></clipPath><clipPath id="d6eec0f3e7"><rect x="0" width="147" y="0" height="69"/></clipPath><clipPath id="58b3cce631"><path d="M 44.847656 71.191406 L 327.996094 71.191406 L 327.996094 226.113281 L 44.847656 226.113281 Z M 44.847656 71.191406 " clip-rule="nonzero"/></clipPath><clipPath id="41c974f7b8"><path d="M 49.449219 71.191406 L 323.378906 71.191406 C 324.597656 71.191406 325.769531 71.679688 326.632812 72.542969 C 327.492188 73.40625 327.980469 74.578125 327.980469 75.796875 L 327.980469 221.507812 C 327.980469 222.726562 327.492188 223.898438 326.632812 224.761719 C 325.769531 225.625 324.597656 226.113281 323.378906 226.113281 L 49.449219 226.113281 C 48.230469 226.113281 47.058594 225.625 46.195312 224.761719 C 45.332031 223.898438 44.847656 222.726562 44.847656 221.507812 L 44.847656 75.796875 C 44.847656 74.578125 45.332031 73.40625 46.195312 72.542969 C 47.058594 71.679688 48.230469 71.191406 49.449219 71.191406 Z M 49.449219 71.191406 " clip-rule="nonzero"/></clipPath><clipPath id="e20b6d978e"><path d="M 49.449219 71.191406 L 323.378906 71.191406 C 324.597656 71.191406 325.769531 71.679688 326.632812 72.542969 C 327.492188 73.40625 327.980469 74.578125 327.980469 75.796875 L 327.980469 221.507812 C 327.980469 222.726562 327.492188 223.898438 326.632812 224.761719 C 325.769531 225.625 324.597656 226.113281 323.378906 226.113281 L 49.449219 226.113281 C 48.230469 226.113281 47.058594 225.625 46.195312 224.761719 C 45.332031 223.898438 44.847656 222.726562 44.847656 221.507812 L 44.847656 75.796875 C 44.847656 74.578125 45.332031 73.40625 46.195312 72.542969 C 47.058594 71.679688 48.230469 71.191406 49.449219 71.191406 Z M 49.449219 71.191406 " clip-rule="nonzero"/></clipPath><clipPath id="ebac8761bf"><path d="M 109.183594 72.484375 L 263.613281 72.484375 L 263.613281 214.265625 L 109.183594 214.265625 Z M 109.183594 72.484375 " clip-rule="nonzero"/></clipPath></defs><g clip-path="url(#7db37eefba)"><g clip-path="url(#4cc32713d0)"><g transform="matrix(1, 0, 0, 1, 26, 51)"><g clip-path="url(#d7f7ebfa11)"><g clip-path="url(#032fec4ce5)"><g clip-path="url(#d16ad8bf30)"><path fill="#f15e3d" d="M 0.328125 0.539062 L 320.632812 0.539062 L 320.632812 194.386719 L 0.328125 194.386719 Z M 0.328125 0.539062 " fill-opacity="1" fill-rule="nonzero"/></g></g></g></g></g></g><g transform="matrix(1, 0, 0, 1, 113, 269)"><g clip-path="url(#d6eec0f3e7)"><g fill="#000000" fill-opacity="1"><g transform="translate(1.122372, 53.316493)"><g><path d="M 34.171875 0 L 26.765625 0 L 24.078125 -8.203125 L 10.453125 -8.203125 L 7.765625 0 L 0.53125 0 L 12.828125 -35.609375 L 21.875 -35.609375 Z M 16.921875 -28.171875 L 12.34375 -14.125 L 22.140625 -14.125 L 17.53125 -28.171875 Z M 16.921875 -28.171875 "/></g></g></g><g fill="#000000" fill-opacity="1"><g transform="translate(35.81994, 53.316493)"><g><path d="M 3.875 0 L 3.875 -26.859375 L 10.34375 -26.859375 L 10.34375 -22.921875 L 10.859375 -22.796875 C 12.535156 -25.847656 15.25 -27.375 19 -27.375 C 22.09375 -27.375 24.363281 -26.53125 25.8125 -24.84375 C 27.269531 -23.15625 28 -20.695312 28 -17.46875 L 28 0 L 21.265625 0 L 21.265625 -16.640625 C 21.265625 -18.421875 20.90625 -19.703125 20.1875 -20.484375 C 19.46875 -21.273438 18.320312 -21.671875 16.75 -21.671875 C 14.820312 -21.671875 13.316406 -21.046875 12.234375 -19.796875 C 11.160156 -18.546875 10.625 -16.582031 10.625 -13.90625 L 10.625 0 Z M 3.875 0 "/></g></g></g><g fill="#000000" fill-opacity="1"><g transform="translate(67.279068, 53.316493)"><g><path d="M 13.9375 11.390625 C 9.5 11.390625 6.222656 10.738281 4.109375 9.4375 C 2.003906 8.144531 0.953125 6.335938 0.953125 4.015625 C 0.953125 2.609375 1.398438 1.453125 2.296875 0.546875 C 3.203125 -0.347656 4.5 -0.953125 6.1875 -1.265625 L 6.1875 -1.78125 C 5.28125 -2.332031 4.625 -2.941406 4.21875 -3.609375 C 3.820312 -4.285156 3.625 -5.070312 3.625 -5.96875 C 3.625 -8.125 5.03125 -9.578125 7.84375 -10.328125 L 7.84375 -10.84375 C 6.394531 -11.664062 5.304688 -12.6875 4.578125 -13.90625 C 3.847656 -15.132812 3.484375 -16.617188 3.484375 -18.359375 C 3.484375 -20.148438 3.890625 -21.722656 4.703125 -23.078125 C 5.523438 -24.429688 6.726562 -25.484375 8.3125 -26.234375 C 9.894531 -26.992188 11.789062 -27.375 14 -27.375 C 16.238281 -27.375 18.023438 -26.984375 19.359375 -26.203125 C 20.191406 -27.398438 20.671875 -28.789062 20.796875 -30.375 L 21.3125 -30.6875 L 26.15625 -29.484375 C 26.007812 -28.203125 25.632812 -27.128906 25.03125 -26.265625 C 24.4375 -25.398438 23.503906 -24.625 22.234375 -23.9375 L 22.234375 -23.40625 C 23.742188 -22.070312 24.5 -20.210938 24.5 -17.828125 C 24.5 -16.171875 24.082031 -14.679688 23.25 -13.359375 C 22.425781 -12.046875 21.222656 -11.007812 19.640625 -10.25 C 18.054688 -9.488281 16.175781 -9.109375 14 -9.109375 L 12.984375 -9.125 C 12.328125 -9.164062 11.867188 -9.1875 11.609375 -9.1875 C 10.992188 -9.1875 10.507812 -9.019531 10.15625 -8.6875 C 9.8125 -8.351562 9.640625 -7.925781 9.640625 -7.40625 C 9.640625 -6.832031 9.863281 -6.382812 10.3125 -6.0625 C 10.769531 -5.75 11.441406 -5.578125 12.328125 -5.546875 L 18.34375 -5.328125 C 24.28125 -5.148438 27.25 -2.59375 27.25 2.34375 C 27.25 4.070312 26.804688 5.613281 25.921875 6.96875 C 25.035156 8.332031 23.601562 9.410156 21.625 10.203125 C 19.644531 10.992188 17.082031 11.390625 13.9375 11.390625 Z M 14 -13.828125 C 15.300781 -13.828125 16.316406 -14.207031 17.046875 -14.96875 C 17.773438 -15.738281 18.140625 -16.828125 18.140625 -18.234375 C 18.140625 -19.648438 17.773438 -20.734375 17.046875 -21.484375 C 16.316406 -22.242188 15.300781 -22.625 14 -22.625 C 12.6875 -22.625 11.671875 -22.242188 10.953125 -21.484375 C 10.242188 -20.734375 9.890625 -19.648438 9.890625 -18.234375 C 9.890625 -16.804688 10.242188 -15.710938 10.953125 -14.953125 C 11.671875 -14.203125 12.6875 -13.828125 14 -13.828125 Z M 13.9375 6.5 C 16.238281 6.5 17.910156 6.171875 18.953125 5.515625 C 20.003906 4.867188 20.53125 4.03125 20.53125 3 C 20.53125 2.15625 20.257812 1.53125 19.71875 1.125 C 19.1875 0.726562 18.335938 0.515625 17.171875 0.484375 L 11.859375 0.25 C 11.679688 0.25 11.515625 0.238281 11.359375 0.21875 C 11.203125 0.195312 11.050781 0.1875 10.90625 0.1875 C 9.769531 0.1875 8.90625 0.429688 8.3125 0.921875 C 7.71875 1.410156 7.421875 2.085938 7.421875 2.953125 C 7.421875 4.085938 7.960938 4.960938 9.046875 5.578125 C 10.140625 6.191406 11.769531 6.5 13.9375 6.5 Z M 13.9375 6.5 "/></g></g></g><g fill="#000000" fill-opacity="1"><g transform="translate(95.207566, 53.316493)"><g><path d="M 3.875 0 L 3.875 -26.859375 L 10.421875 -26.859375 L 10.421875 -22.875 L 10.9375 -22.765625 C 11.582031 -24.265625 12.429688 -25.363281 13.484375 -26.0625 C 14.546875 -26.757812 15.832031 -27.109375 17.34375 -27.109375 C 18.863281 -27.109375 20.023438 -26.847656 20.828125 -26.328125 L 19.671875 -20.5 L 19.171875 -20.40625 C 18.734375 -20.582031 18.3125 -20.710938 17.90625 -20.796875 C 17.5 -20.878906 17 -20.921875 16.40625 -20.921875 C 14.53125 -20.921875 13.097656 -20.257812 12.109375 -18.9375 C 11.117188 -17.613281 10.625 -15.488281 10.625 -12.5625 L 10.625 0 Z M 3.875 0 "/></g></g></g><g fill="#000000" fill-opacity="1"><g transform="translate(116.610523, 53.316493)"><g><path d="M 5.9375 11.390625 C 4.789062 11.390625 3.75 11.300781 2.8125 11.125 C 1.875 10.945312 1.113281 10.710938 0.53125 10.421875 L 1.609375 4.96875 L 2.046875 4.828125 C 2.453125 5.035156 2.953125 5.203125 3.546875 5.328125 C 4.148438 5.460938 4.769531 5.53125 5.40625 5.53125 C 6.488281 5.53125 7.390625 5.382812 8.109375 5.09375 C 8.835938 4.8125 9.453125 4.34375 9.953125 3.6875 C 10.460938 3.03125 10.910156 2.117188 11.296875 0.953125 L 0.578125 -26.859375 L 7.640625 -26.859375 L 14.3125 -8.1875 L 14.90625 -8.1875 L 21.40625 -26.859375 L 28.28125 -26.859375 L 17.484375 1.6875 C 16.617188 3.988281 15.671875 5.84375 14.640625 7.25 C 13.617188 8.65625 12.40625 9.695312 11 10.375 C 9.59375 11.050781 7.90625 11.390625 5.9375 11.390625 Z M 5.9375 11.390625 "/></g></g></g></g></g><g clip-path="url(#58b3cce631)"><g clip-path="url(#41c974f7b8)"><g clip-path="url(#e20b6d978e)"><path fill="#f15e3d" d="M 44.847656 71.191406 L 327.910156 71.191406 L 327.910156 226.113281 L 44.847656 226.113281 Z M 44.847656 71.191406 " fill-opacity="1" fill-rule="nonzero"/></g></g></g><g clip-path="url(#ebac8761bf)"><path fill="#050505" d="M 187.828125 22.644531 C 254.171875 22.785156 307.464844 75.996094 307.261719 142.015625 C 307.039062 213.484375 248.355469 260.898438 187.195312 260.414062 C 121.460938 259.894531 68.679688 207.15625 68.671875 141.570312 C 68.667969 75.421875 122.585938 23.046875 187.828125 22.644531 Z M 188.425781 253.179688 C 240.800781 253.863281 299.621094 213 300.148438 141.917969 C 300.601562 80.304688 250.246094 29.929688 188.515625 29.738281 C 126.347656 29.546875 75.976562 79.46875 75.839844 141.414062 C 75.703125 203.734375 125.351562 253.019531 188.425781 253.179688 Z M 188.425781 253.179688 " fill-opacity="1" fill-rule="evenodd"/></g><path fill="#050506" d="M 188.035156 174.140625 C 207.0625 174.804688 222.988281 181.597656 234.140625 197.726562 C 235.183594 199.234375 236.066406 200.886719 236.804688 202.570312 C 237.609375 204.402344 236.875 205.917969 235.152344 206.777344 C 233.496094 207.609375 231.886719 207.46875 230.679688 205.832031 C 230.429688 205.492188 230.214844 205.128906 230.011719 204.761719 C 222.59375 191.230469 210.613281 184.285156 195.882812 181.980469 C 179.550781 179.429688 165.074219 183.753906 153.066406 195.421875 C 150.273438 198.136719 148.097656 201.332031 146.289062 204.78125 C 145.035156 207.175781 143.160156 207.957031 141.207031 206.984375 C 139.28125 206.023438 138.679688 203.949219 139.878906 201.59375 C 145.351562 190.851562 154.066406 183.625 164.964844 178.898438 C 172.292969 175.71875 179.96875 174.039062 188.035156 174.140625 Z M 188.035156 174.140625 " fill-opacity="1" fill-rule="evenodd"/><path fill="#030303" d="M 127.191406 107.855469 C 123.40625 107.898438 119.878906 108.839844 116.476562 110.417969 C 115.804688 110.726562 114.925781 111.710938 114.265625 110.75 C 113.738281 109.980469 114.609375 109.210938 115.109375 108.558594 C 117.3125 105.710938 120.308594 103.992188 123.699219 103.160156 C 133.585938 100.726562 142.761719 102.652344 150.953125 108.535156 C 156.414062 112.453125 158.074219 119.640625 155.511719 125.734375 C 153.003906 131.699219 147.335938 135.066406 141.015625 134.351562 C 132.441406 133.382812 127.023438 124.289062 129.703125 115.359375 C 130.261719 113.492188 131.089844 111.75 132.183594 110.152344 C 132.9375 109.046875 132.773438 108.503906 131.433594 108.351562 C 130.019531 108.195312 128.605469 108.023438 127.191406 107.855469 Z M 127.191406 107.855469 " fill-opacity="1" fill-rule="evenodd"/><path fill="#030303" d="M 219.578125 120.140625 C 219.683594 115.035156 221.417969 110.683594 225.898438 107.9375 C 233.90625 103.035156 242.503906 100.765625 251.882812 102.976562 C 255.484375 103.824219 258.621094 105.5625 260.875 108.605469 C 261.339844 109.238281 262.210938 110.015625 261.578125 110.792969 C 260.964844 111.546875 260.191406 110.636719 259.574219 110.351562 C 254.863281 108.15625 249.972656 107.503906 244.84375 108.320312 C 243.289062 108.570312 242.769531 108.761719 243.929688 110.375 C 246.984375 114.632812 247.914062 119.40625 246.457031 124.503906 C 244.519531 131.269531 238.289062 135.308594 231.425781 134.339844 C 224.660156 133.386719 219.648438 127.378906 219.578125 120.140625 Z M 219.578125 120.140625 " fill-opacity="1" fill-rule="evenodd"/><path fill="#050505" d="M 121.609375 81.515625 C 124.476562 81.6875 127.210938 82.492188 129.914062 83.433594 C 139.710938 86.855469 148.113281 92.753906 156.589844 98.511719 C 161.804688 102.050781 166.976562 105.660156 172.160156 109.246094 C 174.515625 110.878906 175.152344 112.691406 174.042969 114.519531 C 172.871094 116.453125 170.75 116.765625 168.328125 115.140625 C 160.722656 110.035156 153.199219 104.8125 145.578125 99.734375 C 137.933594 94.636719 129.992188 90.140625 120.800781 88.398438 C 118.632812 87.988281 117.535156 86.632812 117.855469 84.453125 C 118.152344 82.40625 119.507812 81.417969 121.609375 81.515625 Z M 121.609375 81.515625 " fill-opacity="1" fill-rule="evenodd"/><path fill="#050506" d="M 254.171875 81.632812 C 256.554688 81.53125 257.851562 82.359375 258.265625 84.148438 C 258.703125 86.027344 257.957031 87.792969 256.128906 88.195312 C 237.582031 92.296875 223.75 104.820312 208.457031 114.730469 C 207.964844 115.050781 207.484375 115.390625 206.96875 115.671875 C 205.378906 116.539062 203.863281 116.460938 202.636719 115.054688 C 201.359375 113.59375 201.398438 111.992188 202.523438 110.441406 C 202.816406 110.039062 203.191406 109.664062 203.601562 109.390625 C 214.480469 102.242188 224.695312 94.074219 236.277344 88 C 241.269531 85.378906 246.402344 83.105469 251.96875 81.976562 C 252.871094 81.792969 253.789062 81.691406 254.171875 81.632812 Z M 254.171875 81.632812 " fill-opacity="1" fill-rule="evenodd"/></svg>