<svg xmlns="http://www.w3.org/2000/svg" xmlns:xlink="http://www.w3.org/1999/xlink" width="512" zoomAndPan="magnify" viewBox="0 0 384 383.999986" height="512" preserveAspectRatio="xMidYMid meet" version="1.0"><defs><g/><clipPath id="91d38b5624"><path d="M 26.328125 51.539062 L 346.632812 51.539062 L 346.632812 245.386719 L 26.328125 245.386719 Z M 26.328125 51.539062 " clip-rule="nonzero"/></clipPath><clipPath id="b49325790c"><path d="M 76.578125 51.539062 L 296.019531 51.539062 C 309.34375 51.539062 322.125 56.832031 331.550781 66.257812 C 340.972656 75.679688 346.269531 88.460938 346.269531 101.789062 L 346.269531 195.136719 C 346.269531 208.464844 340.972656 221.246094 331.550781 230.667969 C 322.125 240.09375 309.34375 245.386719 296.019531 245.386719 L 76.578125 245.386719 C 63.25 245.386719 50.46875 240.09375 41.042969 230.667969 C 31.621094 221.246094 26.328125 208.464844 26.328125 195.136719 L 26.328125 101.789062 C 26.328125 88.460938 31.621094 75.679688 41.042969 66.257812 C 50.46875 56.832031 63.25 51.539062 76.578125 51.539062 Z M 76.578125 51.539062 " clip-rule="nonzero"/></clipPath><clipPath id="34fb806e22"><path d="M 0.328125 0.539062 L 320.320312 0.539062 L 320.320312 194.386719 L 0.328125 194.386719 Z M 0.328125 0.539062 " clip-rule="nonzero"/></clipPath><clipPath id="1bfd0e1939"><path d="M 50.578125 0.539062 L 270.019531 0.539062 C 283.34375 0.539062 296.125 5.832031 305.550781 15.257812 C 314.972656 24.679688 320.269531 37.460938 320.269531 50.789062 L 320.269531 144.136719 C 320.269531 157.464844 314.972656 170.246094 305.550781 179.667969 C 296.125 189.09375 283.34375 194.386719 270.019531 194.386719 L 50.578125 194.386719 C 37.25 194.386719 24.46875 189.09375 15.042969 179.667969 C 5.621094 170.246094 0.328125 157.464844 0.328125 144.136719 L 0.328125 50.789062 C 0.328125 37.460938 5.621094 24.679688 15.042969 15.257812 C 24.46875 5.832031 37.25 0.539062 50.578125 0.539062 Z M 50.578125 0.539062 " clip-rule="nonzero"/></clipPath><clipPath id="eb004a7d88"><rect x="0" width="321" y="0" height="195"/></clipPath><clipPath id="93c24d0555"><rect x="0" width="237" y="0" height="69"/></clipPath><clipPath id="de09ef60fb"><path d="M 52.804688 75.46875 L 319.714844 75.46875 L 319.714844 221.730469 L 52.804688 221.730469 Z M 52.804688 75.46875 " clip-rule="nonzero"/></clipPath><clipPath id="7b20234d49"><path d="M 56.800781 75.480469 L 315.71875 75.480469 C 317.925781 75.480469 319.714844 77.269531 319.714844 79.480469 L 319.714844 217.730469 C 319.714844 219.941406 317.925781 221.730469 315.71875 221.730469 L 56.800781 221.730469 C 54.59375 221.730469 52.804688 219.941406 52.804688 217.730469 L 52.804688 79.480469 C 52.804688 77.269531 54.59375 75.480469 56.800781 75.480469 Z M 56.800781 75.480469 " clip-rule="nonzero"/></clipPath><clipPath id="0decb29e2e"><path d="M 56.800781 75.480469 L 315.71875 75.480469 C 317.925781 75.480469 319.714844 77.269531 319.714844 79.480469 L 319.714844 217.730469 C 319.714844 219.941406 317.925781 221.730469 315.71875 221.730469 L 56.800781 221.730469 C 54.59375 221.730469 52.804688 219.941406 52.804688 217.730469 L 52.804688 79.480469 C 52.804688 77.269531 54.59375 75.480469 56.800781 75.480469 Z M 56.800781 75.480469 " clip-rule="nonzero"/></clipPath></defs><g clip-path="url(#91d38b5624)"><g clip-path="url(#b49325790c)"><g transform="matrix(1, 0, 0, 1, 26, 51)"><g clip-path="url(#eb004a7d88)"><g clip-path="url(#34fb806e22)"><g clip-path="url(#1bfd0e1939)"><path fill="#f15e3d" d="M 0.328125 0.539062 L 320.632812 0.539062 L 320.632812 194.386719 L 0.328125 194.386719 Z M 0.328125 0.539062 " fill-opacity="1" fill-rule="nonzero"/></g></g></g></g></g></g><g transform="matrix(1, 0, 0, 1, 68, 269)"><g clip-path="url(#93c24d0555)"><g fill="#000000" fill-opacity="1"><g transform="translate(1.406378, 53.316493)"><g><path d="M 4.625 0 L 4.625 -35.609375 L 18.921875 -35.609375 C 22.609375 -35.609375 25.390625 -34.757812 27.265625 -33.0625 C 29.140625 -31.363281 30.078125 -29.019531 30.078125 -26.03125 C 30.078125 -23.875 29.523438 -22.101562 28.421875 -20.71875 C 27.328125 -19.34375 25.695312 -18.289062 23.53125 -17.5625 L 23.53125 -17.046875 C 24.644531 -16.554688 25.546875 -15.832031 26.234375 -14.875 C 26.929688 -13.914062 27.585938 -12.5 28.203125 -10.625 L 31.75 0 L 24.53125 0 L 21.046875 -10.640625 C 20.679688 -11.710938 20.273438 -12.546875 19.828125 -13.140625 C 19.390625 -13.734375 18.820312 -14.160156 18.125 -14.421875 C 17.4375 -14.691406 16.539062 -14.828125 15.4375 -14.828125 L 11.671875 -14.828125 L 11.671875 0 Z M 18.0625 -20.40625 C 21.476562 -20.40625 23.1875 -22 23.1875 -25.1875 C 23.1875 -28.414062 21.476562 -30.03125 18.0625 -30.03125 L 11.671875 -30.03125 L 11.671875 -20.40625 Z M 18.0625 -20.40625 "/></g></g></g><g fill="#000000" fill-opacity="1"><g transform="translate(34.691694, 53.316493)"><g><path d="M 15.609375 0.515625 C 12.984375 0.515625 10.675781 -0.0234375 8.6875 -1.109375 C 6.695312 -2.191406 5.148438 -3.773438 4.046875 -5.859375 C 2.953125 -7.941406 2.40625 -10.460938 2.40625 -13.421875 C 2.40625 -16.367188 2.953125 -18.890625 4.046875 -20.984375 C 5.148438 -23.085938 6.695312 -24.675781 8.6875 -25.75 C 10.675781 -26.832031 12.984375 -27.375 15.609375 -27.375 C 18.242188 -27.375 20.550781 -26.832031 22.53125 -25.75 C 24.519531 -24.675781 26.066406 -23.085938 27.171875 -20.984375 C 28.273438 -18.890625 28.828125 -16.367188 28.828125 -13.421875 C 28.828125 -10.460938 28.273438 -7.941406 27.171875 -5.859375 C 26.066406 -3.773438 24.519531 -2.191406 22.53125 -1.109375 C 20.550781 -0.0234375 18.242188 0.515625 15.609375 0.515625 Z M 15.609375 -5.21875 C 19.785156 -5.21875 21.875 -7.953125 21.875 -13.421875 C 21.875 -16.265625 21.335938 -18.347656 20.265625 -19.671875 C 19.191406 -20.992188 17.640625 -21.65625 15.609375 -21.65625 C 11.441406 -21.65625 9.359375 -18.910156 9.359375 -13.421875 C 9.359375 -7.953125 11.441406 -5.21875 15.609375 -5.21875 Z M 15.609375 -5.21875 "/></g></g></g><g fill="#000000" fill-opacity="1"><g transform="translate(65.907331, 53.316493)"><g><path d="M 3.875 0 L 3.875 -26.859375 L 10.34375 -26.859375 L 10.34375 -23.25 L 10.859375 -23.15625 C 11.734375 -24.601562 12.757812 -25.664062 13.9375 -26.34375 C 15.113281 -27.03125 16.617188 -27.375 18.453125 -27.375 C 20.484375 -27.375 22.113281 -26.972656 23.34375 -26.171875 C 24.582031 -25.367188 25.488281 -24.191406 26.0625 -22.640625 L 26.5625 -22.640625 C 27.394531 -24.253906 28.460938 -25.445312 29.765625 -26.21875 C 31.078125 -26.988281 32.707031 -27.375 34.65625 -27.375 C 40.21875 -27.375 43 -24.269531 43 -18.0625 L 43 0 L 36.265625 0 L 36.265625 -17.21875 C 36.265625 -18.789062 35.953125 -19.925781 35.328125 -20.625 C 34.710938 -21.320312 33.722656 -21.671875 32.359375 -21.671875 C 28.660156 -21.671875 26.8125 -19.195312 26.8125 -14.25 L 26.8125 0 L 20.0625 0 L 20.0625 -17.21875 C 20.0625 -18.789062 19.75 -19.925781 19.125 -20.625 C 18.5 -21.320312 17.503906 -21.671875 16.140625 -21.671875 C 14.410156 -21.671875 13.054688 -21.085938 12.078125 -19.921875 C 11.109375 -18.765625 10.625 -16.921875 10.625 -14.390625 L 10.625 0 Z M 3.875 0 "/></g></g></g><g fill="#000000" fill-opacity="1"><g transform="translate(112.365548, 53.316493)"><g><path d="M 10.46875 0.515625 C 8.75 0.515625 7.253906 0.195312 5.984375 -0.4375 C 4.722656 -1.070312 3.75 -2 3.0625 -3.21875 C 2.382812 -4.445312 2.046875 -5.921875 2.046875 -7.640625 C 2.046875 -9.234375 2.382812 -10.566406 3.0625 -11.640625 C 3.75 -12.722656 4.804688 -13.609375 6.234375 -14.296875 C 7.660156 -14.992188 9.523438 -15.53125 11.828125 -15.90625 C 13.441406 -16.164062 14.664062 -16.445312 15.5 -16.75 C 16.332031 -17.0625 16.894531 -17.410156 17.1875 -17.796875 C 17.476562 -18.191406 17.625 -18.6875 17.625 -19.28125 C 17.625 -20.144531 17.320312 -20.800781 16.71875 -21.25 C 16.125 -21.707031 15.128906 -21.9375 13.734375 -21.9375 C 12.242188 -21.9375 10.820312 -21.601562 9.46875 -20.9375 C 8.125 -20.269531 6.957031 -19.394531 5.96875 -18.3125 L 5.484375 -18.3125 L 2.65625 -22.578125 C 4.019531 -24.085938 5.679688 -25.265625 7.640625 -26.109375 C 9.609375 -26.953125 11.753906 -27.375 14.078125 -27.375 C 17.628906 -27.375 20.203125 -26.617188 21.796875 -25.109375 C 23.390625 -23.597656 24.1875 -21.453125 24.1875 -18.671875 L 24.1875 -7.015625 C 24.1875 -5.816406 24.710938 -5.21875 25.765625 -5.21875 C 26.171875 -5.21875 26.566406 -5.289062 26.953125 -5.4375 L 27.296875 -5.328125 L 27.78125 -0.640625 C 27.414062 -0.390625 26.898438 -0.1875 26.234375 -0.03125 C 25.566406 0.113281 24.832031 0.1875 24.03125 0.1875 C 22.425781 0.1875 21.171875 -0.117188 20.265625 -0.734375 C 19.367188 -1.347656 18.726562 -2.3125 18.34375 -3.625 L 17.828125 -3.671875 C 16.515625 -0.878906 14.0625 0.515625 10.46875 0.515625 Z M 12.609375 -4.53125 C 14.171875 -4.53125 15.414062 -5.050781 16.34375 -6.09375 C 17.28125 -7.144531 17.75 -8.601562 17.75 -10.46875 L 17.75 -13.203125 L 17.296875 -13.296875 C 16.890625 -12.972656 16.351562 -12.703125 15.6875 -12.484375 C 15.03125 -12.265625 14.085938 -12.046875 12.859375 -11.828125 C 11.398438 -11.585938 10.347656 -11.171875 9.703125 -10.578125 C 9.066406 -9.984375 8.75 -9.144531 8.75 -8.0625 C 8.75 -6.90625 9.085938 -6.023438 9.765625 -5.421875 C 10.441406 -4.828125 11.390625 -4.53125 12.609375 -4.53125 Z M 12.609375 -4.53125 "/></g></g></g><g fill="#000000" fill-opacity="1"><g transform="translate(140.683633, 53.316493)"><g><path d="M 3.875 0 L 3.875 -26.859375 L 10.34375 -26.859375 L 10.34375 -22.921875 L 10.859375 -22.796875 C 12.535156 -25.847656 15.25 -27.375 19 -27.375 C 22.09375 -27.375 24.363281 -26.53125 25.8125 -24.84375 C 27.269531 -23.15625 28 -20.695312 28 -17.46875 L 28 0 L 21.265625 0 L 21.265625 -16.640625 C 21.265625 -18.421875 20.90625 -19.703125 20.1875 -20.484375 C 19.46875 -21.273438 18.320312 -21.671875 16.75 -21.671875 C 14.820312 -21.671875 13.316406 -21.046875 12.234375 -19.796875 C 11.160156 -18.546875 10.625 -16.582031 10.625 -13.90625 L 10.625 0 Z M 3.875 0 "/></g></g></g><g fill="#000000" fill-opacity="1"><g transform="translate(172.142761, 53.316493)"><g><path d="M 18.53125 -6.40625 L 20.28125 -1.40625 C 19.550781 -0.8125 18.632812 -0.34375 17.53125 0 C 16.425781 0.34375 15.175781 0.515625 13.78125 0.515625 C 10.875 0.515625 8.664062 -0.273438 7.15625 -1.859375 C 5.644531 -3.441406 4.890625 -5.742188 4.890625 -8.765625 L 4.890625 -21.53125 L 0.796875 -21.53125 L 0.796875 -26.890625 L 4.890625 -26.890625 L 4.890625 -32.125 L 11.640625 -33.21875 L 11.640625 -26.890625 L 19.265625 -26.890625 L 19.265625 -21.53125 L 11.640625 -21.53125 L 11.640625 -9.25 C 11.640625 -7.914062 11.914062 -6.945312 12.46875 -6.34375 C 13.019531 -5.738281 13.820312 -5.4375 14.875 -5.4375 C 16.082031 -5.4375 17.128906 -5.757812 18.015625 -6.40625 Z M 18.53125 -6.40625 "/></g></g></g><g fill="#000000" fill-opacity="1"><g transform="translate(193.01, 53.316493)"><g><path d="M 7.234375 -30.078125 C 6.015625 -30.078125 5.023438 -30.445312 4.265625 -31.1875 C 3.503906 -31.925781 3.125 -32.878906 3.125 -34.046875 C 3.125 -35.203125 3.503906 -36.144531 4.265625 -36.875 C 5.023438 -37.613281 6.015625 -37.984375 7.234375 -37.984375 C 8.046875 -37.984375 8.765625 -37.8125 9.390625 -37.46875 C 10.023438 -37.132812 10.515625 -36.671875 10.859375 -36.078125 C 11.210938 -35.484375 11.390625 -34.804688 11.390625 -34.046875 C 11.390625 -33.285156 11.210938 -32.601562 10.859375 -32 C 10.515625 -31.394531 10.023438 -30.921875 9.390625 -30.578125 C 8.765625 -30.242188 8.046875 -30.078125 7.234375 -30.078125 Z M 3.875 0 L 3.875 -26.859375 L 10.625 -26.859375 L 10.625 0 Z M 3.875 0 "/></g></g></g><g fill="#000000" fill-opacity="1"><g transform="translate(207.473408, 53.316493)"><g><path d="M 15.65625 0.515625 C 13.0625 0.515625 10.765625 -0.0234375 8.765625 -1.109375 C 6.765625 -2.191406 5.203125 -3.78125 4.078125 -5.875 C 2.960938 -7.96875 2.40625 -10.484375 2.40625 -13.421875 C 2.40625 -16.367188 2.960938 -18.890625 4.078125 -20.984375 C 5.203125 -23.085938 6.753906 -24.675781 8.734375 -25.75 C 10.722656 -26.832031 12.988281 -27.375 15.53125 -27.375 C 21.195312 -27.375 24.828125 -25.320312 26.421875 -21.21875 L 21.796875 -17.90625 L 21.28125 -17.90625 C 20.726562 -19.164062 20.007812 -20.101562 19.125 -20.71875 C 18.238281 -21.34375 17.039062 -21.65625 15.53125 -21.65625 C 13.582031 -21.65625 12.066406 -20.976562 10.984375 -19.625 C 9.898438 -18.28125 9.359375 -16.210938 9.359375 -13.421875 C 9.359375 -10.660156 9.90625 -8.601562 11 -7.25 C 12.101562 -5.894531 13.65625 -5.21875 15.65625 -5.21875 C 17.113281 -5.21875 18.347656 -5.609375 19.359375 -6.390625 C 20.378906 -7.179688 21.109375 -8.316406 21.546875 -9.796875 L 22.0625 -9.84375 L 26.859375 -7.203125 C 26.179688 -4.929688 24.921875 -3.078125 23.078125 -1.640625 C 21.234375 -0.203125 18.757812 0.515625 15.65625 0.515625 Z M 15.65625 0.515625 "/></g></g></g></g></g><g clip-path="url(#de09ef60fb)"><g clip-path="url(#7b20234d49)"><g clip-path="url(#0decb29e2e)"><path fill="#f15e3d" d="M 52.804688 75.480469 L 319.648438 75.480469 L 319.648438 221.730469 L 52.804688 221.730469 Z M 52.804688 75.480469 " fill-opacity="1" fill-rule="nonzero"/></g></g></g><path fill="#000000" d="M 198.261719 146.859375 C 196.761719 132.574219 188.742188 120.074219 176.789062 112.242188 C 164.390625 104.125 146.4375 101.324219 133.675781 110.253906 C 122.449219 118.125 117.628906 134.195312 126.097656 145.804688 C 134.566406 157.449219 150.328125 161.183594 162.566406 167.3125 C 179.503906 175.792969 194.941406 187.117188 208.269531 200.546875 C 210.054688 202.375 212.890625 199.535156 211.066406 197.75 C 200.085938 186.871094 187.769531 177.417969 174.4375 169.664062 C 167.914062 165.851562 161.1875 162.480469 154.257812 159.480469 C 148.34375 156.921875 142.304688 154.40625 136.917969 150.835938 C 131.730469 147.386719 127.230469 142.597656 125.855469 136.347656 C 124.476562 130.097656 126.664062 123.363281 130.554688 118.410156 C 139.914062 106.640625 157.417969 106.601562 170.019531 112.6875 C 183.433594 119.183594 193.441406 132.574219 196.5625 147.101562 C 196.804688 148.035156 198.382812 147.832031 198.261719 146.859375 Z M 198.261719 146.859375 " fill-opacity="1" fill-rule="nonzero"/><path fill="#000000" d="M 192.550781 144.21875 C 191.332031 129.042969 189.269531 112.566406 197.816406 99.011719 C 201.300781 93.492188 206.449219 88.828125 212.769531 87 C 218.925781 85.214844 225.613281 86.230469 231.246094 89.152344 C 243.886719 95.683594 248.789062 110.539062 246.15625 124.050781 C 243.480469 137.929688 233.917969 148.523438 224.4375 158.34375 C 218.96875 164.023438 213.335938 169.585938 208.636719 175.996094 C 206.125 179.40625 203.933594 183.058594 202.113281 186.914062 C 200.410156 190.566406 198.910156 194.503906 198.910156 198.558594 C 198.910156 199.613281 200.574219 200.222656 201.058594 199.128906 C 202.679688 195.515625 203.894531 191.742188 205.636719 188.171875 C 207.460938 184.476562 209.6875 180.949219 212.121094 177.621094 C 216.65625 171.410156 222.210938 166.054688 227.515625 160.535156 C 237.566406 150.066406 247.859375 138.375 249.882812 123.441406 C 251.789062 109.359375 246.398438 94.546875 233.636719 87.40625 C 228.042969 84.238281 221.480469 82.777344 215.160156 83.792969 C 208.59375 84.808594 202.761719 88.625 198.546875 93.695312 C 186.753906 107.898438 188.335938 127.417969 191.050781 144.464844 C 191.171875 145.277344 192.589844 145.074219 192.550781 144.21875 Z M 192.550781 144.21875 " fill-opacity="1" fill-rule="nonzero"/></svg>