<svg xmlns="http://www.w3.org/2000/svg" xmlns:xlink="http://www.w3.org/1999/xlink" width="512" zoomAndPan="magnify" viewBox="0 0 384 383.999986" height="512" preserveAspectRatio="xMidYMid meet" version="1.0"><defs><g/><clipPath id="871de19332"><path d="M 26.328125 51.539062 L 346.632812 51.539062 L 346.632812 245.386719 L 26.328125 245.386719 Z M 26.328125 51.539062 " clip-rule="nonzero"/></clipPath><clipPath id="f04811cab0"><path d="M 76.578125 51.539062 L 296.019531 51.539062 C 309.34375 51.539062 322.125 56.832031 331.550781 66.257812 C 340.972656 75.679688 346.269531 88.460938 346.269531 101.789062 L 346.269531 195.136719 C 346.269531 208.464844 340.972656 221.246094 331.550781 230.667969 C 322.125 240.09375 309.34375 245.386719 296.019531 245.386719 L 76.578125 245.386719 C 63.25 245.386719 50.46875 240.09375 41.042969 230.667969 C 31.621094 221.246094 26.328125 208.464844 26.328125 195.136719 L 26.328125 101.789062 C 26.328125 88.460938 31.621094 75.679688 41.042969 66.257812 C 50.46875 56.832031 63.25 51.539062 76.578125 51.539062 Z M 76.578125 51.539062 " clip-rule="nonzero"/></clipPath><clipPath id="57d5ab7d40"><path d="M 0.328125 0.539062 L 320.320312 0.539062 L 320.320312 194.386719 L 0.328125 194.386719 Z M 0.328125 0.539062 " clip-rule="nonzero"/></clipPath><clipPath id="e7a4b3a16b"><path d="M 50.578125 0.539062 L 270.019531 0.539062 C 283.34375 0.539062 296.125 5.832031 305.550781 15.257812 C 314.972656 24.679688 320.269531 37.460938 320.269531 50.789062 L 320.269531 144.136719 C 320.269531 157.464844 314.972656 170.246094 305.550781 179.667969 C 296.125 189.09375 283.34375 194.386719 270.019531 194.386719 L 50.578125 194.386719 C 37.25 194.386719 24.46875 189.09375 15.042969 179.667969 C 5.621094 170.246094 0.328125 157.464844 0.328125 144.136719 L 0.328125 50.789062 C 0.328125 37.460938 5.621094 24.679688 15.042969 15.257812 C 24.46875 5.832031 37.25 0.539062 50.578125 0.539062 Z M 50.578125 0.539062 " clip-rule="nonzero"/></clipPath><clipPath id="600ac1d001"><rect x="0" width="321" y="0" height="195"/></clipPath><clipPath id="ea3ecb6bd8"><rect x="0" width="237" y="0" height="69"/></clipPath><clipPath id="d148e3090e"><path d="M 0.328125 0.539062 L 320.632812 0.539062 L 320.632812 194.386719 L 0.328125 194.386719 Z M 0.328125 0.539062 " clip-rule="nonzero"/></clipPath><clipPath id="072ff1cf65"><path d="M 50.578125 0.539062 L 270.019531 0.539062 C 283.34375 0.539062 296.125 5.832031 305.550781 15.257812 C 314.972656 24.679688 320.269531 37.460938 320.269531 50.789062 L 320.269531 144.136719 C 320.269531 157.464844 314.972656 170.246094 305.550781 179.667969 C 296.125 189.09375 283.34375 194.386719 270.019531 194.386719 L 50.578125 194.386719 C 37.25 194.386719 24.46875 189.09375 15.042969 179.667969 C 5.621094 170.246094 0.328125 157.464844 0.328125 144.136719 L 0.328125 50.789062 C 0.328125 37.460938 5.621094 24.679688 15.042969 15.257812 C 24.46875 5.832031 37.25 0.539062 50.578125 0.539062 Z M 50.578125 0.539062 " clip-rule="nonzero"/></clipPath><clipPath id="3741850ebb"><path d="M 0.328125 0.539062 L 320.320312 0.539062 L 320.320312 194.386719 L 0.328125 194.386719 Z M 0.328125 0.539062 " clip-rule="nonzero"/></clipPath><clipPath id="f6492505eb"><path d="M 50.578125 0.539062 L 270.019531 0.539062 C 283.34375 0.539062 296.125 5.832031 305.550781 15.257812 C 314.972656 24.679688 320.269531 37.460938 320.269531 50.789062 L 320.269531 144.136719 C 320.269531 157.464844 314.972656 170.246094 305.550781 179.667969 C 296.125 189.09375 283.34375 194.386719 270.019531 194.386719 L 50.578125 194.386719 C 37.25 194.386719 24.46875 189.09375 15.042969 179.667969 C 5.621094 170.246094 0.328125 157.464844 0.328125 144.136719 L 0.328125 50.789062 C 0.328125 37.460938 5.621094 24.679688 15.042969 15.257812 C 24.46875 5.832031 37.25 0.539062 50.578125 0.539062 Z M 50.578125 0.539062 " clip-rule="nonzero"/></clipPath><clipPath id="c1261967cb"><rect x="0" width="321" y="0" height="195"/></clipPath><clipPath id="846316ab02"><path d="M 45.734375 26.105469 L 285.332031 26.105469 L 285.332031 157.0625 L 45.734375 157.0625 Z M 45.734375 26.105469 " clip-rule="nonzero"/></clipPath><clipPath id="cb63afcefd"><path d="M 10.746094 54.8125 L 10.746094 128.417969 C 10.746094 141.746094 16.039062 154.527344 25.464844 163.949219 C 34.886719 173.375 47.667969 178.667969 60.996094 178.667969 L 270.019531 178.667969 C 283.34375 178.667969 296.125 173.375 305.550781 163.949219 C 314.972656 154.527344 320.269531 141.746094 320.269531 128.417969 L 320.269531 54.8125 C 320.269531 41.484375 314.972656 28.703125 305.550781 19.28125 C 296.125 9.855469 283.34375 4.5625 270.019531 4.5625 L 60.996094 4.5625 C 47.667969 4.5625 34.886719 9.855469 25.464844 19.28125 C 16.039062 28.703125 10.746094 41.484375 10.746094 54.8125 Z M 10.746094 54.8125 " clip-rule="nonzero"/></clipPath><clipPath id="fd5035a0cd"><path d="M 49.847656 26.105469 L 281.21875 26.105469 C 282.308594 26.105469 283.355469 26.539062 284.125 27.308594 C 284.894531 28.078125 285.328125 29.125 285.328125 30.214844 L 285.328125 152.953125 C 285.328125 154.042969 284.894531 155.085938 284.125 155.859375 C 283.355469 156.628906 282.308594 157.0625 281.21875 157.0625 L 49.847656 157.0625 C 48.757812 157.0625 47.710938 156.628906 46.941406 155.859375 C 46.167969 155.085938 45.734375 154.042969 45.734375 152.953125 L 45.734375 30.214844 C 45.734375 29.125 46.167969 28.078125 46.941406 27.308594 C 47.710938 26.539062 48.757812 26.105469 49.847656 26.105469 Z M 49.847656 26.105469 " clip-rule="nonzero"/></clipPath><clipPath id="702626d813"><path d="M 49.847656 26.105469 L 281.21875 26.105469 C 282.308594 26.105469 283.355469 26.539062 284.125 27.308594 C 284.894531 28.078125 285.328125 29.125 285.328125 30.214844 L 285.328125 152.953125 C 285.328125 154.042969 284.894531 155.085938 284.125 155.859375 C 283.355469 156.628906 282.308594 157.0625 281.21875 157.0625 L 49.847656 157.0625 C 48.757812 157.0625 47.710938 156.628906 46.941406 155.859375 C 46.167969 155.085938 45.734375 154.042969 45.734375 152.953125 L 45.734375 30.214844 C 45.734375 29.125 46.167969 28.078125 46.941406 27.308594 C 47.710938 26.539062 48.757812 26.105469 49.847656 26.105469 Z M 49.847656 26.105469 " clip-rule="nonzero"/></clipPath><clipPath id="897c85b37a"><path d="M 140 125 L 178 125 L 178 134 L 140 134 Z M 140 125 " clip-rule="nonzero"/></clipPath><clipPath id="145cbe51b2"><path d="M 10.746094 54.8125 L 10.746094 128.417969 C 10.746094 141.746094 16.039062 154.527344 25.464844 163.949219 C 34.886719 173.375 47.667969 178.667969 60.996094 178.667969 L 270.019531 178.667969 C 283.34375 178.667969 296.125 173.375 305.550781 163.949219 C 314.972656 154.527344 320.269531 141.746094 320.269531 128.417969 L 320.269531 54.8125 C 320.269531 41.484375 314.972656 28.703125 305.550781 19.28125 C 296.125 9.855469 283.34375 4.5625 270.019531 4.5625 L 60.996094 4.5625 C 47.667969 4.5625 34.886719 9.855469 25.464844 19.28125 C 16.039062 28.703125 10.746094 41.484375 10.746094 54.8125 Z M 10.746094 54.8125 " clip-rule="nonzero"/></clipPath><clipPath id="d9f7c5a9da"><path d="M 115.511719 45.773438 L 215.519531 45.773438 L 215.519531 137.386719 L 115.511719 137.386719 Z M 115.511719 45.773438 " clip-rule="nonzero"/></clipPath><clipPath id="4dc2eace07"><path d="M 10.746094 54.8125 L 10.746094 128.417969 C 10.746094 141.746094 16.039062 154.527344 25.464844 163.949219 C 34.886719 173.375 47.667969 178.667969 60.996094 178.667969 L 270.019531 178.667969 C 283.34375 178.667969 296.125 173.375 305.550781 163.949219 C 314.972656 154.527344 320.269531 141.746094 320.269531 128.417969 L 320.269531 54.8125 C 320.269531 41.484375 314.972656 28.703125 305.550781 19.28125 C 296.125 9.855469 283.34375 4.5625 270.019531 4.5625 L 60.996094 4.5625 C 47.667969 4.5625 34.886719 9.855469 25.464844 19.28125 C 16.039062 28.703125 10.746094 41.484375 10.746094 54.8125 Z M 10.746094 54.8125 " clip-rule="nonzero"/></clipPath><clipPath id="3726479d30"><path d="M 121.191406 45.773438 L 137.476562 45.773438 L 137.476562 69.667969 L 121.191406 69.667969 Z M 121.191406 45.773438 " clip-rule="nonzero"/></clipPath><clipPath id="62a523fd0c"><path d="M 10.746094 54.8125 L 10.746094 128.417969 C 10.746094 141.746094 16.039062 154.527344 25.464844 163.949219 C 34.886719 173.375 47.667969 178.667969 60.996094 178.667969 L 270.019531 178.667969 C 283.34375 178.667969 296.125 173.375 305.550781 163.949219 C 314.972656 154.527344 320.269531 141.746094 320.269531 128.417969 L 320.269531 54.8125 C 320.269531 41.484375 314.972656 28.703125 305.550781 19.28125 C 296.125 9.855469 283.34375 4.5625 270.019531 4.5625 L 60.996094 4.5625 C 47.667969 4.5625 34.886719 9.855469 25.464844 19.28125 C 16.039062 28.703125 10.746094 41.484375 10.746094 54.8125 Z M 10.746094 54.8125 " clip-rule="nonzero"/></clipPath><clipPath id="e257b5156e"><path d="M 186 52 L 204 52 L 204 77 L 186 77 Z M 186 52 " clip-rule="nonzero"/></clipPath><clipPath id="2267b05729"><path d="M 10.746094 54.8125 L 10.746094 128.417969 C 10.746094 141.746094 16.039062 154.527344 25.464844 163.949219 C 34.886719 173.375 47.667969 178.667969 60.996094 178.667969 L 270.019531 178.667969 C 283.34375 178.667969 296.125 173.375 305.550781 163.949219 C 314.972656 154.527344 320.269531 141.746094 320.269531 128.417969 L 320.269531 54.8125 C 320.269531 41.484375 314.972656 28.703125 305.550781 19.28125 C 296.125 9.855469 283.34375 4.5625 270.019531 4.5625 L 60.996094 4.5625 C 47.667969 4.5625 34.886719 9.855469 25.464844 19.28125 C 16.039062 28.703125 10.746094 41.484375 10.746094 54.8125 Z M 10.746094 54.8125 " clip-rule="nonzero"/></clipPath><clipPath id="0c09a7c5fa"><path d="M 140 125 L 178 125 L 178 134 L 140 134 Z M 140 125 " clip-rule="nonzero"/></clipPath><clipPath id="fec75d5b3f"><path d="M 10.746094 54.8125 L 10.746094 128.417969 C 10.746094 141.746094 16.039062 154.527344 25.464844 163.949219 C 34.886719 173.375 47.667969 178.667969 60.996094 178.667969 L 270.019531 178.667969 C 283.34375 178.667969 296.125 173.375 305.550781 163.949219 C 314.972656 154.527344 320.269531 141.746094 320.269531 128.417969 L 320.269531 54.8125 C 320.269531 41.484375 314.972656 28.703125 305.550781 19.28125 C 296.125 9.855469 283.34375 4.5625 270.019531 4.5625 L 60.996094 4.5625 C 47.667969 4.5625 34.886719 9.855469 25.464844 19.28125 C 16.039062 28.703125 10.746094 41.484375 10.746094 54.8125 Z M 10.746094 54.8125 " clip-rule="nonzero"/></clipPath><clipPath id="5e0a7eb030"><path d="M 115.511719 45.773438 L 215.519531 45.773438 L 215.519531 137.386719 L 115.511719 137.386719 Z M 115.511719 45.773438 " clip-rule="nonzero"/></clipPath><clipPath id="4c80d978aa"><path d="M 10.746094 54.8125 L 10.746094 128.417969 C 10.746094 141.746094 16.039062 154.527344 25.464844 163.949219 C 34.886719 173.375 47.667969 178.667969 60.996094 178.667969 L 270.019531 178.667969 C 283.34375 178.667969 296.125 173.375 305.550781 163.949219 C 314.972656 154.527344 320.269531 141.746094 320.269531 128.417969 L 320.269531 54.8125 C 320.269531 41.484375 314.972656 28.703125 305.550781 19.28125 C 296.125 9.855469 283.34375 4.5625 270.019531 4.5625 L 60.996094 4.5625 C 47.667969 4.5625 34.886719 9.855469 25.464844 19.28125 C 16.039062 28.703125 10.746094 41.484375 10.746094 54.8125 Z M 10.746094 54.8125 " clip-rule="nonzero"/></clipPath><clipPath id="a4f9c93d0a"><path d="M 121.191406 45.773438 L 137.476562 45.773438 L 137.476562 69.667969 L 121.191406 69.667969 Z M 121.191406 45.773438 " clip-rule="nonzero"/></clipPath><clipPath id="4ca6709d8d"><path d="M 10.746094 54.8125 L 10.746094 128.417969 C 10.746094 141.746094 16.039062 154.527344 25.464844 163.949219 C 34.886719 173.375 47.667969 178.667969 60.996094 178.667969 L 270.019531 178.667969 C 283.34375 178.667969 296.125 173.375 305.550781 163.949219 C 314.972656 154.527344 320.269531 141.746094 320.269531 128.417969 L 320.269531 54.8125 C 320.269531 41.484375 314.972656 28.703125 305.550781 19.28125 C 296.125 9.855469 283.34375 4.5625 270.019531 4.5625 L 60.996094 4.5625 C 47.667969 4.5625 34.886719 9.855469 25.464844 19.28125 C 16.039062 28.703125 10.746094 41.484375 10.746094 54.8125 Z M 10.746094 54.8125 " clip-rule="nonzero"/></clipPath><clipPath id="f08b10f412"><path d="M 186 52 L 204 52 L 204 77 L 186 77 Z M 186 52 " clip-rule="nonzero"/></clipPath><clipPath id="2ce9eaa464"><path d="M 10.746094 54.8125 L 10.746094 128.417969 C 10.746094 141.746094 16.039062 154.527344 25.464844 163.949219 C 34.886719 173.375 47.667969 178.667969 60.996094 178.667969 L 270.019531 178.667969 C 283.34375 178.667969 296.125 173.375 305.550781 163.949219 C 314.972656 154.527344 320.269531 141.746094 320.269531 128.417969 L 320.269531 54.8125 C 320.269531 41.484375 314.972656 28.703125 305.550781 19.28125 C 296.125 9.855469 283.34375 4.5625 270.019531 4.5625 L 60.996094 4.5625 C 47.667969 4.5625 34.886719 9.855469 25.464844 19.28125 C 16.039062 28.703125 10.746094 41.484375 10.746094 54.8125 Z M 10.746094 54.8125 " clip-rule="nonzero"/></clipPath><clipPath id="668d342ade"><path d="M 237.765625 37.113281 L 262.113281 37.113281 L 262.113281 62.253906 L 237.765625 62.253906 Z M 237.765625 37.113281 " clip-rule="nonzero"/></clipPath><clipPath id="2e7cf8d469"><path d="M 10.746094 54.8125 L 10.746094 128.417969 C 10.746094 141.746094 16.039062 154.527344 25.464844 163.949219 C 34.886719 173.375 47.667969 178.667969 60.996094 178.667969 L 270.019531 178.667969 C 283.34375 178.667969 296.125 173.375 305.550781 163.949219 C 314.972656 154.527344 320.269531 141.746094 320.269531 128.417969 L 320.269531 54.8125 C 320.269531 41.484375 314.972656 28.703125 305.550781 19.28125 C 296.125 9.855469 283.34375 4.5625 270.019531 4.5625 L 60.996094 4.5625 C 47.667969 4.5625 34.886719 9.855469 25.464844 19.28125 C 16.039062 28.703125 10.746094 41.484375 10.746094 54.8125 Z M 10.746094 54.8125 " clip-rule="nonzero"/></clipPath><clipPath id="a602f8b80d"><path d="M 241.789062 32.007812 L 265.984375 42.476562 L 251.332031 76.304688 L 227.140625 65.839844 Z M 241.789062 32.007812 " clip-rule="nonzero"/></clipPath><clipPath id="7e1444e34b"><path d="M 241.789062 32.007812 L 265.984375 42.476562 L 251.332031 76.304688 L 227.140625 65.839844 Z M 241.789062 32.007812 " clip-rule="nonzero"/></clipPath><clipPath id="3933de5211"><path d="M 237 36.308594 L 262.917969 36.308594 L 262.917969 62.898438 L 237 62.898438 Z M 237 36.308594 " clip-rule="nonzero"/></clipPath><clipPath id="9b473918b3"><path d="M 10.746094 54.8125 L 10.746094 128.417969 C 10.746094 141.746094 16.039062 154.527344 25.464844 163.949219 C 34.886719 173.375 47.667969 178.667969 60.996094 178.667969 L 270.019531 178.667969 C 283.34375 178.667969 296.125 173.375 305.550781 163.949219 C 314.972656 154.527344 320.269531 141.746094 320.269531 128.417969 L 320.269531 54.8125 C 320.269531 41.484375 314.972656 28.703125 305.550781 19.28125 C 296.125 9.855469 283.34375 4.5625 270.019531 4.5625 L 60.996094 4.5625 C 47.667969 4.5625 34.886719 9.855469 25.464844 19.28125 C 16.039062 28.703125 10.746094 41.484375 10.746094 54.8125 Z M 10.746094 54.8125 " clip-rule="nonzero"/></clipPath><clipPath id="3a0ca23f50"><path d="M 241.789062 32.007812 L 265.984375 42.476562 L 251.332031 76.304688 L 227.140625 65.839844 Z M 241.789062 32.007812 " clip-rule="nonzero"/></clipPath><clipPath id="81dc1ba815"><path d="M 241.789062 32.007812 L 265.984375 42.476562 L 251.332031 76.304688 L 227.140625 65.839844 Z M 241.789062 32.007812 " clip-rule="nonzero"/></clipPath><clipPath id="45afb62782"><path d="M 235.023438 63.382812 L 243.410156 63.382812 L 243.410156 69.828125 L 235.023438 69.828125 Z M 235.023438 63.382812 " clip-rule="nonzero"/></clipPath><clipPath id="183351f23f"><path d="M 10.746094 54.8125 L 10.746094 128.417969 C 10.746094 141.746094 16.039062 154.527344 25.464844 163.949219 C 34.886719 173.375 47.667969 178.667969 60.996094 178.667969 L 270.019531 178.667969 C 283.34375 178.667969 296.125 173.375 305.550781 163.949219 C 314.972656 154.527344 320.269531 141.746094 320.269531 128.417969 L 320.269531 54.8125 C 320.269531 41.484375 314.972656 28.703125 305.550781 19.28125 C 296.125 9.855469 283.34375 4.5625 270.019531 4.5625 L 60.996094 4.5625 C 47.667969 4.5625 34.886719 9.855469 25.464844 19.28125 C 16.039062 28.703125 10.746094 41.484375 10.746094 54.8125 Z M 10.746094 54.8125 " clip-rule="nonzero"/></clipPath><clipPath id="cfe6d63f23"><path d="M 241.789062 32.007812 L 265.984375 42.476562 L 251.332031 76.304688 L 227.140625 65.839844 Z M 241.789062 32.007812 " clip-rule="nonzero"/></clipPath><clipPath id="4da93e5669"><path d="M 241.789062 32.007812 L 265.984375 42.476562 L 251.332031 76.304688 L 227.140625 65.839844 Z M 241.789062 32.007812 " clip-rule="nonzero"/></clipPath><clipPath id="2fa52862ad"><path d="M 234.21875 62.578125 L 244.054688 62.578125 L 244.054688 70.632812 L 234.21875 70.632812 Z M 234.21875 62.578125 " clip-rule="nonzero"/></clipPath><clipPath id="392bc33c41"><path d="M 10.746094 54.8125 L 10.746094 128.417969 C 10.746094 141.746094 16.039062 154.527344 25.464844 163.949219 C 34.886719 173.375 47.667969 178.667969 60.996094 178.667969 L 270.019531 178.667969 C 283.34375 178.667969 296.125 173.375 305.550781 163.949219 C 314.972656 154.527344 320.269531 141.746094 320.269531 128.417969 L 320.269531 54.8125 C 320.269531 41.484375 314.972656 28.703125 305.550781 19.28125 C 296.125 9.855469 283.34375 4.5625 270.019531 4.5625 L 60.996094 4.5625 C 47.667969 4.5625 34.886719 9.855469 25.464844 19.28125 C 16.039062 28.703125 10.746094 41.484375 10.746094 54.8125 Z M 10.746094 54.8125 " clip-rule="nonzero"/></clipPath><clipPath id="23f3745af4"><path d="M 241.789062 32.007812 L 265.984375 42.476562 L 251.332031 76.304688 L 227.140625 65.839844 Z M 241.789062 32.007812 " clip-rule="nonzero"/></clipPath><clipPath id="d1733b8d66"><path d="M 241.789062 32.007812 L 265.984375 42.476562 L 251.332031 76.304688 L 227.140625 65.839844 Z M 241.789062 32.007812 " clip-rule="nonzero"/></clipPath><clipPath id="012884b6d1"><path d="M 254.535156 57.097656 L 276.300781 57.097656 L 276.300781 75.789062 L 254.535156 75.789062 Z M 254.535156 57.097656 " clip-rule="nonzero"/></clipPath><clipPath id="9ae9454379"><path d="M 10.746094 54.8125 L 10.746094 128.417969 C 10.746094 141.746094 16.039062 154.527344 25.464844 163.949219 C 34.886719 173.375 47.667969 178.667969 60.996094 178.667969 L 270.019531 178.667969 C 283.34375 178.667969 296.125 173.375 305.550781 163.949219 C 314.972656 154.527344 320.269531 141.746094 320.269531 128.417969 L 320.269531 54.8125 C 320.269531 41.484375 314.972656 28.703125 305.550781 19.28125 C 296.125 9.855469 283.34375 4.5625 270.019531 4.5625 L 60.996094 4.5625 C 47.667969 4.5625 34.886719 9.855469 25.464844 19.28125 C 16.039062 28.703125 10.746094 41.484375 10.746094 54.8125 Z M 10.746094 54.8125 " clip-rule="nonzero"/></clipPath><clipPath id="5be9d25026"><path d="M 267.195312 52.433594 L 280.273438 69.824219 L 256.007812 88.050781 L 242.929688 70.660156 Z M 267.195312 52.433594 " clip-rule="nonzero"/></clipPath><clipPath id="bbc75ed75d"><path d="M 267.195312 52.433594 L 280.273438 69.824219 L 256.007812 88.050781 L 242.929688 70.660156 Z M 267.195312 52.433594 " clip-rule="nonzero"/></clipPath><clipPath id="59565c7e4f"><path d="M 254 56.453125 L 276.785156 56.453125 L 276.785156 76.433594 L 254 76.433594 Z M 254 56.453125 " clip-rule="nonzero"/></clipPath><clipPath id="6bbe8a5808"><path d="M 10.746094 54.8125 L 10.746094 128.417969 C 10.746094 141.746094 16.039062 154.527344 25.464844 163.949219 C 34.886719 173.375 47.667969 178.667969 60.996094 178.667969 L 270.019531 178.667969 C 283.34375 178.667969 296.125 173.375 305.550781 163.949219 C 314.972656 154.527344 320.269531 141.746094 320.269531 128.417969 L 320.269531 54.8125 C 320.269531 41.484375 314.972656 28.703125 305.550781 19.28125 C 296.125 9.855469 283.34375 4.5625 270.019531 4.5625 L 60.996094 4.5625 C 47.667969 4.5625 34.886719 9.855469 25.464844 19.28125 C 16.039062 28.703125 10.746094 41.484375 10.746094 54.8125 Z M 10.746094 54.8125 " clip-rule="nonzero"/></clipPath><clipPath id="f803d71ad9"><path d="M 267.195312 52.433594 L 280.273438 69.824219 L 256.007812 88.050781 L 242.929688 70.660156 Z M 267.195312 52.433594 " clip-rule="nonzero"/></clipPath><clipPath id="5f175a48c1"><path d="M 267.195312 52.433594 L 280.273438 69.824219 L 256.007812 88.050781 L 242.929688 70.660156 Z M 267.195312 52.433594 " clip-rule="nonzero"/></clipPath><clipPath id="c6bb589bd4"><path d="M 248 73 L 254.375 73 L 254.375 79 L 248 79 Z M 248 73 " clip-rule="nonzero"/></clipPath><clipPath id="729d542a4b"><path d="M 10.746094 54.8125 L 10.746094 128.417969 C 10.746094 141.746094 16.039062 154.527344 25.464844 163.949219 C 34.886719 173.375 47.667969 178.667969 60.996094 178.667969 L 270.019531 178.667969 C 283.34375 178.667969 296.125 173.375 305.550781 163.949219 C 314.972656 154.527344 320.269531 141.746094 320.269531 128.417969 L 320.269531 54.8125 C 320.269531 41.484375 314.972656 28.703125 305.550781 19.28125 C 296.125 9.855469 283.34375 4.5625 270.019531 4.5625 L 60.996094 4.5625 C 47.667969 4.5625 34.886719 9.855469 25.464844 19.28125 C 16.039062 28.703125 10.746094 41.484375 10.746094 54.8125 Z M 10.746094 54.8125 " clip-rule="nonzero"/></clipPath><clipPath id="298862b28f"><path d="M 267.195312 52.433594 L 280.273438 69.824219 L 256.007812 88.050781 L 242.929688 70.660156 Z M 267.195312 52.433594 " clip-rule="nonzero"/></clipPath><clipPath id="4652b47ab6"><path d="M 267.195312 52.433594 L 280.273438 69.824219 L 256.007812 88.050781 L 242.929688 70.660156 Z M 267.195312 52.433594 " clip-rule="nonzero"/></clipPath><clipPath id="e0e61fd4c0"><path d="M 247.441406 72.246094 L 255 72.246094 L 255 79.65625 L 247.441406 79.65625 Z M 247.441406 72.246094 " clip-rule="nonzero"/></clipPath><clipPath id="9a0efb4f64"><path d="M 10.746094 54.8125 L 10.746094 128.417969 C 10.746094 141.746094 16.039062 154.527344 25.464844 163.949219 C 34.886719 173.375 47.667969 178.667969 60.996094 178.667969 L 270.019531 178.667969 C 283.34375 178.667969 296.125 173.375 305.550781 163.949219 C 314.972656 154.527344 320.269531 141.746094 320.269531 128.417969 L 320.269531 54.8125 C 320.269531 41.484375 314.972656 28.703125 305.550781 19.28125 C 296.125 9.855469 283.34375 4.5625 270.019531 4.5625 L 60.996094 4.5625 C 47.667969 4.5625 34.886719 9.855469 25.464844 19.28125 C 16.039062 28.703125 10.746094 41.484375 10.746094 54.8125 Z M 10.746094 54.8125 " clip-rule="nonzero"/></clipPath><clipPath id="625799d0a4"><path d="M 267.195312 52.433594 L 280.273438 69.824219 L 256.007812 88.050781 L 242.929688 70.660156 Z M 267.195312 52.433594 " clip-rule="nonzero"/></clipPath><clipPath id="2ac02e4439"><path d="M 267.195312 52.433594 L 280.273438 69.824219 L 256.007812 88.050781 L 242.929688 70.660156 Z M 267.195312 52.433594 " clip-rule="nonzero"/></clipPath><clipPath id="a0d44f34e1"><rect x="0" width="321" y="0" height="195"/></clipPath></defs><g clip-path="url(#871de19332)"><g clip-path="url(#f04811cab0)"><g transform="matrix(1, 0, 0, 1, 26, 51)"><g clip-path="url(#600ac1d001)"><g clip-path="url(#57d5ab7d40)"><g clip-path="url(#e7a4b3a16b)"><path fill="#f15e3d" d="M 0.328125 0.539062 L 320.632812 0.539062 L 320.632812 194.386719 L 0.328125 194.386719 Z M 0.328125 0.539062 " fill-opacity="1" fill-rule="nonzero"/></g></g></g></g></g></g><g transform="matrix(1, 0, 0, 1, 68, 269)"><g clip-path="url(#ea3ecb6bd8)"><g fill="#000000" fill-opacity="1"><g transform="translate(1.187182, 53.316493)"><g><path d="M 19.453125 0.515625 C 16.171875 0.515625 13.28125 -0.164062 10.78125 -1.53125 C 8.28125 -2.894531 6.320312 -4.941406 4.90625 -7.671875 C 3.5 -10.410156 2.796875 -13.785156 2.796875 -17.796875 C 2.796875 -21.804688 3.5 -25.179688 4.90625 -27.921875 C 6.320312 -30.660156 8.28125 -32.707031 10.78125 -34.0625 C 13.28125 -35.425781 16.171875 -36.109375 19.453125 -36.109375 C 22.878906 -36.109375 25.789062 -35.4375 28.1875 -34.09375 C 30.582031 -32.757812 32.289062 -30.722656 33.3125 -27.984375 L 28.171875 -24.84375 L 27.5625 -24.859375 C 26.800781 -26.710938 25.765625 -28.039062 24.453125 -28.84375 C 23.148438 -29.644531 21.484375 -30.046875 19.453125 -30.046875 C 16.503906 -30.046875 14.203125 -29.066406 12.546875 -27.109375 C 10.890625 -25.160156 10.0625 -22.054688 10.0625 -17.796875 C 10.0625 -13.566406 10.890625 -10.472656 12.546875 -8.515625 C 14.203125 -6.554688 16.503906 -5.578125 19.453125 -5.578125 C 24.085938 -5.578125 26.921875 -7.828125 27.953125 -12.328125 L 28.5625 -12.328125 L 33.75 -9.625 C 32.78125 -6.238281 31.117188 -3.703125 28.765625 -2.015625 C 26.410156 -0.328125 23.304688 0.515625 19.453125 0.515625 Z M 19.453125 0.515625 "/></g></g></g><g fill="#000000" fill-opacity="1"><g transform="translate(36.103892, 53.316493)"><g><path d="M 15.609375 0.515625 C 12.984375 0.515625 10.675781 -0.0234375 8.6875 -1.109375 C 6.695312 -2.191406 5.148438 -3.773438 4.046875 -5.859375 C 2.953125 -7.941406 2.40625 -10.460938 2.40625 -13.421875 C 2.40625 -16.367188 2.953125 -18.890625 4.046875 -20.984375 C 5.148438 -23.085938 6.695312 -24.675781 8.6875 -25.75 C 10.675781 -26.832031 12.984375 -27.375 15.609375 -27.375 C 18.242188 -27.375 20.550781 -26.832031 22.53125 -25.75 C 24.519531 -24.675781 26.066406 -23.085938 27.171875 -20.984375 C 28.273438 -18.890625 28.828125 -16.367188 28.828125 -13.421875 C 28.828125 -10.460938 28.273438 -7.941406 27.171875 -5.859375 C 26.066406 -3.773438 24.519531 -2.191406 22.53125 -1.109375 C 20.550781 -0.0234375 18.242188 0.515625 15.609375 0.515625 Z M 15.609375 -5.21875 C 19.785156 -5.21875 21.875 -7.953125 21.875 -13.421875 C 21.875 -16.265625 21.335938 -18.347656 20.265625 -19.671875 C 19.191406 -20.992188 17.640625 -21.65625 15.609375 -21.65625 C 11.441406 -21.65625 9.359375 -18.910156 9.359375 -13.421875 C 9.359375 -7.953125 11.441406 -5.21875 15.609375 -5.21875 Z M 15.609375 -5.21875 "/></g></g></g><g fill="#000000" fill-opacity="1"><g transform="translate(67.319529, 53.316493)"><g><path d="M 3.875 0 L 3.875 -26.859375 L 10.34375 -26.859375 L 10.34375 -22.921875 L 10.859375 -22.796875 C 12.535156 -25.847656 15.25 -27.375 19 -27.375 C 22.09375 -27.375 24.363281 -26.53125 25.8125 -24.84375 C 27.269531 -23.15625 28 -20.695312 28 -17.46875 L 28 0 L 21.265625 0 L 21.265625 -16.640625 C 21.265625 -18.421875 20.90625 -19.703125 20.1875 -20.484375 C 19.46875 -21.273438 18.320312 -21.671875 16.75 -21.671875 C 14.820312 -21.671875 13.316406 -21.046875 12.234375 -19.796875 C 11.160156 -18.546875 10.625 -16.582031 10.625 -13.90625 L 10.625 0 Z M 3.875 0 "/></g></g></g><g fill="#000000" fill-opacity="1"><g transform="translate(98.778657, 53.316493)"><g><path d="M 4.703125 0 L 4.703125 -21.53125 L 0.90625 -21.53125 L 0.90625 -26.890625 L 4.703125 -26.890625 C 4.421875 -28.023438 4.28125 -29.085938 4.28125 -30.078125 C 4.28125 -31.785156 4.671875 -33.242188 5.453125 -34.453125 C 6.234375 -35.660156 7.351562 -36.578125 8.8125 -37.203125 C 10.269531 -37.835938 12.007812 -38.15625 14.03125 -38.15625 C 17 -38.15625 19.210938 -37.644531 20.671875 -36.625 L 19.09375 -31.65625 L 18.578125 -31.5625 C 17.578125 -32.28125 16.285156 -32.640625 14.703125 -32.640625 C 13.484375 -32.640625 12.570312 -32.34375 11.96875 -31.75 C 11.363281 -31.15625 11.0625 -30.347656 11.0625 -29.328125 C 11.0625 -28.878906 11.085938 -28.472656 11.140625 -28.109375 C 11.203125 -27.742188 11.304688 -27.335938 11.453125 -26.890625 L 19.109375 -26.890625 L 19.109375 -21.53125 L 11.453125 -21.53125 L 11.453125 0 Z M 4.703125 0 "/></g></g></g><g fill="#000000" fill-opacity="1"><g transform="translate(118.160597, 53.316493)"><g><path d="M 12.296875 0.515625 C 9.273438 0.515625 7.046875 -0.304688 5.609375 -1.953125 C 4.171875 -3.609375 3.453125 -5.976562 3.453125 -9.0625 L 3.453125 -26.859375 L 10.203125 -26.859375 L 10.203125 -9.90625 C 10.203125 -8.269531 10.554688 -7.070312 11.265625 -6.3125 C 11.972656 -5.5625 13.0625 -5.1875 14.53125 -5.1875 C 16.40625 -5.1875 17.859375 -5.796875 18.890625 -7.015625 C 19.929688 -8.242188 20.453125 -10.175781 20.453125 -12.8125 L 20.453125 -26.859375 L 27.203125 -26.859375 L 27.203125 0 L 20.71875 0 L 20.71875 -3.9375 L 20.21875 -4.0625 C 19.351562 -2.519531 18.300781 -1.367188 17.0625 -0.609375 C 15.820312 0.140625 14.234375 0.515625 12.296875 0.515625 Z M 12.296875 0.515625 "/></g></g></g><g fill="#000000" fill-opacity="1"><g transform="translate(149.230138, 53.316493)"><g><path d="M 12.5625 0.515625 C 10.726562 0.515625 9.046875 0.300781 7.515625 -0.125 C 5.992188 -0.5625 4.691406 -1.15625 3.609375 -1.90625 C 2.535156 -2.664062 1.738281 -3.53125 1.21875 -4.5 L 4.96875 -8.546875 L 5.484375 -8.546875 C 6.367188 -7.347656 7.421875 -6.445312 8.640625 -5.84375 C 9.859375 -5.238281 11.179688 -4.9375 12.609375 -4.9375 C 13.929688 -4.9375 14.921875 -5.171875 15.578125 -5.640625 C 16.242188 -6.117188 16.578125 -6.796875 16.578125 -7.671875 C 16.578125 -8.347656 16.335938 -8.914062 15.859375 -9.375 C 15.378906 -9.84375 14.609375 -10.207031 13.546875 -10.46875 L 9.984375 -11.328125 C 7.316406 -11.960938 5.367188 -12.929688 4.140625 -14.234375 C 2.921875 -15.535156 2.3125 -17.195312 2.3125 -19.21875 C 2.3125 -20.882812 2.738281 -22.332031 3.59375 -23.5625 C 4.445312 -24.800781 5.644531 -25.742188 7.1875 -26.390625 C 8.738281 -27.046875 10.546875 -27.375 12.609375 -27.375 C 15.035156 -27.375 17.039062 -27.023438 18.625 -26.328125 C 20.21875 -25.628906 21.460938 -24.695312 22.359375 -23.53125 L 18.75 -19.625 L 18.265625 -19.625 C 17.515625 -20.46875 16.671875 -21.082031 15.734375 -21.46875 C 14.804688 -21.863281 13.765625 -22.0625 12.609375 -22.0625 C 9.953125 -22.0625 8.625 -21.234375 8.625 -19.578125 C 8.625 -18.878906 8.867188 -18.3125 9.359375 -17.875 C 9.859375 -17.4375 10.734375 -17.078125 11.984375 -16.796875 L 15.296875 -16.078125 C 18.023438 -15.492188 20.015625 -14.554688 21.265625 -13.265625 C 22.523438 -11.972656 23.15625 -10.238281 23.15625 -8.0625 C 23.15625 -6.351562 22.734375 -4.847656 21.890625 -3.546875 C 21.046875 -2.253906 19.828125 -1.253906 18.234375 -0.546875 C 16.648438 0.160156 14.757812 0.515625 12.5625 0.515625 Z M 12.5625 0.515625 "/></g></g></g><g fill="#000000" fill-opacity="1"><g transform="translate(173.993244, 53.316493)"><g><path d="M 26.546875 -11.90625 L 9.28125 -11.90625 C 9.476562 -9.570312 10.144531 -7.875 11.28125 -6.8125 C 12.414062 -5.75 13.960938 -5.21875 15.921875 -5.21875 C 17.460938 -5.21875 18.710938 -5.503906 19.671875 -6.078125 C 20.628906 -6.648438 21.398438 -7.519531 21.984375 -8.6875 L 22.5 -8.6875 L 26.984375 -5.828125 C 26.109375 -3.941406 24.785156 -2.410156 23.015625 -1.234375 C 21.242188 -0.0664062 18.878906 0.515625 15.921875 0.515625 C 13.148438 0.515625 10.753906 -0.0078125 8.734375 -1.0625 C 6.710938 -2.125 5.148438 -3.695312 4.046875 -5.78125 C 2.953125 -7.863281 2.40625 -10.410156 2.40625 -13.421875 C 2.40625 -16.472656 2.984375 -19.046875 4.140625 -21.140625 C 5.296875 -23.234375 6.851562 -24.796875 8.8125 -25.828125 C 10.78125 -26.859375 12.988281 -27.375 15.4375 -27.375 C 19.238281 -27.375 22.148438 -26.363281 24.171875 -24.34375 C 26.191406 -22.332031 27.203125 -19.378906 27.203125 -15.484375 C 27.203125 -14.078125 27.15625 -12.984375 27.0625 -12.203125 Z M 20.75 -16.265625 C 20.6875 -18.316406 20.210938 -19.804688 19.328125 -20.734375 C 18.441406 -21.671875 17.144531 -22.140625 15.4375 -22.140625 C 12.03125 -22.140625 10.023438 -20.179688 9.421875 -16.265625 Z M 20.75 -16.265625 "/></g></g></g><g fill="#000000" fill-opacity="1"><g transform="translate(203.187899, 53.316493)"><g><path d="M 13.265625 0.515625 C 11.140625 0.515625 9.257812 0 7.625 -1.03125 C 6 -2.0625 4.722656 -3.617188 3.796875 -5.703125 C 2.867188 -7.796875 2.40625 -10.367188 2.40625 -13.421875 C 2.40625 -16.484375 2.878906 -19.054688 3.828125 -21.140625 C 4.785156 -23.234375 6.101562 -24.796875 7.78125 -25.828125 C 9.457031 -26.859375 11.398438 -27.375 13.609375 -27.375 C 15.285156 -27.375 16.734375 -27.082031 17.953125 -26.5 C 19.179688 -25.925781 20.21875 -25.03125 21.0625 -23.8125 L 21.578125 -23.9375 L 21.578125 -37.65625 L 28.328125 -37.65625 L 28.328125 0 L 21.578125 0 L 21.578125 -3.484375 L 21.0625 -3.578125 C 20.3125 -2.316406 19.285156 -1.316406 17.984375 -0.578125 C 16.691406 0.148438 15.117188 0.515625 13.265625 0.515625 Z M 15.46875 -5.21875 C 17.363281 -5.21875 18.863281 -5.894531 19.96875 -7.25 C 21.070312 -8.601562 21.625 -10.660156 21.625 -13.421875 C 21.625 -16.179688 21.070312 -18.242188 19.96875 -19.609375 C 18.863281 -20.972656 17.363281 -21.65625 15.46875 -21.65625 C 13.488281 -21.65625 11.972656 -20.992188 10.921875 -19.671875 C 9.878906 -18.347656 9.359375 -16.265625 9.359375 -13.421875 C 9.359375 -10.597656 9.878906 -8.523438 10.921875 -7.203125 C 11.972656 -5.878906 13.488281 -5.21875 15.46875 -5.21875 Z M 15.46875 -5.21875 "/></g></g></g></g></g><g transform="matrix(1, 0, 0, 1, 26, 51)"><g clip-path="url(#a0d44f34e1)"><g clip-path="url(#d148e3090e)"><g clip-path="url(#072ff1cf65)"><g><g clip-path="url(#c1261967cb)"><g clip-path="url(#3741850ebb)"><g clip-path="url(#f6492505eb)"><path fill="#f15e3d" d="M 0.328125 0.539062 L 320.632812 0.539062 L 320.632812 194.386719 L 0.328125 194.386719 Z M 0.328125 0.539062 " fill-opacity="1" fill-rule="nonzero"/></g></g></g></g></g></g><g clip-path="url(#846316ab02)"><g clip-path="url(#cb63afcefd)"><g clip-path="url(#fd5035a0cd)"><g clip-path="url(#702626d813)"><path fill="#f15e3d" d="M 45.734375 26.105469 L 285.269531 26.105469 L 285.269531 157.0625 L 45.734375 157.0625 Z M 45.734375 26.105469 " fill-opacity="1" fill-rule="nonzero"/></g></g></g></g><g clip-path="url(#897c85b37a)"><g clip-path="url(#145cbe51b2)"><path fill="#000000" d="M 143.367188 125.933594 L 172.988281 125.59375 C 175.238281 125.566406 177.085938 127.367188 177.113281 129.617188 C 177.136719 131.871094 175.335938 133.714844 173.085938 133.742188 C 172.992188 133.742188 172.882812 133.738281 172.792969 133.734375 L 143.222656 131.960938 C 141.558594 131.863281 140.289062 130.433594 140.390625 128.769531 C 140.484375 127.183594 141.804688 125.957031 143.367188 125.933594 Z M 143.367188 125.933594 " fill-opacity="1" fill-rule="nonzero"/></g></g><g clip-path="url(#d9f7c5a9da)"><g clip-path="url(#4dc2eace07)"><path fill="#000000" d="M 246.382812 30.351562 C 240.5625 16.425781 224.0625 7.097656 210.636719 1.84375 C 191.996094 -5.445312 165.714844 -5.417969 146.070312 -3.011719 C 124.847656 -0.410156 108.761719 8.113281 92.96875 22.425781 C 76.550781 37.304688 74.023438 61.152344 73.035156 82.09375 C 72.832031 86.417969 74.253906 95.457031 75.109375 99.992188 C 76.40625 106.894531 77.375 111.003906 83.40625 123.128906 C 86.621094 129.589844 93.726562 139.148438 98.757812 144.3125 C 103.253906 148.929688 109.804688 154.984375 115.492188 159.695312 C 133.121094 174.273438 159.261719 173.09375 180.84375 169.363281 C 200.203125 166.019531 226.324219 150.316406 236.363281 132.667969 C 240.691406 125.0625 249.3125 106.492188 251.792969 89.359375 C 252.484375 84.59375 254.496094 49.773438 246.382812 30.351562 Z M 244.328125 83.023438 C 244.203125 87.621094 239.855469 104.34375 235.265625 115.144531 C 234.0625 117.972656 226.246094 129.007812 224.9375 130.539062 C 208.085938 150.242188 179.4375 162.152344 153.941406 161.578125 C 140.273438 161.269531 129.714844 157.054688 118.929688 148.75 C 110.988281 142.636719 104.417969 135.570312 98.4375 126.660156 C 97.429688 125.15625 94.359375 120.152344 93.457031 118.582031 C 89.851562 112.332031 87.085938 104.472656 85.625 97.515625 C 83.847656 89.039062 83.855469 72.257812 84.808594 63.859375 C 86.863281 45.800781 92.308594 32.765625 105.355469 20.132812 C 127.878906 -1.671875 171.929688 -4.167969 200.429688 4.976562 C 215.960938 9.960938 232.941406 21.90625 240.601562 36.382812 C 248.730469 51.761719 244.789062 66.464844 244.328125 83.023438 C 244.273438 84.972656 244.386719 80.808594 244.328125 83.023438 Z M 244.328125 83.023438 " fill-opacity="1" fill-rule="nonzero"/></g></g><g clip-path="url(#3726479d30)"><g clip-path="url(#62a523fd0c)"><path fill="#000000" d="M 121.324219 59.863281 C 120.644531 52.847656 124.375 48.761719 128.675781 45.351562 C 131.601562 43.035156 136.359375 46.355469 137.082031 50.054688 C 138.265625 56.09375 135.203125 61.15625 134.035156 66.640625 C 133.472656 69.285156 128.511719 70.449219 126.316406 68.683594 C 123.265625 66.238281 120.570312 63.550781 121.324219 59.863281 Z M 121.324219 59.863281 " fill-opacity="1" fill-rule="nonzero"/></g></g><g clip-path="url(#e257b5156e)"><g clip-path="url(#2267b05729)"><path fill="#000000" d="M 203.007812 61.484375 C 203.59375 66.378906 201.53125 70.359375 198.734375 73.71875 C 197.445312 75.265625 194.730469 76.128906 192.578125 76.316406 C 190.582031 76.488281 186.625 71.496094 186.539062 69.539062 C 186.277344 63.417969 189.105469 58.414062 192.601562 53.777344 C 194.132812 51.746094 197.71875 52.675781 199.898438 54.464844 C 202.320312 56.453125 204.007812 58.375 203.007812 61.484375 Z M 203.007812 61.484375 " fill-opacity="1" fill-rule="nonzero"/></g></g><g clip-path="url(#0c09a7c5fa)"><g clip-path="url(#fec75d5b3f)"><path fill="#000000" d="M 143.367188 125.933594 L 172.988281 125.59375 C 175.238281 125.566406 177.085938 127.367188 177.113281 129.617188 C 177.136719 131.871094 175.335938 133.714844 173.085938 133.742188 C 172.992188 133.742188 172.882812 133.738281 172.792969 133.734375 L 143.222656 131.960938 C 141.558594 131.863281 140.289062 130.433594 140.390625 128.769531 C 140.484375 127.183594 141.804688 125.957031 143.367188 125.933594 Z M 143.367188 125.933594 " fill-opacity="1" fill-rule="nonzero"/></g></g><g clip-path="url(#5e0a7eb030)"><g clip-path="url(#4c80d978aa)"><path fill="#000000" d="M 246.382812 30.351562 C 240.5625 16.425781 224.0625 7.097656 210.636719 1.84375 C 191.996094 -5.445312 165.714844 -5.417969 146.070312 -3.011719 C 124.847656 -0.410156 108.761719 8.113281 92.96875 22.425781 C 76.550781 37.304688 74.023438 61.152344 73.035156 82.09375 C 72.832031 86.417969 74.253906 95.457031 75.109375 99.992188 C 76.40625 106.894531 77.375 111.003906 83.40625 123.128906 C 86.621094 129.589844 93.726562 139.148438 98.757812 144.3125 C 103.253906 148.929688 109.804688 154.984375 115.492188 159.695312 C 133.121094 174.273438 159.261719 173.09375 180.84375 169.363281 C 200.203125 166.019531 226.324219 150.316406 236.363281 132.667969 C 240.691406 125.0625 249.3125 106.492188 251.792969 89.359375 C 252.484375 84.59375 254.496094 49.773438 246.382812 30.351562 Z M 244.328125 83.023438 C 244.203125 87.621094 239.855469 104.34375 235.265625 115.144531 C 234.0625 117.972656 226.246094 129.007812 224.9375 130.539062 C 208.085938 150.242188 179.4375 162.152344 153.941406 161.578125 C 140.273438 161.269531 129.714844 157.054688 118.929688 148.75 C 110.988281 142.636719 104.417969 135.570312 98.4375 126.660156 C 97.429688 125.15625 94.359375 120.152344 93.457031 118.582031 C 89.851562 112.332031 87.085938 104.472656 85.625 97.515625 C 83.847656 89.039062 83.855469 72.257812 84.808594 63.859375 C 86.863281 45.800781 92.308594 32.765625 105.355469 20.132812 C 127.878906 -1.671875 171.929688 -4.167969 200.429688 4.976562 C 215.960938 9.960938 232.941406 21.90625 240.601562 36.382812 C 248.730469 51.761719 244.789062 66.464844 244.328125 83.023438 C 244.273438 84.972656 244.386719 80.808594 244.328125 83.023438 Z M 244.328125 83.023438 " fill-opacity="1" fill-rule="nonzero"/></g></g><g clip-path="url(#a4f9c93d0a)"><g clip-path="url(#4ca6709d8d)"><path fill="#000000" d="M 121.324219 59.863281 C 120.644531 52.847656 124.375 48.761719 128.675781 45.351562 C 131.601562 43.035156 136.359375 46.355469 137.082031 50.054688 C 138.265625 56.09375 135.203125 61.15625 134.035156 66.640625 C 133.472656 69.285156 128.511719 70.449219 126.316406 68.683594 C 123.265625 66.238281 120.570312 63.550781 121.324219 59.863281 Z M 121.324219 59.863281 " fill-opacity="1" fill-rule="nonzero"/></g></g><g clip-path="url(#f08b10f412)"><g clip-path="url(#2ce9eaa464)"><path fill="#000000" d="M 203.007812 61.484375 C 203.59375 66.378906 201.53125 70.359375 198.734375 73.71875 C 197.445312 75.265625 194.730469 76.128906 192.578125 76.316406 C 190.582031 76.488281 186.625 71.496094 186.539062 69.539062 C 186.277344 63.417969 189.105469 58.414062 192.601562 53.777344 C 194.132812 51.746094 197.71875 52.675781 199.898438 54.464844 C 202.320312 56.453125 204.007812 58.375 203.007812 61.484375 Z M 203.007812 61.484375 " fill-opacity="1" fill-rule="nonzero"/></g></g><g clip-path="url(#668d342ade)"><g clip-path="url(#2e7cf8d469)"><g clip-path="url(#a602f8b80d)"><g clip-path="url(#7e1444e34b)"><path fill="#000000" d="M 255.269531 47.554688 C 255.210938 46.089844 254.035156 44.511719 252.472656 44.066406 C 249.394531 43.1875 247.359375 45.441406 245.28125 47.074219 C 244.21875 47.90625 242.917969 48.589844 241.527344 48.472656 C 238.933594 48.25 237.304688 45.132812 238.011719 42.742188 C 238.71875 40.351562 241.039062 38.757812 243.464844 37.929688 C 248.503906 36.214844 255.242188 37.417969 259.152344 41.308594 C 261.089844 43.238281 262.265625 45.925781 262.058594 48.550781 C 261.847656 51.171875 260.160156 53.648438 257.65625 54.617188 C 256.3125 55.132812 254.792969 55.226562 253.515625 55.878906 C 251.71875 56.800781 251.007812 58.660156 249.507812 59.859375 C 248.101562 60.984375 246.820312 62.054688 244.859375 62.097656 C 242.128906 62.160156 239.070312 60.191406 239.773438 57.273438 C 240.097656 55.90625 241.109375 54.578125 242.429688 53.992188 C 244.023438 53.285156 245.996094 53.886719 247.425781 52.808594 C 248.1875 52.234375 248.59375 51.28125 249.40625 50.777344 C 250.664062 50.003906 252.445312 50.542969 253.789062 49.90625 C 254.878906 49.394531 255.304688 48.496094 255.269531 47.554688 Z M 255.269531 47.554688 " fill-opacity="1" fill-rule="nonzero"/></g></g></g></g><g clip-path="url(#3933de5211)"><g clip-path="url(#9b473918b3)"><g clip-path="url(#3a0ca23f50)"><g clip-path="url(#81dc1ba815)"><path fill="#000000" d="M 242.046875 62.285156 C 241.171875 61.910156 240.402344 61.355469 239.855469 60.671875 C 239.011719 59.628906 238.734375 58.394531 239.042969 57.097656 C 239.4375 55.453125 240.648438 53.964844 242.125 53.308594 C 242.941406 52.949219 243.785156 52.882812 244.605469 52.820312 C 245.539062 52.746094 246.347656 52.6875 246.976562 52.214844 C 247.253906 52.003906 247.492188 51.707031 247.742188 51.386719 C 248.082031 50.964844 248.464844 50.484375 249.015625 50.144531 C 249.84375 49.632812 250.808594 49.582031 251.660156 49.535156 C 252.335938 49.5 252.972656 49.46875 253.472656 49.230469 C 254.199219 48.886719 254.550781 48.335938 254.523438 47.585938 C 254.472656 46.382812 253.460938 45.125 252.265625 44.785156 C 250.007812 44.136719 248.375 45.492188 246.648438 46.925781 C 246.351562 47.167969 246.046875 47.421875 245.742188 47.660156 C 244.277344 48.808594 242.835938 49.332031 241.464844 49.214844 C 240.136719 49.101562 238.941406 48.367188 238.105469 47.140625 C 237.167969 45.773438 236.859375 44.003906 237.292969 42.53125 C 237.980469 40.207031 240.140625 38.273438 243.222656 37.222656 C 248.785156 35.328125 255.707031 36.824219 259.683594 40.78125 C 261.851562 42.945312 263.019531 45.871094 262.800781 48.609375 C 262.566406 51.585938 260.605469 54.28125 257.925781 55.3125 C 257.296875 55.554688 256.652344 55.707031 256.027344 55.855469 C 255.246094 56.039062 254.503906 56.214844 253.859375 56.542969 C 252.953125 57.007812 252.339844 57.777344 251.695312 58.59375 C 251.1875 59.230469 250.664062 59.890625 249.976562 60.441406 L 249.855469 60.539062 C 248.46875 61.648438 247.035156 62.800781 244.875 62.847656 C 243.894531 62.863281 242.949219 62.675781 242.046875 62.285156 Z M 256.015625 47.527344 C 256.070312 48.871094 255.375 49.984375 254.109375 50.582031 C 253.34375 50.945312 252.527344 50.988281 251.738281 51.027344 C 251 51.066406 250.304688 51.105469 249.800781 51.414062 C 249.472656 51.617188 249.199219 51.957031 248.914062 52.320312 C 248.613281 52.695312 248.300781 53.085938 247.875 53.40625 C 246.898438 54.144531 245.742188 54.230469 244.71875 54.308594 C 243.996094 54.363281 243.3125 54.417969 242.734375 54.675781 C 241.679688 55.140625 240.785156 56.253906 240.5 57.445312 C 240.296875 58.289062 240.472656 59.058594 241.015625 59.734375 C 241.824219 60.734375 243.363281 61.382812 244.84375 61.351562 C 246.496094 61.316406 247.621094 60.414062 248.921875 59.371094 L 249.039062 59.277344 C 249.597656 58.828125 250.046875 58.261719 250.523438 57.664062 C 251.242188 56.761719 251.984375 55.824219 253.175781 55.214844 C 253.984375 54.800781 254.847656 54.597656 255.6875 54.398438 C 256.289062 54.257812 256.855469 54.125 257.386719 53.917969 C 259.542969 53.085938 261.121094 50.90625 261.3125 48.492188 C 261.496094 46.183594 260.492188 43.695312 258.625 41.839844 C 255.09375 38.320312 248.675781 36.945312 243.703125 38.636719 C 241.089844 39.527344 239.273438 41.101562 238.726562 42.953125 C 238.414062 44.007812 238.648438 45.292969 239.339844 46.300781 C 239.917969 47.144531 240.71875 47.652344 241.59375 47.726562 C 242.574219 47.808594 243.660156 47.394531 244.820312 46.484375 C 245.109375 46.261719 245.390625 46.023438 245.691406 45.773438 C 247.550781 44.234375 249.660156 42.484375 252.679688 43.347656 C 254.507812 43.871094 255.941406 45.667969 256.015625 47.527344 Z M 256.015625 47.527344 " fill-opacity="1" fill-rule="nonzero"/></g></g></g></g><g clip-path="url(#45afb62782)"><g clip-path="url(#183351f23f)"><g clip-path="url(#cfe6d63f23)"><g clip-path="url(#4da93e5669)"><path fill="#000000" d="M 236.292969 68.738281 C 235.425781 68.003906 234.925781 66.921875 235.191406 65.601562 C 235.78125 62.671875 238.796875 63.28125 240.925781 64.15625 C 241.523438 64.402344 242.136719 64.660156 242.582031 65.121094 C 244.332031 66.929688 242.515625 68.960938 240.625 69.574219 C 239.160156 70.050781 237.417969 69.6875 236.292969 68.738281 Z M 236.292969 68.738281 " fill-opacity="1" fill-rule="nonzero"/></g></g></g></g><g clip-path="url(#2fa52862ad)"><g clip-path="url(#392bc33c41)"><g clip-path="url(#23f3745af4)"><g clip-path="url(#d1733b8d66)"><path fill="#000000" d="M 237.046875 70.070312 C 236.597656 69.875 236.183594 69.621094 235.808594 69.308594 C 234.652344 68.332031 234.160156 66.925781 234.457031 65.453125 C 234.683594 64.339844 235.226562 63.546875 236.070312 63.09375 C 237.59375 62.28125 239.707031 62.847656 241.210938 63.464844 C 241.808594 63.714844 242.558594 64.019531 243.121094 64.601562 C 244.117188 65.632812 244.125 66.664062 243.953125 67.34375 C 243.59375 68.796875 242.136719 69.867188 240.855469 70.285156 C 239.636719 70.679688 238.234375 70.582031 237.046875 70.070312 Z M 241.003906 65 C 240.882812 64.949219 240.761719 64.898438 240.640625 64.847656 C 238.933594 64.148438 237.5625 63.992188 236.777344 64.414062 C 236.335938 64.648438 236.058594 65.085938 235.921875 65.75 C 235.679688 66.949219 236.253906 67.726562 236.773438 68.167969 C 237.714844 68.960938 239.203125 69.25 240.394531 68.863281 C 241.429688 68.527344 242.316406 67.738281 242.503906 66.984375 C 242.621094 66.519531 242.46875 66.078125 242.046875 65.640625 C 241.78125 65.367188 241.402344 65.171875 241.003906 65 Z M 241.003906 65 " fill-opacity="1" fill-rule="nonzero"/></g></g></g></g><g clip-path="url(#012884b6d1)"><g clip-path="url(#9ae9454379)"><g clip-path="url(#5be9d25026)"><g clip-path="url(#bbc75ed75d)"><path fill="#000000" d="M 270.507812 69.085938 C 271.0625 68.011719 270.863281 66.398438 269.925781 65.441406 C 268.078125 63.554688 265.699219 64.34375 263.539062 64.660156 C 262.4375 64.824219 261.226562 64.785156 260.277344 64.132812 C 258.507812 62.914062 258.613281 60.011719 260.097656 58.585938 C 261.582031 57.160156 263.898438 56.964844 265.972656 57.363281 C 270.289062 58.191406 274.632812 61.804688 275.84375 66.195312 C 276.445312 68.367188 276.191406 70.773438 274.96875 72.570312 C 273.746094 74.367188 271.523438 75.453125 269.332031 75.125 C 268.15625 74.945312 267.027344 74.390625 265.847656 74.339844 C 264.179688 74.265625 262.910156 75.308594 261.34375 75.554688 C 259.875 75.789062 258.519531 76.035156 257.097656 75.265625 C 255.113281 74.191406 253.726562 71.535156 255.421875 69.726562 C 256.214844 68.878906 257.480469 68.339844 258.667969 68.457031 C 260.097656 68.601562 261.269531 69.839844 262.734375 69.652344 C 263.515625 69.550781 264.195312 69.03125 264.984375 69.003906 C 266.203125 68.960938 267.261719 70.074219 268.484375 70.167969 C 269.476562 70.242188 270.148438 69.777344 270.507812 69.085938 Z M 270.507812 69.085938 " fill-opacity="1" fill-rule="nonzero"/></g></g></g></g><g clip-path="url(#59565c7e4f)"><g clip-path="url(#6bbe8a5808)"><g clip-path="url(#f803d71ad9)"><g clip-path="url(#5f175a48c1)"><path fill="#000000" d="M 255.003906 74.25 C 254.53125 73.621094 254.207031 72.910156 254.089844 72.199219 C 253.914062 71.109375 254.21875 70.105469 254.96875 69.304688 C 255.925781 68.285156 257.402344 67.714844 258.726562 67.84375 C 259.460938 67.917969 260.09375 68.21875 260.707031 68.507812 C 261.40625 68.835938 262.011719 69.121094 262.65625 69.039062 C 262.9375 69.003906 263.230469 68.886719 263.542969 68.761719 C 263.957031 68.59375 264.429688 68.40625 264.964844 68.386719 C 265.765625 68.359375 266.480469 68.71875 267.109375 69.035156 C 267.605469 69.28125 268.074219 69.519531 268.53125 69.554688 C 269.191406 69.605469 269.671875 69.351562 269.957031 68.800781 C 270.414062 67.921875 270.203125 66.605469 269.488281 65.875 C 268.128906 64.488281 266.40625 64.789062 264.582031 65.113281 C 264.269531 65.167969 263.945312 65.222656 263.628906 65.273438 C 262.109375 65.496094 260.867188 65.285156 259.929688 64.640625 C 259.019531 64.015625 258.464844 63 258.367188 61.78125 C 258.253906 60.417969 258.753906 59.023438 259.671875 58.144531 C 261.113281 56.757812 263.453125 56.253906 266.089844 56.757812 C 270.855469 57.671875 275.207031 61.570312 276.441406 66.03125 C 277.113281 68.46875 276.753906 71.042969 275.476562 72.917969 C 274.089844 74.957031 271.585938 76.085938 269.238281 75.734375 C 268.691406 75.648438 268.167969 75.496094 267.660156 75.347656 C 267.019531 75.160156 266.417969 74.980469 265.820312 74.957031 C 264.980469 74.917969 264.226562 75.222656 263.429688 75.542969 C 262.808594 75.792969 262.164062 76.050781 261.441406 76.164062 L 261.316406 76.183594 C 259.867188 76.417969 258.371094 76.65625 256.804688 75.808594 C 256.089844 75.417969 255.492188 74.898438 255.003906 74.25 Z M 271.054688 69.371094 C 270.542969 70.355469 269.589844 70.871094 268.4375 70.78125 C 267.738281 70.730469 267.136719 70.429688 266.554688 70.136719 C 266.007812 69.863281 265.496094 69.601562 265.007812 69.621094 C 264.6875 69.632812 264.355469 69.765625 264 69.90625 C 263.632812 70.054688 263.25 70.207031 262.8125 70.261719 C 261.8125 70.390625 260.945312 69.980469 260.179688 69.621094 C 259.636719 69.367188 259.125 69.125 258.605469 69.074219 C 257.660156 68.976562 256.5625 69.410156 255.871094 70.148438 C 255.382812 70.667969 255.191406 71.292969 255.308594 72 C 255.476562 73.046875 256.316406 74.140625 257.390625 74.722656 C 258.589844 75.371094 259.765625 75.183594 261.121094 74.96875 L 261.25 74.949219 C 261.832031 74.855469 262.386719 74.632812 262.96875 74.398438 C 263.855469 74.042969 264.769531 73.675781 265.875 73.722656 C 266.621094 73.757812 267.328125 73.964844 268.007812 74.164062 C 268.496094 74.308594 268.960938 74.445312 269.421875 74.511719 C 271.308594 74.796875 273.332031 73.878906 274.457031 72.222656 C 275.53125 70.644531 275.828125 68.453125 275.25 66.359375 C 274.15625 62.390625 270.117188 58.785156 265.859375 57.96875 C 263.617188 57.539062 261.675781 57.925781 260.523438 59.03125 C 259.871094 59.660156 259.511719 60.675781 259.59375 61.679688 C 259.664062 62.523438 260.03125 63.210938 260.628906 63.625 C 261.300781 64.085938 262.25 64.230469 263.449219 64.050781 C 263.75 64.007812 264.050781 63.953125 264.367188 63.898438 C 266.332031 63.550781 268.554688 63.160156 270.367188 65.011719 C 271.464844 66.132812 271.761719 68.007812 271.054688 69.371094 Z M 271.054688 69.371094 " fill-opacity="1" fill-rule="nonzero"/></g></g></g></g><g clip-path="url(#c6bb589bd4)"><g clip-path="url(#729d542a4b)"><g clip-path="url(#298862b28f)"><g clip-path="url(#4652b47ab6)"><path fill="#000000" d="M 248.238281 76.527344 C 247.917969 75.648438 248 74.667969 248.730469 73.828125 C 250.351562 71.96875 252.265625 73.640625 253.433594 75.132812 C 253.761719 75.554688 254.097656 75.988281 254.230469 76.5 C 254.742188 78.511719 252.613281 79.226562 251.003906 78.894531 C 249.757812 78.636719 248.65625 77.667969 248.238281 76.527344 Z M 248.238281 76.527344 " fill-opacity="1" fill-rule="nonzero"/></g></g></g></g><g clip-path="url(#e0e61fd4c0)"><g clip-path="url(#9a0efb4f64)"><g clip-path="url(#625799d0a4)"><g clip-path="url(#2ac02e4439)"><path fill="#000000" d="M 248.238281 77.789062 C 247.992188 77.46875 247.800781 77.117188 247.660156 76.738281 C 247.230469 75.566406 247.453125 74.355469 248.265625 73.421875 C 248.882812 72.714844 249.597656 72.371094 250.386719 72.390625 C 251.808594 72.429688 253.09375 73.699219 253.921875 74.753906 C 254.25 75.175781 254.660156 75.703125 254.828125 76.347656 C 255.121094 77.496094 254.703125 78.238281 254.304688 78.65625 C 253.449219 79.550781 251.96875 79.722656 250.878906 79.5 C 249.84375 79.285156 248.878906 78.644531 248.238281 77.789062 Z M 253.144531 75.769531 C 253.082031 75.683594 253.015625 75.597656 252.949219 75.515625 C 252.011719 74.3125 251.089844 73.644531 250.355469 73.625 C 249.941406 73.613281 249.5625 73.8125 249.195312 74.234375 C 248.53125 74.996094 248.625 75.785156 248.816406 76.3125 C 249.167969 77.269531 250.117188 78.082031 251.128906 78.292969 C 252.007812 78.472656 252.96875 78.269531 253.410156 77.804688 C 253.683594 77.519531 253.757812 77.144531 253.632812 76.652344 C 253.554688 76.351562 253.359375 76.054688 253.144531 75.769531 Z M 253.144531 75.769531 " fill-opacity="1" fill-rule="nonzero"/></g></g></g></g></g></g></svg>