<svg xmlns="http://www.w3.org/2000/svg" xmlns:xlink="http://www.w3.org/1999/xlink" width="512" zoomAndPan="magnify" viewBox="0 0 384 383.999986" height="512" preserveAspectRatio="xMidYMid meet" version="1.0"><defs><g/><clipPath id="62ee51ff44"><path d="M 26.328125 51.539062 L 346.632812 51.539062 L 346.632812 245.386719 L 26.328125 245.386719 Z M 26.328125 51.539062 " clip-rule="nonzero"/></clipPath><clipPath id="4d0c8b7a7b"><path d="M 76.578125 51.539062 L 296.019531 51.539062 C 309.34375 51.539062 322.125 56.832031 331.550781 66.257812 C 340.972656 75.679688 346.269531 88.460938 346.269531 101.789062 L 346.269531 195.136719 C 346.269531 208.464844 340.972656 221.246094 331.550781 230.667969 C 322.125 240.09375 309.34375 245.386719 296.019531 245.386719 L 76.578125 245.386719 C 63.25 245.386719 50.46875 240.09375 41.042969 230.667969 C 31.621094 221.246094 26.328125 208.464844 26.328125 195.136719 L 26.328125 101.789062 C 26.328125 88.460938 31.621094 75.679688 41.042969 66.257812 C 50.46875 56.832031 63.25 51.539062 76.578125 51.539062 Z M 76.578125 51.539062 " clip-rule="nonzero"/></clipPath><clipPath id="bde2dfac11"><path d="M 0.328125 0.539062 L 320.320312 0.539062 L 320.320312 194.386719 L 0.328125 194.386719 Z M 0.328125 0.539062 " clip-rule="nonzero"/></clipPath><clipPath id="527bbbe1d1"><path d="M 50.578125 0.539062 L 270.019531 0.539062 C 283.34375 0.539062 296.125 5.832031 305.550781 15.257812 C 314.972656 24.679688 320.269531 37.460938 320.269531 50.789062 L 320.269531 144.136719 C 320.269531 157.464844 314.972656 170.246094 305.550781 179.667969 C 296.125 189.09375 283.34375 194.386719 270.019531 194.386719 L 50.578125 194.386719 C 37.25 194.386719 24.46875 189.09375 15.042969 179.667969 C 5.621094 170.246094 0.328125 157.464844 0.328125 144.136719 L 0.328125 50.789062 C 0.328125 37.460938 5.621094 24.679688 15.042969 15.257812 C 24.46875 5.832031 37.25 0.539062 50.578125 0.539062 Z M 50.578125 0.539062 " clip-rule="nonzero"/></clipPath><clipPath id="0f4582b73f"><rect x="0" width="321" y="0" height="195"/></clipPath><clipPath id="d6b3f6b5c1"><rect x="0" width="193" y="0" height="69"/></clipPath><clipPath id="95fcac83a1"><path d="M 54.253906 72.832031 L 329.828125 72.832031 L 329.828125 223.394531 L 54.253906 223.394531 Z M 54.253906 72.832031 " clip-rule="nonzero"/></clipPath><clipPath id="96af8fb7d7"><path d="M 58.847656 72.832031 L 325.304688 72.832031 C 327.839844 72.832031 329.894531 74.882812 329.894531 77.417969 L 329.894531 218.808594 C 329.894531 221.34375 327.839844 223.394531 325.304688 223.394531 L 58.847656 223.394531 C 56.3125 223.394531 54.253906 221.34375 54.253906 218.808594 L 54.253906 77.417969 C 54.253906 74.882812 56.3125 72.832031 58.847656 72.832031 Z M 58.847656 72.832031 " clip-rule="nonzero"/></clipPath><clipPath id="4bef54276d"><path d="M 58.847656 72.832031 L 325.304688 72.832031 C 327.839844 72.832031 329.894531 74.882812 329.894531 77.417969 L 329.894531 218.808594 C 329.894531 221.34375 327.839844 223.394531 325.304688 223.394531 L 58.847656 223.394531 C 56.3125 223.394531 54.253906 221.34375 54.253906 218.808594 L 54.253906 77.417969 C 54.253906 74.882812 56.3125 72.832031 58.847656 72.832031 Z M 58.847656 72.832031 " clip-rule="nonzero"/></clipPath><clipPath id="627567de3a"><path d="M 136.792969 84.132812 L 181.8125 84.132812 L 181.8125 118.976562 L 136.792969 118.976562 Z M 136.792969 84.132812 " clip-rule="nonzero"/></clipPath><clipPath id="d37578bb60"><path d="M 120.226562 148.113281 L 263.742188 148.113281 L 263.742188 196.90625 L 120.226562 196.90625 Z M 120.226562 148.113281 " clip-rule="nonzero"/></clipPath></defs><g clip-path="url(#62ee51ff44)"><g clip-path="url(#4d0c8b7a7b)"><g transform="matrix(1, 0, 0, 1, 26, 51)"><g clip-path="url(#0f4582b73f)"><g clip-path="url(#bde2dfac11)"><g clip-path="url(#527bbbe1d1)"><path fill="#f15e3d" d="M 0.328125 0.539062 L 320.632812 0.539062 L 320.632812 194.386719 L 0.328125 194.386719 Z M 0.328125 0.539062 " fill-opacity="1" fill-rule="nonzero"/></g></g></g></g></g></g><g transform="matrix(1, 0, 0, 1, 90, 269)"><g clip-path="url(#d6b3f6b5c1)"><g fill="#000000" fill-opacity="1"><g transform="translate(0.156937, 53.316493)"><g><path d="M 4.625 0 L 4.625 -35.609375 L 18.921875 -35.609375 C 22.609375 -35.609375 25.390625 -34.757812 27.265625 -33.0625 C 29.140625 -31.363281 30.078125 -29.019531 30.078125 -26.03125 C 30.078125 -23.875 29.523438 -22.101562 28.421875 -20.71875 C 27.328125 -19.34375 25.695312 -18.289062 23.53125 -17.5625 L 23.53125 -17.046875 C 24.644531 -16.554688 25.546875 -15.832031 26.234375 -14.875 C 26.929688 -13.914062 27.585938 -12.5 28.203125 -10.625 L 31.75 0 L 24.53125 0 L 21.046875 -10.640625 C 20.679688 -11.710938 20.273438 -12.546875 19.828125 -13.140625 C 19.390625 -13.734375 18.820312 -14.160156 18.125 -14.421875 C 17.4375 -14.691406 16.539062 -14.828125 15.4375 -14.828125 L 11.671875 -14.828125 L 11.671875 0 Z M 18.0625 -20.40625 C 21.476562 -20.40625 23.1875 -22 23.1875 -25.1875 C 23.1875 -28.414062 21.476562 -30.03125 18.0625 -30.03125 L 11.671875 -30.03125 L 11.671875 -20.40625 Z M 18.0625 -20.40625 "/></g></g></g><g fill="#000000" fill-opacity="1"><g transform="translate(32.736074, 53.316493)"><g><path d="M 26.546875 -11.90625 L 9.28125 -11.90625 C 9.476562 -9.570312 10.144531 -7.875 11.28125 -6.8125 C 12.414062 -5.75 13.960938 -5.21875 15.921875 -5.21875 C 17.460938 -5.21875 18.710938 -5.503906 19.671875 -6.078125 C 20.628906 -6.648438 21.398438 -7.519531 21.984375 -8.6875 L 22.5 -8.6875 L 26.984375 -5.828125 C 26.109375 -3.941406 24.785156 -2.410156 23.015625 -1.234375 C 21.242188 -0.0664062 18.878906 0.515625 15.921875 0.515625 C 13.148438 0.515625 10.753906 -0.0078125 8.734375 -1.0625 C 6.710938 -2.125 5.148438 -3.695312 4.046875 -5.78125 C 2.953125 -7.863281 2.40625 -10.410156 2.40625 -13.421875 C 2.40625 -16.472656 2.984375 -19.046875 4.140625 -21.140625 C 5.296875 -23.234375 6.851562 -24.796875 8.8125 -25.828125 C 10.78125 -26.859375 12.988281 -27.375 15.4375 -27.375 C 19.238281 -27.375 22.148438 -26.363281 24.171875 -24.34375 C 26.191406 -22.332031 27.203125 -19.378906 27.203125 -15.484375 C 27.203125 -14.078125 27.15625 -12.984375 27.0625 -12.203125 Z M 20.75 -16.265625 C 20.6875 -18.316406 20.210938 -19.804688 19.328125 -20.734375 C 18.441406 -21.671875 17.144531 -22.140625 15.4375 -22.140625 C 12.03125 -22.140625 10.023438 -20.179688 9.421875 -16.265625 Z M 20.75 -16.265625 "/></g></g></g><g fill="#000000" fill-opacity="1"><g transform="translate(61.930729, 53.316493)"><g><path d="M 11.15625 0.515625 C 8.738281 0.515625 6.890625 -0.132812 5.609375 -1.4375 C 4.335938 -2.75 3.703125 -4.738281 3.703125 -7.40625 L 3.703125 -37.65625 L 10.453125 -37.65625 L 10.453125 -7.671875 C 10.453125 -6.035156 11.132812 -5.21875 12.5 -5.21875 C 12.882812 -5.21875 13.296875 -5.28125 13.734375 -5.40625 L 14.078125 -5.3125 L 14.6875 -0.125 C 14.3125 0.0703125 13.816406 0.226562 13.203125 0.34375 C 12.585938 0.457031 11.90625 0.515625 11.15625 0.515625 Z M 11.15625 0.515625 "/></g></g></g><g fill="#000000" fill-opacity="1"><g transform="translate(77.368103, 53.316493)"><g><path d="M 10.46875 0.515625 C 8.75 0.515625 7.253906 0.195312 5.984375 -0.4375 C 4.722656 -1.070312 3.75 -2 3.0625 -3.21875 C 2.382812 -4.445312 2.046875 -5.921875 2.046875 -7.640625 C 2.046875 -9.234375 2.382812 -10.566406 3.0625 -11.640625 C 3.75 -12.722656 4.804688 -13.609375 6.234375 -14.296875 C 7.660156 -14.992188 9.523438 -15.53125 11.828125 -15.90625 C 13.441406 -16.164062 14.664062 -16.445312 15.5 -16.75 C 16.332031 -17.0625 16.894531 -17.410156 17.1875 -17.796875 C 17.476562 -18.191406 17.625 -18.6875 17.625 -19.28125 C 17.625 -20.144531 17.320312 -20.800781 16.71875 -21.25 C 16.125 -21.707031 15.128906 -21.9375 13.734375 -21.9375 C 12.242188 -21.9375 10.820312 -21.601562 9.46875 -20.9375 C 8.125 -20.269531 6.957031 -19.394531 5.96875 -18.3125 L 5.484375 -18.3125 L 2.65625 -22.578125 C 4.019531 -24.085938 5.679688 -25.265625 7.640625 -26.109375 C 9.609375 -26.953125 11.753906 -27.375 14.078125 -27.375 C 17.628906 -27.375 20.203125 -26.617188 21.796875 -25.109375 C 23.390625 -23.597656 24.1875 -21.453125 24.1875 -18.671875 L 24.1875 -7.015625 C 24.1875 -5.816406 24.710938 -5.21875 25.765625 -5.21875 C 26.171875 -5.21875 26.566406 -5.289062 26.953125 -5.4375 L 27.296875 -5.328125 L 27.78125 -0.640625 C 27.414062 -0.390625 26.898438 -0.1875 26.234375 -0.03125 C 25.566406 0.113281 24.832031 0.1875 24.03125 0.1875 C 22.425781 0.1875 21.171875 -0.117188 20.265625 -0.734375 C 19.367188 -1.347656 18.726562 -2.3125 18.34375 -3.625 L 17.828125 -3.671875 C 16.515625 -0.878906 14.0625 0.515625 10.46875 0.515625 Z M 12.609375 -4.53125 C 14.171875 -4.53125 15.414062 -5.050781 16.34375 -6.09375 C 17.28125 -7.144531 17.75 -8.601562 17.75 -10.46875 L 17.75 -13.203125 L 17.296875 -13.296875 C 16.890625 -12.972656 16.351562 -12.703125 15.6875 -12.484375 C 15.03125 -12.265625 14.085938 -12.046875 12.859375 -11.828125 C 11.398438 -11.585938 10.347656 -11.171875 9.703125 -10.578125 C 9.066406 -9.984375 8.75 -9.144531 8.75 -8.0625 C 8.75 -6.90625 9.085938 -6.023438 9.765625 -5.421875 C 10.441406 -4.828125 11.390625 -4.53125 12.609375 -4.53125 Z M 12.609375 -4.53125 "/></g></g></g><g fill="#000000" fill-opacity="1"><g transform="translate(105.686188, 53.316493)"><g><path d="M 7.578125 0 L 0.46875 0 L 8.140625 -13.9375 L 0.875 -26.859375 L 8.078125 -26.859375 L 12.734375 -18.015625 L 13.296875 -18.015625 L 17.96875 -26.859375 L 24.96875 -26.859375 L 17.921875 -13.9375 L 25.375 0 L 18.1875 0 L 13.125 -9.8125 L 12.5625 -9.8125 Z M 7.578125 0 "/></g></g></g><g fill="#000000" fill-opacity="1"><g transform="translate(131.009272, 53.316493)"><g><path d="M 26.546875 -11.90625 L 9.28125 -11.90625 C 9.476562 -9.570312 10.144531 -7.875 11.28125 -6.8125 C 12.414062 -5.75 13.960938 -5.21875 15.921875 -5.21875 C 17.460938 -5.21875 18.710938 -5.503906 19.671875 -6.078125 C 20.628906 -6.648438 21.398438 -7.519531 21.984375 -8.6875 L 22.5 -8.6875 L 26.984375 -5.828125 C 26.109375 -3.941406 24.785156 -2.410156 23.015625 -1.234375 C 21.242188 -0.0664062 18.878906 0.515625 15.921875 0.515625 C 13.148438 0.515625 10.753906 -0.0078125 8.734375 -1.0625 C 6.710938 -2.125 5.148438 -3.695312 4.046875 -5.78125 C 2.953125 -7.863281 2.40625 -10.410156 2.40625 -13.421875 C 2.40625 -16.472656 2.984375 -19.046875 4.140625 -21.140625 C 5.296875 -23.234375 6.851562 -24.796875 8.8125 -25.828125 C 10.78125 -26.859375 12.988281 -27.375 15.4375 -27.375 C 19.238281 -27.375 22.148438 -26.363281 24.171875 -24.34375 C 26.191406 -22.332031 27.203125 -19.378906 27.203125 -15.484375 C 27.203125 -14.078125 27.15625 -12.984375 27.0625 -12.203125 Z M 20.75 -16.265625 C 20.6875 -18.316406 20.210938 -19.804688 19.328125 -20.734375 C 18.441406 -21.671875 17.144531 -22.140625 15.4375 -22.140625 C 12.03125 -22.140625 10.023438 -20.179688 9.421875 -16.265625 Z M 20.75 -16.265625 "/></g></g></g><g fill="#000000" fill-opacity="1"><g transform="translate(160.203927, 53.316493)"><g><path d="M 13.265625 0.515625 C 11.140625 0.515625 9.257812 0 7.625 -1.03125 C 6 -2.0625 4.722656 -3.617188 3.796875 -5.703125 C 2.867188 -7.796875 2.40625 -10.367188 2.40625 -13.421875 C 2.40625 -16.484375 2.878906 -19.054688 3.828125 -21.140625 C 4.785156 -23.234375 6.101562 -24.796875 7.78125 -25.828125 C 9.457031 -26.859375 11.398438 -27.375 13.609375 -27.375 C 15.285156 -27.375 16.734375 -27.082031 17.953125 -26.5 C 19.179688 -25.925781 20.21875 -25.03125 21.0625 -23.8125 L 21.578125 -23.9375 L 21.578125 -37.65625 L 28.328125 -37.65625 L 28.328125 0 L 21.578125 0 L 21.578125 -3.484375 L 21.0625 -3.578125 C 20.3125 -2.316406 19.285156 -1.316406 17.984375 -0.578125 C 16.691406 0.148438 15.117188 0.515625 13.265625 0.515625 Z M 15.46875 -5.21875 C 17.363281 -5.21875 18.863281 -5.894531 19.96875 -7.25 C 21.070312 -8.601562 21.625 -10.660156 21.625 -13.421875 C 21.625 -16.179688 21.070312 -18.242188 19.96875 -19.609375 C 18.863281 -20.972656 17.363281 -21.65625 15.46875 -21.65625 C 13.488281 -21.65625 11.972656 -20.992188 10.921875 -19.671875 C 9.878906 -18.347656 9.359375 -16.265625 9.359375 -13.421875 C 9.359375 -10.597656 9.878906 -8.523438 10.921875 -7.203125 C 11.972656 -5.878906 13.488281 -5.21875 15.46875 -5.21875 Z M 15.46875 -5.21875 "/></g></g></g></g></g><g clip-path="url(#95fcac83a1)"><g clip-path="url(#96af8fb7d7)"><g clip-path="url(#4bef54276d)"><path fill="#f15e3d" d="M 54.253906 72.832031 L 329.828125 72.832031 L 329.828125 223.394531 L 54.253906 223.394531 Z M 54.253906 72.832031 " fill-opacity="1" fill-rule="nonzero"/></g></g></g><path fill="#000000" d="M 207.691406 119.992188 L 206.898438 118.828125 C 206.832031 118.734375 206.773438 118.636719 206.71875 118.535156 L 206.027344 117.308594 C 205.972656 117.207031 205.921875 117.109375 205.875 117.003906 L 205.292969 115.722656 C 205.242188 115.617188 205.199219 115.511719 205.164062 115.402344 L 204.691406 114.074219 C 204.65625 113.96875 204.621094 113.859375 204.59375 113.75 L 204.238281 112.386719 C 204.210938 112.273438 204.183594 112.164062 204.167969 112.050781 L 203.929688 110.664062 C 203.910156 110.550781 203.898438 110.4375 203.886719 110.324219 L 203.769531 108.917969 C 203.761719 108.804688 203.757812 108.691406 203.757812 108.578125 L 203.761719 107.171875 C 203.761719 107.054688 203.769531 106.941406 203.777344 106.828125 L 203.902344 105.425781 C 203.914062 105.3125 203.929688 105.199219 203.949219 105.085938 L 204.191406 103.699219 C 204.210938 103.585938 204.238281 103.476562 204.265625 103.367188 L 204.628906 102.003906 C 204.660156 101.894531 204.695312 101.785156 204.734375 101.679688 L 205.210938 100.355469 C 205.25 100.246094 205.292969 100.140625 205.339844 100.039062 L 205.933594 98.757812 C 205.980469 98.65625 206.03125 98.554688 206.089844 98.453125 L 206.785156 97.230469 C 206.84375 97.132812 206.902344 97.035156 206.96875 96.941406 L 207.769531 95.78125 C 207.832031 95.6875 207.902344 95.597656 207.976562 95.511719 L 208.871094 94.425781 C 208.945312 94.335938 209.019531 94.25 209.101562 94.167969 L 210.085938 93.164062 C 210.167969 93.082031 210.25 93.003906 210.335938 92.929688 L 211.40625 92.011719 C 211.492188 91.941406 211.582031 91.867188 211.675781 91.804688 L 212.820312 90.980469 C 212.910156 90.914062 213.007812 90.851562 213.105469 90.792969 L 214.316406 90.074219 C 214.414062 90.015625 214.515625 89.960938 214.617188 89.910156 L 215.886719 89.296875 C 215.988281 89.246094 216.09375 89.199219 216.199219 89.160156 L 217.515625 88.65625 C 217.621094 88.613281 217.730469 88.578125 217.839844 88.546875 L 219.191406 88.160156 C 219.300781 88.128906 219.414062 88.101562 219.523438 88.078125 L 220.902344 87.808594 C 221.015625 87.785156 221.128906 87.769531 221.242188 87.757812 L 222.636719 87.605469 C 222.75 87.59375 222.863281 87.585938 222.980469 87.582031 L 224.382812 87.550781 C 224.496094 87.546875 224.613281 87.550781 224.726562 87.558594 L 226.128906 87.644531 C 226.242188 87.652344 226.355469 87.664062 226.464844 87.683594 L 227.855469 87.890625 C 227.96875 87.90625 228.082031 87.929688 228.191406 87.953125 L 229.558594 88.28125 C 229.667969 88.308594 229.777344 88.339844 229.886719 88.375 L 231.222656 88.816406 C 231.328125 88.851562 231.4375 88.894531 231.539062 88.9375 L 232.832031 89.492188 C 232.9375 89.535156 233.039062 89.585938 233.140625 89.640625 L 234.378906 90.300781 C 234.480469 90.355469 234.578125 90.414062 234.671875 90.476562 L 235.851562 91.242188 C 235.945312 91.304688 236.039062 91.371094 236.128906 91.441406 L 237.234375 92.304688 C 237.324219 92.375 237.410156 92.449219 237.496094 92.527344 L 238.527344 93.484375 C 238.609375 93.558594 238.6875 93.640625 238.765625 93.726562 L 239.710938 94.765625 C 239.785156 94.851562 239.859375 94.9375 239.929688 95.027344 L 240.78125 96.144531 C 240.847656 96.234375 240.914062 96.328125 240.976562 96.425781 L 241.730469 97.613281 C 241.789062 97.707031 241.847656 97.804688 241.898438 97.90625 L 242.546875 99.152344 C 242.601562 99.253906 242.648438 99.355469 242.691406 99.460938 L 243.230469 100.757812 C 243.277344 100.863281 243.316406 100.972656 243.347656 101.078125 L 243.777344 102.417969 C 243.8125 102.527344 243.839844 102.636719 243.867188 102.746094 L 244.175781 104.117188 C 244.203125 104.230469 244.222656 104.339844 244.238281 104.453125 L 244.429688 105.84375 C 244.445312 105.957031 244.457031 106.070312 244.464844 106.183594 L 244.535156 107.589844 C 244.539062 107.703125 244.542969 107.816406 244.539062 107.929688 L 244.492188 109.332031 C 244.488281 109.449219 244.476562 109.558594 244.464844 109.671875 L 244.296875 111.070312 C 244.035156 113.25 242.054688 114.808594 239.871094 114.542969 C 237.6875 114.28125 236.132812 112.300781 236.394531 110.117188 L 236.5625 108.722656 L 236.535156 109.0625 L 236.582031 107.660156 L 236.585938 108 L 236.515625 106.59375 L 236.546875 106.933594 L 236.351562 105.542969 L 236.414062 105.878906 L 236.105469 104.507812 L 236.191406 104.835938 L 235.765625 103.496094 L 235.882812 103.816406 L 235.34375 102.519531 L 235.488281 102.828125 L 234.839844 101.582031 L 235.007812 101.875 L 234.253906 100.691406 L 234.449219 100.96875 L 233.597656 99.851562 L 233.816406 100.113281 L 232.871094 99.074219 L 233.109375 99.316406 L 232.082031 98.359375 L 232.339844 98.578125 L 231.230469 97.714844 L 231.507812 97.914062 L 230.332031 97.144531 L 230.625 97.320312 L 229.382812 96.65625 L 229.691406 96.804688 L 228.398438 96.25 L 228.71875 96.371094 L 227.382812 95.929688 L 227.710938 96.023438 L 226.34375 95.695312 L 226.679688 95.761719 L 225.289062 95.550781 L 225.625 95.589844 L 224.222656 95.5 L 224.5625 95.507812 L 223.160156 95.539062 L 223.5 95.515625 L 222.101562 95.667969 L 222.4375 95.617188 L 221.058594 95.886719 L 221.390625 95.808594 L 220.035156 96.195312 L 220.359375 96.085938 L 219.042969 96.589844 L 219.355469 96.457031 L 218.089844 97.070312 L 218.390625 96.910156 L 217.179688 97.628906 L 217.464844 97.441406 L 216.320312 98.265625 L 216.589844 98.054688 L 215.519531 98.972656 L 215.769531 98.738281 L 214.78125 99.742188 L 215.011719 99.488281 L 214.113281 100.574219 L 214.320312 100.304688 L 213.519531 101.464844 L 213.699219 101.171875 L 213.003906 102.398438 L 213.160156 102.09375 L 212.566406 103.375 L 212.699219 103.058594 L 212.21875 104.382812 L 212.320312 104.054688 L 211.957031 105.417969 L 212.03125 105.085938 L 211.785156 106.472656 L 211.832031 106.132812 L 211.707031 107.535156 L 211.722656 107.195312 L 211.71875 108.605469 L 211.703125 108.261719 L 211.820312 109.667969 L 211.777344 109.328125 L 212.011719 110.71875 L 211.941406 110.382812 L 212.296875 111.746094 L 212.195312 111.421875 L 212.667969 112.75 L 212.539062 112.433594 L 213.121094 113.714844 L 212.96875 113.410156 L 213.65625 114.636719 L 213.476562 114.347656 L 214.269531 115.511719 C 215.507812 117.328125 215.039062 119.804688 213.21875 121.039062 C 211.402344 122.277344 208.929688 121.808594 207.691406 119.992188 Z M 207.691406 119.992188 " fill-opacity="1" fill-rule="nonzero"/><g clip-path="url(#627567de3a)"><path fill="#000000" d="M 172.226562 113.324219 L 172.816406 111.945312 L 172.703125 112.246094 L 173.179688 110.824219 L 173.089844 111.128906 L 173.453125 109.675781 L 173.390625 109.984375 L 173.632812 108.507812 L 173.59375 108.820312 L 173.722656 107.328125 L 173.707031 107.644531 L 173.714844 106.148438 L 173.726562 106.464844 L 173.613281 104.96875 L 173.648438 105.285156 L 173.417969 103.804688 L 173.476562 104.117188 L 173.128906 102.660156 L 173.214844 102.964844 L 172.75 101.539062 L 172.863281 101.839844 L 172.285156 100.453125 L 172.417969 100.742188 L 171.734375 99.410156 L 171.890625 99.6875 L 171.101562 98.414062 L 171.277344 98.675781 L 170.390625 97.46875 L 170.589844 97.71875 L 169.605469 96.585938 L 169.824219 96.816406 L 168.753906 95.765625 L 168.988281 95.980469 L 167.839844 95.019531 L 168.09375 95.210938 L 166.867188 94.34375 L 167.136719 94.519531 L 165.847656 93.753906 L 166.125 93.902344 L 164.78125 93.242188 L 165.070312 93.371094 L 163.679688 92.820312 L 163.984375 92.925781 L 162.503906 92.476562 L 162.820312 92.558594 L 161.308594 92.230469 L 161.632812 92.285156 L 160.101562 92.082031 L 160.425781 92.113281 L 158.882812 92.039062 L 159.210938 92.039062 L 157.664062 92.09375 L 157.992188 92.066406 L 156.457031 92.246094 L 156.777344 92.195312 L 155.261719 92.5 L 155.582031 92.421875 L 154.097656 92.851562 L 154.40625 92.746094 L 152.960938 93.296875 L 153.261719 93.167969 L 151.867188 93.832031 L 152.15625 93.679688 L 150.820312 94.460938 L 151.097656 94.28125 L 149.832031 95.167969 L 150.089844 94.96875 L 148.902344 95.957031 L 149.144531 95.738281 L 148.039062 96.820312 L 148.265625 96.582031 L 147.253906 97.75 L 147.457031 97.492188 L 146.546875 98.742188 L 146.726562 98.46875 L 145.921875 99.789062 L 146.082031 99.5 L 145.386719 100.882812 L 145.519531 100.585938 L 144.941406 102.019531 L 145.050781 101.710938 L 144.59375 103.183594 C 143.941406 105.285156 141.710938 106.457031 139.613281 105.804688 C 137.511719 105.152344 136.339844 102.921875 136.992188 100.824219 L 137.449219 99.347656 C 137.484375 99.242188 137.519531 99.140625 137.5625 99.039062 L 138.140625 97.605469 C 138.179688 97.503906 138.226562 97.40625 138.273438 97.308594 L 138.96875 95.925781 C 139.019531 95.828125 139.074219 95.730469 139.128906 95.640625 L 139.933594 94.320312 C 139.992188 94.226562 140.054688 94.136719 140.117188 94.046875 L 141.03125 92.800781 C 141.09375 92.710938 141.164062 92.625 141.234375 92.542969 L 142.246094 91.375 C 142.316406 91.292969 142.390625 91.210938 142.46875 91.132812 L 143.574219 90.054688 C 143.652344 89.976562 143.734375 89.902344 143.816406 89.832031 L 145.007812 88.847656 C 145.09375 88.777344 145.179688 88.710938 145.269531 88.648438 L 146.535156 87.761719 C 146.625 87.699219 146.71875 87.640625 146.8125 87.585938 L 148.148438 86.804688 C 148.242188 86.75 148.339844 86.699219 148.4375 86.652344 L 149.832031 85.984375 C 149.929688 85.9375 150.03125 85.894531 150.132812 85.859375 L 151.578125 85.308594 C 151.679688 85.269531 151.785156 85.234375 151.890625 85.203125 L 153.375 84.777344 C 153.480469 84.746094 153.585938 84.71875 153.695312 84.699219 L 155.210938 84.394531 C 155.316406 84.371094 155.425781 84.355469 155.535156 84.34375 L 157.070312 84.164062 C 157.179688 84.152344 157.289062 84.140625 157.398438 84.140625 L 158.941406 84.085938 C 159.050781 84.082031 159.160156 84.085938 159.269531 84.089844 L 160.8125 84.164062 C 160.925781 84.167969 161.035156 84.179688 161.140625 84.195312 L 162.675781 84.398438 C 162.78125 84.410156 162.890625 84.429688 162.996094 84.453125 L 164.507812 84.78125 C 164.613281 84.804688 164.722656 84.832031 164.824219 84.863281 L 166.304688 85.3125 C 166.40625 85.34375 166.507812 85.382812 166.609375 85.421875 L 168.003906 85.972656 C 168.101562 86.011719 168.199219 86.054688 168.292969 86.101562 L 169.636719 86.761719 C 169.734375 86.808594 169.828125 86.859375 169.917969 86.914062 L 171.207031 87.679688 C 171.296875 87.734375 171.386719 87.792969 171.472656 87.855469 L 172.695312 88.71875 C 172.78125 88.78125 172.867188 88.847656 172.949219 88.914062 L 174.097656 89.875 C 174.179688 89.945312 174.257812 90.015625 174.332031 90.089844 L 175.402344 91.140625 C 175.476562 91.214844 175.550781 91.292969 175.621094 91.371094 L 176.601562 92.503906 C 176.671875 92.585938 176.738281 92.667969 176.800781 92.75 L 177.6875 93.957031 C 177.75 94.042969 177.8125 94.132812 177.867188 94.222656 L 178.65625 95.496094 C 178.710938 95.585938 178.765625 95.679688 178.8125 95.773438 L 179.5 97.105469 C 179.546875 97.199219 179.589844 97.296875 179.632812 97.394531 L 180.207031 98.777344 C 180.25 98.875 180.285156 98.972656 180.320312 99.074219 L 180.785156 100.5 C 180.816406 100.601562 180.84375 100.703125 180.871094 100.804688 L 181.21875 102.261719 C 181.242188 102.367188 181.265625 102.46875 181.28125 102.574219 L 181.511719 104.054688 C 181.527344 104.160156 181.542969 104.265625 181.550781 104.371094 L 181.664062 105.867188 C 181.671875 105.972656 181.671875 106.078125 181.671875 106.183594 L 181.667969 107.683594 C 181.667969 107.789062 181.660156 107.894531 181.652344 108 L 181.527344 109.492188 C 181.519531 109.597656 181.503906 109.703125 181.488281 109.808594 L 181.242188 111.285156 C 181.222656 111.390625 181.203125 111.496094 181.175781 111.597656 L 180.816406 113.050781 C 180.789062 113.152344 180.757812 113.257812 180.726562 113.355469 L 180.25 114.777344 C 180.214844 114.878906 180.175781 114.976562 180.136719 115.074219 L 179.546875 116.453125 C 178.683594 118.472656 176.34375 119.410156 174.324219 118.546875 C 172.300781 117.683594 171.363281 115.347656 172.226562 113.324219 Z M 172.226562 113.324219 " fill-opacity="1" fill-rule="nonzero"/></g><g clip-path="url(#d37578bb60)"><path fill="#000000" d="M 127.753906 150.101562 L 130.558594 154.890625 L 130.40625 154.652344 L 133.542969 159.230469 L 133.375 159 L 136.832031 163.34375 L 136.644531 163.125 L 140.40625 167.210938 L 140.207031 167.007812 L 144.246094 170.8125 L 144.035156 170.625 L 148.339844 174.128906 L 148.109375 173.957031 L 152.65625 177.144531 L 152.414062 176.988281 L 157.175781 179.84375 L 156.925781 179.707031 L 161.878906 182.214844 L 161.621094 182.09375 L 166.742188 184.238281 L 166.472656 184.140625 L 171.734375 185.914062 L 171.460938 185.832031 L 176.835938 187.226562 L 176.554688 187.164062 L 182.015625 188.167969 L 181.734375 188.128906 L 187.25 188.742188 L 186.96875 188.71875 L 192.515625 188.933594 L 192.234375 188.933594 L 197.648438 188.761719 L 197.371094 188.78125 L 202.765625 188.230469 L 202.488281 188.269531 L 207.828125 187.34375 L 207.554688 187.398438 L 212.816406 186.101562 L 212.550781 186.179688 L 217.710938 184.519531 L 217.449219 184.613281 L 222.476562 182.59375 L 222.222656 182.707031 L 227.101562 180.34375 L 226.855469 180.472656 L 231.554688 177.777344 L 231.316406 177.921875 L 235.816406 174.902344 L 235.589844 175.066406 L 239.871094 171.738281 L 239.65625 171.917969 L 243.691406 168.300781 L 243.488281 168.492188 L 247.261719 164.601562 L 247.074219 164.808594 L 250.566406 160.664062 L 250.394531 160.882812 L 253.589844 156.503906 L 253.433594 156.734375 L 256.3125 152.144531 C 257.480469 150.28125 259.933594 149.71875 261.796875 150.886719 C 263.660156 152.054688 264.222656 154.507812 263.054688 156.371094 L 260.175781 160.960938 C 260.125 161.039062 260.074219 161.117188 260.019531 161.191406 L 256.828125 165.570312 C 256.773438 165.644531 256.714844 165.71875 256.65625 165.789062 L 253.164062 169.933594 C 253.105469 170.003906 253.042969 170.074219 252.976562 170.140625 L 249.207031 174.03125 C 249.140625 174.097656 249.074219 174.164062 249.003906 174.222656 L 244.972656 177.839844 C 244.902344 177.902344 244.828125 177.964844 244.757812 178.019531 L 240.480469 181.347656 C 240.40625 181.402344 240.332031 181.457031 240.253906 181.511719 L 235.753906 184.53125 C 235.675781 184.582031 235.597656 184.628906 235.519531 184.675781 L 230.816406 187.375 C 230.738281 187.421875 230.65625 187.464844 230.570312 187.503906 L 225.695312 189.867188 C 225.613281 189.910156 225.527344 189.945312 225.441406 189.980469 L 220.410156 191.996094 C 220.324219 192.03125 220.238281 192.0625 220.148438 192.09375 L 214.992188 193.753906 C 214.902344 193.78125 214.8125 193.808594 214.722656 193.828125 L 209.460938 195.125 C 209.371094 195.148438 209.28125 195.167969 209.1875 195.183594 L 203.847656 196.109375 C 203.757812 196.125 203.664062 196.136719 203.570312 196.148438 L 198.179688 196.695312 C 198.089844 196.707031 197.996094 196.714844 197.902344 196.714844 L 192.488281 196.886719 C 192.390625 196.890625 192.296875 196.890625 192.203125 196.886719 L 186.65625 196.671875 C 186.5625 196.667969 186.46875 196.660156 186.375 196.648438 L 180.855469 196.039062 C 180.761719 196.027344 180.667969 196.011719 180.574219 195.996094 L 175.113281 194.992188 C 175.019531 194.972656 174.929688 194.953125 174.835938 194.929688 L 169.460938 193.535156 C 169.371094 193.511719 169.277344 193.484375 169.1875 193.453125 L 163.929688 191.679688 C 163.839844 191.648438 163.75 191.617188 163.664062 191.578125 L 158.542969 189.433594 C 158.457031 189.394531 158.371094 189.355469 158.285156 189.3125 L 153.332031 186.804688 C 153.246094 186.765625 153.164062 186.71875 153.082031 186.667969 L 148.320312 183.8125 C 148.242188 183.765625 148.160156 183.714844 148.082031 183.660156 L 143.539062 180.472656 C 143.460938 180.414062 143.386719 180.359375 143.3125 180.296875 L 139.007812 176.792969 C 138.933594 176.734375 138.863281 176.671875 138.792969 176.605469 L 134.75 172.800781 C 134.679688 172.738281 134.613281 172.667969 134.550781 172.601562 L 130.789062 168.515625 C 130.726562 168.445312 130.664062 168.375 130.605469 168.300781 L 127.148438 163.957031 C 127.085938 163.882812 127.03125 163.808594 126.976562 163.730469 L 123.839844 159.152344 C 123.785156 159.070312 123.734375 158.992188 123.6875 158.910156 L 120.882812 154.117188 C 119.773438 152.222656 120.414062 149.785156 122.3125 148.675781 C 124.207031 147.566406 126.644531 148.203125 127.753906 150.101562 Z M 127.753906 150.101562 " fill-opacity="1" fill-rule="nonzero"/></g></svg>