<svg xmlns="http://www.w3.org/2000/svg" xmlns:xlink="http://www.w3.org/1999/xlink" width="512" zoomAndPan="magnify" viewBox="0 0 384 383.999986" height="512" preserveAspectRatio="xMidYMid meet" version="1.0"><defs><g/><clipPath id="acbbf75cc0"><path d="M 26.328125 51.539062 L 346.632812 51.539062 L 346.632812 245.386719 L 26.328125 245.386719 Z M 26.328125 51.539062 " clip-rule="nonzero"/></clipPath><clipPath id="1198dba8dd"><path d="M 76.578125 51.539062 L 296.019531 51.539062 C 309.34375 51.539062 322.125 56.832031 331.550781 66.257812 C 340.972656 75.679688 346.269531 88.460938 346.269531 101.789062 L 346.269531 195.136719 C 346.269531 208.464844 340.972656 221.246094 331.550781 230.667969 C 322.125 240.09375 309.34375 245.386719 296.019531 245.386719 L 76.578125 245.386719 C 63.25 245.386719 50.46875 240.09375 41.042969 230.667969 C 31.621094 221.246094 26.328125 208.464844 26.328125 195.136719 L 26.328125 101.789062 C 26.328125 88.460938 31.621094 75.679688 41.042969 66.257812 C 50.46875 56.832031 63.25 51.539062 76.578125 51.539062 Z M 76.578125 51.539062 " clip-rule="nonzero"/></clipPath><clipPath id="67baea7a7e"><path d="M 0.328125 0.539062 L 320.320312 0.539062 L 320.320312 194.386719 L 0.328125 194.386719 Z M 0.328125 0.539062 " clip-rule="nonzero"/></clipPath><clipPath id="ac92bcd6ee"><path d="M 50.578125 0.539062 L 270.019531 0.539062 C 283.34375 0.539062 296.125 5.832031 305.550781 15.257812 C 314.972656 24.679688 320.269531 37.460938 320.269531 50.789062 L 320.269531 144.136719 C 320.269531 157.464844 314.972656 170.246094 305.550781 179.667969 C 296.125 189.09375 283.34375 194.386719 270.019531 194.386719 L 50.578125 194.386719 C 37.25 194.386719 24.46875 189.09375 15.042969 179.667969 C 5.621094 170.246094 0.328125 157.464844 0.328125 144.136719 L 0.328125 50.789062 C 0.328125 37.460938 5.621094 24.679688 15.042969 15.257812 C 24.46875 5.832031 37.25 0.539062 50.578125 0.539062 Z M 50.578125 0.539062 " clip-rule="nonzero"/></clipPath><clipPath id="8f0da5151d"><rect x="0" width="321" y="0" height="195"/></clipPath><clipPath id="9292306d59"><rect x="0" width="199" y="0" height="69"/></clipPath><clipPath id="ecca21bf41"><path d="M 59.242188 74.15625 L 321.933594 74.15625 L 321.933594 217.589844 L 59.242188 217.589844 Z M 59.242188 74.15625 " clip-rule="nonzero"/></clipPath><clipPath id="be730dba78"><path d="M 63.605469 74.15625 L 317.550781 74.15625 C 319.957031 74.15625 321.914062 76.105469 321.914062 78.511719 L 321.914062 213.230469 C 321.914062 215.636719 319.957031 217.589844 317.550781 217.589844 L 63.605469 217.589844 C 61.195312 217.589844 59.242188 215.636719 59.242188 213.230469 L 59.242188 78.511719 C 59.242188 76.105469 61.195312 74.15625 63.605469 74.15625 Z M 63.605469 74.15625 " clip-rule="nonzero"/></clipPath><clipPath id="75dd3ee39a"><path d="M 63.605469 74.15625 L 317.550781 74.15625 C 319.957031 74.15625 321.914062 76.105469 321.914062 78.511719 L 321.914062 213.230469 C 321.914062 215.636719 319.957031 217.589844 317.550781 217.589844 L 63.605469 217.589844 C 61.195312 217.589844 59.242188 215.636719 59.242188 213.230469 L 59.242188 78.511719 C 59.242188 76.105469 61.195312 74.15625 63.605469 74.15625 Z M 63.605469 74.15625 " clip-rule="nonzero"/></clipPath><clipPath id="a4878dadcf"><path d="M 116.933594 85.199219 L 264.242188 85.199219 L 264.242188 217.550781 L 116.933594 217.550781 Z M 116.933594 85.199219 " clip-rule="nonzero"/></clipPath><clipPath id="b95f0d6dc4"><path d="M 122.824219 85.199219 L 165 85.199219 L 165 115.429688 L 122.824219 115.429688 Z M 122.824219 85.199219 " clip-rule="nonzero"/></clipPath><clipPath id="be70da32cb"><path d="M 217.265625 85.199219 L 259.695312 85.199219 L 259.695312 115.429688 L 217.265625 115.429688 Z M 217.265625 85.199219 " clip-rule="nonzero"/></clipPath></defs><g clip-path="url(#acbbf75cc0)"><g clip-path="url(#1198dba8dd)"><g transform="matrix(1, 0, 0, 1, 26, 51)"><g clip-path="url(#8f0da5151d)"><g clip-path="url(#67baea7a7e)"><g clip-path="url(#ac92bcd6ee)"><path fill="#f15e3d" d="M 0.328125 0.539062 L 320.632812 0.539062 L 320.632812 194.386719 L 0.328125 194.386719 Z M 0.328125 0.539062 " fill-opacity="1" fill-rule="nonzero"/></g></g></g></g></g></g><g transform="matrix(1, 0, 0, 1, 87, 269)"><g clip-path="url(#9292306d59)"><g fill="#000000" fill-opacity="1"><g transform="translate(0.727515, 53.316493)"><g><path d="M 34.171875 0 L 26.765625 0 L 24.078125 -8.203125 L 10.453125 -8.203125 L 7.765625 0 L 0.53125 0 L 12.828125 -35.609375 L 21.875 -35.609375 Z M 16.921875 -28.171875 L 12.34375 -14.125 L 22.140625 -14.125 L 17.53125 -28.171875 Z M 16.921875 -28.171875 "/></g></g></g><g fill="#000000" fill-opacity="1"><g transform="translate(35.425082, 53.316493)"><g><path d="M 3.875 0 L 3.875 -26.859375 L 10.34375 -26.859375 L 10.34375 -22.921875 L 10.859375 -22.796875 C 12.535156 -25.847656 15.25 -27.375 19 -27.375 C 22.09375 -27.375 24.363281 -26.53125 25.8125 -24.84375 C 27.269531 -23.15625 28 -20.695312 28 -17.46875 L 28 0 L 21.265625 0 L 21.265625 -16.640625 C 21.265625 -18.421875 20.90625 -19.703125 20.1875 -20.484375 C 19.46875 -21.273438 18.320312 -21.671875 16.75 -21.671875 C 14.820312 -21.671875 13.316406 -21.046875 12.234375 -19.796875 C 11.160156 -18.546875 10.625 -16.582031 10.625 -13.90625 L 10.625 0 Z M 3.875 0 "/></g></g></g><g fill="#000000" fill-opacity="1"><g transform="translate(66.88421, 53.316493)"><g><path d="M 7.578125 0 L 0.46875 0 L 8.140625 -13.9375 L 0.875 -26.859375 L 8.078125 -26.859375 L 12.734375 -18.015625 L 13.296875 -18.015625 L 17.96875 -26.859375 L 24.96875 -26.859375 L 17.921875 -13.9375 L 25.375 0 L 18.1875 0 L 13.125 -9.8125 L 12.5625 -9.8125 Z M 7.578125 0 "/></g></g></g><g fill="#000000" fill-opacity="1"><g transform="translate(92.71868, 53.316493)"><g><path d="M 7.234375 -30.078125 C 6.015625 -30.078125 5.023438 -30.445312 4.265625 -31.1875 C 3.503906 -31.925781 3.125 -32.878906 3.125 -34.046875 C 3.125 -35.203125 3.503906 -36.144531 4.265625 -36.875 C 5.023438 -37.613281 6.015625 -37.984375 7.234375 -37.984375 C 8.046875 -37.984375 8.765625 -37.8125 9.390625 -37.46875 C 10.023438 -37.132812 10.515625 -36.671875 10.859375 -36.078125 C 11.210938 -35.484375 11.390625 -34.804688 11.390625 -34.046875 C 11.390625 -33.285156 11.210938 -32.601562 10.859375 -32 C 10.515625 -31.394531 10.023438 -30.921875 9.390625 -30.578125 C 8.765625 -30.242188 8.046875 -30.078125 7.234375 -30.078125 Z M 3.875 0 L 3.875 -26.859375 L 10.625 -26.859375 L 10.625 0 Z M 3.875 0 "/></g></g></g><g fill="#000000" fill-opacity="1"><g transform="translate(107.182087, 53.316493)"><g><path d="M 26.546875 -11.90625 L 9.28125 -11.90625 C 9.476562 -9.570312 10.144531 -7.875 11.28125 -6.8125 C 12.414062 -5.75 13.960938 -5.21875 15.921875 -5.21875 C 17.460938 -5.21875 18.710938 -5.503906 19.671875 -6.078125 C 20.628906 -6.648438 21.398438 -7.519531 21.984375 -8.6875 L 22.5 -8.6875 L 26.984375 -5.828125 C 26.109375 -3.941406 24.785156 -2.410156 23.015625 -1.234375 C 21.242188 -0.0664062 18.878906 0.515625 15.921875 0.515625 C 13.148438 0.515625 10.753906 -0.0078125 8.734375 -1.0625 C 6.710938 -2.125 5.148438 -3.695312 4.046875 -5.78125 C 2.953125 -7.863281 2.40625 -10.410156 2.40625 -13.421875 C 2.40625 -16.472656 2.984375 -19.046875 4.140625 -21.140625 C 5.296875 -23.234375 6.851562 -24.796875 8.8125 -25.828125 C 10.78125 -26.859375 12.988281 -27.375 15.4375 -27.375 C 19.238281 -27.375 22.148438 -26.363281 24.171875 -24.34375 C 26.191406 -22.332031 27.203125 -19.378906 27.203125 -15.484375 C 27.203125 -14.078125 27.15625 -12.984375 27.0625 -12.203125 Z M 20.75 -16.265625 C 20.6875 -18.316406 20.210938 -19.804688 19.328125 -20.734375 C 18.441406 -21.671875 17.144531 -22.140625 15.4375 -22.140625 C 12.03125 -22.140625 10.023438 -20.179688 9.421875 -16.265625 Z M 20.75 -16.265625 "/></g></g></g><g fill="#000000" fill-opacity="1"><g transform="translate(136.376743, 53.316493)"><g><path d="M 18.53125 -6.40625 L 20.28125 -1.40625 C 19.550781 -0.8125 18.632812 -0.34375 17.53125 0 C 16.425781 0.34375 15.175781 0.515625 13.78125 0.515625 C 10.875 0.515625 8.664062 -0.273438 7.15625 -1.859375 C 5.644531 -3.441406 4.890625 -5.742188 4.890625 -8.765625 L 4.890625 -21.53125 L 0.796875 -21.53125 L 0.796875 -26.890625 L 4.890625 -26.890625 L 4.890625 -32.125 L 11.640625 -33.21875 L 11.640625 -26.890625 L 19.265625 -26.890625 L 19.265625 -21.53125 L 11.640625 -21.53125 L 11.640625 -9.25 C 11.640625 -7.914062 11.914062 -6.945312 12.46875 -6.34375 C 13.019531 -5.738281 13.820312 -5.4375 14.875 -5.4375 C 16.082031 -5.4375 17.128906 -5.757812 18.015625 -6.40625 Z M 18.53125 -6.40625 "/></g></g></g><g fill="#000000" fill-opacity="1"><g transform="translate(157.243982, 53.316493)"><g><path d="M 5.9375 11.390625 C 4.789062 11.390625 3.75 11.300781 2.8125 11.125 C 1.875 10.945312 1.113281 10.710938 0.53125 10.421875 L 1.609375 4.96875 L 2.046875 4.828125 C 2.453125 5.035156 2.953125 5.203125 3.546875 5.328125 C 4.148438 5.460938 4.769531 5.53125 5.40625 5.53125 C 6.488281 5.53125 7.390625 5.382812 8.109375 5.09375 C 8.835938 4.8125 9.453125 4.34375 9.953125 3.6875 C 10.460938 3.03125 10.910156 2.117188 11.296875 0.953125 L 0.578125 -26.859375 L 7.640625 -26.859375 L 14.3125 -8.1875 L 14.90625 -8.1875 L 21.40625 -26.859375 L 28.28125 -26.859375 L 17.484375 1.6875 C 16.617188 3.988281 15.671875 5.84375 14.640625 7.25 C 13.617188 8.65625 12.40625 9.695312 11 10.375 C 9.59375 11.050781 7.90625 11.390625 5.9375 11.390625 Z M 5.9375 11.390625 "/></g></g></g><g fill="#000000" fill-opacity="1"><g transform="translate(186.076046, 53.316493)"><g/></g></g></g></g><g clip-path="url(#ecca21bf41)"><g clip-path="url(#be730dba78)"><g clip-path="url(#75dd3ee39a)"><path fill="#f15e3d" d="M 59.242188 74.15625 L 321.847656 74.15625 L 321.847656 217.589844 L 59.242188 217.589844 Z M 59.242188 74.15625 " fill-opacity="1" fill-rule="nonzero"/></g></g></g><g clip-path="url(#a4878dadcf)"><path fill="#000000" d="M 191.269531 41.90625 C 189.464844 41.90625 187.660156 41.949219 185.855469 42.039062 C 184.050781 42.128906 182.25 42.261719 180.453125 42.4375 C 178.65625 42.613281 176.863281 42.835938 175.078125 43.097656 C 173.292969 43.363281 171.511719 43.671875 169.742188 44.023438 C 167.96875 44.375 166.207031 44.769531 164.457031 45.207031 C 162.703125 45.648438 160.964844 46.128906 159.238281 46.652344 C 157.507812 47.175781 155.792969 47.738281 154.09375 48.347656 C 152.394531 48.953125 150.707031 49.605469 149.039062 50.292969 C 147.371094 50.984375 145.722656 51.714844 144.089844 52.484375 C 142.457031 53.257812 140.84375 54.066406 139.25 54.917969 C 137.65625 55.765625 136.085938 56.65625 134.539062 57.582031 C 132.988281 58.507812 131.464844 59.476562 129.960938 60.476562 C 128.460938 61.476562 126.984375 62.515625 125.535156 63.589844 C 124.082031 64.664062 122.660156 65.773438 121.261719 66.917969 C 119.867188 68.0625 118.5 69.238281 117.160156 70.449219 C 115.824219 71.660156 114.515625 72.90625 113.238281 74.179688 C 111.960938 75.453125 110.71875 76.761719 109.503906 78.097656 C 108.292969 79.433594 107.113281 80.796875 105.964844 82.191406 C 104.820312 83.585938 103.710938 85.007812 102.632812 86.453125 C 101.558594 87.902344 100.519531 89.378906 99.515625 90.875 C 98.511719 92.375 97.546875 93.898438 96.617188 95.445312 C 95.6875 96.992188 94.800781 98.5625 93.949219 100.152344 C 93.097656 101.742188 92.285156 103.351562 91.511719 104.980469 C 90.742188 106.613281 90.007812 108.261719 89.316406 109.925781 C 88.625 111.59375 87.976562 113.273438 87.367188 114.972656 C 86.761719 116.671875 86.191406 118.382812 85.667969 120.109375 C 85.144531 121.832031 84.664062 123.570312 84.222656 125.320312 C 83.785156 127.070312 83.390625 128.828125 83.039062 130.597656 C 82.683594 132.367188 82.375 134.140625 82.113281 135.925781 C 81.847656 137.710938 81.625 139.5 81.449219 141.292969 C 81.273438 143.089844 81.140625 144.886719 81.050781 146.6875 C 80.960938 148.488281 80.917969 150.289062 80.917969 152.09375 C 80.917969 153.898438 80.960938 155.699219 81.050781 157.5 C 81.140625 159.300781 81.273438 161.101562 81.449219 162.894531 C 81.625 164.6875 81.847656 166.476562 82.113281 168.261719 C 82.375 170.046875 82.683594 171.820312 83.039062 173.589844 C 83.390625 175.359375 83.785156 177.117188 84.222656 178.867188 C 84.664062 180.617188 85.144531 182.355469 85.667969 184.078125 C 86.191406 185.804688 86.761719 187.515625 87.367188 189.214844 C 87.976562 190.914062 88.625 192.59375 89.316406 194.261719 C 90.007812 195.925781 90.742188 197.574219 91.511719 199.203125 C 92.285156 200.835938 93.097656 202.445312 93.949219 204.035156 C 94.800781 205.625 95.6875 207.195312 96.617188 208.742188 C 97.546875 210.289062 98.511719 211.8125 99.515625 213.3125 C 100.519531 214.808594 101.558594 216.285156 102.632812 217.730469 C 103.710938 219.179688 104.820312 220.601562 105.964844 221.996094 C 107.113281 223.390625 108.292969 224.753906 109.503906 226.089844 C 110.71875 227.425781 111.960938 228.734375 113.238281 230.007812 C 114.515625 231.285156 115.824219 232.527344 117.160156 233.738281 C 118.5 234.949219 119.867188 236.125 121.261719 237.269531 C 122.660156 238.414062 124.082031 239.523438 125.535156 240.597656 C 126.984375 241.671875 128.460938 242.710938 129.960938 243.710938 C 131.464844 244.714844 132.988281 245.675781 134.539062 246.605469 C 136.085938 247.53125 137.65625 248.421875 139.25 249.269531 C 140.84375 250.121094 142.457031 250.929688 144.089844 251.703125 C 145.722656 252.472656 147.371094 253.203125 149.039062 253.894531 C 150.707031 254.582031 152.394531 255.234375 154.09375 255.839844 C 155.792969 256.449219 157.507812 257.011719 159.238281 257.535156 C 160.964844 258.058594 162.703125 258.539062 164.457031 258.980469 C 166.207031 259.417969 167.96875 259.8125 169.742188 260.164062 C 171.511719 260.515625 173.292969 260.824219 175.078125 261.089844 C 176.863281 261.355469 178.65625 261.574219 180.453125 261.75 C 182.25 261.925781 184.050781 262.058594 185.855469 262.148438 C 187.660156 262.238281 189.464844 262.28125 191.269531 262.28125 C 193.078125 262.28125 194.882812 262.238281 196.683594 262.148438 C 198.488281 262.058594 200.289062 261.925781 202.085938 261.75 C 203.882812 261.574219 205.675781 261.355469 207.460938 261.089844 C 209.25 260.824219 211.027344 260.515625 212.800781 260.164062 C 214.570312 259.8125 216.332031 259.417969 218.085938 258.980469 C 219.835938 258.539062 221.574219 258.058594 223.304688 257.535156 C 225.03125 257.011719 226.746094 256.449219 228.445312 255.839844 C 230.148438 255.234375 231.832031 254.582031 233.5 253.894531 C 235.167969 253.203125 236.820312 252.472656 238.453125 251.703125 C 240.085938 250.929688 241.695312 250.121094 243.289062 249.269531 C 244.882812 248.421875 246.453125 247.53125 248.003906 246.605469 C 249.550781 245.675781 251.078125 244.714844 252.578125 243.710938 C 254.082031 242.710938 255.558594 241.671875 257.007812 240.597656 C 258.457031 239.523438 259.882812 238.414062 261.277344 237.269531 C 262.671875 236.125 264.039062 234.949219 265.378906 233.738281 C 266.71875 232.527344 268.023438 231.285156 269.300781 230.007812 C 270.578125 228.734375 271.824219 227.425781 273.035156 226.089844 C 274.25 224.753906 275.429688 223.390625 276.574219 221.996094 C 277.71875 220.601562 278.832031 219.179688 279.90625 217.730469 C 280.980469 216.285156 282.023438 214.808594 283.023438 213.3125 C 284.027344 211.8125 284.996094 210.289062 285.921875 208.742188 C 286.851562 207.195312 287.742188 205.625 288.59375 204.035156 C 289.445312 202.445312 290.257812 200.835938 291.027344 199.203125 C 291.800781 197.574219 292.53125 195.925781 293.222656 194.261719 C 293.914062 192.59375 294.5625 190.914062 295.171875 189.214844 C 295.78125 187.515625 296.347656 185.804688 296.871094 184.078125 C 297.394531 182.355469 297.878906 180.617188 298.316406 178.867188 C 298.753906 177.117188 299.152344 175.359375 299.503906 173.589844 C 299.855469 171.820312 300.164062 170.046875 300.429688 168.261719 C 300.695312 166.476562 300.914062 164.6875 301.09375 162.894531 C 301.269531 161.101562 301.402344 159.300781 301.492188 157.5 C 301.578125 155.699219 301.625 153.898438 301.625 152.09375 C 301.621094 150.292969 301.574219 148.488281 301.484375 146.6875 C 301.394531 144.886719 301.257812 143.089844 301.078125 141.296875 C 300.902344 139.503906 300.679688 137.714844 300.414062 135.933594 C 300.144531 134.148438 299.835938 132.375 299.480469 130.605469 C 299.128906 128.839844 298.730469 127.078125 298.292969 125.332031 C 297.851562 123.582031 297.367188 121.847656 296.84375 120.121094 C 296.316406 118.398438 295.75 116.6875 295.140625 114.988281 C 294.53125 113.292969 293.882812 111.613281 293.1875 109.945312 C 292.496094 108.28125 291.765625 106.632812 290.992188 105.003906 C 290.21875 103.375 289.40625 101.765625 288.554688 100.175781 C 287.703125 98.585938 286.8125 97.019531 285.886719 95.472656 C 284.957031 93.925781 283.992188 92.40625 282.988281 90.90625 C 281.984375 89.40625 280.945312 87.933594 279.867188 86.488281 C 278.792969 85.039062 277.679688 83.617188 276.535156 82.226562 C 275.390625 80.832031 274.210938 79.46875 273 78.132812 C 271.785156 76.796875 270.542969 75.492188 269.265625 74.214844 C 267.988281 72.941406 266.679688 71.699219 265.34375 70.488281 C 264.003906 69.277344 262.640625 68.101562 261.242188 66.957031 C 259.847656 65.8125 258.425781 64.703125 256.976562 63.628906 C 255.523438 62.554688 254.050781 61.515625 252.550781 60.515625 C 251.046875 59.511719 249.523438 58.546875 247.976562 57.621094 C 246.425781 56.695312 244.855469 55.804688 243.265625 54.953125 C 241.671875 54.101562 240.0625 53.292969 238.429688 52.519531 C 236.796875 51.75 235.148438 51.019531 233.480469 50.328125 C 231.8125 49.636719 230.128906 48.988281 228.429688 48.378906 C 226.730469 47.769531 225.015625 47.203125 223.289062 46.679688 C 221.5625 46.15625 219.824219 45.671875 218.074219 45.234375 C 216.320312 44.792969 214.5625 44.398438 212.789062 44.042969 C 211.019531 43.691406 209.242188 43.382812 207.457031 43.117188 C 205.671875 42.847656 203.878906 42.625 202.082031 42.449219 C 200.285156 42.269531 198.484375 42.136719 196.683594 42.046875 C 194.878906 41.953125 193.074219 41.90625 191.269531 41.90625 Z M 191.269531 251.789062 C 189.636719 251.789062 188.003906 251.746094 186.371094 251.667969 C 184.738281 251.585938 183.109375 251.46875 181.484375 251.308594 C 179.859375 251.148438 178.234375 250.949219 176.621094 250.707031 C 175.003906 250.46875 173.394531 250.191406 171.792969 249.871094 C 170.1875 249.554688 168.597656 249.195312 167.011719 248.800781 C 165.425781 248.402344 163.851562 247.96875 162.289062 247.496094 C 160.722656 247.019531 159.171875 246.507812 157.632812 245.960938 C 156.09375 245.410156 154.570312 244.824219 153.0625 244.199219 C 151.550781 243.574219 150.058594 242.914062 148.582031 242.214844 C 147.105469 241.519531 145.644531 240.785156 144.203125 240.015625 C 142.761719 239.246094 141.34375 238.441406 139.941406 237.605469 C 138.539062 236.765625 137.160156 235.890625 135.800781 234.984375 C 134.441406 234.078125 133.105469 233.140625 131.792969 232.167969 C 130.480469 231.195312 129.195312 230.191406 127.929688 229.15625 C 126.667969 228.125 125.429688 227.058594 124.21875 225.960938 C 123.007812 224.867188 121.824219 223.742188 120.671875 222.585938 C 119.515625 221.433594 118.390625 220.253906 117.292969 219.042969 C 116.195312 217.835938 115.125 216.601562 114.089844 215.339844 C 113.054688 214.078125 112.050781 212.792969 111.074219 211.480469 C 110.101562 210.171875 109.160156 208.835938 108.253906 207.480469 C 107.347656 206.125 106.472656 204.746094 105.632812 203.347656 C 104.792969 201.945312 103.988281 200.527344 103.214844 199.089844 C 102.445312 197.648438 101.710938 196.195312 101.011719 194.71875 C 100.316406 193.242188 99.652344 191.753906 99.027344 190.246094 C 98.402344 188.738281 97.8125 187.214844 97.261719 185.679688 C 96.714844 184.144531 96.199219 182.59375 95.726562 181.035156 C 95.253906 179.472656 94.816406 177.898438 94.417969 176.316406 C 94.023438 174.734375 93.664062 173.144531 93.347656 171.542969 C 93.027344 169.941406 92.746094 168.335938 92.507812 166.722656 C 92.269531 165.109375 92.066406 163.488281 91.90625 161.863281 C 91.746094 160.242188 91.628906 158.617188 91.546875 156.984375 C 91.46875 155.355469 91.425781 153.726562 91.425781 152.09375 C 91.425781 150.460938 91.46875 148.832031 91.546875 147.203125 C 91.628906 145.574219 91.746094 143.945312 91.90625 142.320312 C 92.066406 140.699219 92.269531 139.078125 92.507812 137.464844 C 92.746094 135.851562 93.027344 134.246094 93.347656 132.644531 C 93.664062 131.042969 94.023438 129.453125 94.417969 127.871094 C 94.816406 126.289062 95.253906 124.714844 95.726562 123.152344 C 96.199219 121.59375 96.714844 120.042969 97.261719 118.507812 C 97.8125 116.972656 98.402344 115.449219 99.027344 113.941406 C 99.652344 112.4375 100.316406 110.945312 101.011719 109.46875 C 101.710938 107.996094 102.445312 106.539062 103.214844 105.097656 C 103.988281 103.660156 104.792969 102.242188 105.632812 100.839844 C 106.472656 99.441406 107.347656 98.0625 108.253906 96.707031 C 109.160156 95.351562 110.101562 94.015625 111.074219 92.707031 C 112.050781 91.394531 113.054688 90.109375 114.089844 88.847656 C 115.125 87.589844 116.195312 86.351562 117.292969 85.144531 C 118.390625 83.933594 119.515625 82.753906 120.671875 81.601562 C 121.824219 80.445312 123.007812 79.320312 124.21875 78.226562 C 125.429688 77.128906 126.667969 76.066406 127.929688 75.03125 C 129.195312 73.996094 130.480469 72.992188 131.792969 72.019531 C 133.105469 71.046875 134.441406 70.109375 135.800781 69.203125 C 137.160156 68.296875 138.539062 67.421875 139.941406 66.582031 C 141.34375 65.746094 142.761719 64.941406 144.203125 64.171875 C 145.644531 63.402344 147.105469 62.667969 148.582031 61.972656 C 150.058594 61.273438 151.550781 60.613281 153.0625 59.988281 C 154.570312 59.363281 156.09375 58.777344 157.632812 58.226562 C 159.171875 57.679688 160.722656 57.167969 162.289062 56.691406 C 163.851562 56.21875 165.425781 55.785156 167.011719 55.386719 C 168.597656 54.992188 170.1875 54.632812 171.792969 54.316406 C 173.394531 53.996094 175.003906 53.71875 176.621094 53.480469 C 178.234375 53.238281 179.859375 53.039062 181.484375 52.878906 C 183.109375 52.722656 184.738281 52.601562 186.371094 52.519531 C 188.003906 52.441406 189.636719 52.402344 191.269531 52.402344 C 192.90625 52.402344 194.539062 52.441406 196.167969 52.519531 C 197.800781 52.601562 199.429688 52.722656 201.058594 52.878906 C 202.683594 53.039062 204.304688 53.238281 205.921875 53.480469 C 207.535156 53.71875 209.144531 53.996094 210.75 54.316406 C 212.351562 54.632812 213.945312 54.992188 215.53125 55.386719 C 217.113281 55.785156 218.691406 56.21875 220.253906 56.691406 C 221.816406 57.167969 223.367188 57.679688 224.90625 58.226562 C 226.445312 58.777344 227.96875 59.363281 229.476562 59.988281 C 230.988281 60.613281 232.480469 61.273438 233.957031 61.972656 C 235.4375 62.667969 236.894531 63.402344 238.335938 64.171875 C 239.777344 64.941406 241.199219 65.746094 242.601562 66.585938 C 244 67.421875 245.382812 68.296875 246.742188 69.203125 C 248.097656 70.109375 249.433594 71.046875 250.746094 72.019531 C 252.058594 72.992188 253.347656 73.996094 254.609375 75.03125 C 255.871094 76.066406 257.109375 77.128906 258.320312 78.226562 C 259.53125 79.320312 260.714844 80.445312 261.871094 81.601562 C 263.023438 82.753906 264.152344 83.933594 265.25 85.144531 C 266.347656 86.351562 267.414062 87.589844 268.449219 88.847656 C 269.488281 90.109375 270.492188 91.394531 271.464844 92.707031 C 272.4375 94.015625 273.378906 95.351562 274.285156 96.707031 C 275.195312 98.0625 276.066406 99.441406 276.910156 100.839844 C 277.75 102.242188 278.554688 103.660156 279.324219 105.097656 C 280.09375 106.539062 280.828125 107.996094 281.527344 109.46875 C 282.226562 110.945312 282.886719 112.4375 283.511719 113.941406 C 284.140625 115.449219 284.726562 116.972656 285.277344 118.507812 C 285.828125 120.042969 286.339844 121.59375 286.8125 123.152344 C 287.289062 124.714844 287.722656 126.289062 288.121094 127.871094 C 288.519531 129.453125 288.875 131.042969 289.195312 132.644531 C 289.511719 134.246094 289.792969 135.851562 290.03125 137.464844 C 290.273438 139.078125 290.472656 140.699219 290.632812 142.320312 C 290.792969 143.945312 290.914062 145.574219 290.992188 147.203125 C 291.074219 148.832031 291.113281 150.460938 291.113281 152.09375 C 291.109375 153.722656 291.070312 155.355469 290.988281 156.984375 C 290.90625 158.613281 290.785156 160.238281 290.621094 161.863281 C 290.460938 163.484375 290.257812 165.101562 290.019531 166.714844 C 289.777344 168.328125 289.496094 169.9375 289.175781 171.535156 C 288.855469 173.132812 288.496094 174.726562 288.097656 176.304688 C 287.699219 177.890625 287.265625 179.460938 286.789062 181.019531 C 286.3125 182.582031 285.800781 184.128906 285.25 185.664062 C 284.695312 187.199219 284.109375 188.722656 283.484375 190.226562 C 282.855469 191.734375 282.195312 193.222656 281.496094 194.699219 C 280.796875 196.171875 280.0625 197.628906 279.289062 199.066406 C 278.519531 200.503906 277.714844 201.921875 276.875 203.320312 C 276.035156 204.71875 275.160156 206.097656 274.25 207.453125 C 273.34375 208.808594 272.402344 210.140625 271.429688 211.453125 C 270.457031 212.761719 269.449219 214.046875 268.414062 215.308594 C 267.378906 216.570312 266.3125 217.804688 265.214844 219.011719 C 264.117188 220.21875 262.992188 221.402344 261.835938 222.554688 C 260.679688 223.707031 259.5 224.832031 258.289062 225.925781 C 257.078125 227.023438 255.839844 228.085938 254.578125 229.121094 C 253.316406 230.15625 252.03125 231.160156 250.71875 232.132812 C 249.40625 233.105469 248.070312 234.042969 246.710938 234.949219 C 245.355469 235.855469 243.976562 236.730469 242.574219 237.570312 C 241.175781 238.40625 239.753906 239.210938 238.3125 239.980469 C 236.871094 240.75 235.414062 241.484375 233.9375 242.183594 C 232.460938 242.882812 230.96875 243.542969 229.460938 244.167969 C 227.953125 244.792969 226.429688 245.378906 224.890625 245.929688 C 223.351562 246.480469 221.804688 246.996094 220.238281 247.46875 C 218.675781 247.941406 217.105469 248.378906 215.519531 248.777344 C 213.9375 249.175781 212.34375 249.53125 210.742188 249.851562 C 209.136719 250.171875 207.53125 250.453125 205.914062 250.691406 C 204.296875 250.933594 202.679688 251.136719 201.050781 251.296875 C 199.425781 251.457031 197.800781 251.578125 196.167969 251.660156 C 194.535156 251.742188 192.902344 251.785156 191.269531 251.789062 Z M 191.269531 251.789062 " fill-opacity="1" fill-rule="nonzero"/></g><path fill="#000000" d="M 159.742188 146.847656 C 160 146.847656 160.257812 146.839844 160.515625 146.828125 C 160.773438 146.816406 161.027344 146.796875 161.285156 146.769531 C 161.542969 146.746094 161.800781 146.714844 162.054688 146.675781 C 162.308594 146.636719 162.5625 146.59375 162.816406 146.542969 C 163.070312 146.496094 163.320312 146.4375 163.570312 146.375 C 163.820312 146.3125 164.070312 146.242188 164.316406 146.167969 C 164.5625 146.09375 164.808594 146.015625 165.050781 145.925781 C 165.296875 145.839844 165.535156 145.746094 165.773438 145.648438 C 166.011719 145.550781 166.246094 145.445312 166.480469 145.335938 C 166.714844 145.226562 166.945312 145.109375 167.171875 144.988281 C 167.398438 144.867188 167.625 144.738281 167.84375 144.605469 C 168.066406 144.476562 168.285156 144.335938 168.5 144.195312 C 168.714844 144.050781 168.925781 143.902344 169.132812 143.75 C 169.339844 143.59375 169.542969 143.4375 169.742188 143.273438 C 169.941406 143.109375 170.136719 142.941406 170.328125 142.769531 C 170.519531 142.597656 170.707031 142.417969 170.886719 142.234375 C 171.070312 142.054688 171.25 141.867188 171.421875 141.675781 C 171.59375 141.484375 171.761719 141.292969 171.925781 141.089844 C 172.089844 140.894531 172.25 140.691406 172.402344 140.484375 C 172.558594 140.277344 172.707031 140.066406 172.847656 139.851562 C 172.992188 139.636719 173.128906 139.417969 173.261719 139.199219 C 173.394531 138.976562 173.523438 138.753906 173.644531 138.527344 C 173.765625 138.300781 173.882812 138.070312 173.992188 137.835938 C 174.101562 137.601562 174.207031 137.367188 174.304688 137.128906 C 174.402344 136.890625 174.496094 136.652344 174.582031 136.410156 C 174.671875 136.167969 174.75 135.921875 174.828125 135.675781 C 174.902344 135.429688 174.96875 135.179688 175.03125 134.929688 C 175.097656 134.679688 175.152344 134.429688 175.203125 134.175781 C 175.253906 133.925781 175.296875 133.671875 175.335938 133.414062 C 175.371094 133.160156 175.40625 132.90625 175.429688 132.648438 C 175.453125 132.390625 175.472656 132.136719 175.488281 131.878906 C 175.5 131.621094 175.503906 131.363281 175.503906 131.105469 C 175.503906 130.847656 175.5 130.589844 175.488281 130.332031 C 175.472656 130.078125 175.453125 129.820312 175.429688 129.5625 C 175.40625 129.308594 175.371094 129.050781 175.335938 128.796875 C 175.296875 128.542969 175.253906 128.289062 175.203125 128.035156 C 175.152344 127.78125 175.097656 127.53125 175.03125 127.28125 C 174.96875 127.03125 174.902344 126.78125 174.828125 126.535156 C 174.75 126.289062 174.671875 126.046875 174.582031 125.800781 C 174.496094 125.558594 174.402344 125.320312 174.304688 125.082031 C 174.207031 124.84375 174.101562 124.609375 173.992188 124.375 C 173.882812 124.140625 173.765625 123.914062 173.644531 123.683594 C 173.523438 123.457031 173.394531 123.234375 173.261719 123.011719 C 173.128906 122.792969 172.992188 122.574219 172.847656 122.359375 C 172.707031 122.144531 172.558594 121.9375 172.402344 121.730469 C 172.25 121.523438 172.089844 121.320312 171.925781 121.121094 C 171.761719 120.921875 171.59375 120.726562 171.421875 120.535156 C 171.25 120.34375 171.070312 120.15625 170.886719 119.976562 C 170.707031 119.792969 170.519531 119.617188 170.328125 119.441406 C 170.136719 119.269531 169.941406 119.101562 169.742188 118.9375 C 169.542969 118.773438 169.339844 118.617188 169.132812 118.460938 C 168.925781 118.308594 168.714844 118.160156 168.5 118.019531 C 168.285156 117.875 168.066406 117.738281 167.84375 117.605469 C 167.625 117.472656 167.398438 117.34375 167.171875 117.222656 C 166.945312 117.101562 166.714844 116.984375 166.480469 116.875 C 166.246094 116.765625 166.011719 116.660156 165.773438 116.5625 C 165.535156 116.464844 165.296875 116.371094 165.050781 116.285156 C 164.808594 116.199219 164.5625 116.117188 164.316406 116.042969 C 164.070312 115.96875 163.820312 115.898438 163.570312 115.835938 C 163.320312 115.773438 163.070312 115.71875 162.816406 115.667969 C 162.5625 115.617188 162.308594 115.574219 162.054688 115.535156 C 161.800781 115.496094 161.542969 115.464844 161.285156 115.441406 C 161.027344 115.414062 160.773438 115.398438 160.515625 115.382812 C 160.257812 115.371094 160 115.363281 159.742188 115.363281 C 159.484375 115.363281 159.226562 115.371094 158.96875 115.382812 C 158.710938 115.398438 158.453125 115.414062 158.195312 115.441406 C 157.9375 115.464844 157.683594 115.496094 157.425781 115.535156 C 157.171875 115.574219 156.917969 115.617188 156.664062 115.667969 C 156.414062 115.71875 156.160156 115.773438 155.910156 115.835938 C 155.660156 115.898438 155.410156 115.96875 155.164062 116.042969 C 154.917969 116.117188 154.671875 116.199219 154.429688 116.285156 C 154.1875 116.371094 153.945312 116.464844 153.707031 116.5625 C 153.46875 116.660156 153.234375 116.765625 153 116.875 C 152.765625 116.984375 152.535156 117.101562 152.308594 117.222656 C 152.082031 117.34375 151.859375 117.472656 151.636719 117.605469 C 151.414062 117.738281 151.195312 117.875 150.980469 118.019531 C 150.769531 118.160156 150.558594 118.308594 150.351562 118.460938 C 150.144531 118.617188 149.941406 118.773438 149.738281 118.9375 C 149.539062 119.101562 149.34375 119.269531 149.152344 119.441406 C 148.960938 119.617188 148.777344 119.792969 148.59375 119.976562 C 148.410156 120.15625 148.234375 120.34375 148.058594 120.535156 C 147.886719 120.726562 147.71875 120.921875 147.554688 121.121094 C 147.390625 121.320312 147.230469 121.523438 147.078125 121.730469 C 146.925781 121.9375 146.777344 122.144531 146.632812 122.359375 C 146.488281 122.574219 146.351562 122.792969 146.21875 123.011719 C 146.085938 123.234375 145.960938 123.457031 145.835938 123.683594 C 145.714844 123.914062 145.601562 124.140625 145.488281 124.375 C 145.378906 124.609375 145.273438 124.84375 145.175781 125.082031 C 145.078125 125.320312 144.984375 125.558594 144.898438 125.800781 C 144.8125 126.046875 144.730469 126.289062 144.65625 126.535156 C 144.582031 126.78125 144.511719 127.03125 144.449219 127.28125 C 144.386719 127.53125 144.328125 127.78125 144.277344 128.035156 C 144.230469 128.289062 144.183594 128.542969 144.148438 128.796875 C 144.109375 129.050781 144.078125 129.308594 144.050781 129.5625 C 144.027344 129.820312 144.007812 130.078125 143.996094 130.332031 C 143.980469 130.589844 143.976562 130.847656 143.976562 131.105469 C 143.976562 131.363281 143.980469 131.621094 143.996094 131.878906 C 144.007812 132.136719 144.027344 132.390625 144.050781 132.648438 C 144.078125 132.90625 144.109375 133.160156 144.148438 133.414062 C 144.183594 133.671875 144.230469 133.925781 144.277344 134.175781 C 144.328125 134.429688 144.386719 134.679688 144.449219 134.929688 C 144.511719 135.179688 144.582031 135.429688 144.65625 135.675781 C 144.730469 135.921875 144.8125 136.167969 144.898438 136.410156 C 144.984375 136.652344 145.078125 136.890625 145.175781 137.128906 C 145.273438 137.367188 145.378906 137.601562 145.488281 137.835938 C 145.601562 138.070312 145.714844 138.300781 145.835938 138.527344 C 145.960938 138.753906 146.085938 138.976562 146.21875 139.199219 C 146.351562 139.417969 146.488281 139.636719 146.632812 139.851562 C 146.777344 140.066406 146.925781 140.277344 147.078125 140.484375 C 147.230469 140.691406 147.390625 140.894531 147.554688 141.089844 C 147.71875 141.292969 147.886719 141.484375 148.058594 141.675781 C 148.234375 141.867188 148.410156 142.054688 148.59375 142.234375 C 148.777344 142.417969 148.960938 142.597656 149.152344 142.769531 C 149.34375 142.941406 149.539062 143.109375 149.738281 143.273438 C 149.941406 143.4375 150.144531 143.59375 150.351562 143.75 C 150.558594 143.902344 150.769531 144.050781 150.980469 144.195312 C 151.195312 144.335938 151.414062 144.476562 151.636719 144.605469 C 151.859375 144.738281 152.082031 144.867188 152.308594 144.988281 C 152.535156 145.109375 152.765625 145.226562 153 145.335938 C 153.234375 145.445312 153.46875 145.550781 153.707031 145.648438 C 153.945312 145.746094 154.1875 145.839844 154.429688 145.925781 C 154.671875 146.015625 154.917969 146.09375 155.164062 146.167969 C 155.410156 146.242188 155.660156 146.3125 155.910156 146.375 C 156.160156 146.4375 156.414062 146.496094 156.664062 146.542969 C 156.917969 146.59375 157.171875 146.636719 157.425781 146.675781 C 157.683594 146.714844 157.9375 146.746094 158.195312 146.769531 C 158.453125 146.796875 158.710938 146.816406 158.96875 146.828125 C 159.226562 146.839844 159.484375 146.847656 159.742188 146.847656 Z M 159.742188 125.859375 C 159.914062 125.859375 160.085938 125.867188 160.253906 125.882812 C 160.425781 125.902344 160.597656 125.925781 160.765625 125.960938 C 160.933594 125.992188 161.101562 126.035156 161.265625 126.085938 C 161.429688 126.132812 161.59375 126.191406 161.753906 126.257812 C 161.910156 126.324219 162.066406 126.398438 162.21875 126.476562 C 162.371094 126.558594 162.515625 126.648438 162.660156 126.742188 C 162.804688 126.839844 162.941406 126.941406 163.074219 127.050781 C 163.207031 127.160156 163.335938 127.273438 163.457031 127.394531 C 163.578125 127.515625 163.695312 127.644531 163.804688 127.777344 C 163.914062 127.910156 164.015625 128.046875 164.109375 128.191406 C 164.207031 128.332031 164.292969 128.480469 164.375 128.632812 C 164.457031 128.785156 164.53125 128.9375 164.597656 129.097656 C 164.660156 129.257812 164.71875 129.417969 164.769531 129.582031 C 164.820312 129.746094 164.859375 129.914062 164.894531 130.082031 C 164.929688 130.25 164.953125 130.421875 164.972656 130.589844 C 164.988281 130.761719 164.996094 130.933594 164.996094 131.105469 C 164.996094 131.277344 164.988281 131.449219 164.972656 131.621094 C 164.953125 131.792969 164.929688 131.960938 164.894531 132.128906 C 164.859375 132.296875 164.820312 132.464844 164.769531 132.628906 C 164.71875 132.792969 164.660156 132.953125 164.597656 133.113281 C 164.53125 133.273438 164.457031 133.425781 164.375 133.578125 C 164.292969 133.730469 164.207031 133.878906 164.109375 134.019531 C 164.015625 134.164062 163.914062 134.300781 163.804688 134.433594 C 163.695312 134.566406 163.578125 134.695312 163.457031 134.816406 C 163.335938 134.9375 163.207031 135.054688 163.074219 135.160156 C 162.941406 135.269531 162.804688 135.371094 162.660156 135.46875 C 162.515625 135.5625 162.371094 135.652344 162.21875 135.734375 C 162.066406 135.816406 161.910156 135.886719 161.753906 135.953125 C 161.59375 136.019531 161.429688 136.078125 161.265625 136.125 C 161.101562 136.175781 160.933594 136.21875 160.765625 136.253906 C 160.597656 136.285156 160.425781 136.3125 160.253906 136.328125 C 160.085938 136.34375 159.914062 136.351562 159.742188 136.351562 C 159.570312 136.351562 159.398438 136.34375 159.226562 136.328125 C 159.054688 136.3125 158.882812 136.285156 158.714844 136.253906 C 158.546875 136.21875 158.378906 136.175781 158.214844 136.125 C 158.050781 136.078125 157.886719 136.019531 157.730469 135.953125 C 157.570312 135.886719 157.414062 135.816406 157.265625 135.734375 C 157.113281 135.652344 156.964844 135.5625 156.820312 135.46875 C 156.679688 135.371094 156.539062 135.269531 156.40625 135.160156 C 156.273438 135.054688 156.148438 134.9375 156.023438 134.816406 C 155.902344 134.695312 155.789062 134.566406 155.679688 134.433594 C 155.570312 134.300781 155.46875 134.164062 155.371094 134.019531 C 155.277344 133.878906 155.1875 133.730469 155.105469 133.578125 C 155.027344 133.425781 154.953125 133.273438 154.886719 133.113281 C 154.820312 132.953125 154.761719 132.792969 154.710938 132.628906 C 154.664062 132.464844 154.621094 132.296875 154.585938 132.128906 C 154.554688 131.960938 154.527344 131.792969 154.511719 131.621094 C 154.496094 131.449219 154.484375 131.277344 154.484375 131.105469 C 154.484375 130.933594 154.496094 130.761719 154.511719 130.589844 C 154.527344 130.421875 154.554688 130.25 154.585938 130.082031 C 154.621094 129.914062 154.664062 129.746094 154.710938 129.582031 C 154.761719 129.417969 154.820312 129.257812 154.886719 129.097656 C 154.953125 128.9375 155.027344 128.785156 155.105469 128.632812 C 155.1875 128.480469 155.277344 128.332031 155.371094 128.191406 C 155.46875 128.046875 155.570312 127.910156 155.679688 127.777344 C 155.789062 127.644531 155.902344 127.515625 156.023438 127.394531 C 156.148438 127.273438 156.273438 127.160156 156.40625 127.050781 C 156.539062 126.941406 156.679688 126.839844 156.820312 126.742188 C 156.964844 126.648438 157.113281 126.558594 157.265625 126.476562 C 157.414062 126.398438 157.570312 126.324219 157.730469 126.257812 C 157.890625 126.191406 158.050781 126.132812 158.214844 126.085938 C 158.378906 126.035156 158.546875 125.992188 158.714844 125.960938 C 158.882812 125.925781 159.054688 125.902344 159.226562 125.882812 C 159.398438 125.867188 159.570312 125.859375 159.742188 125.859375 Z M 159.742188 125.859375 " fill-opacity="1" fill-rule="nonzero"/><path fill="#000000" d="M 222.800781 115.363281 C 222.542969 115.363281 222.285156 115.371094 222.027344 115.382812 C 221.769531 115.398438 221.511719 115.414062 221.253906 115.441406 C 220.996094 115.464844 220.742188 115.496094 220.488281 115.535156 C 220.230469 115.574219 219.976562 115.617188 219.722656 115.667969 C 219.472656 115.71875 219.21875 115.773438 218.96875 115.835938 C 218.71875 115.898438 218.46875 115.96875 218.222656 116.042969 C 217.976562 116.117188 217.730469 116.199219 217.488281 116.285156 C 217.246094 116.371094 217.003906 116.464844 216.765625 116.5625 C 216.527344 116.660156 216.292969 116.765625 216.058594 116.875 C 215.824219 116.984375 215.597656 117.101562 215.367188 117.222656 C 215.140625 117.34375 214.917969 117.472656 214.695312 117.605469 C 214.472656 117.738281 214.257812 117.875 214.042969 118.019531 C 213.828125 118.160156 213.617188 118.308594 213.410156 118.460938 C 213.203125 118.617188 213 118.773438 212.796875 118.9375 C 212.597656 119.101562 212.402344 119.269531 212.214844 119.441406 C 212.023438 119.617188 211.835938 119.792969 211.652344 119.976562 C 211.46875 120.15625 211.292969 120.34375 211.117188 120.535156 C 210.945312 120.726562 210.777344 120.921875 210.613281 121.121094 C 210.449219 121.320312 210.289062 121.523438 210.136719 121.730469 C 209.984375 121.9375 209.835938 122.144531 209.691406 122.359375 C 209.546875 122.574219 209.410156 122.792969 209.277344 123.011719 C 209.144531 123.234375 209.019531 123.457031 208.898438 123.683594 C 208.773438 123.914062 208.660156 124.140625 208.546875 124.375 C 208.4375 124.609375 208.335938 124.84375 208.234375 125.082031 C 208.136719 125.320312 208.042969 125.558594 207.957031 125.800781 C 207.871094 126.046875 207.789062 126.289062 207.714844 126.535156 C 207.640625 126.78125 207.570312 127.03125 207.507812 127.28125 C 207.445312 127.53125 207.386719 127.78125 207.339844 128.035156 C 207.289062 128.289062 207.242188 128.542969 207.207031 128.796875 C 207.167969 129.050781 207.136719 129.308594 207.109375 129.5625 C 207.085938 129.820312 207.066406 130.078125 207.054688 130.332031 C 207.042969 130.589844 207.035156 130.847656 207.035156 131.105469 C 207.035156 131.363281 207.042969 131.621094 207.054688 131.878906 C 207.066406 132.136719 207.085938 132.390625 207.109375 132.648438 C 207.136719 132.90625 207.167969 133.160156 207.207031 133.414062 C 207.242188 133.671875 207.289062 133.925781 207.339844 134.175781 C 207.386719 134.429688 207.445312 134.679688 207.507812 134.929688 C 207.570312 135.179688 207.640625 135.429688 207.714844 135.675781 C 207.789062 135.921875 207.871094 136.167969 207.957031 136.410156 C 208.042969 136.652344 208.136719 136.890625 208.234375 137.128906 C 208.335938 137.367188 208.4375 137.601562 208.546875 137.835938 C 208.660156 138.070312 208.773438 138.300781 208.898438 138.527344 C 209.019531 138.753906 209.144531 138.976562 209.277344 139.199219 C 209.410156 139.417969 209.546875 139.636719 209.691406 139.851562 C 209.835938 140.066406 209.984375 140.277344 210.136719 140.484375 C 210.289062 140.691406 210.449219 140.894531 210.613281 141.089844 C 210.777344 141.292969 210.945312 141.484375 211.117188 141.675781 C 211.292969 141.867188 211.46875 142.054688 211.652344 142.234375 C 211.835938 142.417969 212.023438 142.597656 212.214844 142.769531 C 212.402344 142.941406 212.597656 143.109375 212.796875 143.273438 C 213 143.4375 213.203125 143.59375 213.410156 143.75 C 213.617188 143.902344 213.828125 144.050781 214.042969 144.195312 C 214.257812 144.335938 214.472656 144.476562 214.695312 144.605469 C 214.917969 144.738281 215.140625 144.867188 215.367188 144.988281 C 215.597656 145.109375 215.824219 145.226562 216.058594 145.335938 C 216.292969 145.445312 216.527344 145.550781 216.765625 145.648438 C 217.003906 145.746094 217.246094 145.839844 217.488281 145.925781 C 217.730469 146.015625 217.976562 146.09375 218.222656 146.167969 C 218.46875 146.242188 218.71875 146.3125 218.96875 146.375 C 219.21875 146.4375 219.472656 146.496094 219.722656 146.542969 C 219.976562 146.59375 220.230469 146.636719 220.488281 146.675781 C 220.742188 146.714844 220.996094 146.746094 221.253906 146.769531 C 221.511719 146.796875 221.769531 146.816406 222.027344 146.828125 C 222.285156 146.839844 222.542969 146.847656 222.800781 146.847656 C 223.058594 146.847656 223.316406 146.839844 223.574219 146.828125 C 223.832031 146.816406 224.089844 146.796875 224.34375 146.769531 C 224.601562 146.746094 224.859375 146.714844 225.113281 146.675781 C 225.367188 146.636719 225.621094 146.59375 225.875 146.542969 C 226.128906 146.496094 226.378906 146.4375 226.628906 146.375 C 226.878906 146.3125 227.128906 146.242188 227.375 146.167969 C 227.621094 146.09375 227.867188 146.015625 228.109375 145.925781 C 228.351562 145.839844 228.59375 145.746094 228.832031 145.648438 C 229.070312 145.550781 229.304688 145.445312 229.539062 145.335938 C 229.773438 145.226562 230.003906 145.109375 230.230469 144.988281 C 230.457031 144.867188 230.683594 144.738281 230.90625 144.605469 C 231.125 144.476562 231.34375 144.335938 231.558594 144.195312 C 231.773438 144.050781 231.984375 143.902344 232.191406 143.75 C 232.398438 143.59375 232.601562 143.4375 232.800781 143.273438 C 233 143.109375 233.195312 142.941406 233.386719 142.769531 C 233.578125 142.597656 233.765625 142.417969 233.945312 142.234375 C 234.128906 142.054688 234.308594 141.867188 234.480469 141.675781 C 234.652344 141.484375 234.820312 141.292969 234.984375 141.089844 C 235.148438 140.894531 235.308594 140.691406 235.460938 140.484375 C 235.617188 140.277344 235.765625 140.066406 235.90625 139.851562 C 236.050781 139.636719 236.1875 139.417969 236.320312 139.199219 C 236.453125 138.976562 236.582031 138.753906 236.703125 138.527344 C 236.824219 138.300781 236.941406 138.070312 237.050781 137.835938 C 237.160156 137.601562 237.265625 137.367188 237.363281 137.128906 C 237.464844 136.890625 237.554688 136.652344 237.640625 136.410156 C 237.730469 136.167969 237.8125 135.921875 237.886719 135.675781 C 237.960938 135.429688 238.03125 135.179688 238.09375 134.929688 C 238.15625 134.679688 238.210938 134.429688 238.261719 134.175781 C 238.3125 133.925781 238.355469 133.671875 238.394531 133.414062 C 238.433594 133.160156 238.464844 132.90625 238.488281 132.648438 C 238.515625 132.390625 238.53125 132.136719 238.546875 131.878906 C 238.558594 131.621094 238.5625 131.363281 238.5625 131.105469 C 238.5625 130.847656 238.558594 130.589844 238.546875 130.332031 C 238.53125 130.078125 238.515625 129.820312 238.488281 129.5625 C 238.464844 129.308594 238.433594 129.050781 238.394531 128.796875 C 238.355469 128.542969 238.3125 128.289062 238.261719 128.035156 C 238.210938 127.78125 238.15625 127.53125 238.09375 127.28125 C 238.03125 127.03125 237.960938 126.78125 237.886719 126.535156 C 237.8125 126.289062 237.730469 126.046875 237.640625 125.800781 C 237.554688 125.558594 237.464844 125.320312 237.363281 125.082031 C 237.265625 124.84375 237.160156 124.609375 237.050781 124.375 C 236.941406 124.140625 236.824219 123.914062 236.703125 123.683594 C 236.582031 123.457031 236.453125 123.234375 236.320312 123.011719 C 236.1875 122.792969 236.050781 122.574219 235.90625 122.359375 C 235.765625 122.144531 235.617188 121.9375 235.460938 121.730469 C 235.308594 121.523438 235.148438 121.320312 234.984375 121.121094 C 234.820312 120.921875 234.652344 120.726562 234.480469 120.535156 C 234.308594 120.34375 234.128906 120.15625 233.945312 119.976562 C 233.765625 119.792969 233.578125 119.617188 233.386719 119.441406 C 233.195312 119.269531 233 119.101562 232.800781 118.9375 C 232.601562 118.773438 232.398438 118.617188 232.191406 118.460938 C 231.984375 118.308594 231.773438 118.160156 231.558594 118.019531 C 231.34375 117.875 231.125 117.738281 230.90625 117.605469 C 230.683594 117.472656 230.457031 117.34375 230.230469 117.222656 C 230.003906 117.101562 229.773438 116.984375 229.539062 116.875 C 229.304688 116.765625 229.070312 116.660156 228.832031 116.5625 C 228.59375 116.464844 228.351562 116.371094 228.109375 116.285156 C 227.867188 116.199219 227.621094 116.117188 227.375 116.042969 C 227.128906 115.96875 226.878906 115.898438 226.628906 115.835938 C 226.378906 115.773438 226.128906 115.71875 225.875 115.667969 C 225.621094 115.617188 225.367188 115.574219 225.113281 115.535156 C 224.859375 115.496094 224.601562 115.464844 224.34375 115.441406 C 224.089844 115.414062 223.832031 115.398438 223.574219 115.382812 C 223.316406 115.371094 223.058594 115.363281 222.800781 115.363281 Z M 222.800781 136.351562 C 222.628906 136.351562 222.457031 136.34375 222.285156 136.328125 C 222.113281 136.3125 221.941406 136.285156 221.773438 136.253906 C 221.605469 136.21875 221.4375 136.175781 221.273438 136.125 C 221.109375 136.078125 220.949219 136.019531 220.789062 135.953125 C 220.628906 135.886719 220.472656 135.816406 220.324219 135.734375 C 220.171875 135.652344 220.023438 135.5625 219.878906 135.46875 C 219.738281 135.371094 219.597656 135.269531 219.464844 135.160156 C 219.332031 135.054688 219.207031 134.9375 219.082031 134.816406 C 218.960938 134.695312 218.847656 134.566406 218.738281 134.433594 C 218.628906 134.300781 218.527344 134.164062 218.429688 134.019531 C 218.335938 133.878906 218.246094 133.730469 218.164062 133.578125 C 218.085938 133.425781 218.011719 133.273438 217.945312 133.113281 C 217.878906 132.953125 217.820312 132.792969 217.769531 132.628906 C 217.722656 132.464844 217.679688 132.296875 217.644531 132.128906 C 217.613281 131.960938 217.585938 131.792969 217.570312 131.621094 C 217.554688 131.449219 217.542969 131.277344 217.542969 131.105469 C 217.542969 130.933594 217.554688 130.761719 217.570312 130.589844 C 217.585938 130.421875 217.613281 130.25 217.644531 130.082031 C 217.679688 129.914062 217.722656 129.746094 217.769531 129.582031 C 217.820312 129.417969 217.878906 129.257812 217.945312 129.097656 C 218.011719 128.9375 218.085938 128.785156 218.164062 128.632812 C 218.246094 128.480469 218.335938 128.332031 218.429688 128.191406 C 218.527344 128.046875 218.628906 127.910156 218.738281 127.777344 C 218.847656 127.644531 218.960938 127.515625 219.082031 127.394531 C 219.207031 127.273438 219.332031 127.160156 219.464844 127.050781 C 219.597656 126.941406 219.738281 126.839844 219.878906 126.742188 C 220.023438 126.648438 220.171875 126.558594 220.324219 126.476562 C 220.472656 126.398438 220.628906 126.324219 220.789062 126.257812 C 220.949219 126.191406 221.109375 126.132812 221.273438 126.085938 C 221.4375 126.035156 221.605469 125.992188 221.773438 125.960938 C 221.941406 125.925781 222.113281 125.902344 222.285156 125.882812 C 222.457031 125.867188 222.628906 125.859375 222.800781 125.859375 C 222.972656 125.859375 223.144531 125.867188 223.316406 125.882812 C 223.484375 125.902344 223.65625 125.925781 223.824219 125.960938 C 223.992188 125.992188 224.160156 126.035156 224.324219 126.085938 C 224.488281 126.132812 224.652344 126.191406 224.8125 126.257812 C 224.96875 126.324219 225.125 126.398438 225.277344 126.476562 C 225.429688 126.558594 225.574219 126.648438 225.71875 126.742188 C 225.863281 126.839844 226 126.941406 226.132812 127.050781 C 226.265625 127.160156 226.394531 127.273438 226.515625 127.394531 C 226.636719 127.515625 226.753906 127.644531 226.863281 127.777344 C 226.972656 127.910156 227.074219 128.046875 227.167969 128.191406 C 227.265625 128.332031 227.351562 128.480469 227.433594 128.632812 C 227.515625 128.785156 227.589844 128.9375 227.65625 129.097656 C 227.71875 129.257812 227.777344 129.417969 227.828125 129.582031 C 227.878906 129.746094 227.917969 129.914062 227.953125 130.082031 C 227.988281 130.25 228.011719 130.421875 228.03125 130.589844 C 228.046875 130.761719 228.054688 130.933594 228.054688 131.105469 C 228.054688 131.277344 228.046875 131.449219 228.03125 131.621094 C 228.011719 131.792969 227.988281 131.960938 227.953125 132.128906 C 227.917969 132.296875 227.878906 132.464844 227.828125 132.628906 C 227.777344 132.792969 227.71875 132.953125 227.65625 133.113281 C 227.589844 133.273438 227.515625 133.425781 227.433594 133.578125 C 227.351562 133.730469 227.265625 133.878906 227.167969 134.019531 C 227.074219 134.164062 226.972656 134.300781 226.863281 134.433594 C 226.753906 134.566406 226.636719 134.695312 226.515625 134.816406 C 226.394531 134.9375 226.265625 135.054688 226.132812 135.160156 C 226 135.269531 225.863281 135.371094 225.71875 135.46875 C 225.574219 135.5625 225.429688 135.652344 225.277344 135.734375 C 225.125 135.816406 224.96875 135.886719 224.8125 135.953125 C 224.652344 136.019531 224.488281 136.078125 224.324219 136.125 C 224.160156 136.175781 223.992188 136.21875 223.824219 136.253906 C 223.65625 136.285156 223.484375 136.3125 223.316406 136.328125 C 223.144531 136.34375 222.972656 136.351562 222.800781 136.351562 Z M 222.800781 136.351562 " fill-opacity="1" fill-rule="nonzero"/><g clip-path="url(#b95f0d6dc4)"><path fill="#000000" d="M 164.113281 86.222656 C 164.019531 86.078125 163.914062 85.941406 163.804688 85.808594 C 163.699219 85.675781 163.582031 85.546875 163.460938 85.425781 C 163.339844 85.304688 163.210938 85.191406 163.078125 85.082031 C 162.945312 84.972656 162.808594 84.871094 162.664062 84.773438 C 162.523438 84.679688 162.375 84.589844 162.222656 84.507812 C 162.074219 84.425781 161.917969 84.355469 161.757812 84.289062 C 161.601562 84.222656 161.4375 84.164062 161.273438 84.113281 C 161.109375 84.0625 160.941406 84.023438 160.773438 83.988281 C 160.605469 83.953125 160.433594 83.929688 160.265625 83.910156 C 160.09375 83.894531 159.921875 83.886719 159.75 83.886719 C 159.578125 83.886719 159.40625 83.894531 159.234375 83.910156 C 159.0625 83.925781 158.894531 83.953125 158.726562 83.984375 C 158.554688 84.019531 158.390625 84.058594 158.222656 84.109375 C 158.058594 84.15625 157.898438 84.214844 157.738281 84.28125 C 157.578125 84.347656 157.425781 84.417969 157.273438 84.5 C 157.121094 84.582031 156.972656 84.667969 156.828125 84.765625 L 125.300781 105.753906 C 125.066406 105.90625 124.847656 106.082031 124.644531 106.269531 C 124.4375 106.460938 124.25 106.664062 124.074219 106.886719 C 123.902344 107.105469 123.75 107.339844 123.613281 107.582031 C 123.480469 107.828125 123.363281 108.082031 123.269531 108.34375 C 123.175781 108.609375 123.101562 108.878906 123.050781 109.152344 C 123 109.425781 122.96875 109.703125 122.960938 109.984375 C 122.957031 110.261719 122.96875 110.542969 123.007812 110.820312 C 123.046875 111.097656 123.105469 111.367188 123.183594 111.636719 C 123.265625 111.902344 123.367188 112.164062 123.492188 112.414062 C 123.613281 112.667969 123.753906 112.90625 123.917969 113.136719 C 124.078125 113.363281 124.257812 113.578125 124.453125 113.777344 C 124.648438 113.980469 124.855469 114.164062 125.082031 114.328125 C 125.308594 114.496094 125.542969 114.644531 125.792969 114.773438 C 126.039062 114.902344 126.296875 115.011719 126.5625 115.097656 C 126.828125 115.1875 127.101562 115.253906 127.375 115.296875 C 127.652344 115.34375 127.929688 115.363281 128.210938 115.363281 C 128.730469 115.367188 129.238281 115.292969 129.734375 115.140625 C 130.230469 114.992188 130.691406 114.773438 131.121094 114.484375 L 162.652344 93.496094 C 162.796875 93.398438 162.933594 93.296875 163.066406 93.1875 C 163.199219 93.082031 163.328125 92.964844 163.449219 92.84375 C 163.570312 92.722656 163.6875 92.59375 163.796875 92.460938 C 163.90625 92.332031 164.007812 92.191406 164.101562 92.050781 C 164.199219 91.90625 164.285156 91.761719 164.367188 91.609375 C 164.449219 91.457031 164.523438 91.304688 164.589844 91.144531 C 164.65625 90.984375 164.714844 90.824219 164.765625 90.660156 C 164.8125 90.496094 164.855469 90.328125 164.890625 90.160156 C 164.925781 89.992188 164.949219 89.824219 164.964844 89.652344 C 164.984375 89.480469 164.992188 89.308594 164.992188 89.136719 C 164.992188 88.964844 164.984375 88.792969 164.96875 88.625 C 164.953125 88.453125 164.925781 88.285156 164.894531 88.113281 C 164.859375 87.945312 164.820312 87.78125 164.769531 87.617188 C 164.71875 87.449219 164.660156 87.289062 164.597656 87.128906 C 164.53125 86.972656 164.457031 86.816406 164.378906 86.664062 C 164.296875 86.511719 164.207031 86.367188 164.113281 86.222656 Z M 164.113281 86.222656 " fill-opacity="1" fill-rule="nonzero"/></g><g clip-path="url(#be70da32cb)"><path fill="#000000" d="M 225.710938 84.765625 C 225.566406 84.664062 225.421875 84.570312 225.269531 84.480469 C 225.117188 84.394531 224.960938 84.316406 224.796875 84.246094 C 224.636719 84.175781 224.472656 84.113281 224.308594 84.058594 C 224.140625 84.003906 223.972656 83.957031 223.800781 83.917969 C 223.628906 83.882812 223.457031 83.851562 223.285156 83.832031 C 223.109375 83.8125 222.933594 83.800781 222.757812 83.796875 C 222.582031 83.796875 222.410156 83.800781 222.234375 83.816406 C 222.058594 83.828125 221.886719 83.851562 221.714844 83.886719 C 221.542969 83.917969 221.371094 83.957031 221.203125 84.007812 C 221.035156 84.054688 220.867188 84.113281 220.707031 84.179688 C 220.542969 84.242188 220.382812 84.316406 220.230469 84.398438 C 220.074219 84.480469 219.921875 84.570312 219.777344 84.664062 C 219.628906 84.761719 219.488281 84.863281 219.355469 84.976562 C 219.21875 85.085938 219.085938 85.203125 218.964844 85.328125 C 218.839844 85.449219 218.722656 85.578125 218.609375 85.714844 C 218.5 85.851562 218.394531 85.992188 218.296875 86.136719 C 218.199219 86.28125 218.109375 86.433594 218.027344 86.585938 C 217.945312 86.742188 217.871094 86.898438 217.804688 87.0625 C 217.738281 87.222656 217.683594 87.390625 217.632812 87.558594 C 217.582031 87.726562 217.542969 87.894531 217.507812 88.066406 C 217.476562 88.238281 217.453125 88.410156 217.4375 88.585938 C 217.421875 88.761719 217.414062 88.933594 217.417969 89.109375 C 217.417969 89.285156 217.429688 89.460938 217.449219 89.632812 C 217.46875 89.808594 217.496094 89.980469 217.535156 90.152344 C 217.570312 90.324219 217.617188 90.492188 217.671875 90.65625 C 217.726562 90.824219 217.789062 90.988281 217.859375 91.148438 C 217.925781 91.308594 218.007812 91.464844 218.09375 91.617188 C 218.175781 91.769531 218.269531 91.917969 218.371094 92.0625 C 218.472656 92.203125 218.582031 92.34375 218.695312 92.476562 C 218.808594 92.609375 218.929688 92.734375 219.058594 92.855469 C 219.183594 92.976562 219.320312 93.089844 219.457031 93.195312 C 219.597656 93.300781 219.738281 93.402344 219.886719 93.496094 L 251.417969 114.484375 C 251.5625 114.578125 251.707031 114.667969 251.859375 114.746094 C 252.011719 114.828125 252.167969 114.902344 252.328125 114.964844 C 252.484375 115.03125 252.648438 115.089844 252.8125 115.136719 C 252.976562 115.1875 253.144531 115.230469 253.3125 115.261719 C 253.480469 115.296875 253.652344 115.320312 253.824219 115.335938 C 253.992188 115.355469 254.164062 115.363281 254.335938 115.363281 C 254.507812 115.359375 254.679688 115.351562 254.851562 115.335938 C 255.023438 115.320312 255.191406 115.292969 255.363281 115.257812 C 255.53125 115.226562 255.695312 115.183594 255.863281 115.132812 C 256.027344 115.082031 256.1875 115.023438 256.347656 114.960938 C 256.503906 114.894531 256.660156 114.820312 256.8125 114.738281 C 256.964844 114.65625 257.109375 114.570312 257.253906 114.472656 C 257.398438 114.378906 257.535156 114.277344 257.667969 114.164062 C 257.800781 114.058594 257.925781 113.941406 258.050781 113.820312 C 258.171875 113.699219 258.285156 113.570312 258.394531 113.4375 C 258.503906 113.304688 258.605469 113.167969 258.703125 113.023438 C 258.796875 112.882812 258.882812 112.734375 258.964844 112.582031 C 259.046875 112.429688 259.117188 112.277344 259.183594 112.117188 C 259.25 111.957031 259.308594 111.796875 259.359375 111.632812 C 259.40625 111.46875 259.449219 111.300781 259.480469 111.132812 C 259.515625 110.964844 259.539062 110.792969 259.554688 110.625 C 259.574219 110.453125 259.582031 110.28125 259.582031 110.109375 C 259.582031 109.9375 259.570312 109.765625 259.554688 109.59375 C 259.539062 109.425781 259.511719 109.253906 259.476562 109.085938 C 259.445312 108.917969 259.402344 108.75 259.351562 108.585938 C 259.300781 108.421875 259.242188 108.261719 259.175781 108.101562 C 259.113281 107.945312 259.039062 107.789062 258.957031 107.636719 C 258.875 107.488281 258.785156 107.339844 258.691406 107.195312 C 258.59375 107.054688 258.492188 106.917969 258.382812 106.785156 C 258.273438 106.652344 258.160156 106.523438 258.035156 106.402344 C 257.914062 106.28125 257.789062 106.167969 257.65625 106.058594 C 257.523438 105.949219 257.382812 105.847656 257.242188 105.753906 Z M 225.710938 84.765625 " fill-opacity="1" fill-rule="nonzero"/></g><path fill="#000000" d="M 234.582031 199.472656 L 150.503906 178.484375 C 150.335938 178.449219 150.171875 178.421875 150.003906 178.398438 C 149.835938 178.378906 149.664062 178.367188 149.496094 178.359375 C 149.324219 178.355469 149.15625 178.359375 148.988281 178.371094 C 148.816406 178.382812 148.652344 178.402344 148.484375 178.429688 C 148.316406 178.457031 148.152344 178.492188 147.988281 178.539062 C 147.824219 178.582031 147.660156 178.632812 147.503906 178.691406 C 147.34375 178.753906 147.1875 178.820312 147.035156 178.894531 C 146.882812 178.96875 146.734375 179.050781 146.589844 179.140625 C 146.445312 179.226562 146.308594 179.324219 146.171875 179.425781 C 146.039062 179.527344 145.90625 179.636719 145.78125 179.753906 C 145.660156 179.867188 145.539062 179.988281 145.425781 180.113281 C 145.3125 180.238281 145.207031 180.371094 145.109375 180.507812 C 145.007812 180.644531 144.914062 180.785156 144.828125 180.933594 C 144.742188 181.078125 144.660156 181.226562 144.589844 181.378906 C 144.519531 181.535156 144.453125 181.691406 144.398438 181.847656 C 144.339844 182.007812 144.292969 182.171875 144.25 182.335938 C 144.210938 182.5 144.175781 182.664062 144.152344 182.832031 C 144.125 183 144.109375 183.167969 144.101562 183.335938 C 144.09375 183.507812 144.09375 183.675781 144.101562 183.84375 C 144.105469 184.015625 144.125 184.183594 144.148438 184.351562 C 144.171875 184.519531 144.203125 184.683594 144.242188 184.847656 C 144.285156 185.011719 144.332031 185.175781 144.386719 185.335938 C 144.445312 185.496094 144.507812 185.652344 144.578125 185.804688 C 144.648438 185.957031 144.726562 186.109375 144.8125 186.253906 C 144.898438 186.402344 144.992188 186.542969 145.089844 186.679688 C 145.191406 186.816406 145.296875 186.949219 145.410156 187.078125 C 145.519531 187.203125 145.636719 187.324219 145.761719 187.441406 C 145.886719 187.554688 146.015625 187.664062 146.148438 187.769531 C 146.285156 187.871094 146.421875 187.96875 146.566406 188.058594 C 146.710938 188.148438 146.859375 188.230469 147.011719 188.304688 C 147.164062 188.378906 147.316406 188.449219 147.476562 188.507812 C 147.632812 188.566406 147.796875 188.621094 147.960938 188.664062 L 232.039062 209.652344 C 232.203125 209.691406 232.371094 209.71875 232.539062 209.742188 C 232.707031 209.761719 232.875 209.773438 233.046875 209.78125 C 233.214844 209.785156 233.382812 209.78125 233.554688 209.769531 C 233.722656 209.757812 233.890625 209.738281 234.058594 209.710938 C 234.226562 209.683594 234.390625 209.644531 234.554688 209.601562 C 234.71875 209.558594 234.878906 209.507812 235.039062 209.445312 C 235.195312 209.386719 235.351562 209.320312 235.503906 209.246094 C 235.65625 209.171875 235.804688 209.089844 235.949219 209 C 236.09375 208.914062 236.234375 208.816406 236.367188 208.714844 C 236.503906 208.613281 236.632812 208.503906 236.757812 208.386719 C 236.882812 208.273438 237 208.152344 237.113281 208.027344 C 237.226562 207.898438 237.332031 207.769531 237.433594 207.632812 C 237.53125 207.496094 237.625 207.355469 237.710938 207.207031 C 237.800781 207.0625 237.878906 206.914062 237.949219 206.757812 C 238.023438 206.605469 238.085938 206.449219 238.144531 206.289062 C 238.199219 206.132812 238.25 205.96875 238.289062 205.804688 C 238.332031 205.640625 238.363281 205.472656 238.390625 205.308594 C 238.414062 205.140625 238.429688 204.972656 238.4375 204.800781 C 238.449219 204.632812 238.449219 204.464844 238.441406 204.296875 C 238.433594 204.125 238.417969 203.957031 238.394531 203.789062 C 238.367188 203.621094 238.335938 203.457031 238.296875 203.292969 C 238.257812 203.128906 238.207031 202.964844 238.152344 202.804688 C 238.097656 202.644531 238.035156 202.488281 237.960938 202.335938 C 237.890625 202.179688 237.8125 202.03125 237.726562 201.886719 C 237.640625 201.738281 237.550781 201.597656 237.449219 201.460938 C 237.351562 201.324219 237.246094 201.191406 237.132812 201.0625 C 237.019531 200.9375 236.902344 200.816406 236.777344 200.699219 C 236.652344 200.585938 236.523438 200.476562 236.390625 200.371094 C 236.257812 200.269531 236.117188 200.171875 235.972656 200.082031 C 235.828125 199.992188 235.679688 199.910156 235.527344 199.835938 C 235.378906 199.761719 235.222656 199.691406 235.0625 199.632812 C 234.90625 199.570312 234.746094 199.519531 234.582031 199.472656 Z M 234.582031 199.472656 " fill-opacity="1" fill-rule="nonzero"/></svg>