<svg xmlns="http://www.w3.org/2000/svg" xmlns:xlink="http://www.w3.org/1999/xlink" width="512" zoomAndPan="magnify" viewBox="0 0 384 383.999986" height="512" preserveAspectRatio="xMidYMid meet" version="1.0"><defs><g/><clipPath id="70ad940437"><path d="M 26.328125 51.539062 L 346.632812 51.539062 L 346.632812 245.386719 L 26.328125 245.386719 Z M 26.328125 51.539062 " clip-rule="nonzero"/></clipPath><clipPath id="3bc4c75519"><path d="M 76.578125 51.539062 L 296.019531 51.539062 C 309.34375 51.539062 322.125 56.832031 331.550781 66.257812 C 340.972656 75.679688 346.269531 88.460938 346.269531 101.789062 L 346.269531 195.136719 C 346.269531 208.464844 340.972656 221.246094 331.550781 230.667969 C 322.125 240.09375 309.34375 245.386719 296.019531 245.386719 L 76.578125 245.386719 C 63.25 245.386719 50.46875 240.09375 41.042969 230.667969 C 31.621094 221.246094 26.328125 208.464844 26.328125 195.136719 L 26.328125 101.789062 C 26.328125 88.460938 31.621094 75.679688 41.042969 66.257812 C 50.46875 56.832031 63.25 51.539062 76.578125 51.539062 Z M 76.578125 51.539062 " clip-rule="nonzero"/></clipPath><clipPath id="0a4c9f2858"><path d="M 0.328125 0.539062 L 320.320312 0.539062 L 320.320312 194.386719 L 0.328125 194.386719 Z M 0.328125 0.539062 " clip-rule="nonzero"/></clipPath><clipPath id="8214ec4437"><path d="M 50.578125 0.539062 L 270.019531 0.539062 C 283.34375 0.539062 296.125 5.832031 305.550781 15.257812 C 314.972656 24.679688 320.269531 37.460938 320.269531 50.789062 L 320.269531 144.136719 C 320.269531 157.464844 314.972656 170.246094 305.550781 179.667969 C 296.125 189.09375 283.34375 194.386719 270.019531 194.386719 L 50.578125 194.386719 C 37.25 194.386719 24.46875 189.09375 15.042969 179.667969 C 5.621094 170.246094 0.328125 157.464844 0.328125 144.136719 L 0.328125 50.789062 C 0.328125 37.460938 5.621094 24.679688 15.042969 15.257812 C 24.46875 5.832031 37.25 0.539062 50.578125 0.539062 Z M 50.578125 0.539062 " clip-rule="nonzero"/></clipPath><clipPath id="dfac29c75a"><rect x="0" width="321" y="0" height="195"/></clipPath><clipPath id="62d8d1319f"><rect x="0" width="163" y="0" height="69"/></clipPath><clipPath id="8fbeb61710"><path d="M 50.605469 69.976562 L 322.246094 69.976562 L 322.246094 218.324219 L 50.605469 218.324219 Z M 50.605469 69.976562 " clip-rule="nonzero"/></clipPath><clipPath id="aee0df956c"><path d="M 55.605469 69.976562 L 317.238281 69.976562 C 318.566406 69.976562 319.835938 70.5 320.773438 71.4375 C 321.710938 72.375 322.238281 73.644531 322.238281 74.96875 L 322.238281 213.332031 C 322.238281 214.65625 321.710938 215.925781 320.773438 216.863281 C 319.835938 217.800781 318.566406 218.324219 317.238281 218.324219 L 55.605469 218.324219 C 54.277344 218.324219 53.007812 217.800781 52.070312 216.863281 C 51.132812 215.925781 50.605469 214.65625 50.605469 213.332031 L 50.605469 74.96875 C 50.605469 73.644531 51.132812 72.375 52.070312 71.4375 C 53.007812 70.5 54.277344 69.976562 55.605469 69.976562 Z M 55.605469 69.976562 " clip-rule="nonzero"/></clipPath><clipPath id="b229740610"><path d="M 55.605469 69.976562 L 317.238281 69.976562 C 318.566406 69.976562 319.835938 70.5 320.773438 71.4375 C 321.710938 72.375 322.238281 73.644531 322.238281 74.96875 L 322.238281 213.332031 C 322.238281 214.65625 321.710938 215.925781 320.773438 216.863281 C 319.835938 217.800781 318.566406 218.324219 317.238281 218.324219 L 55.605469 218.324219 C 54.277344 218.324219 53.007812 217.800781 52.070312 216.863281 C 51.132812 215.925781 50.605469 214.65625 50.605469 213.332031 L 50.605469 74.96875 C 50.605469 73.644531 51.132812 72.375 52.070312 71.4375 C 53.007812 70.5 54.277344 69.976562 55.605469 69.976562 Z M 55.605469 69.976562 " clip-rule="nonzero"/></clipPath></defs><g clip-path="url(#70ad940437)"><g clip-path="url(#3bc4c75519)"><g transform="matrix(1, 0, 0, 1, 26, 51)"><g clip-path="url(#dfac29c75a)"><g clip-path="url(#0a4c9f2858)"><g clip-path="url(#8214ec4437)"><path fill="#f15e3d" d="M 0.328125 0.539062 L 320.632812 0.539062 L 320.632812 194.386719 L 0.328125 194.386719 Z M 0.328125 0.539062 " fill-opacity="1" fill-rule="nonzero"/></g></g></g></g></g></g><g transform="matrix(1, 0, 0, 1, 105, 269)"><g clip-path="url(#62d8d1319f)"><g fill="#000000" fill-opacity="1"><g transform="translate(0.90252, 53.316493)"><g><path d="M 27.609375 -22.203125 L 27.609375 -35.609375 L 34.625 -35.609375 L 34.625 0 L 27.609375 0 L 27.609375 -16.21875 L 11.671875 -16.21875 L 11.671875 0 L 4.625 0 L 4.625 -35.609375 L 11.671875 -35.609375 L 11.671875 -22.203125 Z M 27.609375 -22.203125 "/></g></g></g><g fill="#000000" fill-opacity="1"><g transform="translate(40.177733, 53.316493)"><g><path d="M 10.46875 0.515625 C 8.75 0.515625 7.253906 0.195312 5.984375 -0.4375 C 4.722656 -1.070312 3.75 -2 3.0625 -3.21875 C 2.382812 -4.445312 2.046875 -5.921875 2.046875 -7.640625 C 2.046875 -9.234375 2.382812 -10.566406 3.0625 -11.640625 C 3.75 -12.722656 4.804688 -13.609375 6.234375 -14.296875 C 7.660156 -14.992188 9.523438 -15.53125 11.828125 -15.90625 C 13.441406 -16.164062 14.664062 -16.445312 15.5 -16.75 C 16.332031 -17.0625 16.894531 -17.410156 17.1875 -17.796875 C 17.476562 -18.191406 17.625 -18.6875 17.625 -19.28125 C 17.625 -20.144531 17.320312 -20.800781 16.71875 -21.25 C 16.125 -21.707031 15.128906 -21.9375 13.734375 -21.9375 C 12.242188 -21.9375 10.820312 -21.601562 9.46875 -20.9375 C 8.125 -20.269531 6.957031 -19.394531 5.96875 -18.3125 L 5.484375 -18.3125 L 2.65625 -22.578125 C 4.019531 -24.085938 5.679688 -25.265625 7.640625 -26.109375 C 9.609375 -26.953125 11.753906 -27.375 14.078125 -27.375 C 17.628906 -27.375 20.203125 -26.617188 21.796875 -25.109375 C 23.390625 -23.597656 24.1875 -21.453125 24.1875 -18.671875 L 24.1875 -7.015625 C 24.1875 -5.816406 24.710938 -5.21875 25.765625 -5.21875 C 26.171875 -5.21875 26.566406 -5.289062 26.953125 -5.4375 L 27.296875 -5.328125 L 27.78125 -0.640625 C 27.414062 -0.390625 26.898438 -0.1875 26.234375 -0.03125 C 25.566406 0.113281 24.832031 0.1875 24.03125 0.1875 C 22.425781 0.1875 21.171875 -0.117188 20.265625 -0.734375 C 19.367188 -1.347656 18.726562 -2.3125 18.34375 -3.625 L 17.828125 -3.671875 C 16.515625 -0.878906 14.0625 0.515625 10.46875 0.515625 Z M 12.609375 -4.53125 C 14.171875 -4.53125 15.414062 -5.050781 16.34375 -6.09375 C 17.28125 -7.144531 17.75 -8.601562 17.75 -10.46875 L 17.75 -13.203125 L 17.296875 -13.296875 C 16.890625 -12.972656 16.351562 -12.703125 15.6875 -12.484375 C 15.03125 -12.265625 14.085938 -12.046875 12.859375 -11.828125 C 11.398438 -11.585938 10.347656 -11.171875 9.703125 -10.578125 C 9.066406 -9.984375 8.75 -9.144531 8.75 -8.0625 C 8.75 -6.90625 9.085938 -6.023438 9.765625 -5.421875 C 10.441406 -4.828125 11.390625 -4.53125 12.609375 -4.53125 Z M 12.609375 -4.53125 "/></g></g></g><g fill="#000000" fill-opacity="1"><g transform="translate(68.495818, 53.316493)"><g><path d="M 3.875 10.890625 L 3.875 -26.859375 L 10.625 -26.859375 L 10.625 -23.359375 L 11.125 -23.25 C 11.925781 -24.613281 12.988281 -25.640625 14.3125 -26.328125 C 15.644531 -27.023438 17.207031 -27.375 19 -27.375 C 21.15625 -27.375 23.039062 -26.859375 24.65625 -25.828125 C 26.269531 -24.804688 27.523438 -23.253906 28.421875 -21.171875 C 29.328125 -19.085938 29.78125 -16.503906 29.78125 -13.421875 C 29.78125 -10.347656 29.304688 -7.769531 28.359375 -5.6875 C 27.410156 -3.613281 26.09375 -2.0625 24.40625 -1.03125 C 22.71875 0 20.769531 0.515625 18.5625 0.515625 C 16.882812 0.515625 15.4375 0.234375 14.21875 -0.328125 C 13 -0.890625 11.96875 -1.765625 11.125 -2.953125 L 10.625 -2.84375 L 10.625 10.890625 Z M 16.6875 -5.21875 C 18.695312 -5.21875 20.21875 -5.875 21.25 -7.1875 C 22.289062 -8.5 22.8125 -10.578125 22.8125 -13.421875 C 22.8125 -16.265625 22.289062 -18.347656 21.25 -19.671875 C 20.21875 -20.992188 18.695312 -21.65625 16.6875 -21.65625 C 14.800781 -21.65625 13.304688 -20.972656 12.203125 -19.609375 C 11.097656 -18.242188 10.546875 -16.179688 10.546875 -13.421875 C 10.546875 -10.671875 11.097656 -8.613281 12.203125 -7.25 C 13.304688 -5.894531 14.800781 -5.21875 16.6875 -5.21875 Z M 16.6875 -5.21875 "/></g></g></g><g fill="#000000" fill-opacity="1"><g transform="translate(100.661071, 53.316493)"><g><path d="M 3.875 10.890625 L 3.875 -26.859375 L 10.625 -26.859375 L 10.625 -23.359375 L 11.125 -23.25 C 11.925781 -24.613281 12.988281 -25.640625 14.3125 -26.328125 C 15.644531 -27.023438 17.207031 -27.375 19 -27.375 C 21.15625 -27.375 23.039062 -26.859375 24.65625 -25.828125 C 26.269531 -24.804688 27.523438 -23.253906 28.421875 -21.171875 C 29.328125 -19.085938 29.78125 -16.503906 29.78125 -13.421875 C 29.78125 -10.347656 29.304688 -7.769531 28.359375 -5.6875 C 27.410156 -3.613281 26.09375 -2.0625 24.40625 -1.03125 C 22.71875 0 20.769531 0.515625 18.5625 0.515625 C 16.882812 0.515625 15.4375 0.234375 14.21875 -0.328125 C 13 -0.890625 11.96875 -1.765625 11.125 -2.953125 L 10.625 -2.84375 L 10.625 10.890625 Z M 16.6875 -5.21875 C 18.695312 -5.21875 20.21875 -5.875 21.25 -7.1875 C 22.289062 -8.5 22.8125 -10.578125 22.8125 -13.421875 C 22.8125 -16.265625 22.289062 -18.347656 21.25 -19.671875 C 20.21875 -20.992188 18.695312 -21.65625 16.6875 -21.65625 C 14.800781 -21.65625 13.304688 -20.972656 12.203125 -19.609375 C 11.097656 -18.242188 10.546875 -16.179688 10.546875 -13.421875 C 10.546875 -10.671875 11.097656 -8.613281 12.203125 -7.25 C 13.304688 -5.894531 14.800781 -5.21875 16.6875 -5.21875 Z M 16.6875 -5.21875 "/></g></g></g><g fill="#000000" fill-opacity="1"><g transform="translate(132.826325, 53.316493)"><g><path d="M 5.9375 11.390625 C 4.789062 11.390625 3.75 11.300781 2.8125 11.125 C 1.875 10.945312 1.113281 10.710938 0.53125 10.421875 L 1.609375 4.96875 L 2.046875 4.828125 C 2.453125 5.035156 2.953125 5.203125 3.546875 5.328125 C 4.148438 5.460938 4.769531 5.53125 5.40625 5.53125 C 6.488281 5.53125 7.390625 5.382812 8.109375 5.09375 C 8.835938 4.8125 9.453125 4.34375 9.953125 3.6875 C 10.460938 3.03125 10.910156 2.117188 11.296875 0.953125 L 0.578125 -26.859375 L 7.640625 -26.859375 L 14.3125 -8.1875 L 14.90625 -8.1875 L 21.40625 -26.859375 L 28.28125 -26.859375 L 17.484375 1.6875 C 16.617188 3.988281 15.671875 5.84375 14.640625 7.25 C 13.617188 8.65625 12.40625 9.695312 11 10.375 C 9.59375 11.050781 7.90625 11.390625 5.9375 11.390625 Z M 5.9375 11.390625 "/></g></g></g></g></g><g clip-path="url(#8fbeb61710)"><g clip-path="url(#aee0df956c)"><g clip-path="url(#b229740610)"><path fill="#f15e3d" d="M 50.605469 69.976562 L 322.171875 69.976562 L 322.171875 218.324219 L 50.605469 218.324219 Z M 50.605469 69.976562 " fill-opacity="1" fill-rule="nonzero"/></g></g></g><path fill="#000000" d="M 149.210938 92.375 C 148.53125 96.019531 148.96875 100.105469 149.019531 103.851562 C 149.066406 107.789062 149.210938 111.628906 149.554688 115.519531 C 149.894531 119.261719 156.273438 119.796875 157.054688 116.054688 C 157.980469 111.824219 158.417969 107.886719 158.320312 103.605469 C 158.175781 99.425781 158.027344 94.902344 156.421875 91.011719 C 155.789062 89.507812 153.839844 88.679688 152.328125 88.96875 C 150.527344 89.3125 149.554688 90.722656 149.210938 92.375 Z M 149.210938 92.375 " fill-opacity="1" fill-rule="nonzero"/><path fill="#000000" d="M 202.15625 91.109375 C 200.695312 94.027344 201.277344 98.355469 201.425781 101.5625 C 201.570312 105.308594 202.007812 108.761719 202.984375 112.359375 C 204.296875 117.269531 210.53125 116.539062 211.507812 111.871094 C 212.335938 107.980469 212.382812 104.433594 211.945312 100.496094 C 211.554688 96.945312 211.214844 92.714844 208.925781 89.796875 C 206.878906 87.21875 203.375 88.628906 202.15625 91.109375 Z M 202.15625 91.109375 " fill-opacity="1" fill-rule="nonzero"/><path fill="#000000" d="M 112.488281 152.8125 C 112.34375 160.15625 116.042969 167.058594 120.132812 172.941406 C 124.175781 178.726562 129.339844 183.785156 135.136719 187.820312 C 146.191406 195.503906 159.730469 199.878906 173.175781 200.460938 C 186.8125 201.046875 200.792969 198.226562 212.773438 191.613281 C 224.707031 185.050781 234.789062 175.375 242.144531 163.898438 C 246.1875 157.578125 249.449219 150.671875 251.738281 143.527344 C 252.957031 139.832031 253.929688 135.988281 254.5625 132.148438 C 255.148438 128.355469 255.925781 124.027344 254.710938 120.332031 C 253.539062 116.832031 249.253906 116.34375 247.597656 119.796875 C 246.285156 122.570312 246.136719 125.632812 245.503906 128.648438 C 244.871094 131.613281 244.1875 134.578125 243.3125 137.496094 C 241.65625 143.089844 239.414062 148.535156 236.542969 153.589844 C 230.746094 163.851562 222.757812 173.039062 212.824219 179.554688 C 193.144531 192.390625 166.550781 194.140625 145.511719 183.347656 C 139.375 180.1875 133.675781 175.957031 129 170.949219 C 123.691406 165.257812 120.671875 158.648438 117.019531 151.886719 C 115.945312 149.992188 112.535156 150.332031 112.488281 152.8125 Z M 112.488281 152.8125 " fill-opacity="1" fill-rule="nonzero"/></svg>