<svg xmlns="http://www.w3.org/2000/svg" xmlns:xlink="http://www.w3.org/1999/xlink" width="512" zoomAndPan="magnify" viewBox="0 0 384 383.999986" height="512" preserveAspectRatio="xMidYMid meet" version="1.0"><defs><g/><clipPath id="eb0ea7cf66"><path d="M 26.328125 51.539062 L 346.632812 51.539062 L 346.632812 245.386719 L 26.328125 245.386719 Z M 26.328125 51.539062 " clip-rule="nonzero"/></clipPath><clipPath id="c71bcf6235"><path d="M 76.578125 51.539062 L 296.019531 51.539062 C 309.34375 51.539062 322.125 56.832031 331.550781 66.257812 C 340.972656 75.679688 346.269531 88.460938 346.269531 101.789062 L 346.269531 195.136719 C 346.269531 208.464844 340.972656 221.246094 331.550781 230.667969 C 322.125 240.09375 309.34375 245.386719 296.019531 245.386719 L 76.578125 245.386719 C 63.25 245.386719 50.46875 240.09375 41.042969 230.667969 C 31.621094 221.246094 26.328125 208.464844 26.328125 195.136719 L 26.328125 101.789062 C 26.328125 88.460938 31.621094 75.679688 41.042969 66.257812 C 50.46875 56.832031 63.25 51.539062 76.578125 51.539062 Z M 76.578125 51.539062 " clip-rule="nonzero"/></clipPath><clipPath id="fd40a5ffc5"><path d="M 0.328125 0.539062 L 320.320312 0.539062 L 320.320312 194.386719 L 0.328125 194.386719 Z M 0.328125 0.539062 " clip-rule="nonzero"/></clipPath><clipPath id="4f2c9c0e3f"><path d="M 50.578125 0.539062 L 270.019531 0.539062 C 283.34375 0.539062 296.125 5.832031 305.550781 15.257812 C 314.972656 24.679688 320.269531 37.460938 320.269531 50.789062 L 320.269531 144.136719 C 320.269531 157.464844 314.972656 170.246094 305.550781 179.667969 C 296.125 189.09375 283.34375 194.386719 270.019531 194.386719 L 50.578125 194.386719 C 37.25 194.386719 24.46875 189.09375 15.042969 179.667969 C 5.621094 170.246094 0.328125 157.464844 0.328125 144.136719 L 0.328125 50.789062 C 0.328125 37.460938 5.621094 24.679688 15.042969 15.257812 C 24.46875 5.832031 37.25 0.539062 50.578125 0.539062 Z M 50.578125 0.539062 " clip-rule="nonzero"/></clipPath><clipPath id="1bc1ce18ff"><rect x="0" width="321" y="0" height="195"/></clipPath><clipPath id="ec36c1518d"><rect x="0" width="215" y="0" height="69"/></clipPath><clipPath id="da777fa443"><path d="M 48.941406 74.269531 L 320.234375 74.269531 L 320.234375 222.390625 L 48.941406 222.390625 Z M 48.941406 74.269531 " clip-rule="nonzero"/></clipPath><clipPath id="15c471d203"><path d="M 53.144531 74.269531 L 316.011719 74.269531 C 317.125 74.269531 318.195312 74.710938 318.984375 75.5 C 319.769531 76.285156 320.214844 77.355469 320.214844 78.46875 L 320.214844 218.195312 C 320.214844 219.308594 319.769531 220.375 318.984375 221.164062 C 318.195312 221.949219 317.125 222.390625 316.011719 222.390625 L 53.144531 222.390625 C 52.027344 222.390625 50.957031 221.949219 50.171875 221.164062 C 49.382812 220.375 48.941406 219.308594 48.941406 218.195312 L 48.941406 78.46875 C 48.941406 77.355469 49.382812 76.285156 50.171875 75.5 C 50.957031 74.710938 52.027344 74.269531 53.144531 74.269531 Z M 53.144531 74.269531 " clip-rule="nonzero"/></clipPath><clipPath id="07a86f7d56"><path d="M 53.144531 74.269531 L 316.011719 74.269531 C 317.125 74.269531 318.195312 74.710938 318.984375 75.5 C 319.769531 76.285156 320.214844 77.355469 320.214844 78.46875 L 320.214844 218.195312 C 320.214844 219.308594 319.769531 220.375 318.984375 221.164062 C 318.195312 221.949219 317.125 222.390625 316.011719 222.390625 L 53.144531 222.390625 C 52.027344 222.390625 50.957031 221.949219 50.171875 221.164062 C 49.382812 220.375 48.941406 219.308594 48.941406 218.195312 L 48.941406 78.46875 C 48.941406 77.355469 49.382812 76.285156 50.171875 75.5 C 50.957031 74.710938 52.027344 74.269531 53.144531 74.269531 Z M 53.144531 74.269531 " clip-rule="nonzero"/></clipPath><clipPath id="e09a567ef2"><path d="M 124.511719 138.128906 L 235 138.128906 L 235 211.367188 L 124.511719 211.367188 Z M 124.511719 138.128906 " clip-rule="nonzero"/></clipPath><clipPath id="4aec28b4ee"><path d="M 203.367188 77.316406 L 244.679688 77.316406 L 244.679688 136.152344 L 203.367188 136.152344 Z M 203.367188 77.316406 " clip-rule="nonzero"/></clipPath></defs><g clip-path="url(#eb0ea7cf66)"><g clip-path="url(#c71bcf6235)"><g transform="matrix(1, 0, 0, 1, 26, 51)"><g clip-path="url(#1bc1ce18ff)"><g clip-path="url(#fd40a5ffc5)"><g clip-path="url(#4f2c9c0e3f)"><path fill="#f15e3d" d="M 0.328125 0.539062 L 320.632812 0.539062 L 320.632812 194.386719 L 0.328125 194.386719 Z M 0.328125 0.539062 " fill-opacity="1" fill-rule="nonzero"/></g></g></g></g></g></g><g transform="matrix(1, 0, 0, 1, 79, 269)"><g clip-path="url(#ec36c1518d)"><g fill="#000000" fill-opacity="1"><g transform="translate(0.946055, 53.316493)"><g><path d="M 11.671875 0 L 4.625 0 L 4.625 -35.609375 L 11.671875 -35.609375 Z M 11.671875 0 "/></g></g></g><g fill="#000000" fill-opacity="1"><g transform="translate(17.259999, 53.316493)"><g><path d="M 3.875 0 L 3.875 -26.859375 L 10.34375 -26.859375 L 10.34375 -22.921875 L 10.859375 -22.796875 C 12.535156 -25.847656 15.25 -27.375 19 -27.375 C 22.09375 -27.375 24.363281 -26.53125 25.8125 -24.84375 C 27.269531 -23.15625 28 -20.695312 28 -17.46875 L 28 0 L 21.265625 0 L 21.265625 -16.640625 C 21.265625 -18.421875 20.90625 -19.703125 20.1875 -20.484375 C 19.46875 -21.273438 18.320312 -21.671875 16.75 -21.671875 C 14.820312 -21.671875 13.316406 -21.046875 12.234375 -19.796875 C 11.160156 -18.546875 10.625 -16.582031 10.625 -13.90625 L 10.625 0 Z M 3.875 0 "/></g></g></g><g fill="#000000" fill-opacity="1"><g transform="translate(48.719127, 53.316493)"><g><path d="M 12.5625 0.515625 C 10.726562 0.515625 9.046875 0.300781 7.515625 -0.125 C 5.992188 -0.5625 4.691406 -1.15625 3.609375 -1.90625 C 2.535156 -2.664062 1.738281 -3.53125 1.21875 -4.5 L 4.96875 -8.546875 L 5.484375 -8.546875 C 6.367188 -7.347656 7.421875 -6.445312 8.640625 -5.84375 C 9.859375 -5.238281 11.179688 -4.9375 12.609375 -4.9375 C 13.929688 -4.9375 14.921875 -5.171875 15.578125 -5.640625 C 16.242188 -6.117188 16.578125 -6.796875 16.578125 -7.671875 C 16.578125 -8.347656 16.335938 -8.914062 15.859375 -9.375 C 15.378906 -9.84375 14.609375 -10.207031 13.546875 -10.46875 L 9.984375 -11.328125 C 7.316406 -11.960938 5.367188 -12.929688 4.140625 -14.234375 C 2.921875 -15.535156 2.3125 -17.195312 2.3125 -19.21875 C 2.3125 -20.882812 2.738281 -22.332031 3.59375 -23.5625 C 4.445312 -24.800781 5.644531 -25.742188 7.1875 -26.390625 C 8.738281 -27.046875 10.546875 -27.375 12.609375 -27.375 C 15.035156 -27.375 17.039062 -27.023438 18.625 -26.328125 C 20.21875 -25.628906 21.460938 -24.695312 22.359375 -23.53125 L 18.75 -19.625 L 18.265625 -19.625 C 17.515625 -20.46875 16.671875 -21.082031 15.734375 -21.46875 C 14.804688 -21.863281 13.765625 -22.0625 12.609375 -22.0625 C 9.953125 -22.0625 8.625 -21.234375 8.625 -19.578125 C 8.625 -18.878906 8.867188 -18.3125 9.359375 -17.875 C 9.859375 -17.4375 10.734375 -17.078125 11.984375 -16.796875 L 15.296875 -16.078125 C 18.023438 -15.492188 20.015625 -14.554688 21.265625 -13.265625 C 22.523438 -11.972656 23.15625 -10.238281 23.15625 -8.0625 C 23.15625 -6.351562 22.734375 -4.847656 21.890625 -3.546875 C 21.046875 -2.253906 19.828125 -1.253906 18.234375 -0.546875 C 16.648438 0.160156 14.757812 0.515625 12.5625 0.515625 Z M 12.5625 0.515625 "/></g></g></g><g fill="#000000" fill-opacity="1"><g transform="translate(73.482233, 53.316493)"><g><path d="M 3.875 10.890625 L 3.875 -26.859375 L 10.625 -26.859375 L 10.625 -23.359375 L 11.125 -23.25 C 11.925781 -24.613281 12.988281 -25.640625 14.3125 -26.328125 C 15.644531 -27.023438 17.207031 -27.375 19 -27.375 C 21.15625 -27.375 23.039062 -26.859375 24.65625 -25.828125 C 26.269531 -24.804688 27.523438 -23.253906 28.421875 -21.171875 C 29.328125 -19.085938 29.78125 -16.503906 29.78125 -13.421875 C 29.78125 -10.347656 29.304688 -7.769531 28.359375 -5.6875 C 27.410156 -3.613281 26.09375 -2.0625 24.40625 -1.03125 C 22.71875 0 20.769531 0.515625 18.5625 0.515625 C 16.882812 0.515625 15.4375 0.234375 14.21875 -0.328125 C 13 -0.890625 11.96875 -1.765625 11.125 -2.953125 L 10.625 -2.84375 L 10.625 10.890625 Z M 16.6875 -5.21875 C 18.695312 -5.21875 20.21875 -5.875 21.25 -7.1875 C 22.289062 -8.5 22.8125 -10.578125 22.8125 -13.421875 C 22.8125 -16.265625 22.289062 -18.347656 21.25 -19.671875 C 20.21875 -20.992188 18.695312 -21.65625 16.6875 -21.65625 C 14.800781 -21.65625 13.304688 -20.972656 12.203125 -19.609375 C 11.097656 -18.242188 10.546875 -16.179688 10.546875 -13.421875 C 10.546875 -10.671875 11.097656 -8.613281 12.203125 -7.25 C 13.304688 -5.894531 14.800781 -5.21875 16.6875 -5.21875 Z M 16.6875 -5.21875 "/></g></g></g><g fill="#000000" fill-opacity="1"><g transform="translate(105.647487, 53.316493)"><g><path d="M 7.234375 -30.078125 C 6.015625 -30.078125 5.023438 -30.445312 4.265625 -31.1875 C 3.503906 -31.925781 3.125 -32.878906 3.125 -34.046875 C 3.125 -35.203125 3.503906 -36.144531 4.265625 -36.875 C 5.023438 -37.613281 6.015625 -37.984375 7.234375 -37.984375 C 8.046875 -37.984375 8.765625 -37.8125 9.390625 -37.46875 C 10.023438 -37.132812 10.515625 -36.671875 10.859375 -36.078125 C 11.210938 -35.484375 11.390625 -34.804688 11.390625 -34.046875 C 11.390625 -33.285156 11.210938 -32.601562 10.859375 -32 C 10.515625 -31.394531 10.023438 -30.921875 9.390625 -30.578125 C 8.765625 -30.242188 8.046875 -30.078125 7.234375 -30.078125 Z M 3.875 0 L 3.875 -26.859375 L 10.625 -26.859375 L 10.625 0 Z M 3.875 0 "/></g></g></g><g fill="#000000" fill-opacity="1"><g transform="translate(120.110894, 53.316493)"><g><path d="M 3.875 0 L 3.875 -26.859375 L 10.421875 -26.859375 L 10.421875 -22.875 L 10.9375 -22.765625 C 11.582031 -24.265625 12.429688 -25.363281 13.484375 -26.0625 C 14.546875 -26.757812 15.832031 -27.109375 17.34375 -27.109375 C 18.863281 -27.109375 20.023438 -26.847656 20.828125 -26.328125 L 19.671875 -20.5 L 19.171875 -20.40625 C 18.734375 -20.582031 18.3125 -20.710938 17.90625 -20.796875 C 17.5 -20.878906 17 -20.921875 16.40625 -20.921875 C 14.53125 -20.921875 13.097656 -20.257812 12.109375 -18.9375 C 11.117188 -17.613281 10.625 -15.488281 10.625 -12.5625 L 10.625 0 Z M 3.875 0 "/></g></g></g><g fill="#000000" fill-opacity="1"><g transform="translate(140.466747, 53.316493)"><g><path d="M 26.546875 -11.90625 L 9.28125 -11.90625 C 9.476562 -9.570312 10.144531 -7.875 11.28125 -6.8125 C 12.414062 -5.75 13.960938 -5.21875 15.921875 -5.21875 C 17.460938 -5.21875 18.710938 -5.503906 19.671875 -6.078125 C 20.628906 -6.648438 21.398438 -7.519531 21.984375 -8.6875 L 22.5 -8.6875 L 26.984375 -5.828125 C 26.109375 -3.941406 24.785156 -2.410156 23.015625 -1.234375 C 21.242188 -0.0664062 18.878906 0.515625 15.921875 0.515625 C 13.148438 0.515625 10.753906 -0.0078125 8.734375 -1.0625 C 6.710938 -2.125 5.148438 -3.695312 4.046875 -5.78125 C 2.953125 -7.863281 2.40625 -10.410156 2.40625 -13.421875 C 2.40625 -16.472656 2.984375 -19.046875 4.140625 -21.140625 C 5.296875 -23.234375 6.851562 -24.796875 8.8125 -25.828125 C 10.78125 -26.859375 12.988281 -27.375 15.4375 -27.375 C 19.238281 -27.375 22.148438 -26.363281 24.171875 -24.34375 C 26.191406 -22.332031 27.203125 -19.378906 27.203125 -15.484375 C 27.203125 -14.078125 27.15625 -12.984375 27.0625 -12.203125 Z M 20.75 -16.265625 C 20.6875 -18.316406 20.210938 -19.804688 19.328125 -20.734375 C 18.441406 -21.671875 17.144531 -22.140625 15.4375 -22.140625 C 12.03125 -22.140625 10.023438 -20.179688 9.421875 -16.265625 Z M 20.75 -16.265625 "/></g></g></g><g fill="#000000" fill-opacity="1"><g transform="translate(169.661403, 53.316493)"><g><path d="M 13.265625 0.515625 C 11.140625 0.515625 9.257812 0 7.625 -1.03125 C 6 -2.0625 4.722656 -3.617188 3.796875 -5.703125 C 2.867188 -7.796875 2.40625 -10.367188 2.40625 -13.421875 C 2.40625 -16.484375 2.878906 -19.054688 3.828125 -21.140625 C 4.785156 -23.234375 6.101562 -24.796875 7.78125 -25.828125 C 9.457031 -26.859375 11.398438 -27.375 13.609375 -27.375 C 15.285156 -27.375 16.734375 -27.082031 17.953125 -26.5 C 19.179688 -25.925781 20.21875 -25.03125 21.0625 -23.8125 L 21.578125 -23.9375 L 21.578125 -37.65625 L 28.328125 -37.65625 L 28.328125 0 L 21.578125 0 L 21.578125 -3.484375 L 21.0625 -3.578125 C 20.3125 -2.316406 19.285156 -1.316406 17.984375 -0.578125 C 16.691406 0.148438 15.117188 0.515625 13.265625 0.515625 Z M 15.46875 -5.21875 C 17.363281 -5.21875 18.863281 -5.894531 19.96875 -7.25 C 21.070312 -8.601562 21.625 -10.660156 21.625 -13.421875 C 21.625 -16.179688 21.070312 -18.242188 19.96875 -19.609375 C 18.863281 -20.972656 17.363281 -21.65625 15.46875 -21.65625 C 13.488281 -21.65625 11.972656 -20.992188 10.921875 -19.671875 C 9.878906 -18.347656 9.359375 -16.265625 9.359375 -13.421875 C 9.359375 -10.597656 9.878906 -8.523438 10.921875 -7.203125 C 11.972656 -5.878906 13.488281 -5.21875 15.46875 -5.21875 Z M 15.46875 -5.21875 "/></g></g></g><g fill="#000000" fill-opacity="1"><g transform="translate(201.857506, 53.316493)"><g/></g></g></g></g><g clip-path="url(#da777fa443)"><g clip-path="url(#15c471d203)"><g clip-path="url(#07a86f7d56)"><path fill="#f15e3d" d="M 48.941406 74.269531 L 320.148438 74.269531 L 320.148438 222.390625 L 48.941406 222.390625 Z M 48.941406 74.269531 " fill-opacity="1" fill-rule="nonzero"/></g></g></g><g clip-path="url(#e09a567ef2)"><path fill="#000000" d="M 231.46875 141.148438 C 227.171875 137.105469 220.15625 137.328125 215.832031 141.648438 L 207.027344 150.433594 C 203.242188 154.214844 198.210938 156.292969 192.855469 156.292969 L 166.632812 156.292969 C 161.28125 156.292969 156.246094 154.214844 152.460938 150.433594 L 143.660156 141.648438 C 139.332031 137.332031 132.320312 137.105469 128.019531 141.148438 C 125.820312 143.214844 124.589844 146.007812 124.542969 149.015625 C 124.496094 152.023438 125.644531 154.851562 127.777344 156.980469 L 154.160156 183.324219 L 155.609375 200.160156 C 156.160156 206.550781 161.421875 211.371094 167.847656 211.371094 L 191.550781 211.371094 C 197.976562 211.371094 203.238281 206.550781 203.789062 200.15625 L 205.238281 183.261719 L 231.710938 156.980469 C 233.84375 154.851562 234.988281 152.023438 234.945312 149.015625 C 234.902344 146.007812 233.664062 143.214844 231.46875 141.148438 Z M 228.652344 153.917969 L 201.625 180.753906 C 201.261719 181.117188 201.035156 181.59375 200.992188 182.105469 L 199.476562 199.785156 C 199.121094 203.925781 195.714844 207.046875 191.550781 207.046875 L 167.851562 207.046875 C 163.6875 207.046875 160.28125 203.925781 159.925781 199.789062 L 158.410156 182.164062 C 158.363281 181.65625 158.144531 181.183594 157.78125 180.820312 L 130.839844 153.921875 C 129.546875 152.628906 128.847656 150.910156 128.875 149.078125 C 128.902344 147.25 129.65625 145.554688 130.988281 144.296875 C 132.21875 143.140625 133.828125 142.566406 135.46875 142.566406 C 137.304688 142.566406 139.179688 143.289062 140.597656 144.707031 L 149.398438 153.492188 C 154.003906 158.089844 160.125 160.621094 166.636719 160.621094 L 192.859375 160.621094 C 199.367188 160.621094 205.488281 158.089844 210.089844 153.492188 L 218.894531 144.707031 C 221.578125 142.023438 225.890625 141.84375 228.5 144.296875 C 229.835938 145.554688 230.585938 147.253906 230.617188 149.082031 C 230.640625 150.910156 229.945312 152.628906 228.65625 153.917969 Z M 228.652344 153.917969 " fill-opacity="1" fill-rule="nonzero"/></g><path fill="#000000" d="M 179.746094 154.039062 C 190.898438 154.039062 199.972656 144.980469 199.972656 133.847656 C 199.972656 122.710938 190.898438 113.652344 179.746094 113.652344 C 168.59375 113.652344 159.519531 122.710938 159.519531 133.847656 C 159.519531 144.980469 168.59375 154.039062 179.746094 154.039062 Z M 179.746094 117.976562 C 188.507812 117.976562 195.640625 125.097656 195.640625 133.847656 C 195.640625 142.597656 188.507812 149.714844 179.746094 149.714844 C 170.980469 149.714844 163.851562 142.597656 163.851562 133.847656 C 163.851562 125.097656 170.980469 117.976562 179.746094 117.976562 Z M 179.746094 117.976562 " fill-opacity="1" fill-rule="nonzero"/><g clip-path="url(#4aec28b4ee)"><path fill="#000000" d="M 244.648438 97.902344 C 244.648438 92.054688 242.148438 86.460938 237.78125 82.558594 C 233.425781 78.664062 227.570312 76.796875 221.699219 77.441406 C 212.039062 78.507812 204.386719 86.300781 203.503906 95.972656 C 203.039062 101.058594 204.445312 106.097656 207.46875 110.160156 C 209.773438 113.261719 211.191406 116.730469 211.578125 120.214844 C 211.121094 120.980469 210.859375 121.875 210.859375 122.828125 L 210.859375 122.988281 C 210.859375 125.816406 213.164062 128.117188 215.996094 128.117188 L 216.148438 128.117188 L 216.148438 128.289062 C 216.148438 132.546875 219.617188 136.007812 223.882812 136.007812 L 224.183594 136.007812 C 228.445312 136.007812 231.914062 132.546875 231.914062 128.289062 L 231.914062 128.117188 L 232.070312 128.117188 C 234.902344 128.117188 237.207031 125.816406 237.207031 122.988281 L 237.207031 122.828125 C 237.207031 121.875 236.945312 120.984375 236.492188 120.21875 C 236.933594 116.539062 238.265625 113.183594 240.355469 110.480469 C 243.164062 106.851562 244.648438 102.5 244.648438 97.902344 Z M 227.582031 128.289062 C 227.582031 130.160156 226.058594 131.683594 224.183594 131.683594 L 223.882812 131.683594 C 222.007812 131.683594 220.480469 130.160156 220.480469 128.289062 L 220.480469 128.117188 L 227.582031 128.117188 Z M 232.875 122.988281 C 232.875 123.433594 232.515625 123.792969 232.070312 123.792969 L 215.996094 123.792969 C 215.550781 123.792969 215.191406 123.433594 215.191406 122.988281 L 215.191406 122.828125 C 215.191406 122.703125 215.21875 122.582031 215.273438 122.476562 C 215.382812 122.375 215.480469 122.265625 215.566406 122.148438 C 215.691406 122.070312 215.835938 122.023438 215.996094 122.023438 L 232.070312 122.023438 C 232.230469 122.023438 232.378906 122.074219 232.503906 122.152344 C 232.589844 122.265625 232.683594 122.371094 232.789062 122.464844 C 232.84375 122.574219 232.875 122.699219 232.875 122.828125 Z M 236.925781 107.835938 C 234.746094 110.65625 233.238281 114.035156 232.503906 117.71875 C 232.363281 117.707031 232.21875 117.699219 232.070312 117.699219 L 229.96875 117.699219 L 229.96875 107.097656 L 234.429688 101.523438 C 235.175781 100.589844 235.023438 99.230469 234.089844 98.484375 C 233.152344 97.738281 231.789062 97.890625 231.046875 98.824219 L 226.113281 104.992188 C 225.804688 105.375 225.636719 105.851562 225.636719 106.339844 L 225.636719 117.699219 L 222.425781 117.699219 L 222.425781 106.339844 C 222.425781 105.851562 222.261719 105.375 221.953125 104.992188 L 217.019531 98.824219 C 216.273438 97.894531 214.910156 97.738281 213.976562 98.484375 C 213.042969 99.230469 212.886719 100.589844 213.636719 101.523438 L 218.09375 107.097656 L 218.09375 117.699219 L 215.996094 117.699219 C 215.847656 117.699219 215.707031 117.707031 215.5625 117.71875 C 214.839844 114.171875 213.265625 110.707031 210.945312 107.582031 C 208.558594 104.375 207.445312 100.390625 207.816406 96.367188 C 208.515625 88.734375 214.550781 82.582031 222.171875 81.742188 C 226.878906 81.214844 231.398438 82.65625 234.890625 85.78125 C 238.339844 88.863281 240.316406 93.28125 240.316406 97.902344 C 240.316406 101.535156 239.144531 104.96875 236.925781 107.835938 Z M 236.925781 107.835938 " fill-opacity="1" fill-rule="nonzero"/></g></svg>