<svg xmlns="http://www.w3.org/2000/svg" xmlns:xlink="http://www.w3.org/1999/xlink" width="2560" zoomAndPan="magnify" viewBox="0 0 1920 1079.999946" height="1440" preserveAspectRatio="xMidYMid meet" version="1.0"><defs><clipPath id="186c38bd94"><path d="M 194.632812 121.441406 L 1726 121.441406 L 1726 958.558594 L 194.632812 958.558594 Z M 194.632812 121.441406 " clip-rule="nonzero"/></clipPath><clipPath id="c78a40630b"><path d="M 220.132812 121.441406 L 1699.867188 121.441406 C 1713.949219 121.441406 1725.367188 132.855469 1725.367188 146.941406 L 1725.367188 933.058594 C 1725.367188 947.144531 1713.949219 958.558594 1699.867188 958.558594 L 220.132812 958.558594 C 206.050781 958.558594 194.632812 947.144531 194.632812 933.058594 L 194.632812 146.941406 C 194.632812 132.855469 206.050781 121.441406 220.132812 121.441406 Z M 220.132812 121.441406 " clip-rule="nonzero"/></clipPath><clipPath id="f1e55b0224"><path d="M 0.632812 0.441406 L 1531 0.441406 L 1531 837.558594 L 0.632812 837.558594 Z M 0.632812 0.441406 " clip-rule="nonzero"/></clipPath><clipPath id="15edcc4285"><path d="M 26.132812 0.441406 L 1505.867188 0.441406 C 1519.949219 0.441406 1531.367188 11.855469 1531.367188 25.941406 L 1531.367188 812.058594 C 1531.367188 826.144531 1519.949219 837.558594 1505.867188 837.558594 L 26.132812 837.558594 C 12.050781 837.558594 0.632812 826.144531 0.632812 812.058594 L 0.632812 25.941406 C 0.632812 11.855469 12.050781 0.441406 26.132812 0.441406 Z M 26.132812 0.441406 " clip-rule="nonzero"/></clipPath><clipPath id="f489e60bad"><rect x="0" width="1532" y="0" height="838"/></clipPath><clipPath id="63154c2a7c"><path d="M 653 184.277344 L 903 184.277344 L 903 378 L 653 378 Z M 653 184.277344 " clip-rule="nonzero"/></clipPath><clipPath id="673a17a939"><path d="M 561 540 L 1358 540 L 1358 811.277344 L 561 811.277344 Z M 561 540 " clip-rule="nonzero"/></clipPath></defs><g clip-path="url(#186c38bd94)"><g clip-path="url(#c78a40630b)"><g transform="matrix(1, 0, 0, 1, 194, 121)"><g clip-path="url(#f489e60bad)"><g clip-path="url(#f1e55b0224)"><g clip-path="url(#15edcc4285)"><path fill="#f15e3d" d="M 0.632812 0.441406 L 1530.992188 0.441406 L 1530.992188 837.558594 L 0.632812 837.558594 Z M 0.632812 0.441406 " fill-opacity="1" fill-rule="nonzero"/></g></g></g></g></g></g><path fill="#000000" d="M 1046.722656 383.652344 L 1042.316406 377.175781 C 1041.960938 376.652344 1041.628906 376.113281 1041.320312 375.5625 L 1037.484375 368.734375 C 1037.175781 368.179688 1036.890625 367.617188 1036.628906 367.039062 L 1033.394531 359.90625 C 1033.132812 359.328125 1032.894531 358.742188 1032.683594 358.144531 L 1030.070312 350.761719 C 1029.859375 350.164062 1029.675781 349.558594 1029.515625 348.945312 L 1027.546875 341.363281 C 1027.386719 340.75 1027.253906 340.132812 1027.148438 339.507812 L 1025.835938 331.785156 C 1025.730469 331.160156 1025.652344 330.53125 1025.597656 329.902344 L 1024.953125 322.09375 C 1024.898438 321.464844 1024.875 320.832031 1024.878906 320.199219 L 1024.902344 312.367188 C 1024.902344 311.730469 1024.933594 311.097656 1024.988281 310.46875 L 1025.6875 302.664062 C 1025.742188 302.035156 1025.824219 301.40625 1025.933594 300.785156 L 1027.296875 293.070312 C 1027.40625 292.445312 1027.542969 291.828125 1027.707031 291.214844 L 1029.726562 283.648438 C 1029.886719 283.035156 1030.078125 282.429688 1030.292969 281.835938 L 1032.953125 274.46875 C 1033.167969 273.871094 1033.40625 273.285156 1033.671875 272.710938 L 1036.953125 265.601562 C 1037.21875 265.023438 1037.507812 264.460938 1037.820312 263.910156 L 1041.699219 257.105469 C 1042.011719 256.558594 1042.347656 256.019531 1042.707031 255.5 L 1047.152344 249.054688 C 1047.511719 248.53125 1047.894531 248.027344 1048.296875 247.539062 L 1053.277344 241.5 C 1053.683594 241.007812 1054.105469 240.539062 1054.550781 240.085938 L 1060.03125 234.496094 C 1060.472656 234.042969 1060.9375 233.609375 1061.417969 233.199219 L 1067.355469 228.097656 C 1067.835938 227.6875 1068.332031 227.292969 1068.847656 226.925781 L 1075.203125 222.355469 C 1075.714844 221.984375 1076.246094 221.636719 1076.789062 221.3125 L 1083.511719 217.304688 C 1084.054688 216.980469 1084.613281 216.679688 1085.183594 216.402344 L 1092.226562 212.984375 C 1092.792969 212.710938 1093.375 212.457031 1093.964844 212.230469 L 1101.273438 209.429688 C 1101.867188 209.203125 1102.464844 209.003906 1103.074219 208.828125 L 1110.59375 206.667969 C 1111.203125 206.492188 1111.816406 206.34375 1112.4375 206.222656 L 1120.097656 204.714844 C 1120.71875 204.59375 1121.34375 204.5 1121.96875 204.429688 L 1129.730469 203.585938 C 1130.359375 203.515625 1130.988281 203.476562 1131.621094 203.460938 L 1139.425781 203.285156 C 1140.054688 203.269531 1140.6875 203.28125 1141.316406 203.324219 L 1149.109375 203.816406 C 1149.738281 203.855469 1150.367188 203.921875 1150.988281 204.015625 L 1158.710938 205.171875 C 1159.335938 205.265625 1159.957031 205.386719 1160.570312 205.53125 L 1168.164062 207.347656 C 1168.777344 207.492188 1169.382812 207.667969 1169.984375 207.867188 L 1177.394531 210.324219 C 1177.992188 210.523438 1178.585938 210.746094 1179.164062 210.996094 L 1186.335938 214.078125 C 1186.917969 214.328125 1187.488281 214.601562 1188.042969 214.898438 L 1194.925781 218.585938 C 1195.484375 218.882812 1196.027344 219.207031 1196.558594 219.550781 L 1203.101562 223.8125 C 1203.628906 224.15625 1204.144531 224.523438 1204.640625 224.914062 L 1210.796875 229.71875 C 1211.292969 230.109375 1211.773438 230.519531 1212.234375 230.949219 L 1217.957031 236.265625 C 1218.421875 236.695312 1218.863281 237.144531 1219.289062 237.613281 L 1224.535156 243.398438 C 1224.960938 243.867188 1225.363281 244.351562 1225.746094 244.855469 L 1230.480469 251.070312 C 1230.863281 251.570312 1231.222656 252.089844 1231.5625 252.625 L 1235.746094 259.222656 C 1236.082031 259.753906 1236.398438 260.300781 1236.691406 260.863281 L 1240.296875 267.792969 C 1240.585938 268.355469 1240.851562 268.925781 1241.097656 269.507812 L 1244.09375 276.722656 C 1244.339844 277.308594 1244.554688 277.902344 1244.746094 278.503906 L 1247.117188 285.949219 C 1247.308594 286.550781 1247.476562 287.160156 1247.617188 287.777344 L 1249.34375 295.398438 C 1249.480469 296.011719 1249.59375 296.632812 1249.683594 297.257812 L 1250.75 305 C 1250.835938 305.625 1250.898438 306.257812 1250.929688 306.886719 L 1251.332031 314.691406 C 1251.363281 315.320312 1251.371094 315.953125 1251.351562 316.585938 L 1251.085938 324.394531 C 1251.0625 325.027344 1251.015625 325.65625 1250.941406 326.285156 L 1250.007812 334.042969 C 1248.550781 346.171875 1237.546875 354.824219 1225.425781 353.367188 C 1213.308594 351.910156 1204.664062 340.894531 1206.121094 328.761719 L 1207.050781 321.003906 L 1206.90625 322.894531 L 1207.171875 315.082031 L 1207.1875 316.976562 L 1206.785156 309.171875 L 1206.964844 311.058594 L 1205.894531 303.320312 L 1206.234375 305.183594 L 1204.507812 297.5625 L 1205.003906 299.390625 L 1202.632812 291.945312 L 1203.285156 293.722656 L 1200.285156 286.507812 L 1201.085938 288.222656 L 1197.480469 281.292969 L 1198.425781 282.933594 L 1194.242188 276.335938 L 1195.324219 277.890625 L 1190.589844 271.675781 L 1191.800781 273.132812 L 1186.554688 267.34375 L 1187.886719 268.691406 L 1182.164062 263.375 L 1183.605469 264.601562 L 1177.449219 259.796875 L 1178.988281 260.894531 L 1172.445312 256.632812 L 1174.074219 257.597656 L 1167.191406 253.914062 L 1168.894531 254.734375 L 1161.722656 251.648438 L 1163.492188 252.320312 L 1156.082031 249.863281 L 1157.902344 250.382812 L 1150.304688 248.566406 L 1152.164062 248.929688 L 1144.445312 247.773438 L 1146.324219 247.972656 L 1138.53125 247.480469 L 1140.425781 247.519531 L 1132.621094 247.695312 L 1134.507812 247.570312 L 1126.746094 248.414062 L 1128.617188 248.128906 L 1120.957031 249.636719 L 1122.800781 249.191406 L 1115.277344 251.355469 L 1117.078125 250.75 L 1109.769531 253.550781 L 1111.507812 252.796875 L 1104.464844 256.214844 L 1106.136719 255.3125 L 1099.414062 259.324219 L 1101 258.28125 L 1094.644531 262.855469 L 1096.136719 261.679688 L 1090.195312 266.78125 L 1091.582031 265.484375 L 1086.101562 271.074219 L 1087.371094 269.664062 L 1082.386719 275.703125 L 1083.53125 274.191406 L 1079.085938 280.636719 L 1080.09375 279.027344 L 1076.21875 285.832031 L 1077.085938 284.144531 L 1073.804688 291.257812 L 1074.527344 289.5 L 1071.867188 296.867188 L 1072.433594 295.054688 L 1070.417969 302.625 L 1070.828125 300.769531 L 1069.464844 308.484375 L 1069.714844 306.601562 L 1069.019531 314.402344 L 1069.105469 312.507812 L 1069.082031 320.339844 L 1069.007812 318.441406 L 1069.652344 326.25 L 1069.414062 324.363281 L 1070.726562 332.085938 L 1070.328125 330.230469 L 1072.296875 337.8125 L 1071.742188 335.996094 L 1074.355469 343.378906 L 1073.644531 341.621094 L 1076.878906 348.753906 L 1076.023438 347.058594 L 1079.855469 353.886719 L 1078.855469 352.273438 L 1083.261719 358.75 C 1090.132812 368.847656 1087.519531 382.609375 1077.429688 389.484375 C 1067.339844 396.363281 1053.59375 393.75 1046.722656 383.652344 Z M 1046.722656 383.652344 " fill-opacity="1" fill-rule="nonzero"/><g clip-path="url(#63154c2a7c)"><path fill="#000000" d="M 849.777344 346.589844 L 853.046875 338.925781 L 852.421875 340.578125 L 855.070312 332.675781 L 854.574219 334.371094 L 856.589844 326.289062 L 856.230469 328.015625 L 857.589844 319.796875 L 857.371094 321.550781 L 858.074219 313.246094 L 857.996094 315.011719 L 858.03125 306.679688 L 858.097656 308.445312 L 857.46875 300.136719 L 857.671875 301.890625 L 856.382812 293.660156 L 856.726562 295.390625 L 854.785156 287.289062 L 855.265625 288.988281 L 852.6875 281.066406 L 853.300781 282.722656 L 850.097656 275.03125 L 850.839844 276.632812 L 847.035156 269.222656 L 847.902344 270.761719 L 843.519531 263.675781 L 844.507812 265.140625 L 839.574219 258.429688 L 840.675781 259.808594 L 835.222656 253.515625 L 836.429688 254.804688 L 830.492188 248.964844 L 831.800781 250.148438 L 825.414062 244.804688 L 826.8125 245.882812 L 820.019531 241.0625 L 821.5 242.027344 L 814.347656 237.765625 L 815.898438 238.605469 L 808.429688 234.929688 L 810.042969 235.644531 L 802.300781 232.578125 L 803.996094 233.167969 L 795.78125 230.664062 L 797.542969 231.121094 L 789.152344 229.300781 L 790.945312 229.613281 L 782.429688 228.488281 L 784.242188 228.652344 L 775.667969 228.234375 L 777.488281 228.246094 L 768.90625 228.535156 L 770.722656 228.398438 L 762.191406 229.394531 L 763.988281 229.109375 L 755.570312 230.804688 L 757.339844 230.371094 L 749.089844 232.753906 L 750.816406 232.175781 L 742.789062 235.230469 L 744.460938 234.511719 L 736.714844 238.214844 L 738.324219 237.363281 L 730.90625 241.695312 L 732.4375 240.710938 L 725.402344 245.636719 L 726.847656 244.53125 L 720.242188 250.023438 L 721.59375 248.800781 L 715.460938 254.816406 L 716.707031 253.488281 L 711.089844 259.988281 L 712.222656 258.5625 L 707.15625 265.503906 L 708.167969 263.988281 L 703.691406 271.324219 L 704.578125 269.730469 L 700.71875 277.40625 L 701.46875 275.75 L 698.253906 283.71875 L 698.867188 282.003906 L 696.316406 290.210938 C 692.695312 301.878906 680.308594 308.398438 668.652344 304.769531 C 656.996094 301.144531 650.480469 288.75 654.105469 277.082031 L 656.652344 268.871094 C 656.832031 268.292969 657.035156 267.71875 657.261719 267.15625 L 660.476562 259.1875 C 660.707031 258.621094 660.957031 258.070312 661.226562 257.527344 L 665.085938 249.847656 C 665.359375 249.304688 665.65625 248.773438 665.972656 248.253906 L 670.449219 240.921875 C 670.765625 240.402344 671.101562 239.898438 671.460938 239.40625 L 676.527344 232.464844 C 676.882812 231.976562 677.261719 231.5 677.660156 231.039062 L 683.277344 224.539062 C 683.675781 224.082031 684.089844 223.636719 684.523438 223.210938 L 690.65625 217.199219 C 691.09375 216.773438 691.542969 216.363281 692.011719 215.976562 L 698.617188 210.488281 C 699.085938 210.097656 699.566406 209.730469 700.066406 209.382812 L 707.101562 204.457031 C 707.597656 204.109375 708.113281 203.78125 708.636719 203.472656 L 716.054688 199.144531 C 716.578125 198.835938 717.113281 198.554688 717.664062 198.292969 L 725.410156 194.585938 C 725.960938 194.324219 726.519531 194.085938 727.085938 193.871094 L 735.113281 190.816406 C 735.679688 190.601562 736.253906 190.410156 736.839844 190.238281 L 745.089844 187.859375 C 745.671875 187.691406 746.261719 187.546875 746.859375 187.425781 L 755.277344 185.730469 C 755.871094 185.613281 756.472656 185.515625 757.074219 185.445312 L 765.605469 184.453125 C 766.207031 184.382812 766.8125 184.335938 767.421875 184.316406 L 776.003906 184.027344 C 776.609375 184.007812 777.21875 184.011719 777.824219 184.039062 L 786.398438 184.460938 C 787.007812 184.488281 787.613281 184.542969 788.214844 184.625 L 796.726562 185.75 C 797.328125 185.828125 797.925781 185.933594 798.519531 186.0625 L 806.910156 187.882812 C 807.503906 188.011719 808.09375 188.164062 808.675781 188.34375 L 816.886719 190.847656 C 817.460938 191.023438 818.023438 191.222656 818.582031 191.441406 L 826.320312 194.511719 C 826.867188 194.726562 827.40625 194.964844 827.933594 195.226562 L 835.402344 198.902344 C 835.933594 199.164062 836.449219 199.445312 836.957031 199.746094 L 844.109375 204.007812 C 844.613281 204.308594 845.109375 204.628906 845.589844 204.96875 L 852.378906 209.789062 C 852.859375 210.128906 853.328125 210.488281 853.777344 210.867188 L 860.164062 216.214844 C 860.613281 216.59375 861.050781 216.988281 861.46875 217.402344 L 867.410156 223.238281 C 867.828125 223.652344 868.230469 224.082031 868.617188 224.527344 L 874.070312 230.824219 C 874.457031 231.269531 874.824219 231.726562 875.171875 232.203125 L 880.109375 238.914062 C 880.457031 239.386719 880.789062 239.875 881.097656 240.378906 L 885.480469 247.460938 C 885.792969 247.960938 886.082031 248.472656 886.351562 248.996094 L 890.15625 256.40625 C 890.425781 256.933594 890.671875 257.464844 890.898438 258.011719 L 894.101562 265.703125 C 894.328125 266.246094 894.535156 266.796875 894.714844 267.359375 L 897.296875 275.28125 C 897.476562 275.839844 897.636719 276.40625 897.773438 276.980469 L 899.714844 285.082031 C 899.851562 285.65625 899.964844 286.234375 900.058594 286.816406 L 901.34375 295.050781 C 901.433594 295.632812 901.503906 296.214844 901.546875 296.804688 L 902.175781 305.113281 C 902.21875 305.699219 902.238281 306.289062 902.238281 306.878906 L 902.199219 315.210938 C 902.195312 315.800781 902.171875 316.390625 902.121094 316.976562 L 901.417969 325.277344 C 901.371094 325.867188 901.296875 326.449219 901.199219 327.03125 L 899.839844 335.25 C 899.742188 335.832031 899.625 336.410156 899.480469 336.980469 L 897.46875 345.066406 C 897.328125 345.636719 897.160156 346.203125 896.976562 346.761719 L 894.324219 354.660156 C 894.136719 355.21875 893.925781 355.769531 893.695312 356.3125 L 890.425781 363.972656 C 885.628906 375.207031 872.640625 380.425781 861.414062 375.625 C 850.191406 370.824219 844.980469 357.824219 849.777344 346.589844 Z M 849.777344 346.589844 " fill-opacity="1" fill-rule="nonzero"/></g><g clip-path="url(#673a17a939)"><path fill="#000000" d="M 602.808594 551.058594 L 618.375 577.695312 L 617.527344 576.359375 L 634.953125 601.8125 L 634.011719 600.539062 L 653.214844 624.679688 L 652.183594 623.476562 L 673.066406 646.179688 L 671.953125 645.054688 L 694.398438 666.203125 L 693.210938 665.160156 L 717.113281 684.644531 L 715.851562 683.691406 L 741.085938 701.414062 L 739.757812 700.550781 L 766.195312 716.425781 L 764.8125 715.660156 L 792.316406 729.597656 L 790.878906 728.933594 L 819.308594 740.863281 L 817.828125 740.304688 L 847.039062 750.167969 L 845.523438 749.71875 L 875.363281 757.464844 L 873.820312 757.121094 L 904.136719 762.710938 L 902.574219 762.480469 L 933.214844 765.886719 L 931.636719 765.765625 L 962.441406 766.96875 L 960.875 766.960938 L 990.960938 766.003906 L 989.417969 766.105469 L 1019.359375 763.046875 L 1017.828125 763.257812 L 1047.484375 758.109375 L 1045.972656 758.425781 L 1075.195312 751.21875 L 1073.707031 751.640625 L 1102.355469 742.40625 L 1100.902344 742.933594 L 1128.835938 731.71875 L 1127.425781 732.34375 L 1154.507812 719.203125 L 1153.140625 719.925781 L 1179.242188 704.925781 L 1177.929688 705.742188 L 1202.917969 688.949219 L 1201.664062 689.855469 L 1225.421875 671.359375 L 1224.234375 672.351562 L 1246.640625 652.238281 L 1245.527344 653.308594 L 1266.476562 631.679688 L 1265.441406 632.824219 L 1284.828125 609.78125 L 1283.875 611 L 1301.605469 586.65625 L 1300.738281 587.9375 L 1316.726562 562.414062 C 1323.210938 552.0625 1336.851562 548.933594 1347.195312 555.425781 C 1357.535156 561.914062 1360.664062 575.566406 1354.179688 585.917969 L 1338.191406 611.441406 C 1337.917969 611.878906 1337.628906 612.304688 1337.324219 612.722656 L 1319.59375 637.066406 C 1319.289062 637.480469 1318.972656 637.886719 1318.640625 638.28125 L 1299.253906 661.324219 C 1298.921875 661.71875 1298.574219 662.101562 1298.214844 662.472656 L 1277.269531 684.101562 C 1276.910156 684.472656 1276.539062 684.832031 1276.15625 685.175781 L 1253.75 705.289062 C 1253.367188 705.632812 1252.96875 705.964844 1252.5625 706.28125 L 1228.808594 724.777344 C 1228.402344 725.09375 1227.984375 725.398438 1227.554688 725.683594 L 1202.566406 742.476562 C 1202.140625 742.761719 1201.703125 743.035156 1201.253906 743.292969 L 1175.15625 758.292969 C 1174.707031 758.550781 1174.253906 758.792969 1173.789062 759.015625 L 1146.707031 772.15625 C 1146.242188 772.382812 1145.773438 772.589844 1145.292969 772.78125 L 1117.359375 783.996094 C 1116.882812 784.191406 1116.394531 784.363281 1115.90625 784.523438 L 1087.257812 793.757812 C 1086.765625 793.914062 1086.269531 794.054688 1085.769531 794.179688 L 1056.546875 801.386719 C 1056.046875 801.511719 1055.542969 801.617188 1055.035156 801.703125 L 1025.378906 806.851562 C 1024.871094 806.9375 1024.363281 807.007812 1023.847656 807.0625 L 993.90625 810.121094 C 993.394531 810.175781 992.882812 810.210938 992.367188 810.226562 L 962.285156 811.183594 C 961.761719 811.203125 961.242188 811.199219 960.71875 811.179688 L 929.914062 809.976562 C 929.386719 809.957031 928.863281 809.917969 928.335938 809.859375 L 897.695312 806.457031 C 897.171875 806.398438 896.648438 806.320312 896.128906 806.226562 L 865.8125 800.632812 C 865.292969 800.539062 864.777344 800.425781 864.265625 800.292969 L 834.425781 792.542969 C 833.914062 792.410156 833.40625 792.261719 832.90625 792.09375 L 803.699219 782.226562 C 803.199219 782.058594 802.703125 781.871094 802.214844 781.667969 L 773.785156 769.734375 C 773.300781 769.53125 772.820312 769.308594 772.347656 769.070312 L 744.84375 755.132812 C 744.375 754.894531 743.910156 754.636719 743.460938 754.367188 L 717.019531 738.496094 C 716.570312 738.222656 716.125 737.933594 715.695312 737.632812 L 690.457031 719.90625 C 690.027344 719.601562 689.605469 719.285156 689.195312 718.949219 L 665.292969 699.464844 C 664.882812 699.128906 664.488281 698.78125 664.101562 698.421875 L 641.652344 677.269531 C 641.269531 676.910156 640.898438 676.53125 640.539062 676.144531 L 619.660156 653.441406 C 619.304688 653.050781 618.960938 652.652344 618.632812 652.238281 L 599.429688 628.097656 C 599.101562 627.683594 598.789062 627.261719 598.488281 626.824219 L 581.0625 601.371094 C 580.765625 600.933594 580.480469 600.488281 580.214844 600.03125 L 564.652344 573.394531 C 558.488281 562.847656 562.035156 549.300781 572.574219 543.132812 C 583.109375 536.964844 596.648438 540.511719 602.808594 551.058594 Z M 602.808594 551.058594 " fill-opacity="1" fill-rule="nonzero"/></g></svg>