<svg xmlns="http://www.w3.org/2000/svg" xmlns:xlink="http://www.w3.org/1999/xlink" width="2560" zoomAndPan="magnify" viewBox="0 0 1920 1079.999946" height="1440" preserveAspectRatio="xMidYMid meet" version="1.0"><defs><clipPath id="59d3f092ce"><path d="M 217.007812 133.675781 L 1703 133.675781 L 1703 946.324219 L 217.007812 946.324219 Z M 217.007812 133.675781 " clip-rule="nonzero"/></clipPath><clipPath id="4f02318c0a"><path d="M 242.507812 133.675781 L 1677.492188 133.675781 C 1684.253906 133.675781 1690.738281 136.363281 1695.523438 141.144531 C 1700.304688 145.929688 1702.992188 152.414062 1702.992188 159.175781 L 1702.992188 920.824219 C 1702.992188 927.585938 1700.304688 934.070312 1695.523438 938.855469 C 1690.738281 943.636719 1684.253906 946.324219 1677.492188 946.324219 L 242.507812 946.324219 C 235.746094 946.324219 229.261719 943.636719 224.476562 938.855469 C 219.695312 934.070312 217.007812 927.585938 217.007812 920.824219 L 217.007812 159.175781 C 217.007812 152.414062 219.695312 145.929688 224.476562 141.144531 C 229.261719 136.363281 235.746094 133.675781 242.507812 133.675781 Z M 242.507812 133.675781 " clip-rule="nonzero"/></clipPath><clipPath id="ed1512d397"><path d="M 0.0078125 0.675781 L 1486 0.675781 L 1486 813.324219 L 0.0078125 813.324219 Z M 0.0078125 0.675781 " clip-rule="nonzero"/></clipPath><clipPath id="582bc5340c"><path d="M 25.507812 0.675781 L 1460.492188 0.675781 C 1467.253906 0.675781 1473.738281 3.363281 1478.523438 8.144531 C 1483.304688 12.929688 1485.992188 19.414062 1485.992188 26.175781 L 1485.992188 787.824219 C 1485.992188 794.585938 1483.304688 801.070312 1478.523438 805.855469 C 1473.738281 810.636719 1467.253906 813.324219 1460.492188 813.324219 L 25.507812 813.324219 C 18.746094 813.324219 12.261719 810.636719 7.476562 805.855469 C 2.695312 801.070312 0.0078125 794.585938 0.0078125 787.824219 L 0.0078125 26.175781 C 0.0078125 19.414062 2.695312 12.929688 7.476562 8.144531 C 12.261719 3.363281 18.746094 0.675781 25.507812 0.675781 Z M 25.507812 0.675781 " clip-rule="nonzero"/></clipPath><clipPath id="5891773c1f"><rect x="0" width="1486" y="0" height="814"/></clipPath><clipPath id="ff27ea32b4"><path d="M 649.777344 255.726562 L 1270.027344 255.726562 L 1270.027344 824.226562 L 649.777344 824.226562 Z M 649.777344 255.726562 " clip-rule="nonzero"/></clipPath><clipPath id="e0fafffdfa"><path d="M 685 255.726562 L 786 255.726562 L 786 404 L 685 404 Z M 685 255.726562 " clip-rule="nonzero"/></clipPath><clipPath id="1e5ec21923"><path d="M 649.777344 255.726562 L 1270.027344 255.726562 L 1270.027344 824.226562 L 649.777344 824.226562 Z M 649.777344 255.726562 " clip-rule="nonzero"/></clipPath><clipPath id="6d28511f06"><path d="M 685 255.726562 L 786 255.726562 L 786 404 L 685 404 Z M 685 255.726562 " clip-rule="nonzero"/></clipPath><clipPath id="ae742396d3"><path d="M 1408 202 L 1559 202 L 1559 358 L 1408 358 Z M 1408 202 " clip-rule="nonzero"/></clipPath><clipPath id="44dbcd411f"><path d="M 1432.949219 170.320312 L 1583 235.265625 L 1492.136719 445.195312 L 1342.089844 380.25 Z M 1432.949219 170.320312 " clip-rule="nonzero"/></clipPath><clipPath id="8965d6183c"><path d="M 1432.949219 170.320312 L 1583 235.265625 L 1492.136719 445.195312 L 1342.089844 380.25 Z M 1432.949219 170.320312 " clip-rule="nonzero"/></clipPath><clipPath id="abc95ccf93"><path d="M 1403 197 L 1564 197 L 1564 362 L 1403 362 Z M 1403 197 " clip-rule="nonzero"/></clipPath><clipPath id="4a9dd3df45"><path d="M 1432.949219 170.320312 L 1583 235.265625 L 1492.136719 445.195312 L 1342.089844 380.25 Z M 1432.949219 170.320312 " clip-rule="nonzero"/></clipPath><clipPath id="6bc5d011c6"><path d="M 1432.949219 170.320312 L 1583 235.265625 L 1492.136719 445.195312 L 1342.089844 380.25 Z M 1432.949219 170.320312 " clip-rule="nonzero"/></clipPath><clipPath id="9552c37ddf"><path d="M 1391 365 L 1443 365 L 1443 405 L 1391 405 Z M 1391 365 " clip-rule="nonzero"/></clipPath><clipPath id="743c269b29"><path d="M 1432.949219 170.320312 L 1583 235.265625 L 1492.136719 445.195312 L 1342.089844 380.25 Z M 1432.949219 170.320312 " clip-rule="nonzero"/></clipPath><clipPath id="6ced8c936b"><path d="M 1432.949219 170.320312 L 1583 235.265625 L 1492.136719 445.195312 L 1342.089844 380.25 Z M 1432.949219 170.320312 " clip-rule="nonzero"/></clipPath><clipPath id="f3702a58b4"><path d="M 1386 360 L 1447 360 L 1447 410 L 1386 410 Z M 1386 360 " clip-rule="nonzero"/></clipPath><clipPath id="d8b16152fa"><path d="M 1432.949219 170.320312 L 1583 235.265625 L 1492.136719 445.195312 L 1342.089844 380.25 Z M 1432.949219 170.320312 " clip-rule="nonzero"/></clipPath><clipPath id="3f5c008dfa"><path d="M 1432.949219 170.320312 L 1583 235.265625 L 1492.136719 445.195312 L 1342.089844 380.25 Z M 1432.949219 170.320312 " clip-rule="nonzero"/></clipPath><clipPath id="f46461911d"><path d="M 1512 326 L 1647 326 L 1647 442 L 1512 442 Z M 1512 326 " clip-rule="nonzero"/></clipPath><clipPath id="8b5d305716"><path d="M 1590.519531 297.066406 L 1671.621094 404.988281 L 1521.128906 518.082031 L 1440.027344 410.160156 Z M 1590.519531 297.066406 " clip-rule="nonzero"/></clipPath><clipPath id="73f27451ea"><path d="M 1590.519531 297.066406 L 1671.621094 404.988281 L 1521.128906 518.082031 L 1440.027344 410.160156 Z M 1590.519531 297.066406 " clip-rule="nonzero"/></clipPath><clipPath id="92556d6f9b"><path d="M 1508 322 L 1650 322 L 1650 446 L 1508 446 Z M 1508 322 " clip-rule="nonzero"/></clipPath><clipPath id="5ae8513d49"><path d="M 1590.519531 297.066406 L 1671.621094 404.988281 L 1521.128906 518.082031 L 1440.027344 410.160156 Z M 1590.519531 297.066406 " clip-rule="nonzero"/></clipPath><clipPath id="4bc8b56bd9"><path d="M 1590.519531 297.066406 L 1671.621094 404.988281 L 1521.128906 518.082031 L 1440.027344 410.160156 Z M 1590.519531 297.066406 " clip-rule="nonzero"/></clipPath><clipPath id="0449e64f9d"><path d="M 1471 424 L 1511 424 L 1511 462 L 1471 462 Z M 1471 424 " clip-rule="nonzero"/></clipPath><clipPath id="e64a96855d"><path d="M 1590.519531 297.066406 L 1671.621094 404.988281 L 1521.128906 518.082031 L 1440.027344 410.160156 Z M 1590.519531 297.066406 " clip-rule="nonzero"/></clipPath><clipPath id="c99b555bcc"><path d="M 1590.519531 297.066406 L 1671.621094 404.988281 L 1521.128906 518.082031 L 1440.027344 410.160156 Z M 1590.519531 297.066406 " clip-rule="nonzero"/></clipPath><clipPath id="9d005ac1bb"><path d="M 1468 420 L 1515 420 L 1515 466 L 1468 466 Z M 1468 420 " clip-rule="nonzero"/></clipPath><clipPath id="6304c5496b"><path d="M 1590.519531 297.066406 L 1671.621094 404.988281 L 1521.128906 518.082031 L 1440.027344 410.160156 Z M 1590.519531 297.066406 " clip-rule="nonzero"/></clipPath><clipPath id="2a01bb80c4"><path d="M 1590.519531 297.066406 L 1671.621094 404.988281 L 1521.128906 518.082031 L 1440.027344 410.160156 Z M 1590.519531 297.066406 " clip-rule="nonzero"/></clipPath></defs><g clip-path="url(#59d3f092ce)"><g clip-path="url(#4f02318c0a)"><g transform="matrix(1, 0, 0, 1, 217, 133)"><g clip-path="url(#5891773c1f)"><g clip-path="url(#ed1512d397)"><g clip-path="url(#582bc5340c)"><path fill="#f15e3d" d="M 0.0078125 0.675781 L 1485.628906 0.675781 L 1485.628906 813.324219 L 0.0078125 813.324219 Z M 0.0078125 0.675781 " fill-opacity="1" fill-rule="nonzero"/></g></g></g></g></g></g><path fill="#000000" d="M 822.535156 753.164062 L 1006.246094 751.046875 C 1020.207031 750.882812 1031.652344 762.054688 1031.8125 776.023438 C 1031.972656 789.996094 1020.804688 801.441406 1006.84375 801.605469 C 1006.261719 801.605469 1005.597656 801.585938 1005.03125 801.554688 L 821.632812 790.5625 C 811.320312 789.945312 803.449219 781.085938 804.0625 770.753906 C 804.660156 760.925781 812.839844 753.292969 822.535156 753.164062 Z M 822.535156 753.164062 " fill-opacity="1" fill-rule="nonzero"/><g clip-path="url(#ff27ea32b4)"><path fill="#000000" d="M 1461.433594 160.023438 C 1425.347656 73.621094 1323.011719 15.738281 1239.730469 -16.859375 C 1124.128906 -62.097656 961.121094 -61.9375 839.296875 -46.996094 C 707.675781 -30.859375 607.894531 22.042969 509.957031 110.839844 C 408.121094 203.175781 392.445312 351.167969 386.320312 481.113281 C 385.058594 507.953125 393.882812 564.039062 399.183594 592.191406 C 407.230469 635.003906 413.246094 660.519531 450.640625 735.75 C 470.585938 775.847656 514.65625 835.152344 545.867188 867.214844 C 573.746094 895.867188 614.359375 933.425781 649.65625 962.65625 C 758.972656 1053.121094 921.105469 1045.796875 1054.972656 1022.660156 C 1175.035156 1001.914062 1337.039062 904.453125 1399.308594 794.941406 C 1426.136719 747.746094 1479.617188 632.515625 1495.003906 526.207031 C 1499.285156 496.617188 1511.761719 280.558594 1461.433594 160.023438 Z M 1448.699219 486.886719 C 1447.910156 515.40625 1420.949219 619.191406 1392.492188 686.210938 C 1385.039062 703.753906 1336.554688 772.226562 1328.425781 781.734375 C 1223.910156 904 1046.246094 977.90625 888.121094 974.347656 C 803.335938 972.441406 737.851562 946.277344 670.972656 894.75 C 621.710938 856.804688 580.96875 812.953125 543.878906 757.65625 C 537.609375 748.328125 518.585938 717.285156 512.976562 707.535156 C 490.625 668.765625 473.460938 619.984375 464.410156 576.8125 C 453.390625 524.21875 453.4375 420.078125 459.351562 367.964844 C 472.074219 255.902344 505.851562 175.011719 586.769531 96.628906 C 726.472656 -38.6875 999.683594 -54.175781 1176.425781 2.574219 C 1272.75 33.507812 1378.074219 107.621094 1425.574219 197.46875 C 1475.996094 292.894531 1451.5625 384.132812 1448.699219 486.886719 C 1448.359375 498.980469 1449.070312 473.140625 1448.699219 486.886719 Z M 1448.699219 486.886719 " fill-opacity="1" fill-rule="nonzero"/></g><g clip-path="url(#e0fafffdfa)"><path fill="#000000" d="M 685.808594 343.164062 C 681.605469 299.621094 704.734375 274.269531 731.417969 253.121094 C 749.550781 238.730469 779.0625 259.332031 783.554688 282.289062 C 790.890625 319.785156 771.886719 351.199219 764.660156 385.21875 C 761.171875 401.628906 730.398438 408.855469 716.773438 397.910156 C 697.867188 382.726562 681.136719 366.058594 685.808594 343.164062 Z M 685.808594 343.164062 " fill-opacity="1" fill-rule="nonzero"/></g><path fill="#000000" d="M 1192.425781 353.21875 C 1196.046875 383.601562 1183.277344 408.304688 1165.921875 429.148438 C 1157.921875 438.75 1141.097656 444.101562 1127.746094 445.265625 C 1115.351562 446.335938 1090.816406 415.355469 1090.285156 403.195312 C 1088.652344 365.21875 1106.203125 334.175781 1127.875 305.410156 C 1137.378906 292.800781 1159.617188 298.554688 1173.128906 309.664062 C 1188.160156 322.015625 1198.632812 333.929688 1192.425781 353.21875 Z M 1192.425781 353.21875 " fill-opacity="1" fill-rule="nonzero"/><path fill="#000000" d="M 822.535156 753.164062 L 1006.246094 751.046875 C 1020.207031 750.882812 1031.652344 762.054688 1031.8125 776.023438 C 1031.972656 789.996094 1020.804688 801.441406 1006.84375 801.605469 C 1006.261719 801.605469 1005.597656 801.585938 1005.03125 801.554688 L 821.632812 790.5625 C 811.320312 789.945312 803.449219 781.085938 804.0625 770.753906 C 804.660156 760.925781 812.839844 753.292969 822.535156 753.164062 Z M 822.535156 753.164062 " fill-opacity="1" fill-rule="nonzero"/><g clip-path="url(#1e5ec21923)"><path fill="#000000" d="M 1461.433594 160.023438 C 1425.347656 73.621094 1323.011719 15.738281 1239.730469 -16.859375 C 1124.128906 -62.097656 961.121094 -61.9375 839.296875 -46.996094 C 707.675781 -30.859375 607.894531 22.042969 509.957031 110.839844 C 408.121094 203.175781 392.445312 351.167969 386.320312 481.113281 C 385.058594 507.953125 393.882812 564.039062 399.183594 592.191406 C 407.230469 635.003906 413.246094 660.519531 450.640625 735.75 C 470.585938 775.847656 514.65625 835.152344 545.867188 867.214844 C 573.746094 895.867188 614.359375 933.425781 649.65625 962.65625 C 758.972656 1053.121094 921.105469 1045.796875 1054.972656 1022.660156 C 1175.035156 1001.914062 1337.039062 904.453125 1399.308594 794.941406 C 1426.136719 747.746094 1479.617188 632.515625 1495.003906 526.207031 C 1499.285156 496.617188 1511.761719 280.558594 1461.433594 160.023438 Z M 1448.699219 486.886719 C 1447.910156 515.40625 1420.949219 619.191406 1392.492188 686.210938 C 1385.039062 703.753906 1336.554688 772.226562 1328.425781 781.734375 C 1223.910156 904 1046.246094 977.90625 888.121094 974.347656 C 803.335938 972.441406 737.851562 946.277344 670.972656 894.75 C 621.710938 856.804688 580.96875 812.953125 543.878906 757.65625 C 537.609375 748.328125 518.585938 717.285156 512.976562 707.535156 C 490.625 668.765625 473.460938 619.984375 464.410156 576.8125 C 453.390625 524.21875 453.4375 420.078125 459.351562 367.964844 C 472.074219 255.902344 505.851562 175.011719 586.769531 96.628906 C 726.472656 -38.6875 999.683594 -54.175781 1176.425781 2.574219 C 1272.75 33.507812 1378.074219 107.621094 1425.574219 197.46875 C 1475.996094 292.894531 1451.5625 384.132812 1448.699219 486.886719 C 1448.359375 498.980469 1449.070312 473.140625 1448.699219 486.886719 Z M 1448.699219 486.886719 " fill-opacity="1" fill-rule="nonzero"/></g><g clip-path="url(#6d28511f06)"><path fill="#000000" d="M 685.808594 343.164062 C 681.605469 299.621094 704.734375 274.269531 731.417969 253.121094 C 749.550781 238.730469 779.0625 259.332031 783.554688 282.289062 C 790.890625 319.785156 771.886719 351.199219 764.660156 385.21875 C 761.171875 401.628906 730.398438 408.855469 716.773438 397.910156 C 697.867188 382.726562 681.136719 366.058594 685.808594 343.164062 Z M 685.808594 343.164062 " fill-opacity="1" fill-rule="nonzero"/></g><path fill="#000000" d="M 1192.425781 353.21875 C 1196.046875 383.601562 1183.277344 408.304688 1165.921875 429.148438 C 1157.921875 438.75 1141.097656 444.101562 1127.746094 445.265625 C 1115.351562 446.335938 1090.816406 415.355469 1090.285156 403.195312 C 1088.652344 365.21875 1106.203125 334.175781 1127.875 305.410156 C 1137.378906 292.800781 1159.617188 298.554688 1173.128906 309.664062 C 1188.160156 322.015625 1198.632812 333.929688 1192.425781 353.21875 Z M 1192.425781 353.21875 " fill-opacity="1" fill-rule="nonzero"/><g clip-path="url(#ae742396d3)"><g clip-path="url(#44dbcd411f)"><g clip-path="url(#8965d6183c)"><path fill="#000000" d="M 1516.550781 266.785156 C 1516.195312 257.703125 1508.898438 247.90625 1499.214844 245.136719 C 1480.121094 239.679688 1467.507812 253.679688 1454.601562 263.800781 C 1448.019531 268.957031 1439.949219 273.203125 1431.335938 272.472656 C 1415.242188 271.101562 1405.132812 251.757812 1409.515625 236.921875 C 1413.902344 222.085938 1428.308594 212.1875 1443.332031 207.066406 C 1474.585938 196.414062 1516.390625 203.871094 1540.648438 228.035156 C 1552.65625 240 1559.949219 256.683594 1558.65625 272.960938 C 1557.363281 289.238281 1546.890625 304.609375 1531.355469 310.601562 C 1523.019531 313.816406 1513.597656 314.390625 1505.6875 318.445312 C 1494.53125 324.164062 1490.121094 335.6875 1480.820312 343.140625 C 1472.09375 350.132812 1464.164062 356.773438 1451.996094 357.039062 C 1435.050781 357.40625 1416.09375 345.203125 1420.4375 327.085938 C 1422.464844 318.609375 1428.738281 310.371094 1436.917969 306.734375 C 1446.796875 302.34375 1459.050781 306.070312 1467.90625 299.394531 C 1472.636719 295.828125 1475.140625 289.921875 1480.203125 286.792969 C 1488.003906 281.976562 1499.050781 285.324219 1507.382812 281.382812 C 1514.128906 278.191406 1516.78125 272.636719 1516.550781 266.785156 Z M 1516.550781 266.785156 " fill-opacity="1" fill-rule="nonzero"/></g></g></g><g clip-path="url(#abc95ccf93)"><g clip-path="url(#4a9dd3df45)"><g clip-path="url(#6bc5d011c6)"><path fill="#000000" d="M 1434.546875 358.203125 C 1429.121094 355.855469 1424.359375 352.417969 1420.945312 348.1875 C 1415.734375 341.722656 1414 334.054688 1415.925781 326.003906 C 1418.375 315.796875 1425.875 306.570312 1435.03125 302.496094 C 1440.089844 300.25 1445.339844 299.847656 1450.417969 299.457031 C 1456.214844 299.011719 1461.21875 298.628906 1465.117188 295.691406 C 1466.832031 294.398438 1468.3125 292.542969 1469.878906 290.574219 C 1471.976562 287.941406 1474.355469 284.957031 1477.765625 282.851562 C 1482.898438 279.679688 1488.890625 279.363281 1494.171875 279.085938 C 1498.351562 278.867188 1502.300781 278.660156 1505.402344 277.191406 C 1509.90625 275.058594 1512.101562 271.621094 1511.917969 266.96875 C 1511.625 259.511719 1505.347656 251.710938 1497.9375 249.597656 C 1483.917969 245.585938 1473.796875 253.984375 1463.082031 262.871094 C 1461.246094 264.394531 1459.351562 265.964844 1457.460938 267.449219 C 1448.375 274.570312 1439.453125 277.816406 1430.945312 277.089844 C 1422.691406 276.390625 1415.285156 271.824219 1410.097656 264.226562 C 1404.289062 255.730469 1402.363281 244.761719 1405.070312 235.605469 C 1409.332031 221.191406 1422.730469 209.191406 1441.835938 202.679688 C 1476.339844 190.917969 1519.273438 200.199219 1543.921875 224.75 C 1557.390625 238.171875 1564.628906 256.332031 1563.277344 273.328125 C 1561.808594 291.796875 1549.652344 308.515625 1533.023438 314.925781 C 1529.140625 316.425781 1525.140625 317.367188 1521.265625 318.285156 C 1516.402344 319.433594 1511.808594 320.515625 1507.804688 322.570312 C 1502.191406 325.445312 1498.394531 330.226562 1494.378906 335.292969 C 1491.246094 339.238281 1488.003906 343.324219 1483.71875 346.757812 L 1482.976562 347.355469 C 1474.378906 354.25 1465.492188 361.382812 1452.097656 361.675781 C 1445.996094 361.785156 1440.144531 360.625 1434.546875 358.203125 Z M 1521.183594 266.605469 C 1521.511719 274.953125 1517.203125 281.863281 1509.367188 285.574219 C 1504.613281 287.820312 1499.554688 288.085938 1494.660156 288.34375 C 1490.078125 288.585938 1485.753906 288.8125 1482.640625 290.738281 C 1480.601562 291.996094 1478.914062 294.113281 1477.128906 296.351562 C 1475.269531 298.683594 1473.347656 301.097656 1470.695312 303.097656 C 1464.632812 307.667969 1457.457031 308.214844 1451.125 308.703125 C 1446.636719 309.046875 1442.394531 309.375 1438.800781 310.972656 C 1432.28125 313.867188 1426.714844 320.777344 1424.945312 328.164062 C 1423.691406 333.386719 1424.777344 338.164062 1428.164062 342.367188 C 1433.167969 348.570312 1442.703125 352.605469 1451.898438 352.402344 C 1462.144531 352.179688 1469.109375 346.59375 1477.175781 340.121094 L 1477.921875 339.523438 C 1481.390625 336.742188 1484.171875 333.238281 1487.117188 329.527344 C 1491.570312 323.914062 1496.175781 318.109375 1503.574219 314.316406 C 1508.578125 311.75 1513.945312 310.484375 1519.136719 309.257812 C 1522.871094 308.378906 1526.398438 307.546875 1529.6875 306.277344 C 1543.058594 301.117188 1552.84375 287.582031 1554.035156 272.59375 C 1555.171875 258.273438 1548.945312 242.84375 1537.375 231.320312 C 1515.460938 209.484375 1475.667969 200.945312 1444.828125 211.457031 C 1428.609375 216.984375 1417.359375 226.746094 1413.960938 238.234375 C 1412.027344 244.785156 1413.480469 252.742188 1417.753906 258.996094 C 1421.335938 264.246094 1426.300781 267.386719 1431.730469 267.851562 C 1437.828125 268.371094 1444.558594 265.78125 1451.742188 260.152344 C 1453.53125 258.75 1455.292969 257.285156 1457.160156 255.738281 C 1468.691406 246.171875 1481.761719 235.324219 1500.488281 240.679688 C 1511.832031 243.921875 1520.730469 255.070312 1521.183594 266.605469 Z M 1521.183594 266.605469 " fill-opacity="1" fill-rule="nonzero"/></g></g></g><g clip-path="url(#9552c37ddf)"><g clip-path="url(#743c269b29)"><g clip-path="url(#6ced8c936b)"><path fill="#000000" d="M 1398.851562 398.230469 C 1393.484375 393.691406 1390.371094 386.976562 1392.023438 378.777344 C 1395.691406 360.605469 1414.394531 364.386719 1427.597656 369.8125 C 1431.296875 371.332031 1435.117188 372.933594 1437.875 375.789062 C 1448.710938 387.011719 1437.464844 399.609375 1425.726562 403.421875 C 1416.640625 406.371094 1405.835938 404.136719 1398.851562 398.230469 Z M 1398.851562 398.230469 " fill-opacity="1" fill-rule="nonzero"/></g></g></g><g clip-path="url(#f3702a58b4)"><g clip-path="url(#d8b16152fa)"><g clip-path="url(#3f5c008dfa)"><path fill="#000000" d="M 1403.542969 406.492188 C 1400.75 405.296875 1398.1875 403.722656 1395.859375 401.769531 C 1388.691406 395.707031 1385.636719 386.992188 1387.480469 377.859375 C 1388.875 370.953125 1392.242188 366.027344 1397.492188 363.222656 C 1406.925781 358.179688 1420.027344 361.691406 1429.359375 365.523438 C 1433.082031 367.054688 1437.726562 368.960938 1441.210938 372.570312 C 1447.398438 378.976562 1447.4375 385.363281 1446.382812 389.59375 C 1444.132812 398.609375 1435.105469 405.25 1427.160156 407.828125 C 1419.597656 410.285156 1410.90625 409.679688 1403.542969 406.492188 Z M 1428.074219 375.035156 C 1427.332031 374.714844 1426.582031 374.40625 1425.835938 374.101562 C 1415.25 369.75 1406.738281 368.792969 1401.863281 371.398438 C 1399.132812 372.859375 1397.402344 375.570312 1396.570312 379.691406 C 1395.070312 387.132812 1398.609375 391.953125 1401.847656 394.691406 C 1407.683594 399.625 1416.917969 401.40625 1424.296875 399.011719 C 1430.714844 396.925781 1436.21875 392.023438 1437.386719 387.347656 C 1438.105469 384.464844 1437.175781 381.738281 1434.539062 379.007812 C 1432.898438 377.308594 1430.542969 376.105469 1428.074219 375.035156 Z M 1428.074219 375.035156 " fill-opacity="1" fill-rule="nonzero"/></g></g></g><g clip-path="url(#f46461911d)"><g clip-path="url(#8b5d305716)"><g clip-path="url(#73f27451ea)"><path fill="#000000" d="M 1611.054688 400.390625 C 1614.507812 393.730469 1613.277344 383.726562 1607.464844 377.785156 C 1596.003906 366.070312 1581.242188 370.957031 1567.851562 372.941406 C 1561.023438 373.953125 1553.5 373.699219 1547.625 369.65625 C 1536.640625 362.097656 1537.296875 344.09375 1546.5 335.246094 C 1555.707031 326.398438 1570.082031 325.1875 1582.945312 327.652344 C 1609.710938 332.78125 1636.644531 355.210938 1644.164062 382.449219 C 1647.890625 395.933594 1646.304688 410.875 1638.726562 422.019531 C 1631.148438 433.167969 1617.355469 439.910156 1603.769531 437.859375 C 1596.480469 436.757812 1589.488281 433.320312 1582.160156 432.996094 C 1571.820312 432.539062 1563.949219 439.003906 1554.238281 440.546875 C 1545.121094 441.996094 1536.722656 443.519531 1527.890625 438.738281 C 1515.589844 432.078125 1506.980469 415.582031 1517.496094 404.363281 C 1522.414062 399.117188 1530.277344 395.769531 1537.628906 396.503906 C 1546.507812 397.390625 1553.773438 405.070312 1562.847656 403.902344 C 1567.699219 403.277344 1571.90625 400.0625 1576.8125 399.890625 C 1584.378906 399.621094 1590.933594 406.535156 1598.519531 407.113281 C 1604.660156 407.578125 1608.828125 404.679688 1611.054688 400.390625 Z M 1611.054688 400.390625 " fill-opacity="1" fill-rule="nonzero"/></g></g></g><g clip-path="url(#92556d6f9b)"><g clip-path="url(#5ae8513d49)"><g clip-path="url(#4bc8b56bd9)"><path fill="#000000" d="M 1514.902344 432.441406 C 1511.96875 428.542969 1509.960938 424.132812 1509.242188 419.703125 C 1508.144531 412.941406 1510.03125 406.730469 1514.703125 401.746094 C 1520.628906 395.425781 1529.777344 391.875 1538.007812 392.695312 C 1542.550781 393.152344 1546.480469 395.007812 1550.28125 396.800781 C 1554.621094 398.851562 1558.367188 400.621094 1562.359375 400.105469 C 1564.117188 399.878906 1565.9375 399.152344 1567.867188 398.382812 C 1570.445312 397.351562 1573.371094 396.183594 1576.679688 396.066406 C 1581.65625 395.890625 1586.078125 398.109375 1589.980469 400.070312 C 1593.070312 401.617188 1595.984375 403.082031 1598.808594 403.296875 C 1602.910156 403.609375 1605.886719 402.039062 1607.65625 398.628906 C 1610.496094 393.160156 1609.179688 385.003906 1604.730469 380.460938 C 1596.3125 371.855469 1585.625 373.742188 1574.308594 375.738281 C 1572.375 376.082031 1570.371094 376.433594 1568.410156 376.726562 C 1558.984375 378.121094 1551.261719 376.800781 1545.457031 372.804688 C 1539.824219 368.933594 1536.378906 362.632812 1535.761719 355.0625 C 1535.070312 346.597656 1538.167969 337.949219 1543.851562 332.488281 C 1552.792969 323.890625 1567.304688 320.761719 1583.667969 323.894531 C 1613.214844 329.558594 1640.210938 353.753906 1647.855469 381.429688 C 1652.03125 396.558594 1649.800781 412.535156 1641.890625 424.171875 C 1633.292969 436.816406 1617.742188 443.835938 1603.199219 441.644531 C 1599.804688 441.128906 1596.546875 440.171875 1593.394531 439.246094 C 1589.4375 438.082031 1585.699219 436.984375 1581.992188 436.820312 C 1576.789062 436.589844 1572.117188 438.46875 1567.167969 440.457031 C 1563.308594 442.007812 1559.316406 443.613281 1554.839844 444.324219 L 1554.0625 444.449219 C 1545.082031 445.882812 1535.792969 447.367188 1526.070312 442.101562 C 1521.648438 439.6875 1517.925781 436.46875 1514.902344 432.441406 Z M 1614.449219 402.15625 C 1611.273438 408.273438 1605.363281 411.46875 1598.226562 410.925781 C 1593.898438 410.597656 1590.164062 408.722656 1586.550781 406.90625 C 1583.164062 405.210938 1579.972656 403.605469 1576.949219 403.710938 C 1574.972656 403.78125 1572.898438 404.609375 1570.707031 405.488281 C 1568.421875 406.402344 1566.054688 407.34375 1563.335938 407.695312 C 1557.125 408.496094 1551.753906 405.957031 1547.011719 403.71875 C 1543.652344 402.132812 1540.476562 400.632812 1537.246094 400.3125 C 1531.390625 399.726562 1524.574219 402.40625 1520.289062 406.980469 C 1517.257812 410.214844 1516.082031 414.082031 1516.792969 418.480469 C 1517.847656 424.972656 1523.039062 431.761719 1529.710938 435.375 C 1537.148438 439.398438 1544.429688 438.238281 1552.855469 436.890625 L 1553.636719 436.769531 C 1557.261719 436.191406 1560.6875 434.816406 1564.3125 433.355469 C 1569.800781 431.152344 1575.472656 428.871094 1582.328125 429.175781 C 1586.96875 429.378906 1591.335938 430.664062 1595.554688 431.90625 C 1598.59375 432.796875 1601.460938 433.640625 1604.339844 434.074219 C 1616.035156 435.839844 1628.585938 430.132812 1635.5625 419.871094 C 1642.226562 410.066406 1644.0625 396.457031 1640.476562 383.46875 C 1633.683594 358.851562 1608.636719 336.472656 1582.226562 331.410156 C 1568.335938 328.75 1556.28125 331.152344 1549.152344 338.003906 C 1545.089844 341.910156 1542.878906 348.210938 1543.386719 354.441406 C 1543.8125 359.667969 1546.089844 363.949219 1549.792969 366.503906 C 1553.953125 369.367188 1559.839844 370.257812 1567.289062 369.15625 C 1569.144531 368.878906 1571.007812 368.550781 1572.980469 368.203125 C 1585.15625 366.054688 1598.960938 363.617188 1610.199219 375.109375 C 1617.007812 382.066406 1618.839844 393.699219 1614.449219 402.15625 Z M 1614.449219 402.15625 " fill-opacity="1" fill-rule="nonzero"/></g></g></g><g clip-path="url(#0449e64f9d)"><g clip-path="url(#e64a96855d)"><g clip-path="url(#c99b555bcc)"><path fill="#000000" d="M 1472.953125 446.5625 C 1470.957031 441.113281 1471.464844 435.027344 1476.003906 429.824219 C 1486.054688 418.292969 1497.925781 428.648438 1505.175781 437.929688 C 1507.207031 440.53125 1509.292969 443.238281 1510.101562 446.414062 C 1513.289062 458.886719 1500.078125 463.328125 1490.101562 461.265625 C 1482.382812 459.667969 1475.546875 453.65625 1472.953125 446.5625 Z M 1472.953125 446.5625 " fill-opacity="1" fill-rule="nonzero"/></g></g></g><g clip-path="url(#9d005ac1bb)"><g clip-path="url(#6304c5496b)"><g clip-path="url(#2a01bb80c4)"><path fill="#000000" d="M 1472.9375 454.402344 C 1471.425781 452.40625 1470.230469 450.230469 1469.359375 447.878906 C 1466.695312 440.605469 1468.066406 433.105469 1473.117188 427.308594 C 1476.941406 422.925781 1481.367188 420.769531 1486.277344 420.902344 C 1495.101562 421.140625 1503.066406 429.011719 1508.191406 435.574219 C 1510.234375 438.191406 1512.785156 441.457031 1513.808594 445.46875 C 1515.628906 452.589844 1513.046875 457.1875 1510.5625 459.789062 C 1505.265625 465.335938 1496.082031 466.410156 1489.328125 465.011719 C 1482.902344 463.683594 1476.917969 459.699219 1472.9375 454.402344 Z M 1503.382812 441.871094 C 1502.980469 441.335938 1502.570312 440.808594 1502.160156 440.285156 C 1496.347656 432.839844 1490.632812 428.675781 1486.074219 428.550781 C 1483.519531 428.484375 1481.167969 429.722656 1478.886719 432.339844 C 1474.773438 437.058594 1475.34375 441.964844 1476.542969 445.25 C 1478.714844 451.171875 1484.609375 456.21875 1490.878906 457.519531 C 1496.332031 458.648438 1502.285156 457.378906 1505.03125 454.503906 C 1506.722656 452.730469 1507.171875 450.394531 1506.394531 447.359375 C 1505.914062 445.472656 1504.714844 443.644531 1503.382812 441.871094 Z M 1503.382812 441.871094 " fill-opacity="1" fill-rule="nonzero"/></g></g></g></svg>