<svg xmlns="http://www.w3.org/2000/svg" xmlns:xlink="http://www.w3.org/1999/xlink" width="512" zoomAndPan="magnify" viewBox="0 0 384 383.999986" height="512" preserveAspectRatio="xMidYMid meet" version="1.0"><defs><g/><clipPath id="1995eaf830"><path d="M 26.328125 51.539062 L 346.632812 51.539062 L 346.632812 245.386719 L 26.328125 245.386719 Z M 26.328125 51.539062 " clip-rule="nonzero"/></clipPath><clipPath id="6cf541ed96"><path d="M 76.578125 51.539062 L 296.019531 51.539062 C 309.34375 51.539062 322.125 56.832031 331.550781 66.257812 C 340.972656 75.679688 346.269531 88.460938 346.269531 101.789062 L 346.269531 195.136719 C 346.269531 208.464844 340.972656 221.246094 331.550781 230.667969 C 322.125 240.09375 309.34375 245.386719 296.019531 245.386719 L 76.578125 245.386719 C 63.25 245.386719 50.46875 240.09375 41.042969 230.667969 C 31.621094 221.246094 26.328125 208.464844 26.328125 195.136719 L 26.328125 101.789062 C 26.328125 88.460938 31.621094 75.679688 41.042969 66.257812 C 50.46875 56.832031 63.25 51.539062 76.578125 51.539062 Z M 76.578125 51.539062 " clip-rule="nonzero"/></clipPath><clipPath id="cf9c9ab898"><path d="M 0.328125 0.539062 L 320.320312 0.539062 L 320.320312 194.386719 L 0.328125 194.386719 Z M 0.328125 0.539062 " clip-rule="nonzero"/></clipPath><clipPath id="cacf6eb25a"><path d="M 50.578125 0.539062 L 270.019531 0.539062 C 283.34375 0.539062 296.125 5.832031 305.550781 15.257812 C 314.972656 24.679688 320.269531 37.460938 320.269531 50.789062 L 320.269531 144.136719 C 320.269531 157.464844 314.972656 170.246094 305.550781 179.667969 C 296.125 189.09375 283.34375 194.386719 270.019531 194.386719 L 50.578125 194.386719 C 37.25 194.386719 24.46875 189.09375 15.042969 179.667969 C 5.621094 170.246094 0.328125 157.464844 0.328125 144.136719 L 0.328125 50.789062 C 0.328125 37.460938 5.621094 24.679688 15.042969 15.257812 C 24.46875 5.832031 37.25 0.539062 50.578125 0.539062 Z M 50.578125 0.539062 " clip-rule="nonzero"/></clipPath><clipPath id="646b7c2bc0"><rect x="0" width="321" y="0" height="195"/></clipPath><clipPath id="9648d8df66"><rect x="0" width="253" y="0" height="69"/></clipPath><clipPath id="f7f59b192f"><path d="M 45.113281 70.949219 L 327.648438 70.949219 L 327.648438 225.273438 L 45.113281 225.273438 Z M 45.113281 70.949219 " clip-rule="nonzero"/></clipPath><clipPath id="6e22c3a230"><path d="M 49.703125 70.949219 L 323.039062 70.949219 C 324.257812 70.949219 325.425781 71.433594 326.289062 72.292969 C 327.148438 73.15625 327.632812 74.320312 327.632812 75.539062 L 327.632812 220.6875 C 327.632812 221.902344 327.148438 223.070312 326.289062 223.929688 C 325.425781 224.792969 324.257812 225.273438 323.039062 225.273438 L 49.703125 225.273438 C 48.488281 225.273438 47.320312 224.792969 46.457031 223.929688 C 45.597656 223.070312 45.113281 221.902344 45.113281 220.6875 L 45.113281 75.539062 C 45.113281 74.320312 45.597656 73.15625 46.457031 72.292969 C 47.320312 71.433594 48.488281 70.949219 49.703125 70.949219 Z M 49.703125 70.949219 " clip-rule="nonzero"/></clipPath><clipPath id="7558093877"><path d="M 49.703125 70.949219 L 323.039062 70.949219 C 324.257812 70.949219 325.425781 71.433594 326.289062 72.292969 C 327.148438 73.15625 327.632812 74.320312 327.632812 75.539062 L 327.632812 220.6875 C 327.632812 221.902344 327.148438 223.070312 326.289062 223.929688 C 325.425781 224.792969 324.257812 225.273438 323.039062 225.273438 L 49.703125 225.273438 C 48.488281 225.273438 47.320312 224.792969 46.457031 223.929688 C 45.597656 223.070312 45.113281 221.902344 45.113281 220.6875 L 45.113281 75.539062 C 45.113281 74.320312 45.597656 73.15625 46.457031 72.292969 C 47.320312 71.433594 48.488281 70.949219 49.703125 70.949219 Z M 49.703125 70.949219 " clip-rule="nonzero"/></clipPath><clipPath id="98855ea406"><path d="M 123.894531 168 L 248.816406 168 L 248.816406 214.6875 L 123.894531 214.6875 Z M 123.894531 168 " clip-rule="nonzero"/></clipPath><clipPath id="854efbe4f6"><path d="M 228.507812 166.457031 L 248.816406 166.457031 L 248.816406 186.78125 L 228.507812 186.78125 Z M 228.507812 166.457031 " clip-rule="nonzero"/></clipPath><clipPath id="8ccff26e10"><path d="M 185.832031 72.238281 L 190.515625 72.238281 L 190.515625 83.363281 L 185.832031 83.363281 Z M 185.832031 72.238281 " clip-rule="nonzero"/></clipPath></defs><g clip-path="url(#1995eaf830)"><g clip-path="url(#6cf541ed96)"><g transform="matrix(1, 0, 0, 1, 26, 51)"><g clip-path="url(#646b7c2bc0)"><g clip-path="url(#cf9c9ab898)"><g clip-path="url(#cacf6eb25a)"><path fill="#f15e3d" d="M 0.328125 0.539062 L 320.632812 0.539062 L 320.632812 194.386719 L 0.328125 194.386719 Z M 0.328125 0.539062 " fill-opacity="1" fill-rule="nonzero"/></g></g></g></g></g></g><g transform="matrix(1, 0, 0, 1, 60, 269)"><g clip-path="url(#9648d8df66)"><g fill="#000000" fill-opacity="1"><g transform="translate(0.894265, 53.316493)"><g><path d="M 11.078125 0 L 4.625 0 L 4.625 -35.609375 L 13.828125 -35.609375 L 22.84375 -9.421875 L 23.359375 -9.421875 L 32.3125 -35.609375 L 41.296875 -35.609375 L 41.296875 0 L 34.625 0 L 34.625 -23.53125 L 34.015625 -23.625 L 25.796875 0 L 19.921875 0 L 11.6875 -23.625 L 11.078125 -23.53125 Z M 11.078125 0 "/></g></g></g><g fill="#000000" fill-opacity="1"><g transform="translate(46.841149, 53.316493)"><g><path d="M 15.609375 0.515625 C 12.984375 0.515625 10.675781 -0.0234375 8.6875 -1.109375 C 6.695312 -2.191406 5.148438 -3.773438 4.046875 -5.859375 C 2.953125 -7.941406 2.40625 -10.460938 2.40625 -13.421875 C 2.40625 -16.367188 2.953125 -18.890625 4.046875 -20.984375 C 5.148438 -23.085938 6.695312 -24.675781 8.6875 -25.75 C 10.675781 -26.832031 12.984375 -27.375 15.609375 -27.375 C 18.242188 -27.375 20.550781 -26.832031 22.53125 -25.75 C 24.519531 -24.675781 26.066406 -23.085938 27.171875 -20.984375 C 28.273438 -18.890625 28.828125 -16.367188 28.828125 -13.421875 C 28.828125 -10.460938 28.273438 -7.941406 27.171875 -5.859375 C 26.066406 -3.773438 24.519531 -2.191406 22.53125 -1.109375 C 20.550781 -0.0234375 18.242188 0.515625 15.609375 0.515625 Z M 15.609375 -5.21875 C 19.785156 -5.21875 21.875 -7.953125 21.875 -13.421875 C 21.875 -16.265625 21.335938 -18.347656 20.265625 -19.671875 C 19.191406 -20.992188 17.640625 -21.65625 15.609375 -21.65625 C 11.441406 -21.65625 9.359375 -18.910156 9.359375 -13.421875 C 9.359375 -7.953125 11.441406 -5.21875 15.609375 -5.21875 Z M 15.609375 -5.21875 "/></g></g></g><g fill="#000000" fill-opacity="1"><g transform="translate(78.056786, 53.316493)"><g><path d="M 18.53125 -6.40625 L 20.28125 -1.40625 C 19.550781 -0.8125 18.632812 -0.34375 17.53125 0 C 16.425781 0.34375 15.175781 0.515625 13.78125 0.515625 C 10.875 0.515625 8.664062 -0.273438 7.15625 -1.859375 C 5.644531 -3.441406 4.890625 -5.742188 4.890625 -8.765625 L 4.890625 -21.53125 L 0.796875 -21.53125 L 0.796875 -26.890625 L 4.890625 -26.890625 L 4.890625 -32.125 L 11.640625 -33.21875 L 11.640625 -26.890625 L 19.265625 -26.890625 L 19.265625 -21.53125 L 11.640625 -21.53125 L 11.640625 -9.25 C 11.640625 -7.914062 11.914062 -6.945312 12.46875 -6.34375 C 13.019531 -5.738281 13.820312 -5.4375 14.875 -5.4375 C 16.082031 -5.4375 17.128906 -5.757812 18.015625 -6.40625 Z M 18.53125 -6.40625 "/></g></g></g><g fill="#000000" fill-opacity="1"><g transform="translate(98.924026, 53.316493)"><g><path d="M 7.234375 -30.078125 C 6.015625 -30.078125 5.023438 -30.445312 4.265625 -31.1875 C 3.503906 -31.925781 3.125 -32.878906 3.125 -34.046875 C 3.125 -35.203125 3.503906 -36.144531 4.265625 -36.875 C 5.023438 -37.613281 6.015625 -37.984375 7.234375 -37.984375 C 8.046875 -37.984375 8.765625 -37.8125 9.390625 -37.46875 C 10.023438 -37.132812 10.515625 -36.671875 10.859375 -36.078125 C 11.210938 -35.484375 11.390625 -34.804688 11.390625 -34.046875 C 11.390625 -33.285156 11.210938 -32.601562 10.859375 -32 C 10.515625 -31.394531 10.023438 -30.921875 9.390625 -30.578125 C 8.765625 -30.242188 8.046875 -30.078125 7.234375 -30.078125 Z M 3.875 0 L 3.875 -26.859375 L 10.625 -26.859375 L 10.625 0 Z M 3.875 0 "/></g></g></g><g fill="#000000" fill-opacity="1"><g transform="translate(113.387433, 53.316493)"><g><path d="M 18.484375 0 L 10.453125 0 L 0.515625 -26.859375 L 7.578125 -26.859375 L 14.25 -7.71875 L 14.8125 -7.71875 L 21.5 -26.859375 L 28.390625 -26.859375 Z M 18.484375 0 "/></g></g></g><g fill="#000000" fill-opacity="1"><g transform="translate(141.754163, 53.316493)"><g><path d="M 10.46875 0.515625 C 8.75 0.515625 7.253906 0.195312 5.984375 -0.4375 C 4.722656 -1.070312 3.75 -2 3.0625 -3.21875 C 2.382812 -4.445312 2.046875 -5.921875 2.046875 -7.640625 C 2.046875 -9.234375 2.382812 -10.566406 3.0625 -11.640625 C 3.75 -12.722656 4.804688 -13.609375 6.234375 -14.296875 C 7.660156 -14.992188 9.523438 -15.53125 11.828125 -15.90625 C 13.441406 -16.164062 14.664062 -16.445312 15.5 -16.75 C 16.332031 -17.0625 16.894531 -17.410156 17.1875 -17.796875 C 17.476562 -18.191406 17.625 -18.6875 17.625 -19.28125 C 17.625 -20.144531 17.320312 -20.800781 16.71875 -21.25 C 16.125 -21.707031 15.128906 -21.9375 13.734375 -21.9375 C 12.242188 -21.9375 10.820312 -21.601562 9.46875 -20.9375 C 8.125 -20.269531 6.957031 -19.394531 5.96875 -18.3125 L 5.484375 -18.3125 L 2.65625 -22.578125 C 4.019531 -24.085938 5.679688 -25.265625 7.640625 -26.109375 C 9.609375 -26.953125 11.753906 -27.375 14.078125 -27.375 C 17.628906 -27.375 20.203125 -26.617188 21.796875 -25.109375 C 23.390625 -23.597656 24.1875 -21.453125 24.1875 -18.671875 L 24.1875 -7.015625 C 24.1875 -5.816406 24.710938 -5.21875 25.765625 -5.21875 C 26.171875 -5.21875 26.566406 -5.289062 26.953125 -5.4375 L 27.296875 -5.328125 L 27.78125 -0.640625 C 27.414062 -0.390625 26.898438 -0.1875 26.234375 -0.03125 C 25.566406 0.113281 24.832031 0.1875 24.03125 0.1875 C 22.425781 0.1875 21.171875 -0.117188 20.265625 -0.734375 C 19.367188 -1.347656 18.726562 -2.3125 18.34375 -3.625 L 17.828125 -3.671875 C 16.515625 -0.878906 14.0625 0.515625 10.46875 0.515625 Z M 12.609375 -4.53125 C 14.171875 -4.53125 15.414062 -5.050781 16.34375 -6.09375 C 17.28125 -7.144531 17.75 -8.601562 17.75 -10.46875 L 17.75 -13.203125 L 17.296875 -13.296875 C 16.890625 -12.972656 16.351562 -12.703125 15.6875 -12.484375 C 15.03125 -12.265625 14.085938 -12.046875 12.859375 -11.828125 C 11.398438 -11.585938 10.347656 -11.171875 9.703125 -10.578125 C 9.066406 -9.984375 8.75 -9.144531 8.75 -8.0625 C 8.75 -6.90625 9.085938 -6.023438 9.765625 -5.421875 C 10.441406 -4.828125 11.390625 -4.53125 12.609375 -4.53125 Z M 12.609375 -4.53125 "/></g></g></g><g fill="#000000" fill-opacity="1"><g transform="translate(169.755674, 53.316493)"><g><path d="M 18.53125 -6.40625 L 20.28125 -1.40625 C 19.550781 -0.8125 18.632812 -0.34375 17.53125 0 C 16.425781 0.34375 15.175781 0.515625 13.78125 0.515625 C 10.875 0.515625 8.664062 -0.273438 7.15625 -1.859375 C 5.644531 -3.441406 4.890625 -5.742188 4.890625 -8.765625 L 4.890625 -21.53125 L 0.796875 -21.53125 L 0.796875 -26.890625 L 4.890625 -26.890625 L 4.890625 -32.125 L 11.640625 -33.21875 L 11.640625 -26.890625 L 19.265625 -26.890625 L 19.265625 -21.53125 L 11.640625 -21.53125 L 11.640625 -9.25 C 11.640625 -7.914062 11.914062 -6.945312 12.46875 -6.34375 C 13.019531 -5.738281 13.820312 -5.4375 14.875 -5.4375 C 16.082031 -5.4375 17.128906 -5.757812 18.015625 -6.40625 Z M 18.53125 -6.40625 "/></g></g></g><g fill="#000000" fill-opacity="1"><g transform="translate(190.306338, 53.316493)"><g><path d="M 26.546875 -11.90625 L 9.28125 -11.90625 C 9.476562 -9.570312 10.144531 -7.875 11.28125 -6.8125 C 12.414062 -5.75 13.960938 -5.21875 15.921875 -5.21875 C 17.460938 -5.21875 18.710938 -5.503906 19.671875 -6.078125 C 20.628906 -6.648438 21.398438 -7.519531 21.984375 -8.6875 L 22.5 -8.6875 L 26.984375 -5.828125 C 26.109375 -3.941406 24.785156 -2.410156 23.015625 -1.234375 C 21.242188 -0.0664062 18.878906 0.515625 15.921875 0.515625 C 13.148438 0.515625 10.753906 -0.0078125 8.734375 -1.0625 C 6.710938 -2.125 5.148438 -3.695312 4.046875 -5.78125 C 2.953125 -7.863281 2.40625 -10.410156 2.40625 -13.421875 C 2.40625 -16.472656 2.984375 -19.046875 4.140625 -21.140625 C 5.296875 -23.234375 6.851562 -24.796875 8.8125 -25.828125 C 10.78125 -26.859375 12.988281 -27.375 15.4375 -27.375 C 19.238281 -27.375 22.148438 -26.363281 24.171875 -24.34375 C 26.191406 -22.332031 27.203125 -19.378906 27.203125 -15.484375 C 27.203125 -14.078125 27.15625 -12.984375 27.0625 -12.203125 Z M 20.75 -16.265625 C 20.6875 -18.316406 20.210938 -19.804688 19.328125 -20.734375 C 18.441406 -21.671875 17.144531 -22.140625 15.4375 -22.140625 C 12.03125 -22.140625 10.023438 -20.179688 9.421875 -16.265625 Z M 20.75 -16.265625 "/></g></g></g><g fill="#000000" fill-opacity="1"><g transform="translate(219.500993, 53.316493)"><g><path d="M 13.265625 0.515625 C 11.140625 0.515625 9.257812 0 7.625 -1.03125 C 6 -2.0625 4.722656 -3.617188 3.796875 -5.703125 C 2.867188 -7.796875 2.40625 -10.367188 2.40625 -13.421875 C 2.40625 -16.484375 2.878906 -19.054688 3.828125 -21.140625 C 4.785156 -23.234375 6.101562 -24.796875 7.78125 -25.828125 C 9.457031 -26.859375 11.398438 -27.375 13.609375 -27.375 C 15.285156 -27.375 16.734375 -27.082031 17.953125 -26.5 C 19.179688 -25.925781 20.21875 -25.03125 21.0625 -23.8125 L 21.578125 -23.9375 L 21.578125 -37.65625 L 28.328125 -37.65625 L 28.328125 0 L 21.578125 0 L 21.578125 -3.484375 L 21.0625 -3.578125 C 20.3125 -2.316406 19.285156 -1.316406 17.984375 -0.578125 C 16.691406 0.148438 15.117188 0.515625 13.265625 0.515625 Z M 15.46875 -5.21875 C 17.363281 -5.21875 18.863281 -5.894531 19.96875 -7.25 C 21.070312 -8.601562 21.625 -10.660156 21.625 -13.421875 C 21.625 -16.179688 21.070312 -18.242188 19.96875 -19.609375 C 18.863281 -20.972656 17.363281 -21.65625 15.46875 -21.65625 C 13.488281 -21.65625 11.972656 -20.992188 10.921875 -19.671875 C 9.878906 -18.347656 9.359375 -16.265625 9.359375 -13.421875 C 9.359375 -10.597656 9.878906 -8.523438 10.921875 -7.203125 C 11.972656 -5.878906 13.488281 -5.21875 15.46875 -5.21875 Z M 15.46875 -5.21875 "/></g></g></g></g></g><g clip-path="url(#f7f59b192f)"><g clip-path="url(#6e22c3a230)"><g clip-path="url(#7558093877)"><path fill="#f15e3d" d="M 45.113281 70.949219 L 327.5625 70.949219 L 327.5625 225.273438 L 45.113281 225.273438 Z M 45.113281 70.949219 " fill-opacity="1" fill-rule="nonzero"/></g></g></g><g clip-path="url(#98855ea406)"><path fill="#000000" d="M 246.535156 210.265625 L 233.414062 210.265625 C 234.175781 208.128906 233.890625 205.800781 232.511719 203.949219 L 228.566406 197.15625 C 226.476562 193.546875 225.382812 189.414062 225.382812 185.28125 L 225.382812 175.734375 C 225.382812 171.507812 221.910156 168.039062 217.679688 168.039062 C 217.539062 168.039062 217.394531 168.039062 217.253906 168.089844 L 182.503906 174.878906 C 177.941406 175.78125 173.566406 177.445312 169.527344 179.773438 L 137.394531 198.582031 C 134.683594 200.054688 132.925781 202.953125 132.925781 206.085938 C 132.925781 207.558594 133.304688 208.984375 133.96875 210.21875 L 126.128906 210.21875 C 124.890625 210.21875 123.894531 211.214844 123.894531 212.449219 C 123.894531 213.683594 124.890625 214.683594 126.128906 214.683594 L 141.527344 214.683594 C 141.527344 214.683594 141.527344 214.683594 141.574219 214.683594 C 141.574219 214.683594 141.574219 214.683594 141.625 214.683594 L 246.535156 214.683594 C 247.769531 214.683594 248.769531 213.683594 248.769531 212.449219 C 248.769531 211.214844 247.769531 210.265625 246.535156 210.265625 Z M 227.046875 210.265625 C 226.378906 210.265625 225.714844 209.980469 225.285156 209.457031 L 219.011719 199.53125 C 216.636719 195.730469 215.351562 191.363281 215.351562 186.847656 L 215.351562 182.90625 C 215.351562 182.242188 215.019531 181.578125 214.496094 181.148438 C 214.117188 180.816406 213.59375 180.675781 213.117188 180.675781 C 212.925781 180.675781 212.785156 180.675781 212.59375 180.722656 L 181.839844 188.226562 C 179.9375 188.703125 178.128906 189.414062 176.46875 190.410156 L 143.476562 209.839844 C 142.90625 210.125 142.289062 210.3125 141.625 210.3125 C 140.910156 210.3125 140.148438 210.125 139.484375 209.695312 C 138.25 208.9375 137.488281 207.605469 137.488281 206.132812 C 137.488281 204.613281 138.296875 203.234375 139.675781 202.523438 L 171.855469 183.667969 C 175.46875 181.578125 179.367188 180.105469 183.453125 179.296875 L 217.964844 172.554688 C 219.675781 172.648438 221.007812 174.074219 221.007812 175.78125 L 221.007812 185.328125 C 221.007812 190.269531 222.339844 195.160156 224.8125 199.4375 L 228.804688 206.371094 C 228.851562 206.464844 228.898438 206.558594 228.945312 206.609375 C 229.515625 207.320312 229.566406 208.222656 229.183594 209.03125 C 228.707031 209.789062 227.949219 210.265625 227.046875 210.265625 Z M 151.464844 210.265625 L 178.703125 194.257812 C 179.984375 193.5 181.410156 192.929688 182.835938 192.597656 L 210.882812 185.757812 L 210.882812 186.847656 C 210.882812 192.167969 212.40625 197.394531 215.257812 201.90625 L 220.535156 210.265625 Z M 151.464844 210.265625 " fill-opacity="1" fill-rule="nonzero"/></g><g clip-path="url(#854efbe4f6)"><path fill="#000000" d="M 238.738281 186.753906 C 244.300781 186.753906 248.816406 182.242188 248.816406 176.683594 C 248.816406 171.128906 244.300781 166.617188 238.738281 166.617188 C 233.175781 166.617188 228.660156 171.128906 228.660156 176.683594 C 228.660156 182.242188 233.175781 186.753906 238.738281 186.753906 Z M 238.738281 171.082031 C 241.828125 171.082031 244.347656 173.597656 244.347656 176.683594 C 244.347656 179.773438 241.828125 182.289062 238.738281 182.289062 C 235.648438 182.289062 233.128906 179.773438 233.128906 176.683594 C 233.128906 173.597656 235.648438 171.082031 238.738281 171.082031 Z M 238.738281 171.082031 " fill-opacity="1" fill-rule="nonzero"/></g><path fill="#000000" d="M 151.128906 113.132812 L 157.785156 113.132812 C 159.023438 113.132812 160.019531 112.136719 160.019531 110.902344 C 160.019531 109.667969 159.023438 108.667969 157.785156 108.667969 L 151.128906 108.667969 C 149.894531 108.667969 148.898438 109.667969 148.898438 110.902344 C 148.898438 112.136719 149.894531 113.132812 151.128906 113.132812 Z M 151.128906 113.132812 " fill-opacity="1" fill-rule="nonzero"/><path fill="#000000" d="M 176.515625 113.65625 L 188.113281 113.65625 C 189.347656 113.65625 190.347656 112.660156 190.347656 111.425781 L 190.347656 93.519531 C 190.347656 92.285156 189.347656 91.285156 188.113281 91.285156 C 186.878906 91.285156 185.878906 92.285156 185.878906 93.519531 L 185.878906 109.191406 L 176.515625 109.191406 C 175.277344 109.191406 174.28125 110.191406 174.28125 111.425781 C 174.28125 112.613281 175.277344 113.65625 176.515625 113.65625 Z M 176.515625 113.65625 " fill-opacity="1" fill-rule="nonzero"/><g clip-path="url(#8ccff26e10)"><path fill="#000000" d="M 188.113281 83.355469 C 189.347656 83.355469 190.347656 82.355469 190.347656 81.121094 L 190.347656 74.472656 C 190.347656 73.238281 189.347656 72.238281 188.113281 72.238281 C 186.878906 72.238281 185.878906 73.238281 185.878906 74.472656 L 185.878906 81.121094 C 185.878906 82.355469 186.878906 83.355469 188.113281 83.355469 Z M 188.113281 83.355469 " fill-opacity="1" fill-rule="nonzero"/></g><path fill="#000000" d="M 218.394531 113.65625 C 218.394531 113.65625 225.050781 113.65625 225.050781 113.65625 C 226.285156 113.65625 227.28125 112.660156 227.28125 111.425781 C 227.28125 110.191406 226.285156 109.191406 225.050781 109.191406 C 225.050781 109.191406 218.394531 109.191406 218.394531 109.191406 C 217.160156 109.191406 216.160156 110.191406 216.160156 111.425781 C 216.160156 112.613281 217.160156 113.65625 218.394531 113.65625 Z M 218.394531 113.65625 " fill-opacity="1" fill-rule="nonzero"/><path fill="#000000" d="M 188.113281 139.449219 C 186.878906 139.449219 185.878906 140.445312 185.878906 141.679688 L 185.878906 148.328125 C 185.878906 149.566406 186.878906 150.5625 188.113281 150.5625 C 189.347656 150.5625 190.347656 149.566406 190.347656 148.328125 L 190.347656 141.679688 C 190.347656 140.445312 189.347656 139.449219 188.113281 139.449219 Z M 188.113281 139.449219 " fill-opacity="1" fill-rule="nonzero"/><path fill="#000000" d="M 162.730469 88.722656 C 163.15625 89.148438 163.726562 89.386719 164.296875 89.386719 C 164.867188 89.386719 165.4375 89.148438 165.867188 88.722656 C 166.722656 87.867188 166.722656 86.441406 165.867188 85.539062 L 163.488281 83.164062 C 163.0625 82.738281 162.492188 82.5 161.921875 82.5 C 161.351562 82.5 160.78125 82.738281 160.351562 83.164062 C 159.496094 84.019531 159.496094 85.445312 160.351562 86.347656 Z M 162.730469 88.722656 " fill-opacity="1" fill-rule="nonzero"/><path fill="#000000" d="M 213.449219 133.558594 C 213.023438 133.128906 212.453125 132.894531 211.882812 132.894531 C 211.3125 132.894531 210.742188 133.128906 210.3125 133.558594 C 209.457031 134.414062 209.457031 135.835938 210.3125 136.742188 L 212.691406 139.117188 C 213.117188 139.542969 213.6875 139.78125 214.257812 139.78125 C 214.828125 139.78125 215.398438 139.542969 215.828125 139.117188 C 216.683594 138.261719 216.683594 136.835938 215.828125 135.933594 Z M 213.449219 133.558594 " fill-opacity="1" fill-rule="nonzero"/><path fill="#000000" d="M 211.882812 89.859375 C 212.453125 89.859375 213.023438 89.625 213.449219 89.195312 L 215.828125 86.820312 C 216.683594 85.964844 216.683594 84.542969 215.828125 83.640625 C 215.398438 83.210938 214.828125 82.972656 214.257812 82.972656 C 213.6875 82.972656 213.117188 83.210938 212.691406 83.640625 L 210.3125 86.015625 C 209.457031 86.867188 209.457031 88.292969 210.3125 89.195312 C 210.742188 89.671875 211.3125 89.859375 211.882812 89.859375 Z M 211.882812 89.859375 " fill-opacity="1" fill-rule="nonzero"/><path fill="#000000" d="M 164.296875 132.417969 C 163.726562 132.417969 163.15625 132.65625 162.730469 133.082031 L 160.351562 135.457031 C 159.496094 136.3125 159.496094 137.738281 160.351562 138.640625 C 160.78125 139.066406 161.351562 139.304688 161.921875 139.304688 C 162.492188 139.304688 163.0625 139.066406 163.488281 138.640625 L 165.867188 136.265625 C 166.722656 135.410156 166.722656 133.984375 165.867188 133.082031 C 165.4375 132.65625 164.867188 132.417969 164.296875 132.417969 Z M 164.296875 132.417969 " fill-opacity="1" fill-rule="nonzero"/></svg>