<svg xmlns="http://www.w3.org/2000/svg" xmlns:xlink="http://www.w3.org/1999/xlink" width="512" zoomAndPan="magnify" viewBox="0 0 384 383.999986" height="512" preserveAspectRatio="xMidYMid meet" version="1.0"><defs><g/><clipPath id="0572034943"><path d="M 26.328125 51.539062 L 346.632812 51.539062 L 346.632812 245.386719 L 26.328125 245.386719 Z M 26.328125 51.539062 " clip-rule="nonzero"/></clipPath><clipPath id="6356f22c55"><path d="M 76.578125 51.539062 L 296.019531 51.539062 C 309.34375 51.539062 322.125 56.832031 331.550781 66.257812 C 340.972656 75.679688 346.269531 88.460938 346.269531 101.789062 L 346.269531 195.136719 C 346.269531 208.464844 340.972656 221.246094 331.550781 230.667969 C 322.125 240.09375 309.34375 245.386719 296.019531 245.386719 L 76.578125 245.386719 C 63.25 245.386719 50.46875 240.09375 41.042969 230.667969 C 31.621094 221.246094 26.328125 208.464844 26.328125 195.136719 L 26.328125 101.789062 C 26.328125 88.460938 31.621094 75.679688 41.042969 66.257812 C 50.46875 56.832031 63.25 51.539062 76.578125 51.539062 Z M 76.578125 51.539062 " clip-rule="nonzero"/></clipPath><clipPath id="8d62ebd0d7"><path d="M 0.328125 0.539062 L 320.320312 0.539062 L 320.320312 194.386719 L 0.328125 194.386719 Z M 0.328125 0.539062 " clip-rule="nonzero"/></clipPath><clipPath id="be2dc5f9ec"><path d="M 50.578125 0.539062 L 270.019531 0.539062 C 283.34375 0.539062 296.125 5.832031 305.550781 15.257812 C 314.972656 24.679688 320.269531 37.460938 320.269531 50.789062 L 320.269531 144.136719 C 320.269531 157.464844 314.972656 170.246094 305.550781 179.667969 C 296.125 189.09375 283.34375 194.386719 270.019531 194.386719 L 50.578125 194.386719 C 37.25 194.386719 24.46875 189.09375 15.042969 179.667969 C 5.621094 170.246094 0.328125 157.464844 0.328125 144.136719 L 0.328125 50.789062 C 0.328125 37.460938 5.621094 24.679688 15.042969 15.257812 C 24.46875 5.832031 37.25 0.539062 50.578125 0.539062 Z M 50.578125 0.539062 " clip-rule="nonzero"/></clipPath><clipPath id="90542eecbf"><rect x="0" width="321" y="0" height="195"/></clipPath><clipPath id="4beca83f00"><rect x="0" width="243" y="0" height="69"/></clipPath><clipPath id="e131b0f587"><path d="M 105.082031 80.75 L 279.082031 80.75 L 279.082031 216.5 L 105.082031 216.5 Z M 105.082031 80.75 " clip-rule="nonzero"/></clipPath><clipPath id="ec546ff1c4"><path d="M 123 80.75 L 157 80.75 L 157 126 L 123 126 Z M 123 80.75 " clip-rule="nonzero"/></clipPath><clipPath id="4eb7ed06e6"><path d="M 220 80.75 L 254 80.75 L 254 126 L 220 126 Z M 220 80.75 " clip-rule="nonzero"/></clipPath></defs><g clip-path="url(#0572034943)"><g clip-path="url(#6356f22c55)"><g transform="matrix(1, 0, 0, 1, 26, 51)"><g clip-path="url(#90542eecbf)"><g clip-path="url(#8d62ebd0d7)"><g clip-path="url(#be2dc5f9ec)"><path fill="#f15e3d" d="M 0.328125 0.539062 L 320.632812 0.539062 L 320.632812 194.386719 L 0.328125 194.386719 Z M 0.328125 0.539062 " fill-opacity="1" fill-rule="nonzero"/></g></g></g></g></g></g><g transform="matrix(1, 0, 0, 1, 65, 269)"><g clip-path="url(#4beca83f00)"><g fill="#000000" fill-opacity="1"><g transform="translate(0.552181, 53.316493)"><g><path d="M 11.453125 0 L 4.625 0 L 4.625 -35.609375 L 12.6875 -35.609375 L 26.984375 -12.65625 L 27.609375 -12.765625 L 27.609375 -35.609375 L 34.390625 -35.609375 L 34.390625 0 L 27.171875 0 L 12.0625 -24.5 L 11.453125 -24.40625 Z M 11.453125 0 "/></g></g></g><g fill="#000000" fill-opacity="1"><g transform="translate(39.583901, 53.316493)"><g><path d="M 15.609375 0.515625 C 12.984375 0.515625 10.675781 -0.0234375 8.6875 -1.109375 C 6.695312 -2.191406 5.148438 -3.773438 4.046875 -5.859375 C 2.953125 -7.941406 2.40625 -10.460938 2.40625 -13.421875 C 2.40625 -16.367188 2.953125 -18.890625 4.046875 -20.984375 C 5.148438 -23.085938 6.695312 -24.675781 8.6875 -25.75 C 10.675781 -26.832031 12.984375 -27.375 15.609375 -27.375 C 18.242188 -27.375 20.550781 -26.832031 22.53125 -25.75 C 24.519531 -24.675781 26.066406 -23.085938 27.171875 -20.984375 C 28.273438 -18.890625 28.828125 -16.367188 28.828125 -13.421875 C 28.828125 -10.460938 28.273438 -7.941406 27.171875 -5.859375 C 26.066406 -3.773438 24.519531 -2.191406 22.53125 -1.109375 C 20.550781 -0.0234375 18.242188 0.515625 15.609375 0.515625 Z M 15.609375 -5.21875 C 19.785156 -5.21875 21.875 -7.953125 21.875 -13.421875 C 21.875 -16.265625 21.335938 -18.347656 20.265625 -19.671875 C 19.191406 -20.992188 17.640625 -21.65625 15.609375 -21.65625 C 11.441406 -21.65625 9.359375 -18.910156 9.359375 -13.421875 C 9.359375 -7.953125 11.441406 -5.21875 15.609375 -5.21875 Z M 15.609375 -5.21875 "/></g></g></g><g fill="#000000" fill-opacity="1"><g transform="translate(70.799538, 53.316493)"><g><path d="M 12.5625 0.515625 C 10.726562 0.515625 9.046875 0.300781 7.515625 -0.125 C 5.992188 -0.5625 4.691406 -1.15625 3.609375 -1.90625 C 2.535156 -2.664062 1.738281 -3.53125 1.21875 -4.5 L 4.96875 -8.546875 L 5.484375 -8.546875 C 6.367188 -7.347656 7.421875 -6.445312 8.640625 -5.84375 C 9.859375 -5.238281 11.179688 -4.9375 12.609375 -4.9375 C 13.929688 -4.9375 14.921875 -5.171875 15.578125 -5.640625 C 16.242188 -6.117188 16.578125 -6.796875 16.578125 -7.671875 C 16.578125 -8.347656 16.335938 -8.914062 15.859375 -9.375 C 15.378906 -9.84375 14.609375 -10.207031 13.546875 -10.46875 L 9.984375 -11.328125 C 7.316406 -11.960938 5.367188 -12.929688 4.140625 -14.234375 C 2.921875 -15.535156 2.3125 -17.195312 2.3125 -19.21875 C 2.3125 -20.882812 2.738281 -22.332031 3.59375 -23.5625 C 4.445312 -24.800781 5.644531 -25.742188 7.1875 -26.390625 C 8.738281 -27.046875 10.546875 -27.375 12.609375 -27.375 C 15.035156 -27.375 17.039062 -27.023438 18.625 -26.328125 C 20.21875 -25.628906 21.460938 -24.695312 22.359375 -23.53125 L 18.75 -19.625 L 18.265625 -19.625 C 17.515625 -20.46875 16.671875 -21.082031 15.734375 -21.46875 C 14.804688 -21.863281 13.765625 -22.0625 12.609375 -22.0625 C 9.953125 -22.0625 8.625 -21.234375 8.625 -19.578125 C 8.625 -18.878906 8.867188 -18.3125 9.359375 -17.875 C 9.859375 -17.4375 10.734375 -17.078125 11.984375 -16.796875 L 15.296875 -16.078125 C 18.023438 -15.492188 20.015625 -14.554688 21.265625 -13.265625 C 22.523438 -11.972656 23.15625 -10.238281 23.15625 -8.0625 C 23.15625 -6.351562 22.734375 -4.847656 21.890625 -3.546875 C 21.046875 -2.253906 19.828125 -1.253906 18.234375 -0.546875 C 16.648438 0.160156 14.757812 0.515625 12.5625 0.515625 Z M 12.5625 0.515625 "/></g></g></g><g fill="#000000" fill-opacity="1"><g transform="translate(95.562644, 53.316493)"><g><path d="M 18.53125 -6.40625 L 20.28125 -1.40625 C 19.550781 -0.8125 18.632812 -0.34375 17.53125 0 C 16.425781 0.34375 15.175781 0.515625 13.78125 0.515625 C 10.875 0.515625 8.664062 -0.273438 7.15625 -1.859375 C 5.644531 -3.441406 4.890625 -5.742188 4.890625 -8.765625 L 4.890625 -21.53125 L 0.796875 -21.53125 L 0.796875 -26.890625 L 4.890625 -26.890625 L 4.890625 -32.125 L 11.640625 -33.21875 L 11.640625 -26.890625 L 19.265625 -26.890625 L 19.265625 -21.53125 L 11.640625 -21.53125 L 11.640625 -9.25 C 11.640625 -7.914062 11.914062 -6.945312 12.46875 -6.34375 C 13.019531 -5.738281 13.820312 -5.4375 14.875 -5.4375 C 16.082031 -5.4375 17.128906 -5.757812 18.015625 -6.40625 Z M 18.53125 -6.40625 "/></g></g></g><g fill="#000000" fill-opacity="1"><g transform="translate(116.429883, 53.316493)"><g><path d="M 10.46875 0.515625 C 8.75 0.515625 7.253906 0.195312 5.984375 -0.4375 C 4.722656 -1.070312 3.75 -2 3.0625 -3.21875 C 2.382812 -4.445312 2.046875 -5.921875 2.046875 -7.640625 C 2.046875 -9.234375 2.382812 -10.566406 3.0625 -11.640625 C 3.75 -12.722656 4.804688 -13.609375 6.234375 -14.296875 C 7.660156 -14.992188 9.523438 -15.53125 11.828125 -15.90625 C 13.441406 -16.164062 14.664062 -16.445312 15.5 -16.75 C 16.332031 -17.0625 16.894531 -17.410156 17.1875 -17.796875 C 17.476562 -18.191406 17.625 -18.6875 17.625 -19.28125 C 17.625 -20.144531 17.320312 -20.800781 16.71875 -21.25 C 16.125 -21.707031 15.128906 -21.9375 13.734375 -21.9375 C 12.242188 -21.9375 10.820312 -21.601562 9.46875 -20.9375 C 8.125 -20.269531 6.957031 -19.394531 5.96875 -18.3125 L 5.484375 -18.3125 L 2.65625 -22.578125 C 4.019531 -24.085938 5.679688 -25.265625 7.640625 -26.109375 C 9.609375 -26.953125 11.753906 -27.375 14.078125 -27.375 C 17.628906 -27.375 20.203125 -26.617188 21.796875 -25.109375 C 23.390625 -23.597656 24.1875 -21.453125 24.1875 -18.671875 L 24.1875 -7.015625 C 24.1875 -5.816406 24.710938 -5.21875 25.765625 -5.21875 C 26.171875 -5.21875 26.566406 -5.289062 26.953125 -5.4375 L 27.296875 -5.328125 L 27.78125 -0.640625 C 27.414062 -0.390625 26.898438 -0.1875 26.234375 -0.03125 C 25.566406 0.113281 24.832031 0.1875 24.03125 0.1875 C 22.425781 0.1875 21.171875 -0.117188 20.265625 -0.734375 C 19.367188 -1.347656 18.726562 -2.3125 18.34375 -3.625 L 17.828125 -3.671875 C 16.515625 -0.878906 14.0625 0.515625 10.46875 0.515625 Z M 12.609375 -4.53125 C 14.171875 -4.53125 15.414062 -5.050781 16.34375 -6.09375 C 17.28125 -7.144531 17.75 -8.601562 17.75 -10.46875 L 17.75 -13.203125 L 17.296875 -13.296875 C 16.890625 -12.972656 16.351562 -12.703125 15.6875 -12.484375 C 15.03125 -12.265625 14.085938 -12.046875 12.859375 -11.828125 C 11.398438 -11.585938 10.347656 -11.171875 9.703125 -10.578125 C 9.066406 -9.984375 8.75 -9.144531 8.75 -8.0625 C 8.75 -6.90625 9.085938 -6.023438 9.765625 -5.421875 C 10.441406 -4.828125 11.390625 -4.53125 12.609375 -4.53125 Z M 12.609375 -4.53125 "/></g></g></g><g fill="#000000" fill-opacity="1"><g transform="translate(144.747968, 53.316493)"><g><path d="M 11.15625 0.515625 C 8.738281 0.515625 6.890625 -0.132812 5.609375 -1.4375 C 4.335938 -2.75 3.703125 -4.738281 3.703125 -7.40625 L 3.703125 -37.65625 L 10.453125 -37.65625 L 10.453125 -7.671875 C 10.453125 -6.035156 11.132812 -5.21875 12.5 -5.21875 C 12.882812 -5.21875 13.296875 -5.28125 13.734375 -5.40625 L 14.078125 -5.3125 L 14.6875 -0.125 C 14.3125 0.0703125 13.816406 0.226562 13.203125 0.34375 C 12.585938 0.457031 11.90625 0.515625 11.15625 0.515625 Z M 11.15625 0.515625 "/></g></g></g><g fill="#000000" fill-opacity="1"><g transform="translate(160.185342, 53.316493)"><g><path d="M 13.9375 11.390625 C 9.5 11.390625 6.222656 10.738281 4.109375 9.4375 C 2.003906 8.144531 0.953125 6.335938 0.953125 4.015625 C 0.953125 2.609375 1.398438 1.453125 2.296875 0.546875 C 3.203125 -0.347656 4.5 -0.953125 6.1875 -1.265625 L 6.1875 -1.78125 C 5.28125 -2.332031 4.625 -2.941406 4.21875 -3.609375 C 3.820312 -4.285156 3.625 -5.070312 3.625 -5.96875 C 3.625 -8.125 5.03125 -9.578125 7.84375 -10.328125 L 7.84375 -10.84375 C 6.394531 -11.664062 5.304688 -12.6875 4.578125 -13.90625 C 3.847656 -15.132812 3.484375 -16.617188 3.484375 -18.359375 C 3.484375 -20.148438 3.890625 -21.722656 4.703125 -23.078125 C 5.523438 -24.429688 6.726562 -25.484375 8.3125 -26.234375 C 9.894531 -26.992188 11.789062 -27.375 14 -27.375 C 16.238281 -27.375 18.023438 -26.984375 19.359375 -26.203125 C 20.191406 -27.398438 20.671875 -28.789062 20.796875 -30.375 L 21.3125 -30.6875 L 26.15625 -29.484375 C 26.007812 -28.203125 25.632812 -27.128906 25.03125 -26.265625 C 24.4375 -25.398438 23.503906 -24.625 22.234375 -23.9375 L 22.234375 -23.40625 C 23.742188 -22.070312 24.5 -20.210938 24.5 -17.828125 C 24.5 -16.171875 24.082031 -14.679688 23.25 -13.359375 C 22.425781 -12.046875 21.222656 -11.007812 19.640625 -10.25 C 18.054688 -9.488281 16.175781 -9.109375 14 -9.109375 L 12.984375 -9.125 C 12.328125 -9.164062 11.867188 -9.1875 11.609375 -9.1875 C 10.992188 -9.1875 10.507812 -9.019531 10.15625 -8.6875 C 9.8125 -8.351562 9.640625 -7.925781 9.640625 -7.40625 C 9.640625 -6.832031 9.863281 -6.382812 10.3125 -6.0625 C 10.769531 -5.75 11.441406 -5.578125 12.328125 -5.546875 L 18.34375 -5.328125 C 24.28125 -5.148438 27.25 -2.59375 27.25 2.34375 C 27.25 4.070312 26.804688 5.613281 25.921875 6.96875 C 25.035156 8.332031 23.601562 9.410156 21.625 10.203125 C 19.644531 10.992188 17.082031 11.390625 13.9375 11.390625 Z M 14 -13.828125 C 15.300781 -13.828125 16.316406 -14.207031 17.046875 -14.96875 C 17.773438 -15.738281 18.140625 -16.828125 18.140625 -18.234375 C 18.140625 -19.648438 17.773438 -20.734375 17.046875 -21.484375 C 16.316406 -22.242188 15.300781 -22.625 14 -22.625 C 12.6875 -22.625 11.671875 -22.242188 10.953125 -21.484375 C 10.242188 -20.734375 9.890625 -19.648438 9.890625 -18.234375 C 9.890625 -16.804688 10.242188 -15.710938 10.953125 -14.953125 C 11.671875 -14.203125 12.6875 -13.828125 14 -13.828125 Z M 13.9375 6.5 C 16.238281 6.5 17.910156 6.171875 18.953125 5.515625 C 20.003906 4.867188 20.53125 4.03125 20.53125 3 C 20.53125 2.15625 20.257812 1.53125 19.71875 1.125 C 19.1875 0.726562 18.335938 0.515625 17.171875 0.484375 L 11.859375 0.25 C 11.679688 0.25 11.515625 0.238281 11.359375 0.21875 C 11.203125 0.195312 11.050781 0.1875 10.90625 0.1875 C 9.769531 0.1875 8.90625 0.429688 8.3125 0.921875 C 7.71875 1.410156 7.421875 2.085938 7.421875 2.953125 C 7.421875 4.085938 7.960938 4.960938 9.046875 5.578125 C 10.140625 6.191406 11.769531 6.5 13.9375 6.5 Z M 13.9375 6.5 "/></g></g></g><g fill="#000000" fill-opacity="1"><g transform="translate(188.113841, 53.316493)"><g><path d="M 7.234375 -30.078125 C 6.015625 -30.078125 5.023438 -30.445312 4.265625 -31.1875 C 3.503906 -31.925781 3.125 -32.878906 3.125 -34.046875 C 3.125 -35.203125 3.503906 -36.144531 4.265625 -36.875 C 5.023438 -37.613281 6.015625 -37.984375 7.234375 -37.984375 C 8.046875 -37.984375 8.765625 -37.8125 9.390625 -37.46875 C 10.023438 -37.132812 10.515625 -36.671875 10.859375 -36.078125 C 11.210938 -35.484375 11.390625 -34.804688 11.390625 -34.046875 C 11.390625 -33.285156 11.210938 -32.601562 10.859375 -32 C 10.515625 -31.394531 10.023438 -30.921875 9.390625 -30.578125 C 8.765625 -30.242188 8.046875 -30.078125 7.234375 -30.078125 Z M 3.875 0 L 3.875 -26.859375 L 10.625 -26.859375 L 10.625 0 Z M 3.875 0 "/></g></g></g><g fill="#000000" fill-opacity="1"><g transform="translate(202.577248, 53.316493)"><g><path d="M 15.65625 0.515625 C 13.0625 0.515625 10.765625 -0.0234375 8.765625 -1.109375 C 6.765625 -2.191406 5.203125 -3.78125 4.078125 -5.875 C 2.960938 -7.96875 2.40625 -10.484375 2.40625 -13.421875 C 2.40625 -16.367188 2.960938 -18.890625 4.078125 -20.984375 C 5.203125 -23.085938 6.753906 -24.675781 8.734375 -25.75 C 10.722656 -26.832031 12.988281 -27.375 15.53125 -27.375 C 21.195312 -27.375 24.828125 -25.320312 26.421875 -21.21875 L 21.796875 -17.90625 L 21.28125 -17.90625 C 20.726562 -19.164062 20.007812 -20.101562 19.125 -20.71875 C 18.238281 -21.34375 17.039062 -21.65625 15.53125 -21.65625 C 13.582031 -21.65625 12.066406 -20.976562 10.984375 -19.625 C 9.898438 -18.28125 9.359375 -16.210938 9.359375 -13.421875 C 9.359375 -10.660156 9.90625 -8.601562 11 -7.25 C 12.101562 -5.894531 13.65625 -5.21875 15.65625 -5.21875 C 17.113281 -5.21875 18.347656 -5.609375 19.359375 -6.390625 C 20.378906 -7.179688 21.109375 -8.316406 21.546875 -9.796875 L 22.0625 -9.84375 L 26.859375 -7.203125 C 26.179688 -4.929688 24.921875 -3.078125 23.078125 -1.640625 C 21.234375 -0.203125 18.757812 0.515625 15.65625 0.515625 Z M 15.65625 0.515625 "/></g></g></g><g fill="#000000" fill-opacity="1"><g transform="translate(230.26964, 53.316493)"><g/></g></g></g></g><g clip-path="url(#e131b0f587)"><path fill="#000000" d="M 188.582031 22.90625 C 257.5 22.90625 313.457031 78.859375 313.457031 147.78125 C 313.457031 216.699219 257.5 272.65625 188.582031 272.65625 C 119.660156 272.65625 63.707031 216.699219 63.707031 147.78125 C 63.707031 78.859375 119.660156 22.90625 188.582031 22.90625 Z M 188.582031 33.578125 C 125.550781 33.578125 74.378906 84.75 74.378906 147.78125 C 74.378906 210.808594 125.550781 261.984375 188.582031 261.984375 C 251.609375 261.984375 302.78125 210.808594 302.78125 147.78125 C 302.78125 84.75 251.609375 33.578125 188.582031 33.578125 Z M 188.582031 33.578125 " fill-opacity="1" fill-rule="evenodd"/></g><g clip-path="url(#ec546ff1c4)"><path fill="#000000" d="M 140.171875 80.820312 C 144.140625 80.820312 147.886719 82.59375 150.863281 85.851562 C 154.453125 89.785156 156.941406 96.078125 156.941406 103.230469 C 156.941406 110.386719 154.453125 116.679688 150.863281 120.609375 C 147.886719 123.871094 144.140625 125.644531 140.171875 125.644531 C 136.199219 125.644531 132.457031 123.871094 129.480469 120.609375 C 125.886719 116.679688 123.398438 110.386719 123.398438 103.230469 C 123.398438 96.078125 125.886719 89.785156 129.480469 85.851562 C 132.457031 82.59375 136.199219 80.820312 140.171875 80.820312 Z M 140.171875 91.492188 C 138.675781 91.492188 137.5 92.664062 136.519531 94.128906 C 134.964844 96.453125 134.074219 99.6875 134.074219 103.230469 C 134.074219 106.777344 134.964844 110.011719 136.519531 112.335938 C 137.5 113.800781 138.675781 114.972656 140.171875 114.972656 C 141.664062 114.972656 142.839844 113.800781 143.820312 112.335938 C 145.378906 110.011719 146.269531 106.777344 146.269531 103.230469 C 146.269531 99.6875 145.378906 96.453125 143.820312 94.128906 C 142.839844 92.664062 141.664062 91.492188 140.171875 91.492188 Z M 140.171875 91.492188 " fill-opacity="1" fill-rule="evenodd"/></g><g clip-path="url(#4eb7ed06e6)"><path fill="#000000" d="M 236.988281 80.820312 C 240.960938 80.820312 244.703125 82.59375 247.679688 85.851562 C 251.273438 89.785156 253.761719 96.078125 253.761719 103.230469 C 253.761719 110.386719 251.273438 116.679688 247.679688 120.609375 C 244.703125 123.871094 240.960938 125.644531 236.988281 125.644531 C 233.019531 125.644531 229.273438 123.871094 226.296875 120.609375 C 222.707031 116.679688 220.21875 110.386719 220.21875 103.230469 C 220.21875 96.078125 222.707031 89.785156 226.296875 85.851562 C 229.273438 82.59375 233.019531 80.820312 236.988281 80.820312 Z M 236.988281 91.492188 C 235.496094 91.492188 234.320312 92.664062 233.339844 94.128906 C 231.78125 96.453125 230.890625 99.6875 230.890625 103.230469 C 230.890625 106.777344 231.78125 110.011719 233.339844 112.335938 C 234.320312 113.800781 235.496094 114.972656 236.988281 114.972656 C 238.484375 114.972656 239.660156 113.800781 240.640625 112.335938 C 242.195312 110.011719 243.085938 106.777344 243.085938 103.230469 C 243.085938 99.6875 242.195312 96.453125 240.640625 94.128906 C 239.660156 92.664062 238.484375 91.492188 236.988281 91.492188 Z M 236.988281 91.492188 " fill-opacity="1" fill-rule="evenodd"/></g><path fill="#000000" d="M 260.632812 205.605469 C 262.730469 207.671875 262.757812 211.050781 260.691406 213.152344 C 258.625 215.25 255.242188 215.277344 253.144531 213.207031 C 231.960938 192.351562 210.710938 181.546875 189.15625 181.480469 C 167.578125 181.414062 145.933594 192.097656 123.972656 213.25 C 121.851562 215.292969 118.472656 215.230469 116.429688 213.109375 C 114.386719 210.988281 114.449219 207.605469 116.570312 205.5625 C 140.949219 182.078125 165.234375 170.734375 189.191406 170.808594 C 213.171875 170.882812 237.0625 182.394531 260.632812 205.605469 Z M 260.632812 205.605469 " fill-opacity="1" fill-rule="evenodd"/><path fill="#000000" d="M 256.757812 127.714844 C 256.757812 127.714844 264.652344 138.351562 269.394531 147.921875 C 271.78125 152.738281 273.296875 157.382812 273.296875 160.65625 C 273.296875 172.148438 263.964844 181.480469 252.472656 181.480469 C 240.980469 181.480469 231.652344 172.148438 231.652344 160.65625 C 231.652344 157.382812 233.167969 152.738281 235.550781 147.921875 C 240.292969 138.351562 248.191406 127.714844 248.191406 127.714844 C 249.199219 126.359375 250.785156 125.5625 252.472656 125.5625 C 254.160156 125.5625 255.75 126.359375 256.757812 127.714844 Z M 252.472656 140.21875 C 250.128906 143.742188 247.265625 148.320312 245.117188 152.664062 C 243.597656 155.722656 242.324219 158.574219 242.324219 160.65625 C 242.324219 166.257812 246.875 170.804688 252.472656 170.804688 C 258.074219 170.804688 262.621094 166.257812 262.621094 160.65625 C 262.621094 158.574219 261.351562 155.722656 259.832031 152.664062 C 257.679688 148.320312 254.820312 143.742188 252.472656 140.21875 Z M 252.472656 140.21875 " fill-opacity="1" fill-rule="evenodd"/></svg>