<svg xmlns="http://www.w3.org/2000/svg" xmlns:xlink="http://www.w3.org/1999/xlink" width="2560" zoomAndPan="magnify" viewBox="0 0 1920 1079.999946" height="1440" preserveAspectRatio="xMidYMid meet" version="1.0"><defs><clipPath id="6a6bca9962"><path d="M 175.53125 110.992188 L 1745 110.992188 L 1745 969.003906 L 175.53125 969.003906 Z M 175.53125 110.992188 " clip-rule="nonzero"/></clipPath><clipPath id="af614e6345"><path d="M 201.03125 110.992188 L 1718.96875 110.992188 C 1725.730469 110.992188 1732.214844 113.679688 1737 118.464844 C 1741.78125 123.246094 1744.46875 129.730469 1744.46875 136.492188 L 1744.46875 943.503906 C 1744.46875 950.269531 1741.78125 956.753906 1737 961.535156 C 1732.214844 966.320312 1725.730469 969.003906 1718.96875 969.003906 L 201.03125 969.003906 C 194.269531 969.003906 187.78125 966.320312 183 961.535156 C 178.21875 956.753906 175.53125 950.269531 175.53125 943.503906 L 175.53125 136.492188 C 175.53125 129.730469 178.21875 123.246094 183 118.464844 C 187.78125 113.679688 194.269531 110.992188 201.03125 110.992188 Z M 201.03125 110.992188 " clip-rule="nonzero"/></clipPath><clipPath id="86f871b673"><path d="M 0.53125 0.992188 L 1569.558594 0.992188 L 1569.558594 859.003906 L 0.53125 859.003906 Z M 0.53125 0.992188 " clip-rule="nonzero"/></clipPath><clipPath id="91eefb0348"><path d="M 26.03125 0.992188 L 1543.96875 0.992188 C 1550.730469 0.992188 1557.214844 3.679688 1562 8.464844 C 1566.78125 13.246094 1569.46875 19.730469 1569.46875 26.492188 L 1569.46875 833.503906 C 1569.46875 840.269531 1566.78125 846.753906 1562 851.535156 C 1557.214844 856.320312 1550.730469 859.003906 1543.96875 859.003906 L 26.03125 859.003906 C 19.269531 859.003906 12.78125 856.320312 8 851.535156 C 3.21875 846.753906 0.53125 840.269531 0.53125 833.503906 L 0.53125 26.492188 C 0.53125 19.730469 3.21875 13.246094 8 8.464844 C 12.78125 3.679688 19.269531 0.992188 26.03125 0.992188 Z M 26.03125 0.992188 " clip-rule="nonzero"/></clipPath><clipPath id="e918b0c429"><rect x="0" width="1570" y="0" height="860"/></clipPath><clipPath id="c4b9feaa3c"><path d="M 613.027344 650 L 1306.777344 650 L 1306.777344 910.140625 L 613.027344 910.140625 Z M 613.027344 650 " clip-rule="nonzero"/></clipPath><clipPath id="1b35c2108b"><path d="M 1194 642 L 1306.777344 642 L 1306.777344 755 L 1194 755 Z M 1194 642 " clip-rule="nonzero"/></clipPath><clipPath id="eeeb321cb9"><path d="M 957 118.140625 L 983 118.140625 L 983 180 L 957 180 Z M 957 118.140625 " clip-rule="nonzero"/></clipPath></defs><g clip-path="url(#6a6bca9962)"><g clip-path="url(#af614e6345)"><g transform="matrix(1, 0, 0, 1, 175, 110)"><g clip-path="url(#e918b0c429)"><g clip-path="url(#86f871b673)"><g clip-path="url(#91eefb0348)"><path fill="#f15e3d" d="M 0.53125 0.992188 L 1569.085938 0.992188 L 1569.085938 859.003906 L 0.53125 859.003906 Z M 0.53125 0.992188 " fill-opacity="1" fill-rule="nonzero"/></g></g></g></g></g></g><g clip-path="url(#c4b9feaa3c)"><path fill="#000000" d="M 1294.105469 885.558594 L 1221.246094 885.558594 C 1225.46875 873.675781 1223.886719 860.738281 1216.230469 850.4375 L 1194.320312 812.675781 C 1182.703125 792.605469 1176.632812 769.632812 1176.632812 746.65625 L 1176.632812 693.578125 C 1176.632812 670.074219 1157.363281 650.796875 1133.867188 650.796875 C 1133.074219 650.796875 1132.28125 650.796875 1131.492188 651.0625 L 938.519531 688.824219 C 913.175781 693.84375 888.890625 703.085938 866.449219 716.023438 L 687.996094 820.597656 C 672.949219 828.785156 663.183594 844.894531 663.183594 862.320312 C 663.183594 870.507812 665.296875 878.429688 668.992188 885.296875 L 625.433594 885.296875 C 618.570312 885.296875 613.027344 890.84375 613.027344 897.707031 C 613.027344 904.574219 618.570312 910.121094 625.433594 910.121094 L 710.964844 910.121094 C 710.964844 910.121094 710.964844 910.121094 711.226562 910.121094 C 711.226562 910.121094 711.226562 910.121094 711.492188 910.121094 L 1294.105469 910.121094 C 1300.96875 910.121094 1306.511719 904.574219 1306.511719 897.707031 C 1306.511719 890.84375 1300.96875 885.558594 1294.105469 885.558594 Z M 1185.871094 885.558594 C 1182.175781 885.558594 1178.480469 883.976562 1176.105469 881.070312 L 1141.257812 825.878906 C 1128.058594 804.753906 1120.929688 780.457031 1120.929688 755.371094 L 1120.929688 733.453125 C 1120.929688 729.757812 1119.082031 726.058594 1116.179688 723.683594 C 1114.066406 721.835938 1111.164062 721.042969 1108.523438 721.042969 C 1107.46875 721.042969 1106.675781 721.042969 1105.621094 721.304688 L 934.824219 763.03125 C 924.261719 765.671875 914.230469 769.632812 904.992188 775.175781 L 721.789062 883.183594 C 718.621094 884.769531 715.1875 885.824219 711.492188 885.824219 C 707.53125 885.824219 703.308594 884.769531 699.613281 882.390625 C 692.75 878.167969 688.527344 870.773438 688.527344 862.585938 C 688.527344 854.136719 693.011719 846.476562 700.667969 842.515625 L 879.386719 737.679688 C 899.449219 726.058594 921.09375 717.871094 943.796875 713.382812 L 1135.449219 675.886719 C 1144.953125 676.414062 1152.34375 684.335938 1152.34375 693.84375 L 1152.34375 746.921875 C 1152.34375 774.386719 1159.738281 801.585938 1173.464844 825.351562 L 1195.640625 863.90625 C 1195.902344 864.433594 1196.167969 864.960938 1196.429688 865.226562 C 1199.597656 869.1875 1199.863281 874.207031 1197.75 878.695312 C 1195.109375 882.917969 1190.886719 885.558594 1185.871094 885.558594 Z M 766.136719 885.558594 L 917.398438 796.566406 C 924.527344 792.34375 932.445312 789.171875 940.367188 787.324219 L 1096.117188 749.296875 L 1096.117188 755.371094 C 1096.117188 784.949219 1104.566406 813.996094 1120.402344 839.082031 L 1149.707031 885.558594 Z M 766.136719 885.558594 " fill-opacity="1" fill-rule="nonzero"/></g><g clip-path="url(#1b35c2108b)"><path fill="#000000" d="M 1250.8125 754.84375 C 1281.699219 754.84375 1306.777344 729.757812 1306.777344 698.859375 C 1306.777344 667.960938 1281.699219 642.875 1250.8125 642.875 C 1219.925781 642.875 1194.847656 667.960938 1194.847656 698.859375 C 1194.847656 729.757812 1219.925781 754.84375 1250.8125 754.84375 Z M 1250.8125 667.699219 C 1267.972656 667.699219 1281.960938 681.695312 1281.960938 698.859375 C 1281.960938 716.023438 1267.972656 730.019531 1250.8125 730.019531 C 1233.652344 730.019531 1219.660156 716.023438 1219.660156 698.859375 C 1219.660156 681.695312 1233.652344 667.699219 1250.8125 667.699219 Z M 1250.8125 667.699219 " fill-opacity="1" fill-rule="nonzero"/></g><path fill="#000000" d="M 764.289062 345.527344 L 801.246094 345.527344 C 808.109375 345.527344 813.652344 339.980469 813.652344 333.117188 C 813.652344 326.25 808.109375 320.703125 801.246094 320.703125 L 764.289062 320.703125 C 757.425781 320.703125 751.882812 326.25 751.882812 333.117188 C 751.882812 339.980469 757.425781 345.527344 764.289062 345.527344 Z M 764.289062 345.527344 " fill-opacity="1" fill-rule="nonzero"/><path fill="#000000" d="M 905.257812 348.433594 L 969.667969 348.433594 C 976.53125 348.433594 982.074219 342.886719 982.074219 336.019531 L 982.074219 236.464844 C 982.074219 229.597656 976.53125 224.054688 969.667969 224.054688 C 962.804688 224.054688 957.261719 229.597656 957.261719 236.464844 L 957.261719 323.609375 L 905.257812 323.609375 C 898.394531 323.609375 892.847656 329.15625 892.847656 336.019531 C 892.847656 342.621094 898.394531 348.433594 905.257812 348.433594 Z M 905.257812 348.433594 " fill-opacity="1" fill-rule="nonzero"/><g clip-path="url(#eeeb321cb9)"><path fill="#000000" d="M 969.667969 179.953125 C 976.53125 179.953125 982.074219 174.40625 982.074219 167.539062 L 982.074219 130.570312 C 982.074219 123.703125 976.53125 118.160156 969.667969 118.160156 C 962.804688 118.160156 957.261719 123.703125 957.261719 130.570312 L 957.261719 167.539062 C 957.261719 174.40625 962.804688 179.953125 969.667969 179.953125 Z M 969.667969 179.953125 " fill-opacity="1" fill-rule="nonzero"/></g><path fill="#000000" d="M 1137.828125 348.433594 C 1137.828125 348.433594 1174.785156 348.433594 1174.785156 348.433594 C 1181.648438 348.433594 1187.191406 342.886719 1187.191406 336.019531 C 1187.191406 329.15625 1181.648438 323.609375 1174.785156 323.609375 C 1174.785156 323.609375 1137.828125 323.609375 1137.828125 323.609375 C 1130.964844 323.609375 1125.417969 329.15625 1125.417969 336.019531 C 1125.417969 342.621094 1130.964844 348.433594 1137.828125 348.433594 Z M 1137.828125 348.433594 " fill-opacity="1" fill-rule="nonzero"/><path fill="#000000" d="M 969.667969 491.824219 C 962.804688 491.824219 957.261719 497.371094 957.261719 504.238281 L 957.261719 541.207031 C 957.261719 548.074219 962.804688 553.617188 969.667969 553.617188 C 976.53125 553.617188 982.074219 548.074219 982.074219 541.207031 L 982.074219 504.238281 C 982.074219 497.371094 976.53125 491.824219 969.667969 491.824219 Z M 969.667969 491.824219 " fill-opacity="1" fill-rule="nonzero"/><path fill="#000000" d="M 828.703125 209.792969 C 831.078125 212.167969 834.246094 213.488281 837.414062 213.488281 C 840.582031 213.488281 843.75 212.167969 846.125 209.792969 C 850.875 205.039062 850.875 197.117188 846.125 192.101562 L 832.925781 178.894531 C 830.550781 176.519531 827.382812 175.199219 824.214844 175.199219 C 821.046875 175.199219 817.878906 176.519531 815.503906 178.894531 C 810.75 183.648438 810.75 191.570312 815.503906 196.589844 Z M 828.703125 209.792969 " fill-opacity="1" fill-rule="nonzero"/><path fill="#000000" d="M 1110.371094 459.078125 C 1107.996094 456.703125 1104.828125 455.382812 1101.660156 455.382812 C 1098.492188 455.382812 1095.324219 456.703125 1092.949219 459.078125 C 1088.199219 463.832031 1088.199219 471.753906 1092.949219 476.773438 L 1106.148438 489.976562 C 1108.523438 492.351562 1111.691406 493.671875 1114.859375 493.671875 C 1118.027344 493.671875 1121.195312 492.351562 1123.570312 489.976562 C 1128.324219 485.222656 1128.324219 477.300781 1123.570312 472.285156 Z M 1110.371094 459.078125 " fill-opacity="1" fill-rule="nonzero"/><path fill="#000000" d="M 1101.660156 216.128906 C 1104.828125 216.128906 1107.996094 214.808594 1110.371094 212.433594 L 1123.570312 199.230469 C 1128.324219 194.476562 1128.324219 186.554688 1123.570312 181.535156 C 1121.195312 179.160156 1118.027344 177.839844 1114.859375 177.839844 C 1111.691406 177.839844 1108.523438 179.160156 1106.148438 181.535156 L 1092.949219 194.742188 C 1088.199219 199.492188 1088.199219 207.417969 1092.949219 212.433594 C 1095.324219 215.074219 1098.492188 216.128906 1101.660156 216.128906 Z M 1101.660156 216.128906 " fill-opacity="1" fill-rule="nonzero"/><path fill="#000000" d="M 837.414062 452.742188 C 834.246094 452.742188 831.078125 454.0625 828.703125 456.4375 L 815.503906 469.640625 C 810.75 474.394531 810.75 482.316406 815.503906 487.335938 C 817.878906 489.710938 821.046875 491.03125 824.214844 491.03125 C 827.382812 491.03125 830.550781 489.710938 832.925781 487.335938 L 846.125 474.132812 C 850.875 469.378906 850.875 461.457031 846.125 456.4375 C 843.75 454.0625 840.582031 452.742188 837.414062 452.742188 Z M 837.414062 452.742188 " fill-opacity="1" fill-rule="nonzero"/></svg>