<svg xmlns="http://www.w3.org/2000/svg" xmlns:xlink="http://www.w3.org/1999/xlink" width="512" zoomAndPan="magnify" viewBox="0 0 384 383.999986" height="512" preserveAspectRatio="xMidYMid meet" version="1.0"><defs><g/><clipPath id="2a04602ea4"><path d="M 26.328125 51.539062 L 346.632812 51.539062 L 346.632812 245.386719 L 26.328125 245.386719 Z M 26.328125 51.539062 " clip-rule="nonzero"/></clipPath><clipPath id="d5d4cbf6d8"><path d="M 76.578125 51.539062 L 296.019531 51.539062 C 309.34375 51.539062 322.125 56.832031 331.550781 66.257812 C 340.972656 75.679688 346.269531 88.460938 346.269531 101.789062 L 346.269531 195.136719 C 346.269531 208.464844 340.972656 221.246094 331.550781 230.667969 C 322.125 240.09375 309.34375 245.386719 296.019531 245.386719 L 76.578125 245.386719 C 63.25 245.386719 50.46875 240.09375 41.042969 230.667969 C 31.621094 221.246094 26.328125 208.464844 26.328125 195.136719 L 26.328125 101.789062 C 26.328125 88.460938 31.621094 75.679688 41.042969 66.257812 C 50.46875 56.832031 63.25 51.539062 76.578125 51.539062 Z M 76.578125 51.539062 " clip-rule="nonzero"/></clipPath><clipPath id="8b6611e216"><path d="M 0.328125 0.539062 L 320.320312 0.539062 L 320.320312 194.386719 L 0.328125 194.386719 Z M 0.328125 0.539062 " clip-rule="nonzero"/></clipPath><clipPath id="e64a8acc07"><path d="M 50.578125 0.539062 L 270.019531 0.539062 C 283.34375 0.539062 296.125 5.832031 305.550781 15.257812 C 314.972656 24.679688 320.269531 37.460938 320.269531 50.789062 L 320.269531 144.136719 C 320.269531 157.464844 314.972656 170.246094 305.550781 179.667969 C 296.125 189.09375 283.34375 194.386719 270.019531 194.386719 L 50.578125 194.386719 C 37.25 194.386719 24.46875 189.09375 15.042969 179.667969 C 5.621094 170.246094 0.328125 157.464844 0.328125 144.136719 L 0.328125 50.789062 C 0.328125 37.460938 5.621094 24.679688 15.042969 15.257812 C 24.46875 5.832031 37.25 0.539062 50.578125 0.539062 Z M 50.578125 0.539062 " clip-rule="nonzero"/></clipPath><clipPath id="480f2db103"><rect x="0" width="321" y="0" height="195"/></clipPath><clipPath id="dfe4fb4bd9"><rect x="0" width="149" y="0" height="69"/></clipPath><clipPath id="34009756e7"><path d="M 55.589844 65.972656 L 316.789062 65.972656 L 316.789062 208.855469 L 55.589844 208.855469 Z M 55.589844 65.972656 " clip-rule="nonzero"/></clipPath><clipPath id="6e94699894"><path d="M 59.644531 65.972656 L 312.726562 65.972656 C 314.964844 65.972656 316.78125 67.785156 316.78125 70.027344 L 316.78125 204.800781 C 316.78125 207.039062 314.964844 208.855469 312.726562 208.855469 L 59.644531 208.855469 C 57.40625 208.855469 55.589844 207.039062 55.589844 204.800781 L 55.589844 70.027344 C 55.589844 67.785156 57.40625 65.972656 59.644531 65.972656 Z M 59.644531 65.972656 " clip-rule="nonzero"/></clipPath><clipPath id="97afcad0be"><path d="M 59.644531 65.972656 L 312.726562 65.972656 C 314.964844 65.972656 316.78125 67.785156 316.78125 70.027344 L 316.78125 204.800781 C 316.78125 207.039062 314.964844 208.855469 312.726562 208.855469 L 59.644531 208.855469 C 57.40625 208.855469 55.589844 207.039062 55.589844 204.800781 L 55.589844 70.027344 C 55.589844 67.785156 57.40625 65.972656 59.644531 65.972656 Z M 59.644531 65.972656 " clip-rule="nonzero"/></clipPath><clipPath id="f52bb458ec"><path d="M 122.667969 91.171875 L 245.355469 91.171875 L 245.355469 202.808594 L 122.667969 202.808594 Z M 122.667969 91.171875 " clip-rule="nonzero"/></clipPath></defs><g clip-path="url(#2a04602ea4)"><g clip-path="url(#d5d4cbf6d8)"><g transform="matrix(1, 0, 0, 1, 26, 51)"><g clip-path="url(#480f2db103)"><g clip-path="url(#8b6611e216)"><g clip-path="url(#e64a8acc07)"><path fill="#f15e3d" d="M 0.328125 0.539062 L 320.632812 0.539062 L 320.632812 194.386719 L 0.328125 194.386719 Z M 0.328125 0.539062 " fill-opacity="1" fill-rule="nonzero"/></g></g></g></g></g></g><g transform="matrix(1, 0, 0, 1, 112, 269)"><g clip-path="url(#dfe4fb4bd9)"><g fill="#000000" fill-opacity="1"><g transform="translate(0.38707, 53.316493)"><g><path d="M 4.625 0 L 4.625 -35.609375 L 19.828125 -35.609375 C 22.015625 -35.609375 23.867188 -35.257812 25.390625 -34.5625 C 26.910156 -33.875 28.054688 -32.890625 28.828125 -31.609375 C 29.609375 -30.335938 30 -28.835938 30 -27.109375 C 30 -25.535156 29.617188 -24.144531 28.859375 -22.9375 C 28.097656 -21.738281 27.003906 -20.773438 25.578125 -20.046875 L 25.578125 -19.53125 C 27.816406 -18.945312 29.539062 -17.882812 30.75 -16.34375 C 31.96875 -14.800781 32.578125 -12.910156 32.578125 -10.671875 C 32.578125 -7.253906 31.550781 -4.617188 29.5 -2.765625 C 27.445312 -0.921875 24.398438 0 20.359375 0 Z M 18.359375 -21.40625 C 21.640625 -21.40625 23.28125 -22.882812 23.28125 -25.84375 C 23.28125 -27.351562 22.875 -28.472656 22.0625 -29.203125 C 21.25 -29.941406 20.015625 -30.3125 18.359375 -30.3125 L 11.671875 -30.3125 L 11.671875 -21.40625 Z M 19.65625 -5.578125 C 23.53125 -5.578125 25.46875 -7.335938 25.46875 -10.859375 C 25.46875 -14.398438 23.53125 -16.171875 19.65625 -16.171875 L 11.671875 -16.171875 L 11.671875 -5.578125 Z M 19.65625 -5.578125 "/></g></g></g><g fill="#000000" fill-opacity="1"><g transform="translate(35.206383, 53.316493)"><g><path d="M 15.609375 0.515625 C 12.984375 0.515625 10.675781 -0.0234375 8.6875 -1.109375 C 6.695312 -2.191406 5.148438 -3.773438 4.046875 -5.859375 C 2.953125 -7.941406 2.40625 -10.460938 2.40625 -13.421875 C 2.40625 -16.367188 2.953125 -18.890625 4.046875 -20.984375 C 5.148438 -23.085938 6.695312 -24.675781 8.6875 -25.75 C 10.675781 -26.832031 12.984375 -27.375 15.609375 -27.375 C 18.242188 -27.375 20.550781 -26.832031 22.53125 -25.75 C 24.519531 -24.675781 26.066406 -23.085938 27.171875 -20.984375 C 28.273438 -18.890625 28.828125 -16.367188 28.828125 -13.421875 C 28.828125 -10.460938 28.273438 -7.941406 27.171875 -5.859375 C 26.066406 -3.773438 24.519531 -2.191406 22.53125 -1.109375 C 20.550781 -0.0234375 18.242188 0.515625 15.609375 0.515625 Z M 15.609375 -5.21875 C 19.785156 -5.21875 21.875 -7.953125 21.875 -13.421875 C 21.875 -16.265625 21.335938 -18.347656 20.265625 -19.671875 C 19.191406 -20.992188 17.640625 -21.65625 15.609375 -21.65625 C 11.441406 -21.65625 9.359375 -18.910156 9.359375 -13.421875 C 9.359375 -7.953125 11.441406 -5.21875 15.609375 -5.21875 Z M 15.609375 -5.21875 "/></g></g></g><g fill="#000000" fill-opacity="1"><g transform="translate(66.42202, 53.316493)"><g><path d="M 3.875 0 L 3.875 -26.859375 L 10.421875 -26.859375 L 10.421875 -22.875 L 10.9375 -22.765625 C 11.582031 -24.265625 12.429688 -25.363281 13.484375 -26.0625 C 14.546875 -26.757812 15.832031 -27.109375 17.34375 -27.109375 C 18.863281 -27.109375 20.023438 -26.847656 20.828125 -26.328125 L 19.671875 -20.5 L 19.171875 -20.40625 C 18.734375 -20.582031 18.3125 -20.710938 17.90625 -20.796875 C 17.5 -20.878906 17 -20.921875 16.40625 -20.921875 C 14.53125 -20.921875 13.097656 -20.257812 12.109375 -18.9375 C 11.117188 -17.613281 10.625 -15.488281 10.625 -12.5625 L 10.625 0 Z M 3.875 0 "/></g></g></g><g fill="#000000" fill-opacity="1"><g transform="translate(86.777874, 53.316493)"><g><path d="M 26.546875 -11.90625 L 9.28125 -11.90625 C 9.476562 -9.570312 10.144531 -7.875 11.28125 -6.8125 C 12.414062 -5.75 13.960938 -5.21875 15.921875 -5.21875 C 17.460938 -5.21875 18.710938 -5.503906 19.671875 -6.078125 C 20.628906 -6.648438 21.398438 -7.519531 21.984375 -8.6875 L 22.5 -8.6875 L 26.984375 -5.828125 C 26.109375 -3.941406 24.785156 -2.410156 23.015625 -1.234375 C 21.242188 -0.0664062 18.878906 0.515625 15.921875 0.515625 C 13.148438 0.515625 10.753906 -0.0078125 8.734375 -1.0625 C 6.710938 -2.125 5.148438 -3.695312 4.046875 -5.78125 C 2.953125 -7.863281 2.40625 -10.410156 2.40625 -13.421875 C 2.40625 -16.472656 2.984375 -19.046875 4.140625 -21.140625 C 5.296875 -23.234375 6.851562 -24.796875 8.8125 -25.828125 C 10.78125 -26.859375 12.988281 -27.375 15.4375 -27.375 C 19.238281 -27.375 22.148438 -26.363281 24.171875 -24.34375 C 26.191406 -22.332031 27.203125 -19.378906 27.203125 -15.484375 C 27.203125 -14.078125 27.15625 -12.984375 27.0625 -12.203125 Z M 20.75 -16.265625 C 20.6875 -18.316406 20.210938 -19.804688 19.328125 -20.734375 C 18.441406 -21.671875 17.144531 -22.140625 15.4375 -22.140625 C 12.03125 -22.140625 10.023438 -20.179688 9.421875 -16.265625 Z M 20.75 -16.265625 "/></g></g></g><g fill="#000000" fill-opacity="1"><g transform="translate(115.972529, 53.316493)"><g><path d="M 13.265625 0.515625 C 11.140625 0.515625 9.257812 0 7.625 -1.03125 C 6 -2.0625 4.722656 -3.617188 3.796875 -5.703125 C 2.867188 -7.796875 2.40625 -10.367188 2.40625 -13.421875 C 2.40625 -16.484375 2.878906 -19.054688 3.828125 -21.140625 C 4.785156 -23.234375 6.101562 -24.796875 7.78125 -25.828125 C 9.457031 -26.859375 11.398438 -27.375 13.609375 -27.375 C 15.285156 -27.375 16.734375 -27.082031 17.953125 -26.5 C 19.179688 -25.925781 20.21875 -25.03125 21.0625 -23.8125 L 21.578125 -23.9375 L 21.578125 -37.65625 L 28.328125 -37.65625 L 28.328125 0 L 21.578125 0 L 21.578125 -3.484375 L 21.0625 -3.578125 C 20.3125 -2.316406 19.285156 -1.316406 17.984375 -0.578125 C 16.691406 0.148438 15.117188 0.515625 13.265625 0.515625 Z M 15.46875 -5.21875 C 17.363281 -5.21875 18.863281 -5.894531 19.96875 -7.25 C 21.070312 -8.601562 21.625 -10.660156 21.625 -13.421875 C 21.625 -16.179688 21.070312 -18.242188 19.96875 -19.609375 C 18.863281 -20.972656 17.363281 -21.65625 15.46875 -21.65625 C 13.488281 -21.65625 11.972656 -20.992188 10.921875 -19.671875 C 9.878906 -18.347656 9.359375 -16.265625 9.359375 -13.421875 C 9.359375 -10.597656 9.878906 -8.523438 10.921875 -7.203125 C 11.972656 -5.878906 13.488281 -5.21875 15.46875 -5.21875 Z M 15.46875 -5.21875 "/></g></g></g></g></g><g clip-path="url(#34009756e7)"><g clip-path="url(#6e94699894)"><g clip-path="url(#97afcad0be)"><path fill="#f15e3d" d="M 55.589844 65.972656 L 316.71875 65.972656 L 316.71875 208.855469 L 55.589844 208.855469 Z M 55.589844 65.972656 " fill-opacity="1" fill-rule="nonzero"/></g></g></g><g clip-path="url(#f52bb458ec)"><path fill="#000000" d="M 184.171875 10.484375 L 181.003906 10.445312 C 113.078125 10.445312 58.011719 65.527344 58.011719 133.472656 L 58.050781 136.644531 C 59.707031 202.070312 112.421875 254.800781 177.824219 256.457031 L 181 256.496094 C 247.863281 256.496094 302.261719 203.125 303.945312 136.644531 L 303.984375 133.472656 C 303.988281 66.589844 250.628906 12.167969 184.171875 10.484375 Z M 181 249.6875 C 116.835938 249.6875 64.820312 197.65625 64.820312 133.472656 C 64.820312 69.289062 116.835938 17.257812 181 17.257812 C 245.164062 17.257812 297.175781 69.289062 297.175781 133.476562 C 297.175781 197.65625 245.164062 249.6875 181 249.6875 Z M 181 249.6875 " fill-opacity="1" fill-rule="nonzero"/></g><path fill="#000000" d="M 218.785156 95.792969 C 213.707031 95.792969 209.589844 101.402344 209.589844 108.324219 C 209.589844 115.246094 213.707031 120.855469 218.785156 120.855469 C 223.867188 120.855469 227.984375 115.246094 227.984375 108.324219 C 227.984375 101.402344 223.867188 95.792969 218.785156 95.792969 Z M 218.785156 95.792969 " fill-opacity="1" fill-rule="nonzero"/><path fill="#000000" d="M 152.414062 122.222656 C 157.492188 122.222656 161.609375 116.613281 161.609375 109.691406 C 161.609375 102.773438 157.492188 97.164062 152.414062 97.164062 C 147.332031 97.164062 143.214844 102.773438 143.214844 109.691406 C 143.214844 116.613281 147.332031 122.222656 152.414062 122.222656 Z M 152.414062 122.222656 " fill-opacity="1" fill-rule="nonzero"/><path fill="#000000" d="M 219.921875 165.347656 C 203.980469 159.71875 186.746094 162.070312 172.371094 167.65625 C 158.070312 173.214844 145.960938 182.222656 140.371094 190.714844 C 139.339844 192.285156 139.773438 194.402344 141.34375 195.4375 C 142.914062 196.472656 145.027344 196.03125 146.058594 194.460938 C 150.625 187.523438 161.367188 179.242188 174.839844 174.007812 C 188.242188 168.800781 203.722656 166.859375 217.65625 171.777344 C 219.425781 172.402344 221.371094 171.472656 221.996094 169.699219 C 222.621094 167.925781 221.695312 165.976562 219.921875 165.351562 Z M 219.921875 165.347656 " fill-opacity="1" fill-rule="nonzero"/></svg>